<svg width="159" height="38" viewBox="0 0 159 38" fill="none" xmlns="http://www.w3.org/2000/svg">
<path d="M16.8815 11.1601C16.8988 11.1602 16.9153 11.167 16.9276 11.1791L20.7095 14.9611L22.6236 13.0471L16.8836 7.30713L11.1436 13.0471L13.0576 14.9611L16.8396 11.1791C16.8455 11.173 16.8527 11.1682 16.8606 11.1649C16.8685 11.1616 16.877 11.16 16.8856 11.1601H16.8815Z" fill="white"/>
<path d="M4.60271 12.2452V19.1452C4.6025 19.3838 4.50753 19.6126 4.3387 19.7812L0.263702 23.9462C0.180099 24.0298 0.113775 24.129 0.0685272 24.2382C0.0232796 24.3474 0 24.4645 0 24.5827C0 24.7009 0.0232796 24.818 0.0685272 24.9272C0.113775 25.0364 0.180099 25.1356 0.263702 25.2192L10.4707 35.3362C10.5543 35.4198 10.6535 35.4861 10.7627 35.5314C10.8719 35.5766 10.989 35.5999 11.1072 35.5999C11.2254 35.5999 11.3425 35.5766 11.4517 35.5314C11.5609 35.4861 11.6601 35.4198 11.7437 35.3362L14.9337 32.1452L13.0217 30.2332L11.2437 32.0092C11.2377 32.0153 11.2305 32.0201 11.2226 32.0233C11.2147 32.0266 11.2063 32.0283 11.1977 32.0283C11.1892 32.0283 11.1807 32.0266 11.1728 32.0233C11.1649 32.0201 11.1577 32.0153 11.1517 32.0092L3.5887 24.5372C3.58265 24.5312 3.57786 24.524 3.57458 24.5161C3.57131 24.5082 3.56963 24.4998 3.56963 24.4912C3.56963 24.4827 3.57131 24.4742 3.57458 24.4663C3.57786 24.4584 3.58265 24.4512 3.5887 24.4452L7.30571 20.6382V13.0162C7.30559 13.0077 7.3072 12.9992 7.31047 12.9913C7.31374 12.9833 7.31858 12.9762 7.32471 12.9702L16.7997 3.49721C16.8057 3.49116 16.8129 3.48637 16.8208 3.48309C16.8287 3.47982 16.8372 3.47814 16.8457 3.47814C16.8542 3.47814 16.8627 3.47982 16.8706 3.48309C16.8785 3.48637 16.8857 3.49116 16.8917 3.49721L26.3627 12.9732C26.3688 12.9792 26.3737 12.9863 26.3769 12.9943C26.3802 13.0022 26.3818 13.0107 26.3817 13.0192V20.6492L30.1817 24.4832C30.1877 24.4891 30.1924 24.4961 30.1957 24.5038C30.1989 24.5115 30.2006 24.5198 30.2006 24.5282C30.2006 24.5366 30.1989 24.5449 30.1957 24.5526C30.1924 24.5603 30.1877 24.5673 30.1817 24.5732L22.6307 32.1062C22.6247 32.1123 22.6175 32.1171 22.6096 32.1203C22.6017 32.1236 22.5932 32.1253 22.5847 32.1253C22.5762 32.1253 22.5677 32.1236 22.5598 32.1203C22.5519 32.1171 22.5447 32.1123 22.5387 32.1062L13.0627 22.6302C13.0567 22.6243 13.052 22.6173 13.0487 22.6096C13.0455 22.6019 13.0438 22.5936 13.0438 22.5852C13.0438 22.5768 13.0455 22.5685 13.0487 22.5608C13.052 22.5531 13.0567 22.5461 13.0627 22.5402L16.7807 18.8942C16.7867 18.8882 16.7939 18.8834 16.8018 18.8801C16.8097 18.8768 16.8182 18.8751 16.8267 18.8751C16.8353 18.8751 16.8437 18.8768 16.8516 18.8801C16.8595 18.8834 16.8667 18.8882 16.8727 18.8942L20.5357 22.5512C20.5417 22.5571 20.5465 22.5641 20.5497 22.5718C20.5529 22.5795 20.5546 22.5878 20.5546 22.5962C20.5546 22.6046 20.5529 22.6129 20.5497 22.6206C20.5465 22.6283 20.5417 22.6353 20.5357 22.6412L18.7597 24.4972L20.6447 26.3822L24.4707 22.5562L16.8277 14.9292L9.2157 22.5552L21.9757 35.3342C22.0593 35.4178 22.1585 35.4841 22.2677 35.5294C22.3769 35.5746 22.494 35.5979 22.6122 35.5979C22.7304 35.5979 22.8475 35.5746 22.9567 35.5294C23.0659 35.4841 23.1651 35.4178 23.2487 35.3342L33.4287 25.1342C33.5123 25.0506 33.5786 24.9514 33.6239 24.8422C33.6691 24.733 33.6924 24.6159 33.6924 24.4977C33.6924 24.3795 33.6691 24.2624 33.6239 24.1532C33.5786 24.044 33.5123 23.9448 33.4287 23.8612L29.3847 19.8482C29.2168 19.6806 29.122 19.4534 29.1207 19.2162V12.1702C29.1197 11.9341 29.026 11.7078 28.8597 11.5402L17.4867 0.265212C17.4031 0.181158 17.3037 0.114457 17.1942 0.0689436C17.0847 0.02343 16.9673 0 16.8487 0C16.7301 0 16.6127 0.02343 16.5032 0.0689436C16.3937 0.114457 16.2943 0.181158 16.2107 0.265212L4.86771 11.6082C4.69888 11.7768 4.60391 12.0056 4.6037 12.2442L4.60271 12.2452Z" fill="white"/>
<path d="M14.9697 36.0043L16.8837 37.9183L18.7957 36.0043L16.8837 34.0923L14.9697 36.0043Z" fill="white"/>
<path opacity="0.39" d="M7.31152 9.1643V13.0083L7.31953 12.9833C7.41453 12.8913 7.68252 12.6283 7.87152 12.4263L9.96452 10.3373V6.5083L7.31152 9.1643V9.1643Z" fill="white"/>
<path opacity="0.39" d="M16.8669 11.147L15.0269 9.16699L12.1709 12.021L15.0269 12.993L16.8669 11.147Z" fill="white"/>
<path opacity="0.39" d="M4.58522 23.4423L4.50722 20.2323V19.5513C4.36429 19.7608 4.19639 19.9523 4.00722 20.1213L1.90723 22.2633L2.20023 25.8803L4.57622 23.4413L4.58522 23.4423Z" fill="white"/>
<path opacity="0.39" d="M29.1611 23.4453L29.1691 19.4893L29.2021 19.5743C29.2435 19.6629 29.2974 19.745 29.3622 19.8183C29.4902 19.9483 29.5621 20.0183 29.6621 20.1113L31.8622 22.3163V26.1673L29.1611 23.4453Z" fill="white"/>
<path opacity="0.39" d="M26.4941 9.18904L26.3801 12.989C26.3801 12.989 26.0051 12.614 25.8291 12.444L23.8291 10.434L23.9291 6.66504L26.4931 9.19304L26.4941 9.18904Z" fill="white"/>
<path d="M62.1305 13.316V16.794C62.1303 18.0872 61.6165 19.3272 60.7021 20.2416C59.7877 21.1559 58.5476 21.6697 57.2545 21.67H47.7725V29.482H43.4365V8.43604H57.2545C58.5476 8.4363 59.7877 8.9501 60.7021 9.86447C61.6165 10.7788 62.1303 12.0189 62.1305 13.312V13.316ZM57.7945 14.14C57.7947 13.9605 57.7594 13.7826 57.6907 13.6167C57.6221 13.4508 57.5214 13.3001 57.3944 13.1731C57.2675 13.0462 57.1167 12.9455 56.9508 12.8768C56.7849 12.8081 56.6071 12.7729 56.4275 12.773H47.7725V17.336H56.4305C56.61 17.3362 56.7877 17.3009 56.9536 17.2323C57.1194 17.1637 57.2701 17.0631 57.3971 16.9363C57.524 16.8094 57.6247 16.6588 57.6934 16.493C57.7622 16.3272 57.7975 16.1495 57.7975 15.97V14.136L57.7945 14.14Z" fill="white"/>
<path d="M69.3575 8.43799H80.4664C81.7596 8.43825 82.9996 8.95205 83.914 9.86642C84.8284 10.7808 85.3422 12.0209 85.3424 13.314V24.608C85.3422 25.9011 84.8284 27.1412 83.914 28.0555C82.9996 28.9699 81.7596 29.4837 80.4664 29.484H69.3575C68.0643 29.4837 66.8243 28.9699 65.9099 28.0555C64.9955 27.1412 64.4817 25.9011 64.4814 24.608V13.318C64.4811 12.6774 64.6069 12.0429 64.8517 11.451C65.0966 10.859 65.4557 10.321 65.9085 9.86786C66.3613 9.41468 66.8989 9.05515 67.4907 8.80981C68.0825 8.56448 68.7168 8.43812 69.3575 8.43799V8.43799ZM70.1815 25.147H79.6414C79.8206 25.1473 79.9981 25.1122 80.1637 25.0437C80.3293 24.9752 80.4798 24.8748 80.6065 24.7481C80.7332 24.6214 80.8337 24.4709 80.9022 24.3053C80.9706 24.1397 81.0057 23.9622 81.0054 23.783V14.138C81.0056 13.9584 80.9703 13.7806 80.9017 13.6147C80.833 13.4488 80.7323 13.298 80.6054 13.1711C80.4784 13.0441 80.3276 12.9434 80.1617 12.8748C79.9958 12.8061 79.818 12.7709 79.6385 12.771H70.1785C69.816 12.7713 69.4684 12.9154 69.2121 13.1717C68.9558 13.428 68.8117 13.7755 68.8114 14.138V23.782C68.8114 23.9614 68.8468 24.139 68.9156 24.3047C68.9843 24.4703 69.085 24.6209 69.212 24.7476C69.339 24.8743 69.4897 24.9747 69.6555 25.043C69.8214 25.1114 69.9991 25.1464 70.1785 25.146L70.1815 25.147Z" fill="white"/>
<path d="M113.882 8.43799V29.483H109.548V15.994L103.934 28.668H98.659L93.045 15.994V29.482H88.709V8.43799H94.67L101.295 23.73L107.92 8.43799H113.881H113.882Z" fill="white"/>
<path d="M136.539 13.408V29.481H132.203V22.751H121.725V29.481H117.389V13.408C117.389 12.0894 117.913 10.8247 118.845 9.89231C119.777 8.95988 121.042 8.43604 122.361 8.43604H131.561C132.214 8.43525 132.861 8.56326 133.465 8.81278C134.069 9.06229 134.618 9.4284 135.08 9.89017C135.543 10.3519 135.909 10.9003 136.16 11.5039C136.41 12.1076 136.539 12.7546 136.539 13.408V13.408ZM132.203 18.415V14.069C132.203 13.8983 132.169 13.7293 132.104 13.5715C132.038 13.4138 131.943 13.2705 131.822 13.1498C131.701 13.0291 131.558 12.9333 131.4 12.868C131.242 12.8027 131.073 12.769 130.903 12.769H123.026C122.681 12.769 122.35 12.906 122.106 13.1498C121.863 13.3936 121.726 13.7243 121.726 14.069V18.415H132.204H132.203Z" fill="white"/>
<path d="M144.477 24.767C144.598 24.8877 144.741 24.9834 144.899 25.0486C145.057 25.1138 145.226 25.1472 145.397 25.147H158.455V29.483H144.729C143.411 29.4828 142.146 28.9589 141.214 28.0268C140.282 27.0946 139.758 25.8303 139.758 24.512V13.408C139.758 12.7551 139.886 12.1086 140.136 11.5054C140.386 10.9022 140.752 10.3541 141.213 9.89236C141.675 9.43066 142.223 9.06439 142.826 8.81451C143.429 8.56464 144.076 8.43604 144.729 8.43604H158.177V12.772H145.393C145.048 12.772 144.717 12.909 144.474 13.1528C144.23 13.3966 144.093 13.7272 144.093 14.072V23.845C144.093 24.0164 144.127 24.1861 144.193 24.3444C144.259 24.5026 144.355 24.6463 144.477 24.767V24.767Z" fill="white"/>
</svg>
