<svg width="20" height="20" viewBox="0 0 20 20" fill="none" xmlns="http://www.w3.org/2000/svg">
<path d="M11.875 12.5087C11.875 12.655 11.8238 12.7967 11.7301 12.9091C11.6365 13.0215 11.5064 13.0974 11.3625 13.1237L11.25 13.1337H7.5C7.34382 13.134 7.19319 13.0758 7.07777 12.9706C6.96235 12.8654 6.89052 12.7208 6.87641 12.5652C6.86229 12.4097 6.90693 12.2545 7.00152 12.1302C7.09612 12.0059 7.23382 11.9216 7.3875 11.8938L7.5 11.8837H11.25C11.4158 11.8837 11.5747 11.9496 11.6919 12.0668C11.8092 12.184 11.875 12.343 11.875 12.5087ZM11.3625 9.365C11.5162 9.33717 11.6539 9.25282 11.7485 9.12854C11.8431 9.00426 11.8877 8.84907 11.8736 8.69353C11.8595 8.53798 11.7876 8.39336 11.6722 8.28814C11.5568 8.18291 11.4062 8.12471 11.25 8.125H7.5L7.3875 8.135C7.23382 8.16283 7.09612 8.24718 7.00152 8.37146C6.90693 8.49574 6.86229 8.65093 6.87641 8.80647C6.89052 8.96202 6.96235 9.10664 7.07777 9.21186C7.19319 9.31709 7.34382 9.37529 7.5 9.375H11.25L11.3625 9.365ZM11.875 4.99C11.8753 5.1365 11.8242 5.27846 11.7305 5.39109C11.6369 5.50373 11.5066 5.57988 11.3625 5.60625L11.25 5.61625H7.5C7.34382 5.61654 7.19319 5.55834 7.07777 5.45311C6.96235 5.34789 6.89052 5.20327 6.87641 5.04772C6.86229 4.89218 6.90693 4.73699 7.00152 4.61271C7.09612 4.48843 7.23382 4.40408 7.3875 4.37625L7.5 4.36625H11.25C11.4158 4.36625 11.5747 4.4321 11.6919 4.54931C11.8092 4.66652 11.875 4.82424 11.875 4.99ZM3.75 3.39375C3.75 2.21 4.70875 1.25 5.89125 1.25H12.8587C14.0412 1.25 15 2.21 15 3.3925V14.1075C15 15.2913 14.0412 16.25 12.8587 16.25H5.89125C5.32324 16.2497 4.77861 16.0238 4.37708 15.622C3.97556 15.2203 3.75 14.6755 3.75 14.1075V3.39375ZM12.8587 2.5H5.89125C5.65476 2.50033 5.42807 2.59451 5.26097 2.76185C5.09386 2.92919 5 3.15601 5 3.3925V14.1075C5 14.6013 5.4 15 5.89125 15H12.8587C13.35 15 13.75 14.6 13.75 14.1075V3.3925C13.75 3.15601 13.6561 2.92919 13.489 2.76185C13.3219 2.59451 13.0952 2.50033 12.8587 2.5ZM16.25 13.75V3.96C16.9888 4.31 17.5 5.06375 17.5 5.9375V14.0125C17.5 15.269 17.0009 16.474 16.1124 17.3624C15.224 18.2509 14.019 18.75 12.7625 18.75H7.5C7.16848 18.75 6.85054 18.6183 6.61612 18.3839C6.3817 18.1495 6.25 17.8315 6.25 17.5H12.5C13.4946 17.5 14.4484 17.1049 15.1517 16.4017C15.8549 15.6984 16.25 14.7446 16.25 13.75Z" fill="#2D5EE6"/>
</svg>
