<?xml version="1.0" encoding="UTF-8" standalone="no"?><!-- Generator: Gravit.io --><svg xmlns="http://www.w3.org/2000/svg" xmlns:xlink="http://www.w3.org/1999/xlink" style="isolation:isolate" viewBox="0 0 980 786" width="980pt" height="786pt"><defs><clipPath id="_clipPath_MwdCgs9IP1ft4bmI8VnCm3yVVsquK6il"><rect width="980" height="786"/></clipPath></defs><g clip-path="url(#_clipPath_MwdCgs9IP1ft4bmI8VnCm3yVVsquK6il)"><g><g><path d=" M 94.841 676.498 L 94.841 706.138 L 112.224 706.138 C 105.382 696.911 99.554 686.973 94.841 676.498 L 94.841 676.498 Z " fill="rgb(223,223,223)"/></g><g><mask id="_mask_kNKh5dHyXUv772LjSR6CHCJVmQJIMHP5" x="-200%" y="-200%" width="400%" height="400%"><rect x="-200%" y="-200%" width="400%" height="400%" style="fill:white;"/><path d=" M 99.096 251.234 L 99.096 251.234 L 70.938 251.234 L 70.938 474.35" fill="black" stroke="none"/></mask><path d=" M 99.096 251.234 L 99.096 251.234 L 70.938 251.234 L 70.938 474.35" fill="none"/><path d=" M 99.096 251.234 L 99.096 251.234 L 70.938 251.234 L 70.938 474.35" fill="none" mask="url(#_mask_kNKh5dHyXUv772LjSR6CHCJVmQJIMHP5)" vector-effect="non-scaling-stroke" stroke-width="8" stroke="rgb(223,223,223)" stroke-linejoin="miter" stroke-linecap="butt" stroke-miterlimit="20"/></g><g><mask id="_mask_7EPO5kSLixeFbfavRpk0X038eQ2aniuA" x="-200%" y="-200%" width="400%" height="400%"><rect x="-200%" y="-200%" width="400%" height="400%" style="fill:white;"/><path d=" M 529.474 92.19 L 529.474 407.573 L 538.615 407.573 L 538.615 407.573" fill="black" stroke="none"/></mask><path d=" M 529.474 92.19 L 529.474 407.573 L 538.615 407.573 L 538.615 407.573" fill="none"/><path d=" M 529.474 92.19 L 529.474 407.573 L 538.615 407.573 L 538.615 407.573" fill="none" mask="url(#_mask_7EPO5kSLixeFbfavRpk0X038eQ2aniuA)" vector-effect="non-scaling-stroke" stroke-width="8" stroke="rgb(223,223,223)" stroke-linejoin="miter" stroke-linecap="butt" stroke-miterlimit="20"/></g><g><mask id="_mask_RDB5NRu0l43tJE0wAjGTmUQMAqJHTemu" x="-200%" y="-200%" width="400%" height="400%"><rect x="-200%" y="-200%" width="400%" height="400%" style="fill:white;"/><line x1="828.077" y1="753.677" x2="768.29" y2="653.072" fill="black" stroke="none"/></mask><line x1="828.077" y1="753.677" x2="768.29" y2="653.072" mask="url(#_mask_RDB5NRu0l43tJE0wAjGTmUQMAqJHTemu)" vector-effect="non-scaling-stroke" stroke-width="8" stroke="rgb(0,0,0)" stroke-linejoin="round" stroke-linecap="round" stroke-miterlimit="20"/></g><g><mask id="_mask_oxCNBBYjVZcV9Vdxa4Bq9YQqsHKrR3j5" x="-200%" y="-200%" width="400%" height="400%"><rect x="-200%" y="-200%" width="400%" height="400%" style="fill:white;"/><line x1="855.021" y1="753.677" x2="795.454" y2="653.435" fill="black" stroke="none"/></mask><line x1="855.021" y1="753.677" x2="795.454" y2="653.435" mask="url(#_mask_oxCNBBYjVZcV9Vdxa4Bq9YQqsHKrR3j5)" vector-effect="non-scaling-stroke" stroke-width="8" stroke="rgb(0,0,0)" stroke-linejoin="round" stroke-linecap="round" stroke-miterlimit="20"/></g><g><mask id="_mask_Zux3ehaobgfzVwpvgLocAceawmyVdLDW" x="-200%" y="-200%" width="400%" height="400%"><rect x="-200%" y="-200%" width="400%" height="400%" style="fill:white;"/><line x1="661.365" y1="745.808" x2="716.343" y2="653.292" fill="black" stroke="none"/></mask><line x1="661.365" y1="745.808" x2="716.343" y2="653.292" mask="url(#_mask_Zux3ehaobgfzVwpvgLocAceawmyVdLDW)" vector-effect="non-scaling-stroke" stroke-width="8" stroke="rgb(0,0,0)" stroke-linejoin="round" stroke-linecap="round" stroke-miterlimit="20"/></g><g><mask id="_mask_Sqy2W6o9aB2buD2wO0ph0eQzdozt1vdI" x="-200%" y="-200%" width="400%" height="400%"><rect x="-200%" y="-200%" width="400%" height="400%" style="fill:white;"/><path d=" M 806.402 428.838 L 806.402 428.838 L 891.383 428.838 L 891.383 428.838 L 829.683 652.412 L 829.683 652.412 L 673.183 652.412 L 673.183 652.412 L 673.183 644.448 L 673.183 644.448 L 789.248 644.448 L 789.248 644.448 L 791.734 592.348 L 791.734 592.348" fill="black" stroke="none"/></mask><path d=" M 806.402 428.838 L 806.402 428.838 L 891.383 428.838 L 891.383 428.838 L 829.683 652.412 L 829.683 652.412 L 673.183 652.412 L 673.183 652.412 L 673.183 644.448 L 673.183 644.448 L 789.248 644.448 L 789.248 644.448 L 791.734 592.348 L 791.734 592.348" fill="none"/><path d=" M 806.402 428.838 L 806.402 428.838 L 891.383 428.838 L 891.383 428.838 L 829.683 652.412 L 829.683 652.412 L 673.183 652.412 L 673.183 652.412 L 673.183 644.448 L 673.183 644.448 L 789.248 644.448 L 789.248 644.448 L 791.734 592.348 L 791.734 592.348" fill="none" mask="url(#_mask_Sqy2W6o9aB2buD2wO0ph0eQzdozt1vdI)" vector-effect="non-scaling-stroke" stroke-width="5" stroke="rgb(0,0,0)" stroke-linejoin="round" stroke-linecap="round" stroke-miterlimit="20"/></g><g><path d=" M 618.405 575.567 C 605.545 575.567 541.359 725.002 541.359 730.462 C 541.359 735.922 555.29 742.117 557.346 742.117 C 560.549 739.144 621.991 650.328 628.387 644.132 C 634.784 637.936 618.405 575.567 618.405 575.567 Z " fill="rgb(45,94,230)"/></g><g><mask id="_mask_5RK8xk7HbRlvXIoy5EUL549Nb0iJN6Xz" x="-200%" y="-200%" width="400%" height="400%"><rect x="-200%" y="-200%" width="400%" height="400%" style="fill:white;"/><path d=" M 654.385 501.15 C 650.468 497.998 645.567 496.326 640.54 496.427 C 630.319 496.427 622.029 502.709 622.029 510.454" fill="black" stroke="none"/></mask><path d=" M 654.385 501.15 C 650.468 497.998 645.567 496.326 640.54 496.427 C 630.319 496.427 622.029 502.709 622.029 510.454" fill="none"/><path d=" M 654.385 501.15 C 650.468 497.998 645.567 496.326 640.54 496.427 C 630.319 496.427 622.029 502.709 622.029 510.454" fill="none" mask="url(#_mask_5RK8xk7HbRlvXIoy5EUL549Nb0iJN6Xz)" vector-effect="non-scaling-stroke" stroke-width="5" stroke="rgb(0,0,0)" stroke-linejoin="round" stroke-linecap="round" stroke-miterlimit="20"/></g><g><mask id="_mask_O7P2zaX6wL8C8qSg94zdogPeStBCsVmf" x="-200%" y="-200%" width="400%" height="400%"><rect x="-200%" y="-200%" width="400%" height="400%" style="fill:white;"/><path d=" M 712.89 471.377 C 706.418 477.295 697.899 487.363 693.864 499.105" fill="black" stroke="none"/></mask><path d=" M 712.89 471.377 C 706.418 477.295 697.899 487.363 693.864 499.105" fill="none"/><path d=" M 712.89 471.377 C 706.418 477.295 697.899 487.363 693.864 499.105" fill="none" mask="url(#_mask_O7P2zaX6wL8C8qSg94zdogPeStBCsVmf)" vector-effect="non-scaling-stroke" stroke-width="5" stroke="rgb(0,0,0)" stroke-linejoin="round" stroke-linecap="round" stroke-miterlimit="20"/></g><g><mask id="_mask_EztGeXvtBMDQyWzwF6P9OVVtUE4hwZI4" x="-200%" y="-200%" width="400%" height="400%"><rect x="-200%" y="-200%" width="400%" height="400%" style="fill:white;"/><path d=" M 747.618 438.017 C 745.401 437.048 743.018 436.515 740.6 436.449 C 727.482 436.449 705.29 460.352 705.29 463.355 C 705.29 465.975 717.26 476.291 728.447 479.552" fill="black" stroke="none"/></mask><path d=" M 747.618 438.017 C 745.401 437.048 743.018 436.515 740.6 436.449 C 727.482 436.449 705.29 460.352 705.29 463.355 C 705.29 465.975 717.26 476.291 728.447 479.552" fill="none"/><path d=" M 747.618 438.017 C 745.401 437.048 743.018 436.515 740.6 436.449 C 727.482 436.449 705.29 460.352 705.29 463.355 C 705.29 465.975 717.26 476.291 728.447 479.552" fill="none" mask="url(#_mask_EztGeXvtBMDQyWzwF6P9OVVtUE4hwZI4)" vector-effect="non-scaling-stroke" stroke-width="5" stroke="rgb(0,0,0)" stroke-linejoin="round" stroke-linecap="round" stroke-miterlimit="20"/></g><g><mask id="_mask_qjEx7A54v45F8nTwqN71rQ9Hl0AvvaVB" x="-200%" y="-200%" width="400%" height="400%"><rect x="-200%" y="-200%" width="400%" height="400%" style="fill:white;"/><path d=" M 725.378 503.034 C 727.798 467.82 738.602 434.278 768.175 425.329" fill="black" stroke="none"/></mask><path d=" M 725.378 503.034 C 727.798 467.82 738.602 434.278 768.175 425.329" fill="none"/><path d=" M 725.378 503.034 C 727.798 467.82 738.602 434.278 768.175 425.329" fill="none" mask="url(#_mask_qjEx7A54v45F8nTwqN71rQ9Hl0AvvaVB)" vector-effect="non-scaling-stroke" stroke-width="5" stroke="rgb(0,0,0)" stroke-linejoin="round" stroke-linecap="round" stroke-miterlimit="20"/></g><g><mask id="_mask_MQ74o7au03xAkfWvj7QpELsfreLTtmON" x="-200%" y="-200%" width="400%" height="400%"><rect x="-200%" y="-200%" width="400%" height="400%" style="fill:white;"/><path d=" M 834.34 473.872 C 847.592 523.782 838.566 593.093 832.562 597.587 C 823.125 604.672 740.772 605.313 735.408 598.237 C 733.152 595.254 725.942 563.683 724.891 528.133" fill="black" stroke="none"/></mask><path d=" M 834.34 473.872 C 847.592 523.782 838.566 593.093 832.562 597.587 C 823.125 604.672 740.772 605.313 735.408 598.237 C 733.152 595.254 725.942 563.683 724.891 528.133" fill="none"/><path d=" M 834.34 473.872 C 847.592 523.782 838.566 593.093 832.562 597.587 C 823.125 604.672 740.772 605.313 735.408 598.237 C 733.152 595.254 725.942 563.683 724.891 528.133" fill="none" mask="url(#_mask_MQ74o7au03xAkfWvj7QpELsfreLTtmON)" vector-effect="non-scaling-stroke" stroke-width="5" stroke="rgb(0,0,0)" stroke-linejoin="round" stroke-linecap="round" stroke-miterlimit="20"/></g><g><mask id="_mask_Xmcz2kPVnkVn38iUqrcqI4dBOz0fB9JN" x="-200%" y="-200%" width="400%" height="400%"><rect x="-200%" y="-200%" width="400%" height="400%" style="fill:white;"/><path d=" M 797.825 424.946 C 809.222 428.551 817.837 436.956 824.262 448.219" fill="black" stroke="none"/></mask><path d=" M 797.825 424.946 C 809.222 428.551 817.837 436.956 824.262 448.219" fill="none"/><path d=" M 797.825 424.946 C 809.222 428.551 817.837 436.956 824.262 448.219" fill="none" mask="url(#_mask_Xmcz2kPVnkVn38iUqrcqI4dBOz0fB9JN)" vector-effect="non-scaling-stroke" stroke-width="5" stroke="rgb(0,0,0)" stroke-linejoin="round" stroke-linecap="round" stroke-miterlimit="20"/></g><g><mask id="_mask_0mNQUY8yp9G1YYXcdURdzvwvihXLchK4" x="-200%" y="-200%" width="400%" height="400%"><rect x="-200%" y="-200%" width="400%" height="400%" style="fill:white;"/><path d=" M 783.005 435.416 C 790.415 435.416 797.825 433.848 797.825 430.636 L 797.825 398.806 L 797.825 398.806" fill="black" stroke="none"/></mask><path d=" M 783.005 435.416 C 790.415 435.416 797.825 433.848 797.825 430.636 L 797.825 398.806 L 797.825 398.806" fill="none"/><path d=" M 783.005 435.416 C 790.415 435.416 797.825 433.848 797.825 430.636 L 797.825 398.806 L 797.825 398.806" fill="none" mask="url(#_mask_0mNQUY8yp9G1YYXcdURdzvwvihXLchK4)" vector-effect="non-scaling-stroke" stroke-width="5" stroke="rgb(0,0,0)" stroke-linejoin="round" stroke-linecap="round" stroke-miterlimit="20"/></g><g><mask id="_mask_V0yszq9ITx8rLd3lF1di7yGMWiVlw990" x="-200%" y="-200%" width="400%" height="400%"><rect x="-200%" y="-200%" width="400%" height="400%" style="fill:white;"/><line x1="768.175" y1="413.845" x2="768.175" y2="425.319" fill="black" stroke="none"/></mask><line x1="768.175" y1="413.845" x2="768.175" y2="425.319" mask="url(#_mask_V0yszq9ITx8rLd3lF1di7yGMWiVlw990)" vector-effect="non-scaling-stroke" stroke-width="5" stroke="rgb(0,0,0)" stroke-linejoin="round" stroke-linecap="round" stroke-miterlimit="20"/></g><g><mask id="_mask_gqJ7EGK7N2zEU4OYXijidNje1rbtl44K" x="-200%" y="-200%" width="400%" height="400%"><rect x="-200%" y="-200%" width="400%" height="400%" style="fill:white;"/><path d=" M 780.184 413.597 C 777.075 414.614 773.77 414.882 770.537 414.381 C 754.56 411.828 744.721 390.477 748.469 366.746 C 748.622 365.79 748.794 364.834 748.985 363.878" fill="black" stroke="none"/></mask><path d=" M 780.184 413.597 C 777.075 414.614 773.77 414.882 770.537 414.381 C 754.56 411.828 744.721 390.477 748.469 366.746 C 748.622 365.79 748.794 364.834 748.985 363.878" fill="none"/><path d=" M 780.184 413.597 C 777.075 414.614 773.77 414.882 770.537 414.381 C 754.56 411.828 744.721 390.477 748.469 366.746 C 748.622 365.79 748.794 364.834 748.985 363.878" fill="none" mask="url(#_mask_gqJ7EGK7N2zEU4OYXijidNje1rbtl44K)" vector-effect="non-scaling-stroke" stroke-width="5" stroke="rgb(0,0,0)" stroke-linejoin="round" stroke-linecap="round" stroke-miterlimit="20"/></g><g><mask id="_mask_VeFZJjcgckFHAkPeGoEG0zTJT7tZpzal" x="-200%" y="-200%" width="400%" height="400%"><rect x="-200%" y="-200%" width="400%" height="400%" style="fill:white;"/><path d=" M 804.107 385.324 C 802.621 390.077 800.508 394.61 797.825 398.805" fill="black" stroke="none"/></mask><path d=" M 804.107 385.324 C 802.621 390.077 800.508 394.61 797.825 398.805" fill="none"/><path d=" M 804.107 385.324 C 802.621 390.077 800.508 394.61 797.825 398.805" fill="none" mask="url(#_mask_VeFZJjcgckFHAkPeGoEG0zTJT7tZpzal)" vector-effect="non-scaling-stroke" stroke-width="5" stroke="rgb(0,0,0)" stroke-linejoin="round" stroke-linecap="round" stroke-miterlimit="20"/></g><g><mask id="_mask_FWPtQAtBbViNN2BqERqcAfwzUhEYdpGK" x="-200%" y="-200%" width="400%" height="400%"><rect x="-200%" y="-200%" width="400%" height="400%" style="fill:white;"/><path d=" M 810.819 326.808 C 815.055 319.474 825.802 307.121 846.846 307.121 C 861.189 307.121 875.531 314.771 893.697 314.771 C 908.039 314.771 921.425 309.033 938.636 309.033 C 969.232 309.033 978.794 329.113 978.794 341.542 C 978.794 373.095 952.978 385.525 933.855 385.525 C 903.259 385.525 899.435 364.489 863.101 364.489 C 827.724 364.489 832.504 335.805 824.855 335.805 C 823.037 335.739 821.22 335.942 819.462 336.408" fill="black" stroke="none"/></mask><path d=" M 810.819 326.808 C 815.055 319.474 825.802 307.121 846.846 307.121 C 861.189 307.121 875.531 314.771 893.697 314.771 C 908.039 314.771 921.425 309.033 938.636 309.033 C 969.232 309.033 978.794 329.113 978.794 341.542 C 978.794 373.095 952.978 385.525 933.855 385.525 C 903.259 385.525 899.435 364.489 863.101 364.489 C 827.724 364.489 832.504 335.805 824.855 335.805 C 823.037 335.739 821.22 335.942 819.462 336.408" fill="none"/><path d=" M 810.819 326.808 C 815.055 319.474 825.802 307.121 846.846 307.121 C 861.189 307.121 875.531 314.771 893.697 314.771 C 908.039 314.771 921.425 309.033 938.636 309.033 C 969.232 309.033 978.794 329.113 978.794 341.542 C 978.794 373.095 952.978 385.525 933.855 385.525 C 903.259 385.525 899.435 364.489 863.101 364.489 C 827.724 364.489 832.504 335.805 824.855 335.805 C 823.037 335.739 821.22 335.942 819.462 336.408" fill="none" mask="url(#_mask_FWPtQAtBbViNN2BqERqcAfwzUhEYdpGK)" vector-effect="non-scaling-stroke" stroke-width="5" stroke="rgb(0,0,0)" stroke-linejoin="miter" stroke-linecap="butt" stroke-miterlimit="20"/></g><g><mask id="_mask_GLRYqLujI0s67JzxbGa6C5XvcONNNFOh" x="-200%" y="-200%" width="400%" height="400%"><rect x="-200%" y="-200%" width="400%" height="400%" style="fill:white;"/><path d=" M 801.908 394.13 C 817.493 394.13 824.855 378.076 824.855 357.796 C 824.855 324.332 795.31 317.639 782.785 317.639 C 748.966 317.639 741.891 343.369 741.891 350.798 C 741.891 358.227 746.585 363.734 748.985 363.916 C 750.477 355.033 757.591 342.776 757.925 342.498 C 761.086 345.58 764.788 348.053 768.845 349.793" fill="black" stroke="none"/></mask><path d=" M 801.908 394.13 C 817.493 394.13 824.855 378.076 824.855 357.796 C 824.855 324.332 795.31 317.639 782.785 317.639 C 748.966 317.639 741.891 343.369 741.891 350.798 C 741.891 358.227 746.585 363.734 748.985 363.916 C 750.477 355.033 757.591 342.776 757.925 342.498 C 761.086 345.58 764.788 348.053 768.845 349.793" fill="none"/><path d=" M 801.908 394.13 C 817.493 394.13 824.855 378.076 824.855 357.796 C 824.855 324.332 795.31 317.639 782.785 317.639 C 748.966 317.639 741.891 343.369 741.891 350.798 C 741.891 358.227 746.585 363.734 748.985 363.916 C 750.477 355.033 757.591 342.776 757.925 342.498 C 761.086 345.58 764.788 348.053 768.845 349.793" fill="none" mask="url(#_mask_GLRYqLujI0s67JzxbGa6C5XvcONNNFOh)" vector-effect="non-scaling-stroke" stroke-width="5" stroke="rgb(0,0,0)" stroke-linejoin="round" stroke-linecap="round" stroke-miterlimit="20"/></g><g><mask id="_mask_YVDSx4phUIDuQc76KiimJDukI7AnL32v" x="-200%" y="-200%" width="400%" height="400%"><rect x="-200%" y="-200%" width="400%" height="400%" style="fill:white;"/><path d=" M 800.35 369.548 C 801.424 369.058 802.591 368.807 803.772 368.811 C 808.334 368.811 812.033 372.51 812.033 377.072 C 812.033 381.634 808.334 385.333 803.772 385.333 C 802.922 385.333 802.078 385.205 801.267 384.951" fill="black" stroke="none"/></mask><path d=" M 800.35 369.548 C 801.424 369.058 802.591 368.807 803.772 368.811 C 808.334 368.811 812.033 372.51 812.033 377.072 C 812.033 381.634 808.334 385.333 803.772 385.333 C 802.922 385.333 802.078 385.205 801.267 384.951" fill="none"/><path d=" M 800.35 369.548 C 801.424 369.058 802.591 368.807 803.772 368.811 C 808.334 368.811 812.033 372.51 812.033 377.072 C 812.033 381.634 808.334 385.333 803.772 385.333 C 802.922 385.333 802.078 385.205 801.267 384.951" fill="none" mask="url(#_mask_YVDSx4phUIDuQc76KiimJDukI7AnL32v)" vector-effect="non-scaling-stroke" stroke-width="5" stroke="rgb(0,0,0)" stroke-linejoin="round" stroke-linecap="round" stroke-miterlimit="20"/></g><g><mask id="_mask_Wdui1jzfmPJOdEgWgToE8CScBpfWVU90" x="-200%" y="-200%" width="400%" height="400%"><rect x="-200%" y="-200%" width="400%" height="400%" style="fill:white;"/><path d=" M 724.938 528.133 C 734.682 532.101 743.928 535.18 755.439 535.18 C 764.408 535.18 781.58 529.586 794.469 515.713" fill="black" stroke="none"/></mask><path d=" M 724.938 528.133 C 734.682 532.101 743.928 535.18 755.439 535.18 C 764.408 535.18 781.58 529.586 794.469 515.713" fill="none"/><path d=" M 724.938 528.133 C 734.682 532.101 743.928 535.18 755.439 535.18 C 764.408 535.18 781.58 529.586 794.469 515.713" fill="none" mask="url(#_mask_Wdui1jzfmPJOdEgWgToE8CScBpfWVU90)" vector-effect="non-scaling-stroke" stroke-width="5" stroke="rgb(0,0,0)" stroke-linejoin="round" stroke-linecap="round" stroke-miterlimit="20"/></g><g><mask id="_mask_8x7Nf6G5T6quoo2Bybo08T61FY9btW7R" x="-200%" y="-200%" width="400%" height="400%"><rect x="-200%" y="-200%" width="400%" height="400%" style="fill:white;"/><path d=" M 768.29 489.266 C 761.391 494.342 755.624 500.799 751.357 508.226 C 743.468 506.754 711.38 498.732 682.897 498.732 C 680.22 498.732 673.269 496.532 670.467 496.532 C 653.763 496.532 650.273 505.559 650.273 508.226 C 650.273 510.894 650.847 510.97 651.363 510.97 C 688.242 510.97 707.383 520.981 724.929 528.123" fill="black" stroke="none"/></mask><path d=" M 768.29 489.266 C 761.391 494.342 755.624 500.799 751.357 508.226 C 743.468 506.754 711.38 498.732 682.897 498.732 C 680.22 498.732 673.269 496.532 670.467 496.532 C 653.763 496.532 650.273 505.559 650.273 508.226 C 650.273 510.894 650.847 510.97 651.363 510.97 C 688.242 510.97 707.383 520.981 724.929 528.123" fill="none"/><path d=" M 768.29 489.266 C 761.391 494.342 755.624 500.799 751.357 508.226 C 743.468 506.754 711.38 498.732 682.897 498.732 C 680.22 498.732 673.269 496.532 670.467 496.532 C 653.763 496.532 650.273 505.559 650.273 508.226 C 650.273 510.894 650.847 510.97 651.363 510.97 C 688.242 510.97 707.383 520.981 724.929 528.123" fill="none" mask="url(#_mask_8x7Nf6G5T6quoo2Bybo08T61FY9btW7R)" vector-effect="non-scaling-stroke" stroke-width="5" stroke="rgb(0,0,0)" stroke-linejoin="round" stroke-linecap="round" stroke-miterlimit="20"/></g><g><mask id="_mask_9mVB3Bq6j9waI2rY6wb2jsyTOJwjcv7I" x="-200%" y="-200%" width="400%" height="400%"><rect x="-200%" y="-200%" width="400%" height="400%" style="fill:white;"/><path d=" M 808.897 449.624 C 818.344 446.937 827.064 446.976 832.485 452.234 C 850.403 469.627 805.092 517.769 797.825 517.061 C 790.558 516.353 764.36 488.769 764.111 480.383 C 764.016 477.515 770.021 471.281 778.645 465.085" fill="black" stroke="none"/></mask><path d=" M 808.897 449.624 C 818.344 446.937 827.064 446.976 832.485 452.234 C 850.403 469.627 805.092 517.769 797.825 517.061 C 790.558 516.353 764.36 488.769 764.111 480.383 C 764.016 477.515 770.021 471.281 778.645 465.085" fill="none"/><path d=" M 808.897 449.624 C 818.344 446.937 827.064 446.976 832.485 452.234 C 850.403 469.627 805.092 517.769 797.825 517.061 C 790.558 516.353 764.36 488.769 764.111 480.383 C 764.016 477.515 770.021 471.281 778.645 465.085" fill="none" mask="url(#_mask_9mVB3Bq6j9waI2rY6wb2jsyTOJwjcv7I)" vector-effect="non-scaling-stroke" stroke-width="5" stroke="rgb(0,0,0)" stroke-linejoin="round" stroke-linecap="round" stroke-miterlimit="20"/></g><g><path d=" M 464.648 526.183 L 464.648 513.122 L 869.316 513.122 L 869.316 526.182 L 464.648 526.183 Z " fill="rgb(0,0,0)"/></g><g><mask id="_mask_hMUvRhFMOw9ESTSljYrkLG1f0qjk81an" x="-200%" y="-200%" width="400%" height="400%"><rect x="-200%" y="-200%" width="400%" height="400%" style="fill:white;"/><line x1="847.573" y1="720.968" x2="847.573" y2="522.53" fill="black" stroke="none"/></mask><line x1="847.573" y1="720.968" x2="847.573" y2="522.53" mask="url(#_mask_hMUvRhFMOw9ESTSljYrkLG1f0qjk81an)" vector-effect="non-scaling-stroke" stroke-width="8" stroke="rgb(0,0,0)" stroke-linejoin="round" stroke-linecap="round" stroke-miterlimit="20"/></g><g><mask id="_mask_9ZCVW30QVzmfPlqSQeZFSwHC5ptwPhHY" x="-200%" y="-200%" width="400%" height="400%"><rect x="-200%" y="-200%" width="400%" height="400%" style="fill:white;"/><line x1="511.346" y1="720.968" x2="511.346" y2="522.53" fill="black" stroke="none"/></mask><line x1="511.346" y1="720.968" x2="511.346" y2="522.53" mask="url(#_mask_9ZCVW30QVzmfPlqSQeZFSwHC5ptwPhHY)" vector-effect="non-scaling-stroke" stroke-width="8" stroke="rgb(0,0,0)" stroke-linejoin="round" stroke-linecap="round" stroke-miterlimit="20"/></g><g><mask id="_mask_8TvARa96rIOCunP9oPHfP6d2lr0b8UFL" x="-200%" y="-200%" width="400%" height="400%"><rect x="-200%" y="-200%" width="400%" height="400%" style="fill:white;"/><line x1="481.323" y1="760.734" x2="481.323" y2="522.53" fill="black" stroke="none"/></mask><line x1="481.323" y1="760.734" x2="481.323" y2="522.53" mask="url(#_mask_8TvARa96rIOCunP9oPHfP6d2lr0b8UFL)" vector-effect="non-scaling-stroke" stroke-width="8" stroke="rgb(0,0,0)" stroke-linejoin="round" stroke-linecap="round" stroke-miterlimit="20"/></g><g><mask id="_mask_S4G9DK9BJnzwFxoBf6LwFr1Koro4cBpS" x="-200%" y="-200%" width="400%" height="400%"><rect x="-200%" y="-200%" width="400%" height="400%" style="fill:white;"/><line x1="681.979" y1="757.827" x2="744.109" y2="653.292" fill="black" stroke="none"/></mask><line x1="681.979" y1="757.827" x2="744.109" y2="653.292" mask="url(#_mask_S4G9DK9BJnzwFxoBf6LwFr1Koro4cBpS)" vector-effect="non-scaling-stroke" stroke-width="8" stroke="rgb(0,0,0)" stroke-linejoin="round" stroke-linecap="round" stroke-miterlimit="20"/></g><g><path d=" M 613.146 513.122 L 613.146 510.722 L 680.334 510.722 L 680.334 513.122 L 613.146 513.122 Z " fill="rgb(0,0,0)"/></g><g><mask id="_mask_7dfKH7H9oRL2WIXww65iByKEiYkc29J9" x="-200%" y="-200%" width="400%" height="400%"><rect x="-200%" y="-200%" width="400%" height="400%" style="fill:white;"/><path d=" M 585.753 460.83 L 585.753 460.83 L 538.615 460.83 L 538.615 460.83 L 538.615 354.307 L 538.615 354.307 L 685.306 354.307 L 685.306 460.83 L 620.786 460.83 L 620.786 460.83" fill="black" stroke="none"/></mask><path d=" M 585.753 460.83 L 585.753 460.83 L 538.615 460.83 L 538.615 460.83 L 538.615 354.307 L 538.615 354.307 L 685.306 354.307 L 685.306 460.83 L 620.786 460.83 L 620.786 460.83" fill="none"/><path d=" M 585.753 460.83 L 585.753 460.83 L 538.615 460.83 L 538.615 460.83 L 538.615 354.307 L 538.615 354.307 L 685.306 354.307 L 685.306 460.83 L 620.786 460.83 L 620.786 460.83" fill="none" mask="url(#_mask_7dfKH7H9oRL2WIXww65iByKEiYkc29J9)" vector-effect="non-scaling-stroke" stroke-width="5" stroke="rgb(0,0,0)" stroke-linejoin="round" stroke-linecap="round" stroke-miterlimit="20"/></g><g><mask id="_mask_2zTR3pG43kdrlExYNLdzAfmLbqq5Vs7k" x="-200%" y="-200%" width="400%" height="400%"><rect x="-200%" y="-200%" width="400%" height="400%" style="fill:white;"/><path d=" M 591.356 440.8 L 591.356 440.8 L 571.124 513.122 L 571.124 513.122 L 606.587 513.122 L 606.587 513.122 L 626.227 440.799 L 626.227 440.799 L 591.356 440.8 Z " fill="black" stroke="none"/></mask><path d=" M 591.356 440.8 L 591.356 440.8 L 571.124 513.122 L 571.124 513.122 L 606.587 513.122 L 606.587 513.122 L 626.227 440.799 L 626.227 440.799 L 591.356 440.8 Z " fill="none"/><path d=" M 591.356 440.8 L 591.356 440.8 L 571.124 513.122 L 571.124 513.122 L 606.587 513.122 L 606.587 513.122 L 626.227 440.799 L 626.227 440.799 L 591.356 440.8 Z " fill="none" mask="url(#_mask_2zTR3pG43kdrlExYNLdzAfmLbqq5Vs7k)" vector-effect="non-scaling-stroke" stroke-width="5" stroke="rgb(0,0,0)" stroke-linejoin="round" stroke-linecap="round" stroke-miterlimit="20"/></g><g><path d=" M 619.944 97.334 C 634.463 83.132 636.991 60.679 625.995 43.604 C 615 26.53 593.511 19.543 574.575 26.885 C 562.608 8.545 541.504 -1.703 519.691 0.232 C 497.877 2.167 478.908 15.971 470.356 36.131 C 453.4 29.274 433.96 33.958 421.988 47.786 C 410.016 61.614 408.163 81.524 417.376 97.324 L 619.944 97.334 Z " fill="rgb(223,223,223)"/></g><g><mask id="_mask_2xNE9jZGSReOkS0OYEs5VLTDaR726r4d" x="-200%" y="-200%" width="400%" height="400%"><rect x="-200%" y="-200%" width="400%" height="400%" style="fill:white;"/><path d=" M 514.54 89.235 L 514.54 157.81 L 304.12 157.81 L 304.12 222.97" fill="black" stroke="none"/></mask><path d=" M 514.54 89.235 L 514.54 157.81 L 304.12 157.81 L 304.12 222.97" fill="none"/><path d=" M 514.54 89.235 L 514.54 157.81 L 304.12 157.81 L 304.12 222.97" fill="none" mask="url(#_mask_2xNE9jZGSReOkS0OYEs5VLTDaR726r4d)" vector-effect="non-scaling-stroke" stroke-width="8" stroke="rgb(223,223,223)" stroke-linejoin="miter" stroke-linecap="butt" stroke-miterlimit="20"/></g><g><mask id="_mask_nzDdfO9Qd6cIwlPhKFEZMuZOZTZiDgBH" x="-200%" y="-200%" width="400%" height="400%"><rect x="-200%" y="-200%" width="400%" height="400%" style="fill:white;"/><path d=" M 186.134 760.734 C 191.727 760.734 202.627 741.783 202.627 705.029 C 202.627 678.152 183.791 660.769 178.197 634.14 C 169.592 593.304 126.977 473.346 60.439 473.346 C 52.79 473.346 42.521 489.419 42.521 522.53 C 42.521 562.688 81.417 604.27 81.417 612.895 C 81.455 711.368 168.301 760.734 186.134 760.734 L 186.134 760.734 Z " fill="black" stroke="none"/></mask><path d=" M 186.134 760.734 C 191.727 760.734 202.627 741.783 202.627 705.029 C 202.627 678.152 183.791 660.769 178.197 634.14 C 169.592 593.304 126.977 473.346 60.439 473.346 C 52.79 473.346 42.521 489.419 42.521 522.53 C 42.521 562.688 81.417 604.27 81.417 612.895 C 81.455 711.368 168.301 760.734 186.134 760.734 L 186.134 760.734 Z " fill="none"/><path d=" M 186.134 760.734 C 191.727 760.734 202.627 741.783 202.627 705.029 C 202.627 678.152 183.791 660.769 178.197 634.14 C 169.592 593.304 126.977 473.346 60.439 473.346 C 52.79 473.346 42.521 489.419 42.521 522.53 C 42.521 562.688 81.417 604.27 81.417 612.895 C 81.455 711.368 168.301 760.734 186.134 760.734 L 186.134 760.734 Z " fill="none" mask="url(#_mask_nzDdfO9Qd6cIwlPhKFEZMuZOZTZiDgBH)" vector-effect="non-scaling-stroke" stroke-width="5" stroke="rgb(0,0,0)" stroke-linejoin="round" stroke-linecap="round" stroke-miterlimit="20"/></g><g><mask id="_mask_quq3SpwDhdnFim77f5Rc0smtsB6Q1DfS" x="-200%" y="-200%" width="400%" height="400%"><rect x="-200%" y="-200%" width="400%" height="400%" style="fill:white;"/><path d=" M 186.564 760.734 C 186.564 755.35 178.781 719.237 174.736 710.211 C 170.692 701.185 154.81 656.046 152.324 643.587 C 149.838 631.129 103.762 509.421 60.487 478.595" fill="black" stroke="none"/></mask><path d=" M 186.564 760.734 C 186.564 755.35 178.781 719.237 174.736 710.211 C 170.692 701.185 154.81 656.046 152.324 643.587 C 149.838 631.129 103.762 509.421 60.487 478.595" fill="none"/><path d=" M 186.564 760.734 C 186.564 755.35 178.781 719.237 174.736 710.211 C 170.692 701.185 154.81 656.046 152.324 643.587 C 149.838 631.129 103.762 509.421 60.487 478.595" fill="none" mask="url(#_mask_quq3SpwDhdnFim77f5Rc0smtsB6Q1DfS)" vector-effect="non-scaling-stroke" stroke-width="5" stroke="rgb(0,0,0)" stroke-linejoin="round" stroke-linecap="round" stroke-miterlimit="20"/></g><g><mask id="_mask_c4bsGucgzlvoYdU6htxFZ5CIrHYDH0fp" x="-200%" y="-200%" width="400%" height="400%"><rect x="-200%" y="-200%" width="400%" height="400%" style="fill:white;"/><line x1="166.705" y1="688.956" x2="94.115" y2="674.174" fill="black" stroke="none"/></mask><line x1="166.705" y1="688.956" x2="94.115" y2="674.174" mask="url(#_mask_c4bsGucgzlvoYdU6htxFZ5CIrHYDH0fp)" vector-effect="non-scaling-stroke" stroke-width="5" stroke="rgb(0,0,0)" stroke-linejoin="round" stroke-linecap="round" stroke-miterlimit="20"/></g><g><mask id="_mask_Cop0GtNY9CwfDSQpEflHTFcRUVL4hGdE" x="-200%" y="-200%" width="400%" height="400%"><rect x="-200%" y="-200%" width="400%" height="400%" style="fill:white;"/><line x1="170.357" y1="699.043" x2="103.877" y2="693.507" fill="black" stroke="none"/></mask><line x1="170.357" y1="699.043" x2="103.877" y2="693.507" mask="url(#_mask_Cop0GtNY9CwfDSQpEflHTFcRUVL4hGdE)" vector-effect="non-scaling-stroke" stroke-width="5" stroke="rgb(0,0,0)" stroke-linejoin="round" stroke-linecap="round" stroke-miterlimit="20"/></g><g><mask id="_mask_OaxGKquCDfON7buI5TO4AliIhczS1Eqh" x="-200%" y="-200%" width="400%" height="400%"><rect x="-200%" y="-200%" width="400%" height="400%" style="fill:white;"/><line x1="149.437" y1="634.179" x2="81.962" y2="613.756" fill="black" stroke="none"/></mask><line x1="149.437" y1="634.179" x2="81.962" y2="613.756" mask="url(#_mask_OaxGKquCDfON7buI5TO4AliIhczS1Eqh)" vector-effect="non-scaling-stroke" stroke-width="5" stroke="rgb(0,0,0)" stroke-linejoin="round" stroke-linecap="round" stroke-miterlimit="20"/></g><g><mask id="_mask_H5W6CdffuDdhwRojagIHGAoyQBP4G7Sg" x="-200%" y="-200%" width="400%" height="400%"><rect x="-200%" y="-200%" width="400%" height="400%" style="fill:white;"/><line x1="155.862" y1="656.543" x2="176.457" y2="641.57" fill="black" stroke="none"/></mask><line x1="155.862" y1="656.543" x2="176.457" y2="641.57" mask="url(#_mask_H5W6CdffuDdhwRojagIHGAoyQBP4G7Sg)" vector-effect="non-scaling-stroke" stroke-width="5" stroke="rgb(0,0,0)" stroke-linejoin="round" stroke-linecap="round" stroke-miterlimit="20"/></g><g><mask id="_mask_u3qQTZTVVPmdQ92BgJHDaGYLDSOm9Bkm" x="-200%" y="-200%" width="400%" height="400%"><rect x="-200%" y="-200%" width="400%" height="400%" style="fill:white;"/><line x1="116.87" y1="558.165" x2="137.217" y2="535.094" fill="black" stroke="none"/></mask><line x1="116.87" y1="558.165" x2="137.217" y2="535.094" mask="url(#_mask_u3qQTZTVVPmdQ92BgJHDaGYLDSOm9Bkm)" vector-effect="non-scaling-stroke" stroke-width="5" stroke="rgb(0,0,0)" stroke-linejoin="round" stroke-linecap="round" stroke-miterlimit="20"/></g><g><mask id="_mask_cDZI1ePWsAqG9XgxrxRAWk93Q3u0cZ06" x="-200%" y="-200%" width="400%" height="400%"><rect x="-200%" y="-200%" width="400%" height="400%" style="fill:white;"/><line x1="110.512" y1="545.88" x2="127.828" y2="522.387" fill="black" stroke="none"/></mask><line x1="110.512" y1="545.88" x2="127.828" y2="522.387" mask="url(#_mask_cDZI1ePWsAqG9XgxrxRAWk93Q3u0cZ06)" vector-effect="non-scaling-stroke" stroke-width="5" stroke="rgb(0,0,0)" stroke-linejoin="round" stroke-linecap="round" stroke-miterlimit="20"/></g><g><mask id="_mask_Hy8d8Hx6Dx7V5nEtjnV7nvO6rWO9hWqL" x="-200%" y="-200%" width="400%" height="400%"><rect x="-200%" y="-200%" width="400%" height="400%" style="fill:white;"/><path d=" M 755.42 338.435 C 755.961 339.95 756.815 341.335 757.925 342.498" fill="black" stroke="none"/></mask><path d=" M 755.42 338.435 C 755.961 339.95 756.815 341.335 757.925 342.498" fill="none"/><path d=" M 755.42 338.435 C 755.961 339.95 756.815 341.335 757.925 342.498" fill="none" mask="url(#_mask_Hy8d8Hx6Dx7V5nEtjnV7nvO6rWO9hWqL)" vector-effect="non-scaling-stroke" stroke-width="5" stroke="rgb(0,0,0)" stroke-linejoin="round" stroke-linecap="round" stroke-miterlimit="20"/></g><g><mask id="_mask_1v0qfIOrqUNEQiqcxvUNm6HPZZUlpnyn" x="-200%" y="-200%" width="400%" height="400%"><rect x="-200%" y="-200%" width="400%" height="400%" style="fill:white;"/><path d=" M 662.531 751.928 L 662.531 751.928 L 666.776 775.133 L 666.776 775.133 L 617.096 784.781 L 617.096 784.781 L 651.086 762.875 L 651.086 762.875 L 649.461 753.677 L 649.461 753.677" fill="black" stroke="none"/></mask><path d=" M 662.531 751.928 L 662.531 751.928 L 666.776 775.133 L 666.776 775.133 L 617.096 784.781 L 617.096 784.781 L 651.086 762.875 L 651.086 762.875 L 649.461 753.677 L 649.461 753.677" fill="none"/><path d=" M 662.531 751.928 L 662.531 751.928 L 666.776 775.133 L 666.776 775.133 L 617.096 784.781 L 617.096 784.781 L 651.086 762.875 L 651.086 762.875 L 649.461 753.677 L 649.461 753.677" fill="none" mask="url(#_mask_1v0qfIOrqUNEQiqcxvUNm6HPZZUlpnyn)" vector-effect="non-scaling-stroke" stroke-width="5" stroke="rgb(0,0,0)" stroke-linejoin="round" stroke-linecap="round" stroke-miterlimit="20"/></g><g><mask id="_mask_8H0eMFePLGCT7ZnuMNueCAa6kaZH5VaJ" x="-200%" y="-200%" width="400%" height="400%"><rect x="-200%" y="-200%" width="400%" height="400%" style="fill:white;"/><path d=" M 557.508 739.507 L 557.508 739.507 L 545.5 759.653 L 545.5 759.653 L 501.154 733.245 L 501.154 733.245 L 541.561 739.918 L 541.561 739.918 L 546.361 731.973 L 546.361 731.973" fill="black" stroke="none"/></mask><path d=" M 557.508 739.507 L 557.508 739.507 L 545.5 759.653 L 545.5 759.653 L 501.154 733.245 L 501.154 733.245 L 541.561 739.918 L 541.561 739.918 L 546.361 731.973 L 546.361 731.973" fill="none"/><path d=" M 557.508 739.507 L 557.508 739.507 L 545.5 759.653 L 545.5 759.653 L 501.154 733.245 L 501.154 733.245 L 541.561 739.918 L 541.561 739.918 L 546.361 731.973 L 546.361 731.973" fill="none" mask="url(#_mask_8H0eMFePLGCT7ZnuMNueCAa6kaZH5VaJ)" vector-effect="non-scaling-stroke" stroke-width="5" stroke="rgb(0,0,0)" stroke-linejoin="round" stroke-linecap="round" stroke-miterlimit="20"/></g><g><path d=" M 832.437 605.915 C 832.437 601.804 833.155 597.042 830.592 595.981 C 769.762 570.901 680.707 567.651 666.987 567.651 C 653.266 567.651 613.147 569.046 613.147 580.53 C 613.147 622.007 636.257 749.7 640.951 754.47 C 643.179 756.718 662.608 755.217 665.027 752.788 C 664.864 742.27 670.974 636.626 665.4 623.833 C 716.524 642.573 774.581 651.447 789.88 651.447 C 834.216 651.399 832.437 610.792 832.437 605.915 Z " fill="rgb(45,94,230)"/></g><g><path d=" M 81.455 612.895 C 81.455 607.875 68.27 591.678 57.255 571.092 C 37.023 555.871 18.895 546.634 9.113 546.634 C 3.377 546.634 0.805 556.942 0.805 562.401 C 0.805 619.559 62.084 686.001 115.637 710.699 C 96.629 686.709 81.455 654.105 81.455 612.895 L 81.455 612.895 Z " fill="rgb(45,94,230)"/></g><g><mask id="_mask_MBfDxFeU86iPumQN2x31P2XNnL6tevZw" x="-200%" y="-200%" width="400%" height="400%"><rect x="-200%" y="-200%" width="400%" height="400%" style="fill:white;"/><line x1="819.157" y1="760.734" x2="819.157" y2="522.53" fill="black" stroke="none"/></mask><line x1="819.157" y1="760.734" x2="819.157" y2="522.53" mask="url(#_mask_MBfDxFeU86iPumQN2x31P2XNnL6tevZw)" vector-effect="non-scaling-stroke" stroke-width="8" stroke="rgb(0,0,0)" stroke-linejoin="round" stroke-linecap="round" stroke-miterlimit="20"/></g></g></g></svg>