<svg width="247" height="265" fill="none" xmlns="http://www.w3.org/2000/svg"><path d="M151.045 245.954H96.042c-52.65 0-95.337-42.733-95.337-95.437v-55.06C.705 42.752 43.393.02 96.042.02h55.003c52.649 0 95.337 42.732 95.337 95.437v55.06c.031 52.704-42.657 95.437-95.337 95.437Z" fill="#2D5EE6"/><mask id="a" style="mask-type:luminance" maskUnits="userSpaceOnUse" x="0" y="0" width="247" height="246"><path d="M151.045 245.954H96.042c-52.65 0-95.337-42.733-95.337-95.437v-55.06C.705 42.752 43.393.02 96.042.02h55.003c52.649 0 95.337 42.732 95.337 95.437v55.06c.031 52.704-42.657 95.437-95.337 95.437Z" fill="#fff"/></mask><g mask="url(#a)"><path d="M124.582 39.693c-28.265 1.224-34.56 28.142-34.56 67.204S73.43 153.239 73.43 153.239h99.646s-15.584-24.501-17.051-46.709c-1.466-22.207 2.598-68.305-31.443-66.837Z" fill="#B3B3B3"/><path d="M107.959 110.935V156.91h28.785v-45.975h-28.785Z" fill="#EDB8A6"/><path d="M136.744 110.935h-28.785v36.89c1.773-2.203 3.056-5.323 3.637-9.575.305-2.967-.367-8.932 4.216-7.739 9.29 2.386 16.532.153 20.932-5.934v-13.642Z" fill="#B07D6B"/><path d="M150.097 83.68c1.65-1.284 4.064-1.743 6.142-1.1 2.078.642 3.698 2.293 4.125 4.22.673 3.029-5.591 11.043-7.119 11.808-1.528.765-3.637.856-4.889-.276l1.741-14.651ZM96.409 83.68c-1.65-1.284-4.064-1.743-6.142-1.1-2.078.642-3.697 2.293-4.125 4.22-.672 3.029 5.592 11.043 7.12 11.808 1.527.765 3.636.856 4.889-.276l-1.742-14.651Z" fill="#EDB8A6"/><path d="M122.688 38.592c-28.387 0-28.754 18.17-28.754 23.033 0 9.238-.642 27.989 1.62 39.46 1.008 5.139 7.73 13.153 10.939 16.732 4.644 5.2 10.572 5.995 16.195 5.995 5.622 0 11.55-.795 16.195-5.995 3.209-3.61 9.931-11.624 10.939-16.732 2.262-11.471 1.62-30.222 1.62-39.46 0-4.863-.367-23.033-28.754-23.033Z" fill="#EDB8A6"/><path d="M103.743 69.334s8.219 2.784 13.72.642c7.394-4.068 10.572-5.812 16.928-3.915 7.425 2.233 9.473 3.548 17.143 3.15-.031-2.967-.062-5.597-.062-7.616 0-4.864-.366-23.033-28.754-23.033-28.387 0-28.754 18.17-28.754 23.033 0 9.238-.641 27.989 1.62 39.46 1.008 5.139 7.731 13.153 10.939 16.732 1.864 2.08 3.912 3.456 6.05 4.343-7.364-8.289-11.886-12.633-13.353-24.226-.825-8.35 1.406-22.789 4.523-28.57Z" fill="#E6A38C"/><path d="M135.308 99.8c-2.75-1.774-12.743.765-12.743.765s-10.114-2.508-12.864-.764c-2.75 1.774-2.231 12.388-2.231 12.388l2.292 1.376s-.672-8.044.947-9.666c1.62-1.621 11.734.215 11.734.215s10.206-1.836 11.826-.215c1.619 1.622.947 9.666.947 9.666l2.169-1.284s.642-10.737-2.077-12.48Z" fill="#231F20"/><path d="m150.892 95.946-4.339 5.965-8.495 8.35s-5.714 5.904-9.045 6.363c-5.042.703-6.661-.826-6.661-.826s-1.62 1.499-6.662.826c-3.331-.459-9.045-6.363-9.045-6.363l-8.77-8.35-3.147-6.302s.856 9.422 1.62 10.829c.764 1.407 8.464 12.786 12.222 14.927 1.895 1.071 5.776 2.814 7.09 3.457 0 0 .03.03.122.061.244.122.397.214.397.214h.031c.916.428 2.811 1.224 4.614 1.56l-.428-.765s2.811 1.652 6.906 1.744c0 0-2.292-1.499-1.1-1.621 1.191-.092 2.597-.184 2.597-.184s-.489-.306-.214-.765c0 0 5.164-2.385 7.548-3.731 3.789-2.142 12.314-13.092 12.742-14.928.367-1.56 2.017-10.461 2.017-10.461Z" fill="#231F20"/><path d="M111.443 104.694s4.981 1.346 11.031 1.377c3.606.03 11.123-1.377 11.123-1.377s-1.131 3.182-2.078 4.252c-3.942 4.497-12.865 4.16-18.059 0-.948-.734-2.017-4.252-2.017-4.252ZM138.058 94.754c2.548 0 4.614-2.328 4.614-5.2 0-2.872-2.066-5.2-4.614-5.2-2.549 0-4.614 2.328-4.614 5.2 0 2.872 2.065 5.2 4.614 5.2Z" fill="#fff"/><path d="M138.058 94.265c1.788 0 3.239-1.78 3.239-3.977 0-2.196-1.451-3.977-3.239-3.977-1.789 0-3.24 1.78-3.24 3.977 0 2.196 1.451 3.977 3.24 3.977Z" fill="#1A1A1A"/><path d="M139.341 89.125c0 .184.122.306.306.306a.306.306 0 0 0 .305-.306c0-.183-.122-.306-.305-.306-.184 0-.306.123-.306.306Z" fill="#fff"/><path d="M138.058 84.17c-2.323 0-4.278 1.866-4.737 4.343 1.345-2.508 4.767-3.976 7.09-2.569 1.68 1.162 2.016 2.814 2.444 3.885v-.275c.031-2.968-2.139-5.384-4.797-5.384Z" fill="#1A1A1A"/><path d="M108.326 94.754c2.549 0 4.614-2.328 4.614-5.2 0-2.872-2.065-5.2-4.614-5.2-2.548 0-4.614 2.328-4.614 5.2 0 2.872 2.066 5.2 4.614 5.2Z" fill="#fff"/><path d="M108.326 94.265c1.789 0 3.239-1.78 3.239-3.977 0-2.196-1.45-3.977-3.239-3.977s-3.239 1.78-3.239 3.977c0 2.196 1.45 3.977 3.239 3.977Z" fill="#1A1A1A"/><path d="M107.043 89.125c0 .184-.122.306-.306.306a.306.306 0 0 1-.305-.306c0-.183.122-.306.305-.306.184 0 .306.123.306.306Z" fill="#fff"/><path d="M108.326 84.17c2.323 0 4.278 1.866 4.737 4.343-1.345-2.508-4.767-3.976-7.09-2.569-1.68 1.162-2.016 2.814-2.444 3.885v-.275c-.031-2.968 2.139-5.384 4.797-5.384ZM132.741 82.456c-.061-.489 1.222-2.936 3.147-3.946 0 0 2.537-.06 3.973.062 5.897.58 5.408 5.047 5.469 5.873.062.55-1.65-1.591-6.294-2.417-4.645-.795-6.173 1.193-6.295.428ZM113.765 82.457c.061-.46-1.13-2.845-2.964-3.855 0 0-2.628-.153-4.156-.03-5.897.581-5.408 5.047-5.469 5.873-.061.55 2.108-1.56 6.753-2.386 4.644-.826 5.714 1.162 5.836.398Z" fill="#1A1A1A"/><path d="M120.243 98.088c1.834-.214 3.362-1.989 3.117-3.732-.091-.673 1.009-.887 1.131-.184.336 2.294-1.62 4.742-4.095 5.017-.305.03-.58-.122-.642-.428a.634.634 0 0 1 .489-.673Z" fill="#C45C5C"/><path d="M162.167 106.744c.917-11.593-3.483-36.492-4.736-41.876-.031-.092-.031-.153-.061-.245-.397-1.713-1.039-3.946-1.039-4.65.03-6.882-.092-11.531-.336-12.938-.856-5.414-8.159-9.513-12.315-12.266-5.683-3.763-12.253-6.913-19.22-6.669-6.233.214-12.192 2.784-17.998 4.772-6.692 2.325-12.62 9.727-15.156 14.346-2.536 4.62-.336 7.953-.978 12.572-.367 2.631-3.422 15.478-3.972 18.66-.825 4.924-3.728 18.292-2.812 30.038.917 11.746-9.686 47.718-9.686 47.718s4.094.306 9.564-8.564c5.44-8.871 17.448-12.695 15.095-24.961-2.353-12.297 0-49.126 0-49.126 2.567-15.967 11.581-5.047 16.348-5.628 4.92-.581 9.84-8.779 16.532-4.466s10.297-5.078 14.147-.49c1.467 1.744 2.445 4.069 3.117 6.333.611 5.842 2.781 30.374-1.497 51.633-2.475 12.267 9.656 16.09 15.095 24.961 5.439 8.871 9.564 8.565 9.564 8.565s-10.603-35.942-9.656-47.719Z" fill="#E6E6E6"/><path d="M98.548 73.403s1.711-16.06 3.575-16.12c.703-.031 1.62 7.616 1.62 7.616s-3.484 2.478-5.195 8.504ZM113.185 67.743s1.161-8.81 2.689-8.35c1.191.336 2.597 7.065 2.597 7.065s-2.872 2.142-5.286 1.285ZM132.13 63.859s1.008-5.445 3.086-5.445 3.086 5.384 3.086 5.384-1.283.887-3.178.887c-1.955-.03-2.994-.826-2.994-.826Z" fill="#D6D6D6"/><path d="M90.175 54.376s38.502-12.633 66.156 1.713v1.53s-24.721-13.95-65.972-1.53l-.184-1.713Z" fill="#1A1A1A"/><path d="M90.39 56.486s38.287-12.633 65.941 1.713v1.53s-24.629-13.949-65.88-1.53l-.062-1.713Z" fill="#1A1A1A"/><path d="M68.724 150.18c-1.405.336-11.856 4.221-14.025 7.586-2.75 4.252-13.537 94.428-11.917 105.532 1.619 11.073 29.029 14.835 30.77 2.814 1.345-9.238 15.431-74.148 14.698-79.929-.733-5.751-18.12-36.309-19.526-36.003Z" fill="#E6E6E6"/><path d="M70.19 186.52c-1.221 0 5.226 12.419 5.226 14.988 3.3 17.497.092 28.998 1.68 46.189 3.454-17.191 8.404-41.356 10.36-53.806-5.96-.52-11.368-7.188-17.265-7.371Z" fill="#CCC"/><path d="M177.935 150.884c1.405.337 13.383 4.772 15.522 8.045 2.689 4.13 11.276 89.32 10.879 100.117-.398 10.798-29.854 16.029-31.474 4.436-1.222-8.963-14.545-71.792-13.75-77.359.794-5.568 17.417-35.545 18.823-35.239Z" fill="#E6E6E6"/><path d="M168.89 212.919c-.703-9.085 2.261-17.956 5.928-26.582-8.831 1.071-15.187 5.751-15.187 5.751 2.414 17.221 12.192 63.747 13.262 71.333.153 1.193.611 2.172 1.283 3.028-1.497-17.619-3.819-34.382-5.286-53.53Z" fill="#CCC"/><path d="M151.35 255.376c2.506.887 5.042 1.743 7.578 2.569 1.161-22.697 7.7-36.829 7.945-58.669 1.894-4.405 3.789-8.81 5.653-13.245 4.492-10.492 7.792-23.859 5.836-35.024l-40.579-14.285s-3.209 11.623-16.043 11.623c-12.833 0-14.759-11.623-14.759-11.623l-40.58 14.285c-1.955 11.134 1.345 24.532 5.837 35.024 1.895 4.405 3.79 8.84 5.653 13.245.214 20.005 4.706 47.443 5.959 62.248 16.959-4.986 34.132-9.299 51.549-11.471 4.859-.856 10.604 3.671 15.951 5.323Z" fill="#E6E6E6"/><path d="M77.83 199.276c.275 24.991 7.212 61.606 6.173 70.63a5535.785 5535.785 0 0 0-2.475 23.645h80.242c-.764-5.69-1.528-10.462-2.353-14.102-3.575-36.859 7.059-52.215 7.395-80.173 1.894-4.405 3.789-8.81 5.653-13.245 4.492-10.492 7.792-23.859 5.836-35.024l-40.579-14.285s-3.209 11.623-16.043 11.623-14.759-11.623-14.759-11.623l-40.58 14.285c-1.955 11.134 1.345 24.532 5.837 35.024 1.895 4.435 3.759 8.84 5.653 13.245Z" fill="#E6E6E6"/><path d="M136.897 134.764c-1.864 6.27-7.67 10.889-14.576 10.889-6.875 0-12.681-4.588-14.576-10.889l-5.592 3.181c1.987 9.33 10.268 15.57 20.168 15.57 9.9 0 18.181-6.24 20.168-15.57l-5.592-3.181Z" fill="#F2F2F2"/><path d="m117.401 219.281-.213-72.007h10.297v61.912c0 5.567-4.522 10.095-10.084 10.095Z" fill="#F2F2F2"/><path d="M122.352 160.152a1.835 1.835 0 1 0-.003-3.673 1.835 1.835 0 0 0 .003 3.673ZM122.351 177.068a1.835 1.835 0 1 0-.001-3.67 1.835 1.835 0 0 0 .001 3.67ZM122.351 194.014a1.834 1.834 0 1 0 0-3.668 1.834 1.834 0 0 0 0 3.668Z" fill="#CCC"/></g><path d="M220.055 240.474c13.21-13.224 13.21-34.664 0-47.887-13.21-13.224-34.628-13.224-47.837 0-13.21 13.223-13.21 34.663 0 47.887 13.209 13.224 34.627 13.224 47.837 0Z" fill="#E6E6E6"/><path d="M219.558 239.977c12.936-12.949 12.936-33.944 0-46.893-12.935-12.949-33.908-12.949-46.843 0-12.936 12.949-12.936 33.944 0 46.893 12.935 12.949 33.908 12.949 46.843 0Z" fill="#fff"/><path d="M204.977 209.369v7.403c0 4.771-3.911 8.84-8.678 8.748-4.645-.092-8.373-3.885-8.373-8.534v-7.617c0-.673-.55-1.223-1.222-1.223-.672 0-1.222.55-1.222 1.223v7.341c0 5.935 4.614 10.982 10.511 11.227 6.234.244 11.368-4.772 11.368-10.951v-7.617c0-.673-.55-1.223-1.223-1.223-.611 0-1.161.55-1.161 1.223Z" fill="#333"/><path d="M196.452 223.348c-3.484 0-6.356-2.875-6.356-6.362v-13.857c0-3.487 2.872-6.362 6.356-6.362 3.483 0 6.356 2.875 6.356 6.362v13.857c0 3.487-2.842 6.362-6.356 6.362ZM196.757 236.287h-.58a1.227 1.227 0 0 1-1.222-1.223v-8.718h2.994v8.748c0 .673-.519 1.193-1.192 1.193Z" fill="#333"/><path d="M201.494 237.48H191.41a1.358 1.358 0 0 1-1.345-1.346c0-.734.612-1.346 1.345-1.346h10.084c.733 0 1.344.612 1.344 1.346.031.734-.58 1.346-1.344 1.346Z" fill="#333"/><path d="M175.368 198.541a.738.738 0 0 1-.031-1.07.738.738 0 0 1 1.07-.031l42.474 39.001a.74.74 0 0 1 .03 1.071.737.737 0 0 1-1.069.03" fill="#FA2A33"/></svg>