<svg width="152" height="164" fill="none" xmlns="http://www.w3.org/2000/svg"><path d="M92.496 152.181H58.67C26.28 152.181 0 125.905 0 93.45V59.588C0 27.164 26.25.858 58.67.858h33.826c32.39 0 58.669 26.275 58.669 58.73V93.45c0 32.424-26.279 58.731-58.67 58.731Z" fill="#BD644D"/><mask id="a" style="mask-type:luminance" maskUnits="userSpaceOnUse" x="0" y="0" width="152" height="153"><path d="M92.496 152.181H58.67C26.28 152.181 0 125.905 0 93.45V59.588C0 27.164 26.25.858 58.67.858h33.826c32.39 0 58.669 26.275 58.669 58.73V93.45c0 32.424-26.279 58.731-58.67 58.731Z" fill="#fff"/></mask><g mask="url(#a)"><path d="M46.041 91.737c-2.292-.826-4.98.49-6.478 2.447-1.558 2.05-2.108 4.68-2.658 7.189-3.331 16.089-9.992 53.102-10.665 56.864-3.972 15.631 12.468 14.53 17.937 8.076.58-.673.886-2.447.886-2.447 3.881-14.193 7.181-26.949 10.115-42.274.458-2.447-6.662-24.593-9.137-29.855ZM105.658 92.287c2.291-.826 4.98.49 6.478 2.447 1.558 2.05 2.108 4.68 2.658 7.189 3.331 16.089 9.992 53.102 10.664 56.864 3.973 15.631-12.467 14.53-17.936 8.076-.581-.673-.887-2.447-.887-2.447-3.88-14.194-6.325-26.582-9.258-41.938-.459-2.416 5.805-24.93 8.281-30.19Z" fill="#453D45"/><path d="M102.571 174.633c-.977-4.435-1.986-8.871-2.963-13.275-1.803-8.076-4.676-18.048-1.65-25.756 1.038-.367 4.461-3.793 7.303-6.76a13.695 13.695 0 0 0 3.789-10.584c-.398-5.047-.948-11.899-1.314-14.805.916-2.6 1.833-5.17 2.719-7.77.214-.612.397-1.315-.061-1.805-.275-.305-.733-.458-1.192-.611-6.997-2.172-12.59-3.12-20.778-7.495-2.323 0-7.487 12.45-12.65 12.45-5.165 0-10.33-12.45-12.651-12.45-8.22 4.375-13.782 5.323-20.78 7.495-.427.122-.916.275-1.19.612-.46.489-.245 1.192-.062 1.804.917 2.6 1.834 5.17 2.72 7.77-.337 2.936-.917 9.758-1.314 14.805a13.69 13.69 0 0 0 3.789 10.584c2.872 2.997 6.294 6.393 7.303 6.76 3.025 7.708.153 17.68-1.65 25.756-.978 4.435-1.986 8.87-2.964 13.275 0 0 16.99 4.527 28.845 3.732 11.887-.826 24.751-3.732 24.751-3.732Z" fill="#E6E6E6"/><path d="M74.55 186.257c-12.13 0-27.409-3.793-27.562-3.855l-.703-.183 4.706-21.076c.184-.856.398-1.743.611-2.63 1.712-7.403 3.667-15.784 1.192-22.422-.642-.367-2.261-1.591-7.272-6.791-2.842-2.967-4.278-7.035-3.973-11.134.397-5.047.947-11.655 1.284-14.683l-2.69-7.616c-.183-.551-.58-1.652.184-2.509.428-.459 1.039-.673 1.497-.795 1.65-.52 3.209-.948 4.736-1.377 4.981-1.407 5.837-2.722 13.323-6.056 0 0 12.865 41.998 15.584 41.998 2.72 0 15.584-41.998 15.584-41.998 7.487 3.303 8.312 4.65 13.323 6.056 1.528.429 3.086.857 4.736 1.377.459.153 1.101.337 1.498.795.764.857.366 1.989.183 2.509l-2.689 7.616c.336 2.998.886 9.636 1.283 14.683.306 4.099-1.13 8.167-3.972 11.134-4.981 5.2-6.63 6.454-7.272 6.791-2.476 6.638-.52 15.019 1.191 22.422.214.887.398 1.774.611 2.63l4.706 21.107-.733.152c-.122.031-13.812 2.968-26.218 3.732-.947.092-2.017.123-3.147.123Z" fill="#453D45"/><path d="M105.474 129.301c2.72-2.815 4.156-6.638 4.003-10.554-1.008 5.904-2.475 8.626-5.531 11.41-7.608 6.913-17.845 11.257-28.142 7.25-8.068 3.793-18.12.275-24.507-4.711-4.278-3.09-7.823-7.127-8.525-12.358-.764-4.802 1.008-10.737-.092-15.264-.336 3.396-.764 8.779-1.1 13.062-.306 4.099 1.13 8.167 3.972 11.134 4.98 5.2 6.631 6.454 7.273 6.791 2.475 6.637.52 15.019-1.192 22.421-.214.887-.397 1.775-.611 2.631l-4.706 21.076s2.017-7.525 5.286-9.636c3.27-2.11 43.88-1.04 46.447.337 1.894 1.04 5.806 5.536 6.57 9.36l.091-.031-4.705-21.106c-.184-.856-.398-1.744-.612-2.631-1.71-7.402-3.666-15.784-1.191-22.421.641-.306 2.291-1.53 7.272-6.76Z" fill="#342E34"/><path d="M121.486 112.17c-.58-6.24 1.65-12.663-1.131-18.23-2.597-5.2-6.569-9.147-11.092-12.726-1.008-7.708-2.047-15.386-3.055-23.094-.245-1.774-.489-3.61-1.314-5.17a6.037 6.037 0 0 0-1.528-1.866 101.739 101.739 0 0 1-1.65-14.958c-.031-.825-.061-1.713-.367-2.477-.214-.52-.58-.98-.917-1.407l-2.841-3.58s-3.912-9.054-6.57-11.409c-1.1-.979-2.23-1.927-3.606-2.417-.947-.336-1.956-.428-2.964-.489a47.897 47.897 0 0 0-17.142 2.141c-1.62.52-3.27 1.132-4.523 2.325a5.91 5.91 0 0 0-1.62 2.723c-2.291 1.835-4.583 3.792-6.019 6.393-.947 1.713-1.467 3.609-1.956 5.506a167.496 167.496 0 0 0-3.91 20.219c-.367 2.845-.673 5.781-.245 8.626.122.734.275 1.438.489 2.141-.398 3.61-.917 7.188-1.559 10.737a185.448 185.448 0 0 1-1.894 9.115c-2.17 1.193-4.37 2.386-6.54 3.61-4.37 2.447-5.01 10.4-5.927 13.979a1082.42 1082.42 0 0 0-2.445 9.544s28.632 28.447 34.804 32.485c6.173 4.038 26.982 3.242 28.143-8.106 1.07-11.257 28.082-16.09 27.379-23.615Z" fill="#553544"/><path d="M50.227 64.727a81.23 81.23 0 0 0 6.417 10.156 89.937 89.937 0 0 0 2.078 2.692c.306.397.825-.184.52-.551a76.737 76.737 0 0 1-6.723-9.758 71.076 71.076 0 0 1-1.65-2.936c-.244-.429-.886-.062-.642.397ZM47.202 84.947c3.147 1.927 5.99 4.343 8.8 6.79 2.781 2.417 5.562 4.895 8.617 6.914 3.331 2.233 6.967 3.884 10.604 5.536 1.741.796 3.575 1.621 5.53 1.285.948-.153 1.834-.551 2.69-1.009.886-.459 1.741-.949 2.597-1.408a137.654 137.654 0 0 0 10.297-6.423c.398-.276.826-.581 1.223-.857.397-.275.03-.948-.367-.673a134.25 134.25 0 0 1-10.084 6.455c-.855.489-1.741.978-2.597 1.468-.856.459-1.68.948-2.597 1.315-.887.337-1.803.52-2.781.398-.947-.123-1.864-.49-2.75-.887-3.545-1.56-7.12-3.212-10.42-5.292-3.117-1.958-5.928-4.374-8.709-6.79-3.086-2.693-6.172-5.415-9.656-7.526-.427-.244-.825.46-.397.704ZM108.896 81.918c-1.405 1.408-2.841 2.815-4.247 4.222-.336.336.183.887.52.55 1.405-1.407 2.841-2.814 4.247-4.22.367-.337-.183-.888-.52-.552Z" fill="#402833"/><path d="M103.213 52.063a856.07 856.07 0 0 1-6.325 20.8l-3.3 10.278c-.276.826-.52 1.652-.826 2.447-.244.704-.52 1.408-1.008 1.989-.947 1.101-2.414 1.438-3.728 1.774-3.82 1.01-7.609 1.988-11.428 2.998-.459.122-.275.887.183.764 3.453-.917 6.875-1.804 10.328-2.722 1.437-.367 2.995-.642 4.248-1.499 1.283-.856 1.833-2.294 2.291-3.732 2.323-6.974 4.523-13.979 6.692-21.014 1.223-3.946 2.384-7.923 3.545-11.9.214-.458-.519-.672-.672-.183ZM97.407 29.673c1.345 7.25.459 14.713-.091 21.993l-.459 6.332c-.03.49.703.49.734 0 .275-3.762.58-7.555.855-11.318.275-3.67.489-7.372.336-11.042a46.573 46.573 0 0 0-.672-6.18c-.061-.489-.794-.275-.703.215ZM101.563 45.212c-.825 3.395-1.59 6.821-2.23 10.277-.093.49.61.704.733.215a226.917 226.917 0 0 1 2.23-10.278c.092-.49-.611-.704-.733-.214ZM114.488 90.544a203.388 203.388 0 0 0-9.9 13.857c-3.147 4.772-6.08 9.697-8.831 14.713a205.42 205.42 0 0 0-7.609 15.387c-1.039 2.324-2.047 4.863-4.522 5.811-1.192.459-2.506.582-3.759.612a34.525 34.525 0 0 1-4.002-.153c-5.287-.489-10.512-2.263-15.096-5.077-.55-.337-1.1-.704-1.65-1.102-.397-.275-.764.398-.366.673 4.492 3.12 9.656 5.2 14.972 6.026 1.345.214 2.69.337 4.034.398 1.314.061 2.659.061 3.972-.122 1.253-.153 2.506-.52 3.545-1.285 1.008-.734 1.772-1.805 2.353-2.906.642-1.193 1.161-2.478 1.711-3.732.611-1.315 1.192-2.631 1.834-3.915 1.252-2.631 2.566-5.2 3.91-7.77 2.72-5.108 5.623-10.125 8.74-14.988a218.08 218.08 0 0 1 9.9-14.194c.428-.58.856-1.131 1.314-1.713.275-.367-.244-.917-.55-.52Z" fill="#402833"/><path d="M43.963 88.831c3.025 4.803 6.02 9.575 9.045 14.377 3.025 4.803 6.02 9.574 9.045 14.377 1.436 2.263 2.811 4.558 4.308 6.791 1.192 1.804 2.598 3.609 4.462 4.68 4.094 2.355 8.708.091 11.947-2.784 3.331-2.967 5.745-7.005 9.534-9.391.459-.275.917-.52 1.406-.764.428-.214.06-.887-.367-.673-3.972 1.835-6.63 5.659-9.625 8.809-2.842 2.998-7.15 6.087-11.368 4.619-2.016-.703-3.544-2.355-4.766-4.099-1.467-2.08-2.75-4.282-4.126-6.454-2.964-4.711-5.928-9.391-8.861-14.101-2.964-4.711-5.928-9.391-8.861-14.102l-1.1-1.743c-.306-.337-.948.03-.673.458ZM58.386 28.694c-.917 1.804-1.833 3.61-2.475 5.536a14.996 14.996 0 0 0-.794 6.026c.152 2.172.702 4.283 1.222 6.393.55 2.203 1.1 4.374 1.62 6.577.61 2.447 1.222 4.925 1.833 7.372.122.49.855.275.733-.214-1.07-4.283-2.139-8.535-3.178-12.817-.52-2.05-1.1-4.13-1.375-6.24a15.148 15.148 0 0 1 .397-6.087c.611-2.172 1.65-4.191 2.69-6.18.213-.397-.428-.795-.673-.366Z" fill="#402833"/><path d="M95.665 60.536c-.58 10.37-12.375 20.74-18.853 20.74-6.478 0-18.365-10.707-19.19-21.627-.733-9.605-2.444-15.692-2.444-15.692.672-9.36 9.87-16.426 20.534-15.754l5.47.337c10.633.673 17.661 7.403 16.989 16.763-.397 5.23-2.017 6.27-2.506 15.233Z" fill="#FCCAC5"/><path d="M61.778 66.042c-2.75-5.506-2.75-12.113-1.925-18.17 9.35-4.955 22.153-5.078 29.976-.826 2.658 1.438 5.653-.795 8.373-2.019.52-9.207-6.478-15.814-17.02-16.487l-5.47-.337c-10.665-.672-19.862 6.394-20.535 15.754 0 0 1.712 6.087 2.445 15.692.825 10.92 12.712 21.626 19.19 21.626h.397c-6.936-2.019-12.437-8.993-15.431-15.233Z" fill="#E6A7A1"/><path d="M74.367 61.851c1.467-.153 2.69-1.59 2.475-2.967-.091-.55.825-.703.886-.153.276 1.805-1.283 3.762-3.239 3.977-.244.03-.458-.092-.519-.337 0-.245.153-.49.397-.52Z" fill="#C45C5C"/><path d="M66.397 62.901c2.108-.076 3.799-.645 3.776-1.27-.023-.624-1.75-1.068-3.858-.992-2.108.077-3.799.646-3.776 1.27.023.625 1.75 1.07 3.858.992ZM83.81 62.096c.03.612 1.772 1.07 3.88.979 2.108-.092 3.82-.643 3.789-1.254-.03-.612-1.772-1.071-3.88-.98-2.11.093-3.82.643-3.79 1.255Z" fill="#E87482"/><path d="M69.54 64.267c0 2.937 4.033 6.638 7.272 6.638s7.272-3.701 7.272-6.638c0-.305-14.545-.305-14.545 0Z" fill="#fff"/><path d="M90.96 51.482s-.123-.092-.367-.245c-.245-.153-.58-.367-1.009-.612a9.604 9.604 0 0 0-3.422-1.07 9.825 9.825 0 0 0-3.545.245 7.622 7.622 0 0 0-1.1.367c-.244.091-.397.152-.397.152s.092-.122.306-.336c.214-.214.52-.49.977-.765a6.16 6.16 0 0 1 1.681-.734 5.917 5.917 0 0 1 2.23-.183 5.857 5.857 0 0 1 2.14.673c.61.336 1.1.734 1.497 1.1.367.368.642.704.795.949.152.336.213.459.213.459ZM61.075 51.482s.122-.092.367-.245c.244-.153.58-.367 1.008-.612a9.604 9.604 0 0 1 3.422-1.07 9.825 9.825 0 0 1 3.545.245c.458.122.825.244 1.1.367.245.091.397.152.397.152s-.091-.122-.305-.336a4.941 4.941 0 0 0-.978-.765 6.16 6.16 0 0 0-1.68-.734 5.917 5.917 0 0 0-2.231-.183 5.857 5.857 0 0 0-2.14.673c-.61.336-1.1.734-1.497 1.1-.366.368-.641.704-.794.949-.122.336-.214.459-.214.459Z" fill="#472824"/><path d="M63.55 55.887c.703 1.774 2.383 3.06 3.972 2.845 1.559-.183 2.812-1.805 2.964-3.67-.855-1.591-2.078-3.151-3.605-3.274-1.04-.091-1.987.52-2.659 1.377-.397.49-.703 1.04-.978 1.621.062.398.153.765.306 1.101Z" fill="#fff"/><path d="M70.486 55.061c-.214-.856-.794-1.957-1.466-2.539-.673-.55-1.528-.887-2.353-.887-1.65-.03-3.025 1.255-3.912 2.631l-1.986-.673 2.659 2.05s.61-3.335 3.3-3.243c2.414.03 3.758 2.661 3.758 2.661Z" fill="#472824"/><path d="M64.589 55.367c-.061 1.835 1.008 3.334 2.353 3.395 1.344.03 2.475-1.407 2.536-3.242.061-1.836-1.008-3.334-2.353-3.396-1.375-.03-2.505 1.408-2.536 3.243Z" fill="#472824"/><path d="M65.658 54.633c0 .184.153.337.337.367a.34.34 0 0 0 .336-.336c0-.184-.153-.337-.336-.367a.34.34 0 0 0-.337.336ZM88.943 55.703c-.611 1.804-2.23 3.18-3.82 3.058-1.589-.122-2.903-1.682-3.147-3.517.764-1.621 1.925-3.243 3.422-3.457 1.009-.153 2.017.428 2.72 1.224.397.459.764 1.01 1.07 1.56-.031.398-.123.765-.245 1.132Z" fill="#fff"/><path d="M81.976 55.244c.153-.856.672-2.019 1.314-2.6.641-.612 1.497-.979 2.322-1.01 1.62-.122 3.086 1.102 4.034 2.417l1.955-.795-2.567 2.172s-.764-3.304-3.483-3.06c-2.353.184-3.575 2.876-3.575 2.876Z" fill="#472824"/><path d="M87.874 55.213c.152 1.835-.825 3.395-2.17 3.518-1.344.122-2.567-1.285-2.689-3.09-.153-1.835.825-3.395 2.17-3.517 1.344-.123 2.566 1.284 2.689 3.09Z" fill="#472824"/><path d="M86.773 54.54c0 .184-.122.367-.305.367-.184.03-.336-.122-.367-.305 0-.184.122-.368.306-.368.183 0 .336.123.366.306ZM56.705 47.78c4.125-1.59 8.281-3.212 12.406-4.802 4.89-1.897 10.36-3.793 15.218-1.775 1.62.673 3.055 1.775 4.46 2.845 2.965 2.264 5.929 4.527 8.862 6.76 0 0-1.405-5.78-4.003-10.461-2.597-4.68-6.722-7.984-15.95-7.984-9.228 0-17.295 6.76-19.434 8.198-2.14 1.438-1.559 7.22-1.559 7.22Z" fill="#fff"/><path d="M56.736 67.632c.611-4.588 1.008-21.136 1.68-22.33 2.506-4.618 16.135-11.593 20.32-11.409 8.862.398 15.249 11.073 16.074 13.306.55 1.499 1.008 3.854 1.1 5.445.244 3.854.52 7.708.764 11.563 0 0 3.025-15.264 3.453-19.302.427-4.038-4.859-19.638-23.62-20.158-18.793-.52-22.766 14.101-23.316 17.558-.489 3.456 3.545 25.327 3.545 25.327Z" fill="#553544"/></g><path d="M135.214 148.798c8.127-8.135 8.127-21.324 0-29.459-8.126-8.135-21.302-8.135-29.428 0-8.127 8.135-8.127 21.324 0 29.459 8.126 8.135 21.302 8.135 29.428 0Z" fill="#E6E6E6"/><path d="M140.591 137.706c2.002-11.089-5.354-21.703-16.432-23.708-11.077-2.004-21.681 5.36-23.683 16.449-2.002 11.089 5.354 21.703 16.431 23.708 11.078 2.005 21.681-5.36 23.684-16.449Z" fill="#fff"/><path d="M125.948 129.667v4.557c0 2.937-2.414 5.445-5.348 5.384-2.842-.061-5.164-2.386-5.164-5.261v-4.68a.743.743 0 0 0-.733-.734.744.744 0 0 0-.734.734v4.527c0 3.64 2.842 6.76 6.478 6.913 3.82.153 6.998-2.937 6.998-6.73v-4.68a.744.744 0 0 0-.734-.734.691.691 0 0 0-.763.704Z" fill="#333"/><path d="M120.692 138.262c-2.139 0-3.911-1.774-3.911-3.915v-8.504c0-2.141 1.772-3.915 3.911-3.915 2.139 0 3.911 1.774 3.911 3.915v8.504a3.92 3.92 0 0 1-3.911 3.915ZM120.875 146.246h-.366a.744.744 0 0 1-.734-.734v-5.384h1.834v5.384a.725.725 0 0 1-.734.734Z" fill="#333"/><path d="M123.809 146.95h-6.203a.822.822 0 0 1-.825-.826c0-.459.366-.826.825-.826h6.203c.458 0 .825.367.825.826a.822.822 0 0 1-.825.826Z" fill="#333"/><path d="M107.735 123.03c-.183-.184-.214-.459-.03-.643.183-.183.458-.214.641-.03l26.127 23.981c.183.184.213.459.03.643-.183.183-.458.214-.642.03" fill="#FA2A33"/></svg>