<svg width="396" height="418" fill="none" xmlns="http://www.w3.org/2000/svg"><path d="M382.919 96.018c-7.914-18.72-19.22-35.544-33.643-49.982-14.423-14.438-31.229-25.756-49.93-33.678C280.004 4.16 259.408 0 238.232 0h-80.823c-21.206 0-41.771 4.16-61.144 12.358-18.7 7.922-35.507 19.27-49.9 33.678-14.422 14.438-25.728 31.231-33.643 49.982C4.502 115.412.347 135.998.347 157.227v80.907c0 21.229 4.156 41.815 12.345 61.209 7.914 18.72 19.22 35.544 33.643 49.982 14.423 14.438 31.199 25.756 49.93 33.678 19.373 8.198 39.938 12.358 61.144 12.358h80.823c21.207 0 41.772-4.16 61.145-12.358 18.7-7.922 35.507-19.24 49.93-33.678 14.422-14.438 25.728-31.231 33.643-49.982 8.189-19.394 12.345-39.98 12.345-61.209v-80.907c0-21.229-4.156-41.815-12.376-61.209Zm1.436 142.116c0 19.761-3.85 38.909-11.489 56.957-7.364 17.435-17.906 33.066-31.321 46.495-13.414 13.428-29.059 23.981-46.446 31.353-18.029 7.617-37.158 11.502-56.897 11.502h-80.793c-19.739 0-38.868-3.854-56.897-11.502-17.417-7.372-33.032-17.925-46.446-31.353-13.415-13.429-23.957-29.09-31.32-46.495-7.61-18.048-11.49-37.196-11.49-56.957v-80.907c0-19.761 3.85-38.909 11.49-56.957 7.363-17.435 17.905-33.066 31.32-46.495 13.414-13.428 29.06-23.981 46.446-31.353 18.029-7.617 37.158-11.502 56.897-11.502h80.823c19.74 0 38.869 3.854 56.897 11.502 17.418 7.372 33.032 17.925 46.447 31.353 13.414 13.429 23.956 29.09 31.32 46.495 7.609 18.048 11.49 37.196 11.49 56.957v80.907h-.031Z" fill="#B8AB9C"/><path d="M238.599 380.006h-81.556c-78.073 0-141.387-63.35-141.387-141.535V156.86c0-78.155 63.283-141.535 141.387-141.535h81.556c78.073 0 141.387 63.35 141.387 141.535v81.642c-.031 78.154-63.314 141.504-141.387 141.504Z" fill="#B5C2AA"/><mask id="a" style="mask-type:luminance" maskUnits="userSpaceOnUse" x="15" y="15" width="365" height="366"><path d="M238.599 380.006h-81.556c-78.073 0-141.387-63.35-141.387-141.535V156.86c0-78.155 63.283-141.535 141.387-141.535h81.556c78.073 0 141.387 63.35 141.387 141.535v81.642c-.031 78.154-63.314 141.504-141.387 141.504Z" fill="#fff"/></mask><g mask="url(#a)"><path d="M173.788 172.154V247.831h44.155v-75.677h-44.155Z" fill="#BD644D"/><path d="M217.943 172.154h-44.155v9.238s14.239 18.048 26.707 14.958c5.408-1.223 14.361-8.198 17.417-12.847v-11.349h.031Z" fill="#8E4432"/><path d="M127.616 300.536c.52 45.516 15.89 71.608 6.876 136.304h119.874c-9.625-66.439 9.167-90.176 9.687-136.304 2.903-6.76 5.806-13.52 8.678-20.311 6.875-16.09 13.903-33.434 10.817-50.533L219.47 204.67c-.275.52.031-16.976-.55-16.518 0 0-12.986 4.099-23.131 4.099-10.176 0-23.468-4.099-23.468-4.099-.489-.397.092 16.977-.153 16.518l-64.139 25.053c-3.055 17.099 3.942 34.473 10.818 50.533 2.994 6.729 5.867 13.52 8.769 20.28Z" fill="#006550"/><path d="M115.119 224.584c-2.17.489-19.832 9.36-23.162 14.499-4.217 6.515-18.487 142.452-18.09 159.582.397 17.13 44.491 22.728 47.18 4.313 2.047-14.193 23.651-113.699 22.52-122.539-1.1-8.84-26.279-56.345-28.448-55.855Z" fill="#6E4B2D"/><path d="M115.118 224.584c-1.038.245-9.931 33.403 4.248 64.42 2.903 8.29-.764 8.534-7.548 14.071 7.365-1.254 10.817 1.835 11.826 5.567 3.117 11.532 1.711 17.925 9.961 30.65 5.47-27.591 10.543-54.448 9.993-58.853-1.131-8.84-26.31-56.345-28.48-55.855Z" fill="#533822"/><path d="M281.379 226.694c2.169.52 19.739 9.269 23.009 14.285 4.125 6.332 16.837 137.803 16.226 154.352-.611 16.548-44.766 21.443-47.241 3.64-1.895-13.735-22.307-110.089-21.115-118.624 1.222-8.534 26.951-54.142 29.121-53.653Z" fill="#6E4B2D"/><path d="M281.379 226.694c1.039.245 3.606 31.354-8.739 62.708-4.003 9.513 4.369 10.95 11.092 16.365-7.364-1.316-11.704-6.332-15.34-.368-4.186 6.883-6.753 19.21-6.814 31.874-5.164-26.735-9.9-52.705-9.289-56.926 1.191-8.534 26.92-54.142 29.09-53.653Z" fill="#533822"/><path d="M236.093 123.06c2.292-2.416 5.684-3.242 8.587-2.08 2.903 1.162 5.194 4.282 5.775 7.892.947 5.659-7.823 20.556-9.962 21.993-2.139 1.438-5.072 1.56-6.844-.489l2.444-27.316ZM160.954 123.06c-2.292-2.416-5.684-3.242-8.587-2.08-2.903 1.162-5.194 4.282-5.775 7.892-.947 5.659 7.823 20.556 9.962 21.993 2.139 1.438 5.072 1.56 6.844-.489l-2.444-27.316Z" fill="#BD644D"/><path d="M197.744 60.536c-39.724 0-40.212 26.154-40.212 33.159 0 13.306-.887 44.445 2.261 60.963 1.405 7.372 5.103 12.878 10.542 18.078 7.884 7.494 19.556 15.417 27.44 15.417s19.556-7.923 27.44-15.417c5.439-5.169 9.137-10.675 10.542-18.078 3.147-16.518 2.261-47.688 2.261-60.963-.061-7.005-.58-33.159-40.274-33.159Z" fill="#BD644D"/><path d="M161.687 131.839c5.959-6.21 5.959-25.45 8.709-41.295 17.54-2.172 32.421-2.63 47.546-2.937 6.448-.49 14.301 3.12 20.015 4.772-.183-8.473-2.689-31.843-40.213-31.843-39.724 0-40.212 26.154-40.212 33.159 0 13.306-.887 44.445 2.261 60.963a33.323 33.323 0 0 0 1.344 4.864c-.794-9.452.55-27.683.55-27.683Z" fill="#8E4432"/><path d="M219.929 141.535c3.577 0 6.478-3.478 6.478-7.769s-2.901-7.77-6.478-7.77c-3.578 0-6.478 3.479-6.478 7.77 0 4.291 2.9 7.769 6.478 7.769Z" fill="#fff"/><path d="M219.929 140.74c2.497 0 4.522-2.643 4.522-5.904 0-3.26-2.025-5.903-4.522-5.903-2.498 0-4.523 2.643-4.523 5.903 0 3.261 2.025 5.904 4.523 5.904Z" fill="#1A1A1A"/><path d="M221.731 133.123c0 .245.184.459.428.459.214 0 .428-.214.428-.459 0-.245-.183-.459-.428-.459-.244 0-.428.184-.428.459Z" fill="#fff"/><path d="M219.929 125.721c-3.27 0-5.989 2.814-6.601 6.515 1.895-3.732 6.662-5.965 9.901-3.823 2.353 1.743 2.811 4.19 3.392 5.811 0-.153.03-.275.03-.428 0-4.466-3.025-8.075-6.722-8.075Z" fill="#1A1A1A"/><path d="M178.31 141.535c3.578 0 6.478-3.478 6.478-7.769s-2.9-7.77-6.478-7.77-6.478 3.479-6.478 7.77c0 4.291 2.9 7.769 6.478 7.769Z" fill="#fff"/><path d="M178.31 140.74c2.498 0 4.523-2.643 4.523-5.904 0-3.26-2.025-5.903-4.523-5.903-2.497 0-4.522 2.643-4.522 5.903 0 3.261 2.025 5.904 4.522 5.904Z" fill="#1A1A1A"/><path d="M176.507 133.123c0 .245-.183.459-.428.459-.213 0-.427-.214-.427-.459 0-.245.183-.459.427-.459.245 0 .428.184.428.459Z" fill="#fff"/><path d="M178.31 125.721c3.27 0 5.989 2.814 6.6 6.515-1.894-3.732-6.661-5.965-9.9-3.823-2.353 1.743-2.811 4.19-3.392 5.811 0-.153-.03-.275-.03-.428 0-4.466 3.025-8.075 6.722-8.075Z" fill="#1A1A1A"/><path d="M211.801 124.038c-.153-1.07 2.383-8.564 7.15-8.044 0 0 6.203 2.844 7.914 4.68 1.711 1.804 2.506 5.628 2.567 6.209.061.796-2.322-2.202-8.8-3.365-6.54-1.223-8.679 1.56-8.831.52ZM185.277 124.038c.153-1.07-2.383-8.564-7.15-8.044 0 0-6.387 2.967-8.098 4.863-1.589 1.744-2.353 5.445-2.383 6.026-.061.796 2.964-2.172 9.442-3.365s8.006 1.56 8.189.52ZM178.646 153.954c8.648-2.325 17.448-6.975 27.043-4.069 7.762 2.906 18.701 4.069 26.249-.581 5.103-3.732 1.894-12.786 4.889-18.873 0 0 .519 7.678.886 11.287.428 4.191.275 9.238-.184 13.459-.58 4.986-3.666 11.318-6.844 15.417-6.692 8.657-19.434 20.036-31.229 20.647-2.659.123-5.256-.458-7.762-1.223-12.131-3.61-22.795-14.499-28.815-24.747-5.317-9.054-5.256-25.511-5.103-37.593 2.322 6.638 2.017 15.202 3.453 21.626 1.436 6.974 11.245 5.812 17.417 4.65Z" fill="#2C1E1C"/><path d="M215.101 157.656c.183-.184-2.873.673-8.953-.826-2.384-.612-4.553.153-7.609.306-1.864.091-3.82-.429-5.714-.612-2.475-.153-7.976.673-9.717.459 4.43 3.823 6.783 7.494 15.492 7.739 10.267.275 10.878-3.09 16.501-7.066Z" fill="#fff"/><path d="M253.083 90.543a.72.72 0 0 0-.856-.49 6.765 6.765 0 0 0-3.483 2.05c-.061-1.162-.336-2.386-.917-3.395.458.459 1.07.795 1.803.887.367.03.703-.367.703-.704 0-.428-.336-.672-.703-.703-1.283-.153-1.558-1.805-1.436-2.814.091-.734.428-1.53.58-2.325.398.52.917.948 1.559 1.254.825.367 1.528-.856.703-1.223-2.078-.918-2.17-3.61-2.384-5.567 0-.123-.03-.276-.03-.398.122-.061.244-.153.366-.245 0 .03.031.092.031.123.214.887 1.589.52 1.344-.368a12.495 12.495 0 0 0-.305-1.009 4.546 4.546 0 0 0 .55-2.906c-.428-2.6-2.995-4.16-5.409-4.558.367-.336.367-1.04-.244-1.223-.52-.153-1.07-.214-1.62-.245.52-.918.764-1.988.611-3.12a5.686 5.686 0 0 0-.305-1.193c.153-.459.275-.918.305-1.438.245-2.355-1.497-4.68-3.85-4.741a14.252 14.252 0 0 0-1.833-3.67c-.153-.215-.336-.306-.55-.306a8.532 8.532 0 0 0 .825-5.69c-.061-.367-.52-.581-.856-.49-.397.092-.58.49-.489.857a7.06 7.06 0 0 1-.458 4.13c-.214-1.316-1.008-2.448-1.956-3.335a8.58 8.58 0 0 0-1.925-2.508 8.39 8.39 0 0 0-3.483-1.774c-.184-1.132-.611-2.233-1.284-3.12-1.497-2.019-3.942-2.998-6.417-2.661-.061 0-.122.03-.183.03a12.411 12.411 0 0 0-1.222-2.263c1.833.06 3.667.55 5.286 1.437.795.428 1.497-.764.703-1.223a13.547 13.547 0 0 0-7.12-1.622c-1.894-2.018-4.492-3.395-7.303-3.7-.367-.031-.703.366-.703.703 0 .428.336.673.703.703 1.742.184 3.361.857 4.736 1.897-.519-.245-1.039-.428-1.558-.612-1.895-.581-3.911-.612-5.836-.183-2.628-1.53-5.653-2.356-8.709-2.295-.917.031-.917 1.438 0 1.407 2.353-.03 4.706.46 6.814 1.469-1.589-.612-3.27-.948-4.981-.887a12.49 12.49 0 0 0-5.225 1.346 19.402 19.402 0 0 1-1.742-3.58c-.122-.366-.489-.611-.855-.489-.336.092-.611.52-.489.857a21.568 21.568 0 0 0 1.589 3.395c-3.881 0-7.609.887-10.573 3.763l-.183.183c-1.986-.55-4.187-.336-5.959.734-1.772 1.101-3.086 2.998-3.483 5.078-.031.03-.061.03-.123.061.092-1.285.337-2.539.673-3.762.275-.857-1.1-1.254-1.345-.367a18.132 18.132 0 0 0-.764 5.26c-.214.215-.427.43-.641.643a6.696 6.696 0 0 1-1.192-3.762c0-.918-1.406-.918-1.406 0 0 1.805.611 3.548 1.711 4.925-.244.397-.488.795-.702 1.223-2.689-1.346-5.928-1.59-8.77-.581-.917.337-1.772.795-2.567 1.346a23.764 23.764 0 0 1-6.356-2.202c-.794-.429-1.528.795-.703 1.223a27.031 27.031 0 0 0 5.684 2.11 11.32 11.32 0 0 0-1.864 2.325.605.605 0 0 0-.611-.091c-3.086 1.223-6.478 2.508-8.648 5.17a9.218 9.218 0 0 0-1.589 2.691 8.607 8.607 0 0 0-3.025 1.958c-.978.979-1.742 2.202-2.078 3.517-.427 1.56-.244 3.212-.702 4.742-.489 1.713-2.017 2.416-3.087 3.732-.978 1.193-1.466 2.936-.366 4.22.091.093.152.184.244.246-.122.55-.214 1.1-.244 1.651-.062 1.56.458 2.906 1.161 4.191-.153.612-.122 1.285.03 1.896-1.008 1.897-1.833 3.855-2.139 5.996-.458 3.212.245 6.668 2.781 8.871.489.428 1.069.795 1.65 1.101-.336.734-.458 1.591-.336 2.386.306 1.958 1.803 3.426 3.575 4.191-1.436 1.131-2.231 3.058-1.528 5.047a5.04 5.04 0 0 0 1.223 1.957c-.642.765-.978 1.744-.703 2.815.244.856.855 1.56 1.68 1.865.459.153.917.215 1.406.184.122.214.244.398.428.551.733.764 1.833.948 2.842 1.009h.03c.122.52.214 1.071.489 1.529.214.368.489.704.794.949-.183.397-.336.795-.488 1.223-.306.857 1.069 1.224 1.344.367l.367-.917c.855.306 1.803.397 2.689.336 1.13-.061 2.689-.367 3.972-.092.214.062.397.123.611.184.184.092.367.183.52.306-.367.03-.703.306-.703.703 0 .337.336.735.703.704.366-.031.733-.092 1.069-.153.214.061.428 0 .611-.153a5.74 5.74 0 0 0 .764-.306c.795-.428 1.284-1.193 1.406-2.08.122-.887-.122-1.774-.397-2.631-.245-.764-.642-1.743-.245-2.538.122-.276.122-.582-.061-.796.122.031.245.031.367.031.917.03.917-1.377 0-1.407-.275 0-.55-.092-.795-.276.031-.397.031-.795.061-1.192.031-.031.062-.062.062-.092l.275-.276c.641.796 1.619 1.316 2.689 1.255.916-.062.916-1.469 0-1.407a1.922 1.922 0 0 1-1.528-.612 6.29 6.29 0 0 0 .947-.612c.733-.551 1.283-1.315 1.406-2.233.122-1.04-.459-1.591-1.1-2.325-.825-.979-.673-2.294-.367-3.548.214-.337.367-.734.489-1.101a4.812 4.812 0 0 0 .122-1.744v-.642c.153.03.336.061.489.061.367 0 .733-.337.703-.704-.031-.397-.306-.703-.703-.703h-.183c-.092-.031-.184-.031-.275-.061-.031 0-.275-.062-.275-.092-.031 0-.062-.031-.092-.031a3.257 3.257 0 0 0-1.283-1.59c0-.03-.031-.061-.031-.092 0-.03-.031-.092-.031-.122v-.612c.031-.153-.03-.275-.122-.398.031-.367.061-.734.061-1.101.52-.704.978-1.438 1.314-2.233.275.918.795 2.019.367 2.875-.397.826.825 1.53 1.222.704.611-1.285.153-2.508-.183-3.824-.153-.611-.336-1.254-.092-1.835.214-.581.703-1.07 1.039-1.59.703-1.102.642-2.264-.061-3.274.031-.153.061-.275.092-.428 1.528.581 3.453.367 4.889-.183.855-.306.489-1.683-.367-1.346-1.253.458-2.781.642-4.064.183a1.47 1.47 0 0 1-.214-.092c.061-.611.092-1.223.092-1.835.428 0 .855 0 1.253-.092.916.367 2.078.49 3.147.46 0 .152.031.336.092.52.336.947 1.497 1.223 2.383 1.1 1.283-.214 2.353-1.1 2.995-2.233a21.85 21.85 0 0 0 2.414-.703c.733.367 1.528.642 2.322.826 1.314.275 2.658.306 4.003.122 0 .367.214.704.672.704 1.742-.031 3.423-.398 5.012-1.01.397.03.825.03 1.222.03 1.833-.03 4.003-.305 5.683-1.253.214.122.398.214.612.306 1.344.55 2.841.611 4.247.275.367-.092.58-.52.489-.857-.092-.367-.489-.58-.856-.49a5.463 5.463 0 0 1-3.055-.121c-.062-.031-.123-.031-.184-.062.061-.091.122-.153.214-.244 1.864.306 3.82.55 5.653.06.031.031.031.062.061.093v.03c0 .03.031.061.031.123.03.091.061.183.091.244.062.184.123.367.153.55.092.368.52.613.856.49a.722.722 0 0 0 .489-.856c-.122-.398-.245-.826-.428-1.193.733-.398 1.406-.979 1.833-1.652.673-.122 1.314-.367 1.925-.612a13.16 13.16 0 0 0 5.562-4.343c.305-.123.58-.245.886-.367-.764 1.376-.886 3.028-.183 4.527.886 1.835 3.239 3.303 5.255 2.66.214.276.428.52.703.735 1.436 1.254 3.392 1.805 5.256 1.53.031.03.061.091.122.122.122.856.367 1.682.672 2.477-.213.092-.397.184-.58.276-.336.153-.428.673-.245.979.214.367.612.397.978.244.153-.06.306-.153.489-.214.428.796.947 1.53 1.559 2.203.611.673 1.589-.337 1.008-1.01-.489-.55-.947-1.162-1.283-1.835a19.736 19.736 0 0 0 2.719-1.774c.031 1.927-.733 3.823-1.344 5.659a7.461 7.461 0 0 1-2.475.153c-.367-.03-.703.367-.703.703 0 .428.336.673.703.704.672.091 1.344.06 2.016-.03-.519 2.018-.703 4.098.184 6.056.152.336.427.397.672.336v.581c-.458.123-.764.734-.367 1.193.092.123.184.214.275.337-.153 1.713-.642 3.334-2.078 4.405-.733.52-.03 1.743.703 1.223.947-.703 1.589-1.59 2.017-2.569.275 1.284.794 2.508 1.589 3.548a12.51 12.51 0 0 1-.275 2.111c-.245-.214-.397-.429-.459-.765-.152-.887-1.497-.52-1.344.367.122.826.764 1.407 1.436 1.835.061.367.459.551.795.52.061.031.091.092.152.123.031.428.031.856.062 1.284-.214.245-.428.459-.551.735a1.97 1.97 0 0 0-.122 1.254c.061.244.153.459.275.673-.214.397-.427.795-.672 1.162a14.217 14.217 0 0 1-1.558 2.019c-.245.275-.275.734 0 1.009a.717.717 0 0 0 1.008 0 15.414 15.414 0 0 0 1.925-2.539c.031.582.092 1.132.122 1.683-.061.092-.152.153-.214.245-.58.734-.794 1.529-.641 2.447.153 1.009.672 1.835.947 2.814.183.703.122 1.682-.733 1.805-.887.122-.52 1.498.366 1.346.459-.062.825-.276 1.131-.582a.88.88 0 0 0 .275.061c.336-.03.642-.03.978-.03.153 0 .275 0 .428.03.091 0 .152.031.244.031.031 0 .092 0 .122.031.306.061.581.122.886.183.153.031.306.092.459.153a.427.427 0 0 0 .183.061c.031 0 .275.092.153.062.336.152.764.122.978-.245.122-.245.122-.643-.092-.857h.122c.153 0 .306-.03.459-.03h.58c.061 0 .092.03.153.03.306.061.581.153.856.245.336.122.794-.153.855-.489.092-.398-.122-.735-.489-.857-.214-.092-.428-.153-.641-.214h1.161c.183.489.397.918.703 1.315.213.306.611.459.977.245.306-.184.489-.642.245-.979-.122-.153-.214-.306-.306-.459.153.031.336.031.489.062.367.061.764-.092.856-.49.091-.336-.123-.795-.489-.856-.459-.092-.917-.123-1.345-.184-.091-.642 0-1.315.336-1.896a2.825 2.825 0 0 1 1.039-1.04c.275.673.825 1.254 1.589 1.407.367.061.764-.123.856-.49.092-.336-.122-.795-.489-.856-.275-.061-.458-.214-.611-.429.214 0 .397.031.58.062.887.244 1.253-1.132.367-1.346a4.245 4.245 0 0 0-1.069-.123c0-.03.03-.091.03-.122.092-.367.245-.704.397-1.04a.675.675 0 0 0 .398.306c.366.092.794-.122.855-.49a13.37 13.37 0 0 0 .184-4.924c.183.091.336.153.55.214.855.275 1.222-1.071.366-1.346-.672-.214-1.161-.642-1.558-1.132.061-.306.153-.673.305-.856.062-.092.184-.215.306-.245-.031.03.061-.031.092-.031l.091-.03c.031 0 .092 0 .123.03.366.123.764-.122.855-.489.092-.367-.122-.765-.489-.857-.641-.183-1.283.031-1.772.429-.061.061-.122.122-.153.183-.214-.856-.55-1.713-.916-2.508a4.67 4.67 0 0 1-.153-.642c.336.458.733.825 1.283 1.07.336.153.764.092.978-.245.183-.305.092-.795-.245-.978-.275-.123-.427-.215-.611-.398-.214-.214-.305-.306-.458-.581-.336-.49-.581-1.04-.917-1.53a4.52 4.52 0 0 0-.886-.979c.275 0 .581.031.856.062.825.122 1.68.428 2.078 1.193.183.336.641.428.977.244.337-.214.428-.611.245-.979a2.783 2.783 0 0 0-.764-.917c.611.092 1.069-.887.428-1.346-.948-.642-1.345-1.621-1.498-2.692.55-.979 1.101-1.927 2.017-2.57.306-.213.459-.611.245-.978-.184-.306-.642-.46-.978-.245a6.71 6.71 0 0 0-1.345 1.285c.031-.061.031-.123.061-.153 0-.03.031-.092.031-.092.092-.245.214-.459.336-.673.061-.122.153-.214.214-.336a.547.547 0 0 1 .122-.153c0-.03.031-.03.031-.03s0-.031.03-.031c.184-.215.367-.429.55-.612.092-.092.184-.184.306-.276.061-.03.092-.091.153-.122l.061-.061c.214-.153.428-.306.672-.428.122-.061.245-.123.336-.184 0 0 .092-.03.122-.061.031 0 .123-.03.123-.061.244-.092.519-.184.794-.245.214 0 .459-.428.367-.765Zm-18.487 2.294c0 1.285.031 2.662.061 4.13a7.14 7.14 0 0 0-.611 1.04c-.061-1.56-.061-3.548.55-5.17Zm6.6-31.292c.367.214.672.55.886.887a6.807 6.807 0 0 1-1.68 2.172c.275-1.07.397-2.172.428-3.273.122.061.244.122.366.214Zm-8.006-13.367c.123.092.275.214.398.336.213.46.397.948.488 1.438a46.424 46.424 0 0 0-2.383-2.661c.52.244 1.039.52 1.497.887Zm-3.544-2.967c-.061-.061-.153-.123-.214-.184v-.122c.458.122.886.306 1.314.55-.367-.091-.734-.183-1.1-.244Zm5.042 54.998c0 .429.03.857.03 1.316a2.209 2.209 0 0 0-.214-.367c.061-.337.123-.643.184-.949Zm12.161-12.663c.031-.092.061-.184.092-.245.061.214.153.398.275.612-.122-.153-.245-.245-.367-.367Zm1.498-11.991c-.062-.214-.092-.428-.153-.612.091.153.183.337.275.49l-.122.122Zm.855-1.652a9.86 9.86 0 0 0-2.994-3.059 9.48 9.48 0 0 0-3.912-1.346c2.2-.183 4.431.03 5.989 1.683.703.734 1.07 1.713.917 2.722Zm-7.731-7.066a6.886 6.886 0 0 0-1.344.428c.03-.214.061-.459.091-.673.887-.673 1.712-1.407 2.353-2.263-.061.979-.489 1.835-1.1 2.508Zm.428-8.259c.52.612.672 1.407.642 2.202a4.412 4.412 0 0 0-.764-.55 3.875 3.875 0 0 0-.978-.398c-.061-.734-.153-1.468-.336-2.172.58.123 1.069.49 1.436.918Zm-3.147-1.835c-.031.244.03.49.214.673.061.183.091.367.122.58-.581-1.498-1.345-2.936-2.292-4.404.092-.092.153-.214.244-.306.764 1.07 1.314 2.233 1.712 3.457ZM225.918 40.04c1.008.795 1.68 1.927 1.955 3.15-.152 0-.336-.03-.488-.03a47.325 47.325 0 0 0-4.92-3.61 5.639 5.639 0 0 0-.306-.611c1.314-.061 2.689.275 3.759 1.101Zm-10.328-3.915c.58-.214 1.161-.367 1.741-.49a10.991 10.991 0 0 1 2.598 2.447c-.031 0-.031 0-.061.031-1.376-.765-2.812-1.407-4.278-1.988Zm-1.009-1.774c.306.091.611.214.886.336-.641.214-1.252.459-1.864.765-.519-.153-1.008-.306-1.527-.459a20.108 20.108 0 0 0-1.223-1.04c1.253-.092 2.536.03 3.728.398Zm-6.692 43.772h-.397c-.122-.03-.306-.06-.489-.153.306-.091.581-.183.886-.275v.428Zm-16.5 4.436c-.153 0-.276-.03-.428-.03a26.174 26.174 0 0 0 1.528-.98c.427-.061.825-.153 1.222-.214-.703.459-1.497.887-2.322 1.224Zm-28.51 26.092c0 .031 0 .061.03.092-.091-.123-.213-.214-.336-.306.031-.245.031-.49.061-.734.092-.031.153-.061.245-.092a2.977 2.977 0 0 0 0 1.04Zm-23.254-30.497c-.275-.092-.58-.184-.855-.306a6.943 6.943 0 0 1 1.405-2.202c-.153.856-.305 1.682-.428 2.538-.03 0-.061-.03-.122-.03Zm1.131 17.925c-.55-.245-1.131-.49-1.467-.979-.458-.704-.031-1.438.367-2.05l.366-.55a74.44 74.44 0 0 0 .734 3.579Zm3.33 8.932a2.641 2.641 0 0 1-.427-.398c-.428-.428-.581-.948-.581-1.499.275.643.642 1.285 1.008 1.897Zm2.873 14.163h-.214c.03-.062.03-.123.092-.153 0 .03.061.091.122.153Zm18.12-29.978c-.306-.367-.764-.611-1.253-.703.031-.428.031-.826.031-1.224.397.276.794.52 1.191.796.092.06.214.153.306.244a5.843 5.843 0 0 1-.275.887Zm-1.925 16.243a2.427 2.427 0 0 1-.458.52c.122-1.468.213-2.906.336-4.374.275.52.519 1.101.58 1.682-.061.765-.275 1.53-.458 2.172Zm.611-15.508c.061.03.122.06.183.122.184.183.275.49.275.795-.152.123-.305.245-.488.306 0-.428.03-.826.03-1.223Zm.153-4.375c.03-.703.03-1.407.03-2.11.489.214.978.397 1.498.52-.367.887-.275 1.896.305 2.63 0 .062-.03.123-.03.184-.611-.367-1.284-.734-1.803-1.224Zm13.109-41.08a7.005 7.005 0 0 1 2.078-.582 39.195 39.195 0 0 0-2.384 2.111 4.569 4.569 0 0 1-.061-1.254v-.061c.092-.092.245-.153.367-.215Zm-1.742 1.682c.031.275.122.55.214.795l-.183.092c-.062-.49-.092-.948-.123-1.438 0 0 .031 0 .031-.03 0 .183.03.397.061.58Zm-1.986 1.713c-.031 0-.061.03-.092.03 0-.03.031-.03.031-.06.03 0 .061 0 .061.03Zm30.19-13.918c-1.161.03-2.322.122-3.483.275.733-.183 1.497-.306 2.261-.306.397-.03.794-.03 1.222.03Zm-12.437 1.988c1.162-.336 2.353-.49 3.545-.55l-.061.06c-2.75.827-5.378 1.959-7.914 3.335-.123-.092-.275-.153-.398-.245 1.345-1.223 3.056-2.11 4.828-2.6Zm-12.681 4.925c1.406-1.468 3.453-2.019 5.348-1.682a10.519 10.519 0 0 0-1.131 2.08c-.55.367-1.1.764-1.619 1.162a9.71 9.71 0 0 0-3.942.55 6.08 6.08 0 0 1 1.344-2.11Zm-15.003 7.861c2.108-.734 4.4-.673 6.447.061-2.414.46-4.919.582-7.364.306.306-.122.581-.244.917-.367Zm-1.559 1.713c-.794.245-1.558.52-2.352.826a8.562 8.562 0 0 1 1.1-1.01c.427.093.855.154 1.252.184Zm-10.725 5.812a29.61 29.61 0 0 0-2.842 2.692c.245-.367.52-.703.795-1.01a13.283 13.283 0 0 1 2.047-1.682Zm-7.975 7.953c.611-.979 1.497-1.804 2.505-2.386-.03.184-.061.367-.061.551a35.46 35.46 0 0 0-3.697 7.28c.091-.52.122-1.04.183-1.59.122-1.377.336-2.662 1.07-3.855Zm-5.195 11.257c.703-1.285 2.139-1.988 2.995-3.15a2.7 2.7 0 0 0 .183-.306c-.153.489-.275.948-.397 1.437-1.314.826-2.323 2.019-2.995 3.426-.153-.459-.031-.979.214-1.407Zm.886 7.25c-.519-1.132-.611-2.356-.397-3.549.397.153.825.276 1.222.428a87.766 87.766 0 0 0-.214 2.845c-.03 0-.061.03-.061.03-.183.123-.336.246-.489.368-.03-.03-.03-.061-.061-.122Zm.245 16.732c-1.253-1.377-1.803-3.243-1.834-5.078-.061-2.355.672-4.527 1.681-6.577.214.276.458.52.703.734l.183 1.836s0 .03-.031.03c-.794 1.469-2.383 2.845-1.955 4.65.397 1.682 2.139 2.05 3.422 2.783.031.153.061.276.122.429.184.703.398 1.407.642 2.08a4.203 4.203 0 0 0-.825.642c-.794-.336-1.528-.887-2.108-1.53Zm2.964 6.362c-.55-.826-.795-1.774-.52-2.753.031-.153.092-.275.153-.397h.03c-.061.672 0 1.345.306 1.988.367.765 1.008 1.315 1.711 1.743.703.459 1.589.826 2.292 1.346a3.221 3.221 0 0 0-.581.123c-1.344-.276-2.597-.857-3.391-2.05Zm1.375 5.353a3.362 3.362 0 0 1 1.986-1.835c.397.061.825.122 1.222.153-1.1.948-1.803 2.386-1.956 3.854-.336.245-.275.765 0 1.04 0 .122.031.245.031.367-.092.031-.183.092-.306.153-.03-.031-.061-.031-.061-.061-.977-.918-1.436-2.417-.916-3.671Zm.489 6.669c-.031-.52.213-.949.55-1.285.305.153.611.245.947.398.153.305.336.642.55.917-.275.337-.489.643-.581 1.071-.03.092-.03.183-.03.275-.795-.092-1.375-.52-1.436-1.376Zm6.508 4.527c0-.031-.03-.092-.03-.123.275.031.55.062.825.123.061.03.122.092.214.122a12.4 12.4 0 0 0-.52.857 2.692 2.692 0 0 1-.489-.979Zm1.681 1.743.55-.917c.703.397 1.405.734 2.108 1.07-.916.092-1.803.123-2.658-.153Zm9.625.643v-.949.031a2.32 2.32 0 0 1 0 .918Zm2.536-13.643c.734.857-.213 1.774-.947 2.264-.061.03-.122.091-.214.122 0-.336.092-.673.184-1.009.183-.704.336-1.408.275-2.142.214.276.458.49.702.765Zm-.58-18.506c.061 0 .153 0 .214-.03.03 0 .061-.031.091-.031-.091.459-.244.887-.397 1.315.031-.428.061-.856.092-1.254Zm7.028-9.452c-.092 0-.183-.03-.275-.03.703.03 1.406.03 2.108.03l-.03.03c-.611.031-1.192.031-1.803-.03Zm3.239 1.713c-.153.03-.672.03-.764-.153a.092.092 0 0 1 0-.122c.092 0 .183 0 .275-.031.55-.03 1.07-.092 1.62-.153a2.078 2.078 0 0 1-1.131.459Zm8.739-2.05c1.07-.091 2.139-.183 3.178-.305.031.03.092.06.122.091l.459.184a10.358 10.358 0 0 1-3.759.03Zm11.856-.305a17.985 17.985 0 0 0 1.925-1.5.726.726 0 0 0 .184-.275l.458-.091c0 .397.122.764.336 1.1 0 0-.03 0-.03.031a15.86 15.86 0 0 1-2.873.735Zm6.326-2.233c-.062 0-.092-.031-.153-.031.061-.153.091-.337.122-.49.978-.244 1.925-.52 2.872-.795.031.092.092.153.153.214.275.245.55.49.795.765.061.061.122.153.183.214 0 0 .031.03.031.061.03.03.061.062.061.092 0 0 0 .03.03.03-1.344.276-2.75.123-4.094-.06Zm4.369-1.744c.092-.03.153-.061.245-.061.336.49.916.856 1.497 1.01a7.31 7.31 0 0 1-.642.397 8.1 8.1 0 0 0-1.1-1.346Zm6.539-1.774c-.611.367-1.252.673-1.925.917l-.55.184c0-.214-.03-.428-.091-.642 1.314-.46 2.628-.949 3.941-1.438a8.596 8.596 0 0 1-1.375.979Zm9.442 3.273c-.947-.03-1.863-.581-2.475-1.316-1.191-1.407-.977-3.64.398-4.863.336 1.162.916 2.263 1.68 3.303 0 .98.245 1.958.672 2.845-.091.03-.183.03-.275.03Zm2.292.55c.092-.122.184-.214.245-.336.947.765 2.016 1.438 3.116 2.019A5.075 5.075 0 0 1 223.87 81c-.152-.153-.275-.306-.397-.429Zm6.539 4.222c.184.06.367.122.55.183.184.03.337.061.52.092l-.825.459a4.178 4.178 0 0 1-.245-.734Zm4.553 3.242v1.652a3.203 3.203 0 0 1-.611.367c.214-.673.428-1.346.611-2.019Zm-1.008 3.763c-.458.948-.733 1.988-.856 3.058.062-1.01.306-2.018.612-2.967.091-.03.183-.06.244-.091Zm9.778 31.904.367-.367v.367c-.092.03-.214 0-.367 0Zm5.684-22.728a5.389 5.389 0 0 0-1.345-.459 8.301 8.301 0 0 0-1.253-.122c.489-.398.887-.887 1.253-1.407.306.765.734 1.438 1.345 1.988Z" fill="#2C1E1C"/><path d="M196.217 145.175c2.811-.306 5.164-3.059 4.766-5.751-.152-1.04 1.559-1.346 1.712-.306.519 3.487-2.506 7.25-6.265 7.678-.458.061-.916-.214-.977-.673-.031-.397.305-.917.764-.948Z" fill="#872722"/><path d="M127.127 307.632c1.589 8.381 1.345 88.799 2.537 103.788.183 2.294-.703 11.929-2.078 25.388h67.897l2.261-104.461s-32.298-84.058-35.904-105.654l1.528-18.567s-52.925 18.17-54.269 18.72c-1.345.551-4.584 9.177-3.514 16.763 1.069 7.586 19.953 55.641 21.542 64.023Z" fill="#6E4B2D"/><path d="M134.98 285.18c5.226-3.579 12.957-10.92 18.946-14.01l-15.401 26.154c21.42 6.362 55.186 24.44 55.186 24.44-8.77-23.278-29.06-78.215-31.871-95.07l1.497-18.629-5.958 2.111-7.517 14.407c-6.264 16.824-14.882 60.597-14.882 60.597Z" fill="#8B6F57"/><path d="M195.055 436.809h67.928c-1.375-13.765-2.322-23.615-2.139-25.94 1.162-14.988.948-95.437 2.537-103.788 1.589-8.381 20.473-56.436 21.573-63.991 1.069-7.587-2.17-16.213-3.514-16.763-1.345-.551-54.269-18.721-54.269-18.721l1.528 18.568c-3.606 21.596-35.905 105.654-35.905 105.654l2.261 104.981Z" fill="#6E4B2D"/><path d="M166.393 342.901c-13.659-1.254-25.973-8.871-38.318-16.61.641 27.041.733 73.994 1.589 85.098.061.734 0 2.172-.123 4.252 2.292-.795 4.645-1.529 7.151-2.019 19.953-4.099 37.89-14.866 56.836-12.816 22.612 2.569 45.193 5.169 67.377 9.788.673-9.238.887-40.683 1.253-66.653-31.901.734-63.741 2.569-95.765-1.04Z" fill="#533822"/><path d="M242.113 272.7c6.722 2.049 12.712 5.138 18.67 8.717 0 0-12.314-39.612-20.595-58.853l-9.992-13.918c-1.895-.642-3.025-1.04-3.025-1.04l1.527 18.568c-2.841 17.068-23.651 73.23-32.207 95.957 10.481-6.026 31.474-17.986 47.455-22.942-.03-10.767-1.833-15.722-1.833-26.489Z" fill="#8B6F57"/><path d="M267.292 354.433c10.511-3.15 22.368-7.525 32.36-12.021 1.314-.581 2.719-1.254 3.453-2.478.855-1.407.58-3.12.244-4.649-.581-2.784-1.925-5.139-6.142-5.262-1.772-.061-7.761 2.876-9.717 3.824-7.15 3.395-16.623 7.188-24.109 9.758l3.911 10.828Z" fill="#BD644D"/><path d="M269.156 363.855a252.6 252.6 0 0 0 30.862-11.471c1.314-.581 2.72-1.254 3.453-2.478.856-1.407.581-3.12.245-4.649-.581-2.784-1.314-4.099-3.392-6.21-2.017-2.019-10.512 3.824-12.467 4.742a217.412 217.412 0 0 1-21.94 8.993l3.239 11.073Z" fill="#BD644D"/><path d="M267.292 373.858c10.481-3.243 20.809-7.036 30.863-11.41 1.313-.581 2.719-1.223 3.514-2.325.886-1.254.702-2.753.458-4.098-.458-2.417-1.1-3.549-3.086-5.292-1.895-1.683-10.512 3.823-12.468 4.71a244.352 244.352 0 0 1-22 8.841l2.719 9.574Z" fill="#BD644D"/><path d="M266.528 380.618a301.754 301.754 0 0 0 30.007-11.073c1.283-.551 2.658-1.193 3.422-2.203.886-1.193.795-2.6.489-3.823-1.467-6.057-13.109-1.193-15.003-.306-6.967 3.181-14.117 6.026-21.39 8.565l2.475 8.84Z" fill="#BD644D"/><path d="M288.071 372.022s-26.585 10.981-30.282 12.297c-3.698 1.346-11.398-3.793-18.151-14.316-6.753-10.492 6.172-21.565 13.781-27.102 7.578-5.536 26.554 3.946 26.554 3.946l8.098 25.175Z" fill="#BD644D"/><path d="M257.636 357.37c4.767-7.8 7.609-13.153 11.734-14.285 4.461-1.254 10.45-2.967 13.078-4.313 2.628-1.346 8.953-8.871 9.381-11.777.886-5.842-14.392.826-22.917 2.539-8.77 1.774-11.582 2.05-13.751 5.414-2.17 3.365-9.687 14.928-9.687 14.928l12.162 7.494Z" fill="#BD644D"/><path d="m290.821 332.287-24.782 12.052-.306-1.315 25.088-10.737Z" fill="#8E4B3A"/><path d="m263.106 380.648-54.361 5.17s-1.131-14.01-.856-25.236c-1.283-5.109 43.819-4.007 43.819-4.007l11.398 24.073Z" fill="#BD644D"/><path d="M230.226 351.222v37.318s-116.971 27.163-129.041 25.695c-15.829-1.897-30.374-24.93-14.973-46.618 8.83-12.419 144.014-16.395 144.014-16.395Z" fill="#6E4B2D"/><path d="M134.034 335.896s-6.142-7.861-13.171-10.002c-7.028-2.142-34.987.642-38.287.825-3.698.215.06 6.669 3.086 7.617 6.08 1.866 30.74-1.162 34.224.459 3.483 1.591 12.284 12.021 12.284 12.021l1.864-10.92Z" fill="#BD644D"/><path d="M134.675 345.837s-6.142-7.861-13.17-10.002c-7.028-2.141-31.504.703-36.149.918-4.675.214.398 6.974 3.85 7.83 6.173 1.53 27.654.306 31.138 1.897 3.483 1.59 12.498 10.247 12.498 10.247l1.833-10.89Z" fill="#BD644D"/><path d="M134.981 359.694s-4.645-8.504-10.42-11.471c-5.775-2.967-26.676-3.059-30.618-3.395-3.972-.337-.153 6.943 2.72 8.197 5.102 2.233 23.345 3.579 26.187 5.598 2.842 2.019 9.839 11.624 9.839 11.624l2.292-10.553Z" fill="#BD644D"/><path d="M138.006 369.544s-3.698-8.626-9.228-10.155c-4.095-1.132-21.39-3.671-24.904-3.977-3.514-.306-4.309 3.977-1.772 5.108 4.522 1.989 20.198 5.109 22.703 6.883 2.506 1.774 11.154 11.501 11.154 11.501l2.047-9.36ZM145.492 345.96s-2.291-8.382-5.469-11.379c-2.231-2.111-10.328-2.509-10.328-2.509l2.536 4.497 13.261 9.391Z" fill="#BD644D"/><path d="m132.445 335.07-7.151 32.516s6.57 13.612 14.606 14.193c8.037.582 12.895 3.365 14.454-.214 1.558-3.609-2.842-27.101-7.334-34.963-4.492-7.892-14.575-11.532-14.575-11.532Z" fill="#BD644D"/><path d="m146.654 355.105 44.704.306v32.486l-42.443-9.544-2.261-23.248Z" fill="#BD644D"/><path d="m154.018 349.233-1.559 42.549s131.242 22.146 143.434 22.177c24.904.061 34.682-33.678 16.776-57.752-9.137-12.266-158.651-6.974-158.651-6.974Z" fill="#6E4B2D"/></g><path d="M340.795 381.882c19.582-19.603 19.582-51.385 0-70.988s-51.332-19.603-70.914 0-19.582 51.385 0 70.988c19.582 19.602 51.332 19.602 70.914 0Z" fill="#CCC"/><path d="M305.336 395.545c27.12 0 49.105-22.008 49.105-49.156 0-27.149-21.985-49.157-49.105-49.157-27.12 0-49.105 22.008-49.105 49.157 0 27.148 21.985 49.156 49.105 49.156Z" fill="#fff"/><path d="M318.444 335.743v10.951c0 7.066-5.775 13.123-12.864 13-6.876-.122-12.437-5.75-12.437-12.663v-11.288c0-.979-.794-1.805-1.803-1.805-.978 0-1.803.796-1.803 1.805v10.89c0 8.809 6.815 16.304 15.584 16.64 9.229.337 16.837-7.066 16.837-16.242v-11.288c0-.979-.794-1.805-1.803-1.805-.916 0-1.711.826-1.711 1.805Z" fill="#333"/><path d="M305.794 356.482c-5.195 0-9.412-4.252-9.412-9.421v-20.525c0-5.2 4.248-9.422 9.412-9.422 5.194 0 9.411 4.252 9.411 9.422v20.525c.031 5.169-4.217 9.421-9.411 9.421ZM306.252 375.692h-.886a1.807 1.807 0 0 1-1.803-1.804v-12.97h4.461v12.97c0 1.009-.794 1.804-1.772 1.804Z" fill="#333"/><path d="M313.28 377.435h-14.973c-1.1 0-2.017-.917-2.017-2.019 0-1.101.917-2.019 2.017-2.019h14.973c1.1 0 2.017.918 2.017 2.019a2.036 2.036 0 0 1-2.017 2.019Z" fill="#333"/></svg>