<svg width="186" height="200" fill="none" xmlns="http://www.w3.org/2000/svg"><path d="M113.932 185.821H72.558C32.956 185.821.87 153.703.87 114.059V72.673C.871 33.029 32.956.91 72.558.91H113.9c39.602 0 71.687 32.118 71.687 71.762v41.386c.03 39.613-32.085 71.762-71.656 71.762Z" fill="#D73F3F"/><mask id="a" style="mask-type:luminance" maskUnits="userSpaceOnUse" x="0" y="0" width="186" height="186"><path d="M113.932 185.821H72.558C32.956 185.821.87 153.703.87 114.059V72.673C.871 33.029 32.956.91 72.558.91H113.9c39.602 0 71.687 32.118 71.687 71.762v41.386c.03 39.613-32.085 71.762-71.656 71.762Z" fill="#fff"/></mask><g mask="url(#a)"><path d="M50.77 117.944c-1.1.245-9.167 3.273-10.847 5.873-2.14 3.273-10.481 73.046-9.228 81.642 1.253 8.564 22.459 11.47 23.803 2.171 1.04-7.157 11.918-57.354 11.368-61.82-.581-4.496-14.026-28.142-15.096-27.866Z" fill="#262E40"/><path d="M51.901 146.024c-.947 0 4.034 9.605 4.034 11.594 2.566 13.55.06 22.421 1.283 35.727 2.658-13.306 6.509-31.996 8.006-41.631-4.584-.367-8.77-5.537-13.323-5.69Z" fill="#1C2330"/><path d="M135.26 118.495c1.1.244 10.359 3.701 12.009 6.209 2.078 3.181 8.709 69.1 8.403 77.451-.305 8.351-23.101 12.419-24.323 3.426-.947-6.913-11.245-55.519-10.634-59.832.611-4.313 13.445-27.53 14.545-27.254Z" fill="#262E40"/><path d="M128.263 166.458c-.52-7.035 1.741-13.887 4.583-20.556-6.814.826-11.764 4.466-11.764 4.466 1.864 13.306 9.442 49.31 10.236 55.183.123.917.489 1.682 1.009 2.355-1.161-13.673-2.934-26.612-4.064-41.448Z" fill="#1C2330"/><path d="M81.114 87.57v35.574h22.245V87.569H81.114Z" fill="#FCCAC5"/><path d="M103.359 87.57H81.083V116.077c1.375-1.713 2.383-4.129 2.811-7.402.245-2.295-.275-6.913 3.27-5.996 7.18 1.866 12.803.123 16.195-4.588V87.569Z" fill="#B8847F"/><path d="M57.83 155.904c.244 22.483 7.7 35.575 3.727 66.776h59.953c-4.217-32.027 4.92-43.987 5.164-66.776 1.467-3.426 2.933-6.821 4.37-10.247 3.483-8.106 6.019-16.885 4.491-25.511l-31.412-12.633-11 4.099h-1.834l-11-4.099-31.413 12.633c-1.528 8.626 1.04 17.374 4.492 25.511 1.528 3.426 2.995 6.852 4.461 10.247Z" fill="#B2C3D8"/><path d="m85.208 133.269 6.57-11.746 8.006 11.746c3.575-6.852 7.639-14.377 8.739-23.981l-4.369-1.744-11.001 4.099H91.32l-11-4.099-4.523 1.835c-2.048 8.84 5.653 16.304 9.411 23.89Z" fill="#E6E6E6"/><path d="m96.33 125.347 4.065-4.895-2.414-8.197-5.745-.643-5.745.643-2.413 8.197 4.064 4.895-7.395 76.961 11.49 15.203 11.489-15.203-7.395-76.961Z" fill="#8A2C37"/><path d="m103.42 103.843-11.184 7.769 4.095 1.04 3.27 14.652 10.908-16.089-7.089-7.372ZM81.052 103.843l11.184 7.769-4.095 1.04-3.27 14.652-10.908-16.089 7.09-7.372Z" fill="#C6D4E6"/><path d="M57.585 159.483c.794 4.222.672 44.813 1.283 52.369.092 1.04-.275 5.077-.856 10.828h17.204c-.428-31.904-.856-62.493-.947-63.992-.214-3.181 1.589-49.401 1.589-49.401s-26.707 9.177-27.38 9.452c-.672.275-2.322 4.619-1.772 8.443.52 3.823 10.053 28.08 10.879 32.301Z" fill="#262E40"/><path d="M75.919 109.195s-1.925.367-2.14.826c-.213.459-7.883 26.551-10.389 40.255l6.6-1.59s-5.53 13.734-9.227 20.066c0 0 10.633 22.513 14.178 33.372-.306-23.4-.58-42.243-.672-43.436-.214-3.181 1.65-49.493 1.65-49.493Z" fill="#2E3B54"/><path d="M110.265 158.718c-.092 1.499-.52 32.088-.948 63.962h17.204c-.581-5.751-.917-9.758-.856-10.798.581-7.556.459-48.147 1.284-52.368.794-4.222 10.328-28.479 10.878-32.302.55-3.824-1.1-8.198-1.772-8.443-.673-.275-27.379-9.452-27.379-9.452s1.772 46.19 1.589 49.401Z" fill="#262E40"/><path d="M108.615 109.195s1.925.367 2.139.826c.214.459 7.883 26.551 10.389 40.255l-6.6-1.59s5.531 13.734 9.228 20.066c0 0-10.634 22.513-14.178 33.372.305-23.4.58-42.243.672-43.436.183-3.181-1.65-49.493-1.65-49.493Z" fill="#2E3B54"/><path d="M113.015 65.362c1.192-1.254 2.964-1.682 4.461-1.07 1.497.611 2.689 2.232 2.995 4.098.489 2.937-4.064 10.676-5.164 11.44-1.1.734-2.628.826-3.545-.244l1.253-14.224ZM73.994 65.362c-1.192-1.254-2.964-1.682-4.462-1.07-1.497.611-2.689 2.232-2.994 4.098-.49 2.937 4.064 10.676 5.164 11.44 1.1.734 2.628.826 3.544-.244l-1.252-14.224Z" fill="#FCCAC5"/><path d="M93.092 32.876c-20.626 0-20.901 13.581-20.901 17.221 0 6.914-.459 23.095 1.16 31.66.734 3.824 2.66 6.699 5.47 9.39 4.095 3.885 10.145 8.015 14.24 8.015 4.095 0 10.176-4.13 14.24-8.014 2.841-2.692 4.736-5.537 5.469-9.391 1.65-8.596 1.192-24.777 1.161-31.66.062-3.64-.213-17.221-20.84-17.221Z" fill="#FCCAC5"/><path d="M76.897 59.947c0-2.233-.948-4.435-1.284-6.668 0-2.54 1.284-4.436 3.178-6.026 0 0 3.056.948 4.309 1.285 4.125 0 8.067-2.54 11.856-.337 5.897 3.487 12.253 9.727 19.098 8.259-.031-2.508-.061-4.71-.061-6.363 0-3.64-.275-17.221-20.901-17.221S72.19 46.457 72.19 50.097c0 6.914-.459 23.095 1.16 31.66.52 2.692 1.59 4.894 3.179 6.882-1.436-9.298.367-19.576.367-28.692Z" fill="#E6A7A1"/><path d="M105.1 74.875c2.009 0 3.637-1.684 3.637-3.762 0-2.078-1.628-3.762-3.637-3.762-2.008 0-3.636 1.684-3.636 3.762 0 2.078 1.628 3.762 3.636 3.762Z" fill="#fff"/><path d="M105.1 74.507c1.401 0 2.537-1.287 2.537-2.875s-1.136-2.875-2.537-2.875c-1.4 0-2.536 1.287-2.536 2.875s1.136 2.875 2.536 2.875Z" fill="#1A1A1A"/><path d="M106.109 70.806c0 .122.091.214.244.214.122 0 .245-.092.245-.214s-.092-.214-.245-.214c-.153-.03-.244.061-.244.214Z" fill="#fff"/><path d="M105.1 67.197c-1.833 0-3.361 1.377-3.697 3.181 1.039-1.804 3.728-2.906 5.561-1.865 1.314.856 1.589 2.049 1.895 2.814v-.214c.031-2.172-1.681-3.916-3.759-3.916Z" fill="#1A1A1A"/><path d="M81.816 74.875c2.008 0 3.636-1.684 3.636-3.762 0-2.078-1.627-3.762-3.636-3.762-2.008 0-3.636 1.684-3.636 3.762 0 2.078 1.628 3.762 3.636 3.762Z" fill="#fff"/><path d="M81.816 74.507c1.401 0 2.537-1.287 2.537-2.875s-1.136-2.875-2.537-2.875c-1.4 0-2.536 1.287-2.536 2.875s1.135 2.875 2.536 2.875Z" fill="#1A1A1A"/><path d="M80.808 70.806c0 .122-.092.214-.245.214-.122 0-.244-.092-.244-.214s.092-.214.245-.214c.152-.03.244.061.244.214Z" fill="#fff"/><path d="M81.816 67.197c1.834 0 3.362 1.377 3.698 3.181-1.04-1.804-3.728-2.906-5.562-1.865-1.314.856-1.589 2.049-1.894 2.814v-.214c0-2.172 1.68-3.916 3.758-3.916Z" fill="#1A1A1A"/><path d="M101.037 65.515c-.092-.55 1.252-3.09 3.697-2.815 0 0 3.239.123 4.125 1.071.886.948 1.314 2.906 1.345 3.212.03.398-1.223-1.132-4.584-1.744-3.361-.611-4.492.857-4.583.276ZM85.972 65.515c.092-.55-1.253-3.09-3.697-2.815 0 0-3.331.184-4.187 1.163-.825.918-1.222 2.845-1.253 3.12-.03.398 1.528-1.132 4.92-1.744 3.33-.611 4.125.857 4.217.276Z" fill="#40202D"/><path d="M110.448 57.929c-1.008-.062-2.017-.367-2.933-.826-2.414-1.224-5.073-2.05-6.387-4.405-1.772-3.181-.061-7.586-2.628-8.443-4.064-1.376-12.161 2.876-15.767.55a6.104 6.104 0 0 1-1.895-1.957c-.855 1.377-2.139 2.6-3.391 3.67-2.231 1.959-4.676 4.192-4.828 7.159-.092 1.804.733 3.548 1.16 5.292.856 3.334-.977 13.061-.977 13.061-1.925-1.162-3.972-6.148-4.614-8.29-.734-2.508-.397-5.2-.947-7.739-.581-2.722-2.2-5.169-2.69-7.922-.58-3.15.49-6.516 2.659-8.81a20.955 20.955 0 0 1-.061-4.588c.336-3.242 1.68-6.546 4.278-8.534 2.292-1.774 5.622-2.356 8.19-1.101 4.522-4.344 9.808-8.32 15.858-7.617 5.439.612 9.717 4.864 14.729 7.097 2.933 1.284 6.142 1.896 9.106 3.12 2.964 1.223 5.836 3.303 6.844 6.362.52 1.53.306 3.334-.397 4.772.856.673 1.528 1.682 1.742 2.753.519 2.355-.459 4.802-1.589 6.913-1.131 2.141-6.662 4.405-7.059 6.79-.428 2.693-5.408 17.865-5.408 17.865l-1.589-15.172c-.367.03-.886.03-1.406 0Z" fill="#3E2332"/><path d="M125.115 31.745c-1.161-.551-2.597-.52-3.667-.887-4.522-1.346-9.319 1.07-13.842-1.346-3.178-1.866-5.317-6.118-9.045-5.598-3.178.275-5.042 3.732-8.25 5.598-3.453 2.14-6.386-.276-9.84 0-1.344 0-.519 1.346 0 1.866 2.14 1.865 4.523 2.14 7.181 1.865 2.934-.52 5.531-3.579 7.7-2.936 4.462 1.285 1.345 6.393 3.729 8.779.52.795 1.069-.52 1.589-1.07 1.864-2.937 3.728-6.914 7.7-6.118 3.728 1.07 6.111 5.597 10.359 4.251 2.506-.825 5.286-1.254 7.761-.611a7.155 7.155 0 0 0-.275-1.622c-.214-.764-.611-1.498-1.1-2.171Z" fill="#654F5B"/><path d="M83.191 81.39c4.492-1.192 9.045-3.609 14.056-2.11 4.034 1.499 9.718 2.11 13.629-.306 2.658-1.958.978-6.638 2.536-9.788 0 0 .275 3.976.458 5.842.214 2.172.153 4.803-.091 6.974-.306 2.6-1.895 5.874-3.575 8.015-3.484 4.496-10.084 10.4-16.226 10.736-1.375.062-2.72-.244-4.034-.642-6.294-1.866-11.825-7.525-14.972-12.847-2.781-4.71-2.72-13.245-2.659-19.516 1.222 3.426 1.039 7.892 1.803 11.226.764 3.64 5.867 3.028 9.075 2.417Z" fill="#3E2332"/><path d="M102.106 83.318c.092-.092-1.497.336-4.645-.428-1.253-.306-2.383.06-3.972.153-.978.06-1.986-.215-2.964-.306-1.284-.092-4.156.336-5.042.244 2.292 1.989 3.514 3.885 8.036 4.008 5.348.152 5.684-1.591 8.587-3.671Z" fill="#DB6E6E"/><path d="M102.778 82.89c-5.958 2.691-12.13 3.18-17.692-.245-.123-.062-.58-.215-.611-.184.214.153.427.245.58.337 5.562 3.548 11.734 3.058 17.723.244.153-.061.367-.153.581-.245 0-.03-.459.031-.581.092Z" fill="#A45353"/><path d="M92.45 77.322c1.375-.153 2.506-1.499 2.322-2.784-.06-.52.764-.673.825-.153.245 1.713-1.222 3.518-3.055 3.732-.214.03-.459-.092-.49-.306 0-.214.184-.459.398-.49Z" fill="#C45C5C"/></g><path d="M165.734 181.701c9.929-9.939 9.929-26.053 0-35.992-9.928-9.938-26.025-9.938-35.953 0-9.929 9.939-9.929 26.053 0 35.992 9.928 9.938 26.025 9.938 35.953 0Z" fill="#E6E6E6"/><path d="M147.758 188.635c13.754 0 24.904-11.161 24.904-24.93 0-13.768-11.15-24.93-24.904-24.93s-24.904 11.162-24.904 24.93c0 13.769 11.15 24.93 24.904 24.93Z" fill="#fff"/><path d="M154.419 158.292v5.567c0 3.579-2.933 6.638-6.508 6.576a6.413 6.413 0 0 1-6.295-6.423v-5.72a.92.92 0 0 0-.917-.918.92.92 0 0 0-.916.918v5.536c0 4.466 3.453 8.259 7.914 8.443 4.675.183 8.556-3.579 8.556-8.229v-5.72a.92.92 0 0 0-.917-.917c-.519 0-.917.397-.917.887Z" fill="#333"/><path d="M148.002 168.814a4.775 4.775 0 0 1-4.766-4.772v-10.4a4.775 4.775 0 0 1 4.766-4.772 4.775 4.775 0 0 1 4.767 4.772v10.4a4.775 4.775 0 0 1-4.767 4.772ZM148.216 178.571h-.458a.92.92 0 0 1-.917-.917v-6.577h2.262v6.577a.876.876 0 0 1-.887.917Z" fill="#333"/><path d="M151.792 179.459h-7.579c-.55 0-1.008-.459-1.008-1.009 0-.551.458-1.01 1.008-1.01h7.579c.55 0 1.008.459 1.008 1.01 0 .55-.458 1.009-1.008 1.009Z" fill="#333"/><path d="M132.144 150.185c-.214-.214-.245-.581-.031-.795.214-.215.581-.245.794-.031l31.932 29.335c.214.214.245.581.031.795a.545.545 0 0 1-.794.031" fill="#FA2A33"/></svg>