<svg width="340" height="365" fill="none" xmlns="http://www.w3.org/2000/svg"><path d="M207.576 339.263h-75.873C59.069 339.263.186 280.318.186 207.609v-75.953C.186 58.946 59.07.002 131.703.002h75.873c72.634 0 131.517 58.945 131.517 131.654v75.953c0 72.709-58.883 131.654-131.517 131.654Z" fill="#FF8636"/><mask id="a" style="mask-type:luminance" maskUnits="userSpaceOnUse" x="0" y="0" width="340" height="340"><path d="M207.576 339.263h-75.873C59.069 339.263.186 280.318.186 207.609v-75.953C.186 58.946 59.07.002 131.703.002h75.873c72.634 0 131.517 58.945 131.517 131.654v75.953c0 72.709-58.883 131.654-131.517 131.654Z" fill="#fff"/></mask><g mask="url(#a)"><path d="M136.99 135.479c-22.399 6.669-38.838 26.919-46.447 49.034-7.64 22.116-7.7 46.067-6.57 69.468a727.368 727.368 0 0 0 18.609 131.624c3.239-5.873 6.326-11.869 9.351-17.803 8.281-16.273 16.623-32.608 22.062-50.044 17.54-56.222 3.483-117.308 11-175.732l-8.005-6.547Z" fill="#5E3B36"/><path d="M115.324 150.775c1.651-1.989 3.606-4.436 4.828-7.128-13.811 9.605-24.078 24.716-29.64 40.867-7.639 22.116-7.7 46.067-6.57 69.468a719.664 719.664 0 0 0 8.007 77.695 29.074 29.074 0 0 0 2.75-9.574c4.797-33.709-2.048-66.041-4.798-99.077-2.078-26.827 7.548-50.931 25.423-72.251Z" fill="#7E625E"/><path d="m144.995 141.995-8.006-6.546c-3.697 1.101-7.242 2.6-10.603 4.374-7.028 18.445-16.348 36.462-18.609 56.345 8.25-4.129 11-14.438 19.251-18.567 2.047 17.894-5.501 35.789.672 53.653 6.936 21.748 10.145 43.833 11.275 66.194 9.504-50.441-.611-103.972 6.02-155.453Z" fill="#472C29"/><path d="M103.316 233.67c-5.745-2.019-12.468 1.193-16.226 6.118-3.88 5.139-5.286 11.685-6.6 17.986-8.342 40.225-24.996 132.786-26.676 142.147-9.9 39.092 31.137 36.309 44.826 20.219 1.437-1.683 2.201-6.149 2.201-6.149 9.717-35.513 17.967-67.356 25.301-105.715 1.191-6.087-16.684-61.483-22.826-74.606ZM252.311 235.047c5.745-2.019 12.467 1.193 16.226 6.118 3.88 5.139 5.286 11.685 6.6 17.986 8.342 40.224 24.996 132.786 26.676 142.147 9.901 39.092-31.137 36.309-44.827 20.219-1.436-1.683-2.2-6.149-2.2-6.149-9.717-35.513-15.828-66.5-23.162-104.858-1.161-6.057 14.545-62.34 20.687-75.463Z" fill="#262E40"/><path d="M148.387 161.879V255.083h57.08V161.879h-57.08Z" fill="#FCCAC5"/><path d="M205.467 161.879h-57.08v51.879c3.483-3.12 6.081-7.495 7.181-13.459.58-4.161 1.619-11.808 10.725-10.156 18.426 3.365 30.496-.52 39.174-9.115v-19.149Z" fill="#B8847F"/><path d="M214.756 229.113c0 12.97-18.028 85.741-37.096 85.741-19.067 0-37.096-72.771-37.096-85.741 0-12.97 18.029-13.52 37.096-13.52 19.068.03 37.096.55 37.096 13.52Z" fill="#FCCAC5"/><path d="m244.611 440.879-7.426-33.219c-4.491-20.189-11.703-45.119-4.125-64.359 2.567-.887 11.153-9.452 18.273-16.916 6.784-7.066 10.206-16.701 9.442-26.49-.977-12.633-2.383-29.701-3.239-37.043 2.292-6.485 4.553-12.939 6.845-19.424.52-1.499 1.008-3.273-.122-4.527-.703-.795-1.864-1.162-2.964-1.499-17.54-5.414-31.443-9.146-51.978-20.066 0 0-18.7 49.799-31.626 49.799-12.925 0-31.626-49.799-31.626-49.799-20.534 10.92-34.438 14.652-51.977 20.066-1.1.337-2.262.704-2.965 1.499-1.13 1.254-.641 3.028-.122 4.527 2.292 6.485 4.553 12.939 6.845 19.424-.886 7.342-2.261 24.41-3.24 37.043a34.44 34.44 0 0 0 9.443 26.49c7.15 7.464 15.706 15.998 18.273 16.916 7.578 19.24.367 44.201-4.125 64.359l-7.425 33.219s42.504 11.288 72.083 9.33c29.579-2.019 61.756-9.33 61.756-9.33Z" fill="#B2C3D8"/><path d="M174.605 470c-30.313 0-68.539-9.513-68.906-9.605l-1.742-.428 11.734-52.705c.489-2.141.978-4.343 1.497-6.607 4.278-18.537 9.137-39.49 2.964-56.069-1.619-.887-5.683-3.977-18.181-17.008-7.12-7.433-10.725-17.588-9.93-27.835.977-12.664 2.322-29.182 3.208-36.707l-6.692-19.026c-.459-1.346-1.467-4.13.458-6.302 1.039-1.162 2.628-1.651 3.79-2.019a562.414 562.414 0 0 1 11.825-3.456c12.467-3.518 14.575-6.821 33.276-15.111 0 0 32.207 105.012 38.991 105.012 6.814 0 38.99-104.981 38.99-104.981 18.701 8.289 20.809 11.623 33.277 15.111 3.789 1.07 7.731 2.171 11.825 3.456 1.161.367 2.72.826 3.789 2.019 1.925 2.141.947 4.955.459 6.301l-6.692 19.027c.886 7.524 2.23 24.042 3.208 36.706.795 10.278-2.811 20.434-9.931 27.836-12.498 13.031-16.562 16.12-18.181 17.007-6.203 16.58-1.345 37.533 2.964 56.07.519 2.233 1.039 4.435 1.497 6.607l11.765 52.766-1.834.397c-.336.062-34.499 7.403-65.575 9.361-2.414.091-5.072.183-7.853.183Z" fill="#262E40"/><path d="M128.036 295.888s16.379-5.506 22.551-8.932l-8.923 17.191s24.66 26.459 36.363 38.848c0 0 20.871-23.064 32.849-39.215.917-1.224-8.709-12.694-12.162-16.151 6.876 2.753 23.987 6.301 23.987 6.301s-.611-56.038.489-73.474a244.716 244.716 0 0 0-7.272-3.365s-32.177 104.981-38.991 104.981-38.99-105.011-38.99-105.011c-1.65.734-3.178 1.437-4.584 2.08-1.925 24.96-3.392 51.205-5.317 76.747Z" fill="#303B52"/><path d="M251.883 327.578c6.784-7.066 10.359-16.61 9.992-26.368-2.536 14.744-6.142 21.596-13.811 28.57-19.007 17.253-44.613 28.142-70.403 18.14-20.168 9.482-45.286.703-61.298-11.777-10.664-7.708-19.556-17.803-21.328-30.864-1.925-11.96 2.567-26.857-.214-38.206-.856 8.443-1.956 21.932-2.78 32.639-.795 10.277 2.81 20.433 9.93 27.835 12.498 13.031 16.562 16.121 18.181 17.008 6.204 16.579 1.345 37.532-2.964 56.069-.519 2.233-1.038 4.436-1.497 6.607l-11.734 52.705 1.742.428c.092.031 2.353.581 6.111 1.407 0 0 2.231-19.821 10.39-25.052 8.158-5.231 104.657-3.518 111.044-.061 4.736 2.569 14.514 13.857 16.439 23.37l.245-.061-11.765-52.766c-.489-2.141-.978-4.344-1.497-6.607-4.278-18.537-9.137-39.491-2.964-56.07 1.619-.826 5.683-3.885 18.181-16.946Z" fill="#1C2330"/><path d="M226.949 144.565c-4.553 23.645-34.713 44.507-50.297 44.446-15.584-.062-46.507-21.351-48.738-50.594-1.956-25.756-2.781-39.001-2.781-39.001 1.711-23.431 24.69-41.05 51.336-39.399l13.659.857c26.615 1.682 44.154 18.506 42.504 41.876-.947 13.092-1.1 18.17-5.683 41.815Z" fill="#FCCAC5"/><path d="m190.128 60.905-13.659-.857c-26.646-1.682-49.625 15.968-51.336 39.399 0 0 .825 13.245 2.781 39.001 1.894 24.593 24.018 43.558 40.305 49.003-16.012-10.186-30.832-20.984-33.521-41.203-2.048-18.568.55-49.156 18.425-57.415 22.49 21.718 51.519 32.148 77.707 33.25.977-7.066 1.252-11.899 1.772-19.271 1.681-23.431-15.859-40.255-42.474-41.907Z" fill="#E6A7A1"/><path d="M173.199 144.137c3.636-.398 6.692-3.977 6.173-7.433-.214-1.346 2.016-1.744 2.23-.398.673 4.527-3.239 9.36-8.128 9.911-.611.061-1.192-.245-1.253-.857-.061-.52.367-1.162.978-1.223Z" fill="#C45C5C"/><path d="M153.201 146.746c5.296-.192 9.543-1.608 9.486-3.161-.056-1.553-4.395-2.656-9.69-2.463-5.295.193-9.542 1.608-9.486 3.161.056 1.553 4.395 2.656 9.69 2.463ZM206.398 147.205c5.295-.192 9.542-1.608 9.486-3.161-.056-1.553-4.395-2.656-9.69-2.463-5.296.193-9.543 1.608-9.486 3.161.056 1.553 4.395 2.656 9.69 2.463Z" fill="#E87482"/><path d="M161.068 150.194c0 7.341 10.054 16.609 18.212 16.609 8.159 0 18.212-9.299 18.212-16.609-.03-.765-36.424-.765-36.424 0Z" fill="#fff"/><path d="m214.695 118.228-.886-.643a25.94 25.94 0 0 0-2.475-1.499c-2.108-1.131-5.164-2.263-8.556-2.661-3.392-.397-6.6 0-8.892.643a25.816 25.816 0 0 0-2.72.887c-.611.244-1.008.397-1.008.397s.245-.306.764-.826 1.314-1.193 2.414-1.896a15.4 15.4 0 0 1 4.156-1.835c1.65-.459 3.575-.643 5.561-.429a15.28 15.28 0 0 1 5.348 1.713c1.527.826 2.78 1.805 3.697 2.753.947.918 1.589 1.774 1.986 2.417.428.642.611.979.611.979ZM139.953 118.228l.886-.643a26.069 26.069 0 0 1 2.475-1.499c2.109-1.131 5.164-2.263 8.556-2.661 3.392-.397 6.601 0 8.892.643 1.162.305 2.078.642 2.72.887.611.244 1.008.397 1.008.397s-.244-.306-.764-.826c-.519-.52-1.314-1.193-2.414-1.896a15.393 15.393 0 0 0-4.155-1.835c-1.65-.459-3.576-.643-5.562-.429a15.275 15.275 0 0 0-5.347 1.713c-1.528.826-2.781 1.805-3.698 2.753-.947.918-1.588 1.774-1.986 2.417-.397.642-.611.979-.611.979Z" fill="#472824"/><path d="M146.095 129.239c1.742 4.436 5.959 7.648 9.931 7.128 3.942-.49 7.028-4.558 7.425-9.177-2.139-3.977-5.194-7.861-8.983-8.198-2.567-.214-4.951 1.285-6.662 3.426-.978 1.224-1.741 2.6-2.444 4.068a14 14 0 0 0 .733 2.753Z" fill="#fff"/><path d="M163.451 127.19c-.519-2.141-1.955-4.925-3.666-6.332-1.681-1.407-3.82-2.203-5.928-2.233-4.095-.061-7.548 3.151-9.748 6.546l-4.95-1.713 6.661 5.108s1.497-8.32 8.281-8.106c5.989.153 9.35 6.73 9.35 6.73Z" fill="#472824"/><path d="M160.893 128.239c.081-4.578-2.589-8.337-5.963-8.397-3.375-.06-6.176 3.602-6.257 8.18-.081 4.577 2.589 8.336 5.963 8.396 3.375.06 6.176-3.602 6.257-8.179Z" fill="#472824"/><path d="M151.412 126.088c0 .459.367.857.825.887.458 0 .856-.367.856-.825a.897.897 0 0 0-.825-.887.81.81 0 0 0-.856.825ZM209.654 128.75c-1.498 4.497-5.562 7.923-9.534 7.647-3.942-.275-7.242-4.19-7.884-8.779 1.956-4.068 4.767-8.106 8.556-8.656 2.536-.367 5.011 1.04 6.814 3.089 1.039 1.162 1.864 2.508 2.659 3.946a16.334 16.334 0 0 1-.611 2.753Z" fill="#fff"/><path d="M192.205 127.619c.398-2.172 1.712-5.017 3.331-6.516 1.62-1.499 3.698-2.416 5.806-2.539 4.095-.275 7.7 2.753 10.084 6.026l4.858-1.988-6.386 5.445s-1.956-8.229-8.709-7.678c-5.989.489-8.984 7.25-8.984 7.25Z" fill="#472824"/><path d="M201.435 136.325c3.367-.237 5.836-4.13 5.516-8.697-.32-4.567-3.309-8.077-6.676-7.841-3.367.237-5.837 4.131-5.516 8.698.32 4.566 3.309 8.077 6.676 7.84Z" fill="#472824"/><path d="M204.161 126.025c.03-.472-.315-.878-.77-.906-.454-.029-.847.33-.877.803-.029.472.315.878.77.906.455.029.847-.33.877-.803Z" fill="#fff"/><path d="M226.582 126.304c1.314-3.242 3.514-6.148 6.295-8.259.886-.673 1.956-1.315 3.056-1.193 1.65.184 2.658 1.866 3.178 3.457 2.016 6.27-1.253 25.358-5.256 28.814-4.034 3.426-8.098-4.557-8.098-4.557l.825-18.262Z" fill="#FCCAC5"/><path d="M116.058 59.345c-4.736 7.77-7.303 17.16-7.792 26.398-.672 13.245 13.72 56.039 18.915 62.279 5.775-16.274 10.389-57.752 22.52-74.209 6.6 23.125 21.818 32.149 83.176 55.06 2.169-13.123 3.453-17.497 3.33-30.772-.152-16.335-3.391-32.975-11.886-46.77-8.495-13.766-22.734-24.35-38.655-25.757-14.636-1.284-30.19 6.302-37.218 19.333-8.861-2.845-19.678.306-26.645 7.127a37.597 37.597 0 0 0-5.745 7.31Z" fill="#5E3B36"/><path d="M140.412 63.321s-.336.52-.856 1.316c-.275.397-.581.887-.886 1.437-.306.55-.703 1.132-1.039 1.805-1.436 2.57-2.781 5.781-3.697 7.923-.948 2.11-3.087 7.524-3.851 12.694-.397 2.57-.611 5.047-.611 6.882-.03.918.031 1.652.031 2.172 0 .52.03.826.03.826s-.03-.306-.122-.795c-.061-.52-.214-1.254-.275-2.172-.214-1.835-.275-4.344-.122-7.005.244-5.353 1.956-11.195 2.933-13.398.948-2.263 2.842-5.383 4.767-7.708.459-.612.948-1.101 1.375-1.59.428-.49.825-.918 1.162-1.255a86.18 86.18 0 0 0 1.161-1.132ZM219.126 110.551l-2.781-.337a67.777 67.777 0 0 0-1.497-.183c-.55-.092-1.13-.214-1.772-.306-1.253-.245-2.72-.489-4.278-.918-.795-.214-1.62-.397-2.475-.642-.856-.214-1.742-.52-2.628-.795-1.833-.551-3.728-1.285-5.745-2.05a85.897 85.897 0 0 1-12.436-6.393c-4.187-2.692-7.915-5.659-11.093-8.534-1.558-1.499-3.055-2.876-4.308-4.313-.642-.704-1.283-1.377-1.864-2.05-.55-.673-1.1-1.346-1.62-1.957-1.039-1.224-1.894-2.447-2.627-3.487-.367-.52-.734-1.01-1.039-1.469-.306-.459-.581-.887-.825-1.254-.948-1.499-1.498-2.355-1.498-2.355s.673.764 1.864 2.08c.306.336.642.703.978 1.101.367.398.795.826 1.222 1.285.886.917 1.864 1.988 3.025 3.059.581.55 1.192 1.131 1.803 1.743.611.612 1.314 1.193 2.017 1.805 1.375 1.285 2.934 2.508 4.522 3.854 3.27 2.6 6.998 5.323 11.032 7.923a132.096 132.096 0 0 0 11.856 6.637c1.894.888 3.697 1.775 5.408 2.478.856.367 1.681.734 2.506 1.04.794.306 1.589.612 2.322.887 1.467.612 2.873 1.01 4.064 1.438.611.214 1.161.398 1.681.581.519.153 1.008.306 1.436.428 1.772.398 2.75.704 2.75.704ZM231.318 111.224s-.183-.245-.519-.734c-.153-.245-.367-.551-.611-.918-.245-.367-.52-.765-.886-1.224-1.314-1.804-3.484-4.282-6.478-6.974-2.995-2.692-6.967-5.506-11.612-8.29-4.645-2.783-9.992-5.505-15.676-8.32-5.714-2.814-11.122-5.628-15.828-8.534-4.706-2.906-8.709-5.904-11.734-8.748-3.025-2.845-5.134-5.415-6.386-7.28a14.07 14.07 0 0 1-.825-1.255c-.214-.367-.428-.673-.581-.948-.306-.49-.458-.765-.458-.765s.214.245.58.704c.184.245.428.52.703.856.275.337.581.735.978 1.132 1.497 1.713 3.85 4.007 7.058 6.485 3.209 2.508 7.304 5.139 12.07 7.739 4.767 2.63 10.206 5.23 15.921 8.075 5.714 2.845 11.092 5.782 15.706 8.84 4.614 3.09 8.434 6.271 11.245 9.3 2.811 3.028 4.706 5.75 5.775 7.739.306.489.52.917.703 1.315.183.398.336.704.489.979l.366.826ZM223.129 94.186s-.367-.52-.947-1.316a21.705 21.705 0 0 0-1.07-1.407c-.427-.52-.825-1.132-1.344-1.713-1.925-2.416-4.461-5.078-6.111-6.882-1.62-1.836-5.806-6.271-10.206-9.575-2.201-1.651-4.34-3.12-6.02-4.068-.825-.52-1.528-.856-1.986-1.132a20.959 20.959 0 0 1-.734-.428s.275.122.795.336c.489.215 1.253.49 2.108.918 1.742.796 4.064 2.019 6.448 3.487 4.797 2.906 9.472 7.097 11.153 9.024 1.742 1.866 3.911 4.986 5.439 7.739.397.673.733 1.346 1.039 1.958.306.58.581 1.132.764 1.62.397.857.672 1.439.672 1.439Z" fill="#472C29"/><path d="M159.357 53.318c5.989.398 13.17 10.553 16.989 1.56 6.295-15.63 22.215-1.468 33.185-1.896 6.051.03 6.509-7.158 5.776-12.909a58.315 58.315 0 0 1 9.014 11.288c2.78 4.527 5.011 9.36 6.722 14.376-11.734 6.975-30.923-8.565-44.368-11.562-4.125-1.101-7.578 6.576-13.506 7.739-9.259.06-16.043-8.81-13.812-8.596Z" fill="#fff"/><path d="M151.229 54.267c-7.487-5.262-17.601-6.577-26.829-4.436 6.875-5.23 16.225-7.402 24.048-4.894 7.028-13.031 22.582-20.617 37.218-19.332 2.689.244 5.348.734 7.945 1.468-19.373-2.386-40.549 4.435-42.382 27.194Z" fill="#472C29"/><path d="M235.077 104.096c2.291 25.786 2.933 43.375-.306 69.069-3.269 25.695-12.528 51.359-30.557 69.957 22.429-35.942 29.396-81.183 18.854-122.202l12.009-16.824Z" fill="#5E3B36"/><path d="M132.131 129.24c-1.314-3.242-4.339-9.054-7.12-11.195-.886-.673-1.956-1.315-3.056-1.193-1.65.184-2.658 1.866-3.178 3.457-2.016 6.27 1.253 25.358 5.256 28.814 4.003 3.457 8.098-4.558 8.098-4.558V129.24Z" fill="#E6A7A1"/></g><path d="M302.692 331.73c18.222-18.241 18.222-47.815 0-66.056s-47.765-18.241-65.987 0c-18.222 18.241-18.222 47.815 0 66.056s47.765 18.241 65.987 0Z" fill="#E6E6E6"/><path d="M269.698 344.432c25.23 0 45.682-20.474 45.682-45.73 0-25.256-20.452-45.73-45.682-45.73s-45.683 20.474-45.683 45.73c0 25.256 20.453 45.73 45.683 45.73Z" fill="#fff"/><path d="M281.89 288.791v10.186c0 6.577-5.378 12.205-11.978 12.083-6.387-.092-11.551-5.353-11.551-11.777v-10.522c0-.918-.733-1.652-1.65-1.652-.916 0-1.65.734-1.65 1.652v10.124c0 8.198 6.356 15.173 14.515 15.478 8.586.337 15.675-6.576 15.675-15.111V288.73c0-.918-.733-1.652-1.65-1.652-.947.061-1.711.795-1.711 1.713Z" fill="#333"/><path d="M270.126 308.093c-4.828 0-8.77-3.946-8.77-8.779v-19.088c0-4.833 3.942-8.779 8.77-8.779 4.828 0 8.77 3.946 8.77 8.779v19.088c0 4.802-3.942 8.779-8.77 8.779ZM270.554 325.957h-.826c-.916 0-1.65-.734-1.65-1.652v-12.082h4.156v12.082a1.69 1.69 0 0 1-1.68 1.652Z" fill="#333"/><path d="M277.093 327.578h-13.934a1.873 1.873 0 0 1-1.864-1.866c0-1.04.855-1.866 1.864-1.866h13.934c1.039 0 1.864.856 1.864 1.866 0 1.04-.825 1.866-1.864 1.866Z" fill="#333"/><path d="M241.035 273.894a1.027 1.027 0 0 1-.061-1.468 1.024 1.024 0 0 1 1.467-.061l58.578 53.806c.427.397.458 1.04.061 1.468a1.024 1.024 0 0 1-1.467.061" fill="#FA2A33"/><path d="M69.428 345.412c25.77 0 46.661-20.913 46.661-46.71 0-25.796-20.891-46.709-46.66-46.709-25.77 0-46.661 20.913-46.661 46.709 0 25.797 20.89 46.71 46.66 46.71Z" fill="#E6E6E6"/><path d="M69.428 344.432c25.23 0 45.683-20.474 45.683-45.73 0-25.256-20.453-45.73-45.683-45.73s-45.682 20.474-45.682 45.73c0 25.256 20.453 45.73 45.682 45.73Z" fill="#fff"/><path d="M42.6 325.988c17.417-7.494 34.865-14.989 51.304-21.565-8.647-11.135-18.64-21.168-29.793-29.824-6.539 16.518-14.025 33.953-21.512 51.389Z" fill="#E8B835"/><path d="M83.943 308.491c.794-.306 1.558-.643 2.353-.949-7.64-9.146-16.073-17.619-25.21-25.235-.305.764-.642 1.56-.947 2.355a208.569 208.569 0 0 1 23.804 23.829ZM70.559 314.058c.916-.398 1.833-.765 2.72-1.162a281.416 281.416 0 0 0-17.602-17.62 72.475 72.475 0 0 1-1.16 2.723 330.697 330.697 0 0 1 16.042 16.059ZM56.839 319.87c.947-.397 1.925-.826 2.872-1.223a491.29 491.29 0 0 0-9.778-9.789c-.397.949-.825 1.927-1.222 2.876 2.72 2.692 5.439 5.414 8.128 8.136Z" fill="#ED1E79"/><path d="m77.74 285.825-1.375-1.407c2.994-2.876 4.828-6.944 5.072-11.074.245-4.129-1.13-8.381-3.758-11.593l1.527-1.254c2.934 3.61 4.462 8.32 4.187 12.97-.245 4.619-2.323 9.115-5.653 12.358ZM85.104 293.502l-.459-1.927c3.545-.856 7.456-.52 11.032.949 3.575 1.468 6.569 4.007 8.464 7.127l-1.681 1.04c-1.68-2.753-4.37-5.017-7.547-6.332-3.178-1.315-6.662-1.621-9.81-.857Z" fill="#4E7FFF"/><path d="m73.615 278.973-.062-1.989c.52 0 1.04-.428 1.192-.917.153-.52-.092-1.132-.52-1.407-.244-.153-.55-.276-.885-.398-.764-.275-1.712-.612-2.17-1.621-.55-1.193.061-2.264.52-3.12.244-.429.488-.857.519-1.193.122-.765-.733-1.53-1.559-1.713-1.038-.214-2.169.091-3.452.52-.825.275-2.109.673-3.3.183-1.04-.397-1.773-1.437-1.865-2.539-.06-1.131.55-2.233 1.528-2.753l.948 1.744c-.306.183-.52.551-.49.918.031.367.276.703.612.826.489.183 1.192 0 1.956-.245 1.191-.367 2.841-.887 4.46-.551 1.743.367 3.423 1.988 3.118 3.946-.123.704-.459 1.315-.764 1.866-.367.642-.58 1.04-.459 1.315.123.245.58.398 1.04.582.427.153.885.336 1.313.611 1.161.765 1.711 2.295 1.314 3.61-.336 1.285-1.62 2.294-2.994 2.325ZM85.807 287.476c.091-.795.183-1.651.58-2.508.52-1.071 1.498-1.774 2.567-1.805 1.558-.061 2.567 1.224 3.3 2.172l.061.061c.398.49.886 1.04 1.467 1.254.428.153.917.062 1.07-.183.183-.275.152-.765.122-1.285 0-.153-.03-.336-.03-.52-.031-1.346.64-2.783 1.985-2.936.764-.092 1.528.275 2.231 1.101a9.518 9.518 0 0 1 1.589 2.478c.122.244.214.489.306.734.213.55.397 1.04.702 1.437.306.398.825.643 1.1.52l.795 1.805c-1.284.581-2.72-.122-3.484-1.132-.458-.611-.733-1.284-.977-1.927l-.275-.642a7.354 7.354 0 0 0-1.253-1.958c-.367-.428-.55-.428-.55-.428-.092.031-.275.398-.245.918 0 .153 0 .275.03.458.062.765.123 1.713-.457 2.539-.795 1.163-2.292 1.346-3.392.918-1.04-.398-1.773-1.224-2.323-1.897l-.06-.061c-.52-.673-1.131-1.437-1.681-1.407-.306 0-.673.306-.856.704-.245.52-.336 1.193-.397 1.835l-1.925-.245Z" fill="#ED1E79"/><path d="m94.182 309.962-.467-2.433-2.43.468.466 2.433 2.43-.468Z" fill="#F15A24"/><path d="m100.613 308.724-.466-2.433-2.43.467.466 2.433 2.43-.467Z" fill="#FCEE21"/><path d="m98.281 303.149-.466-2.433-2.431.467.467 2.433 2.43-.467Z" fill="#8CC63F"/><path d="m87.359 277.658 1.949-1.527-1.526-1.951-1.949 1.527 1.526 1.951Z" fill="#ED1E79"/><path d="m89.627 282.781 1.95-1.527-1.526-1.951-1.95 1.527 1.526 1.951Z" fill="#39B54A"/><path d="m93.516 279.74 1.95-1.527-1.526-1.951-1.95 1.527 1.526 1.951ZM107.704 308.726l1.949-1.527-1.526-1.951-1.949 1.527 1.526 1.951Z" fill="#BA9BC9"/><path d="m64.365 272.45-.467-2.433-2.43.467.466 2.433 2.43-.467Z" fill="#4E7FFF"/></svg>