<svg width="126" height="31" viewBox="0 0 126 31" fill="none" xmlns="http://www.w3.org/2000/svg">
<g clip-path="url(#clip0_95_46)">
<path d="M13.3249 9.31218C13.3385 9.31226 13.3515 9.31762 13.3613 9.32717L16.3463 12.3123L17.8572 10.8016L13.3265 6.271L8.7959 10.8016L10.3066 12.3123L13.2918 9.32717C13.2965 9.32236 13.3021 9.31857 13.3084 9.31597C13.3146 9.31336 13.3213 9.3121 13.3281 9.31218H13.3249Z" fill="white"/>
<path d="M3.63296 10.1684V15.6146C3.63279 15.803 3.55783 15.9836 3.42457 16.1166L0.208142 19.4041C0.142154 19.4701 0.0898035 19.5484 0.0540891 19.6346C0.0183748 19.7208 0 19.8132 0 19.9065C0 19.9998 0.0183748 20.0922 0.0540891 20.1784C0.0898035 20.2646 0.142154 20.3429 0.208142 20.4089L8.26461 28.3943C8.3306 28.4603 8.40889 28.5126 8.49509 28.5484C8.58128 28.5841 8.67371 28.6025 8.767 28.6025C8.8603 28.6025 8.95273 28.5841 9.03892 28.5484C9.12511 28.5126 9.20341 28.4603 9.2694 28.3943L11.7873 25.8756L10.2781 24.3665L8.87474 25.7683C8.87001 25.7731 8.86433 25.7769 8.85809 25.7794C8.85185 25.782 8.84522 25.7834 8.83844 25.7834C8.83173 25.7834 8.82502 25.782 8.81878 25.7794C8.81255 25.7769 8.80686 25.7731 8.80213 25.7683L2.83259 19.8706C2.82782 19.8659 2.82403 19.8602 2.82145 19.8539C2.81886 19.8477 2.81754 19.8411 2.81754 19.8343C2.81754 19.8276 2.81886 19.8209 2.82145 19.8146C2.82403 19.8084 2.82782 19.8027 2.83259 19.798L5.76646 16.7931V10.777C5.76636 10.7703 5.76763 10.7635 5.77021 10.7573C5.7728 10.751 5.77662 10.7454 5.78145 10.7407L13.2601 3.26355C13.2649 3.25877 13.2706 3.25499 13.2768 3.2524C13.283 3.24982 13.2897 3.2485 13.2964 3.2485C13.3032 3.2485 13.3099 3.24982 13.3161 3.2524C13.3223 3.25499 13.328 3.25877 13.3328 3.26355L20.8083 10.743C20.8131 10.7478 20.817 10.7534 20.8195 10.7597C20.8221 10.7659 20.8234 10.7726 20.8233 10.7793V16.8018L23.8227 19.828C23.8274 19.8326 23.8311 19.8381 23.8337 19.8442C23.8362 19.8503 23.8376 19.8569 23.8376 19.8635C23.8376 19.8701 23.8362 19.8767 23.8337 19.8827C23.8311 19.8888 23.8274 19.8943 23.8227 19.899L17.8626 25.8449C17.8579 25.8497 17.8522 25.8535 17.8459 25.856C17.8397 25.8586 17.833 25.8599 17.8263 25.8599C17.8196 25.8599 17.8129 25.8586 17.8066 25.856C17.8004 25.8535 17.7947 25.8497 17.79 25.8449L10.3105 18.3654C10.3058 18.3607 10.3021 18.3552 10.2994 18.3491C10.2969 18.343 10.2956 18.3365 10.2956 18.3299C10.2956 18.3232 10.2969 18.3167 10.2994 18.3106C10.3021 18.3045 10.3058 18.299 10.3105 18.2943L13.2451 15.4165C13.2499 15.4118 13.2556 15.408 13.2618 15.4054C13.268 15.4028 13.2747 15.4014 13.2815 15.4014C13.2882 15.4014 13.2949 15.4028 13.3011 15.4054C13.3073 15.408 13.313 15.4118 13.3178 15.4165L16.209 18.303C16.2137 18.3077 16.2175 18.3132 16.22 18.3193C16.2226 18.3254 16.2239 18.3319 16.2239 18.3385C16.2239 18.3452 16.2226 18.3517 16.22 18.3578C16.2175 18.3639 16.2137 18.3694 16.209 18.3741L14.8072 19.839L16.295 21.3269L19.3149 18.307L13.2822 12.2869L7.27403 18.3062L17.3456 28.3927C17.4116 28.4587 17.4899 28.5111 17.5761 28.5468C17.6623 28.5825 17.7547 28.6009 17.848 28.6009C17.9413 28.6009 18.0337 28.5825 18.1199 28.5468C18.2061 28.5111 18.2844 28.4587 18.3504 28.3927L26.3855 20.3418C26.4515 20.2758 26.5039 20.1975 26.5396 20.1113C26.5753 20.0251 26.5937 19.9327 26.5937 19.8394C26.5937 19.7461 26.5753 19.6537 26.5396 19.5675C26.5039 19.4813 26.4515 19.403 26.3855 19.337L23.1936 16.1695C23.0611 16.0372 22.9862 15.8579 22.9852 15.6707V10.1092C22.9844 9.92286 22.9105 9.74424 22.7792 9.61195L13.8024 0.712508C13.7364 0.646163 13.658 0.593516 13.5715 0.557592C13.4851 0.521667 13.3924 0.503174 13.2988 0.503174C13.2052 0.503174 13.1125 0.521667 13.0261 0.557592C12.9397 0.593516 12.8612 0.646163 12.7952 0.712508L3.84212 9.66562C3.70886 9.7987 3.6339 9.97929 3.63374 10.1676L3.63296 10.1684Z" fill="white"/>
<path d="M11.8154 28.9219L13.3262 30.4326L14.8353 28.9219L13.3262 27.4127L11.8154 28.9219Z" fill="white"/>
<path opacity="0.39" d="M5.77148 7.73691V10.771L5.77781 10.7513C5.85279 10.6787 6.06432 10.4711 6.2135 10.3116L7.86552 8.66276V5.6405L5.77148 7.73691Z" fill="white"/>
<path opacity="0.39" d="M13.313 9.30185L11.8607 7.73901L9.60645 9.99171L11.8607 10.7589L13.313 9.30185Z" fill="white"/>
<path opacity="0.39" d="M3.61962 19.0066L3.55805 16.4729V15.9354C3.44524 16.1008 3.31271 16.2519 3.1634 16.3853L1.50586 18.076L1.73713 20.931L3.61251 19.0058L3.61962 19.0066Z" fill="white"/>
<path opacity="0.39" d="M23.0176 19.009L23.0239 15.8865L23.0499 15.9536C23.0826 16.0235 23.1252 16.0883 23.1763 16.1462C23.2773 16.2488 23.3341 16.304 23.413 16.3774L25.1496 18.1178V21.1575L23.0176 19.009Z" fill="white"/>
<path opacity="0.39" d="M20.9121 7.75637L20.8221 10.7557C20.8221 10.7557 20.5261 10.4597 20.3872 10.3255L18.8086 8.73903L18.8875 5.76416L20.9113 7.75953L20.9121 7.75637Z" fill="white"/>
<path d="M49.0405 11.0138V13.759C49.0403 14.7797 48.6348 15.7585 47.913 16.4802C47.1913 17.2019 46.2125 17.6074 45.1918 17.6077H37.7076V23.7737H34.2852V7.16199H45.1918C46.2125 7.16219 47.1913 7.56774 47.913 8.28946C48.6348 9.01115 49.0403 9.98997 49.0405 11.0106V11.0138ZM45.618 11.6642C45.6182 11.5225 45.5903 11.3821 45.5361 11.2511C45.482 11.1202 45.4025 11.0012 45.3022 10.901C45.2021 10.8008 45.0831 10.7213 44.9521 10.6671C44.8212 10.6129 44.6808 10.5851 44.5391 10.5852H37.7076V14.1868H44.5414C44.6831 14.187 44.8234 14.1591 44.9543 14.1049C45.0852 14.0508 45.2041 13.9714 45.3044 13.8713C45.4045 13.7711 45.484 13.6523 45.5382 13.5214C45.5925 13.3905 45.6204 13.2503 45.6204 13.1086V11.661L45.618 11.6642Z" fill="white"/>
<path d="M54.7443 7.16357H63.5126C64.5333 7.16378 65.5121 7.56933 66.2338 8.29105C66.9556 9.01277 67.3611 9.99159 67.3613 11.0122V19.9267C67.3611 20.9473 66.9556 21.9262 66.2338 22.6478C65.5121 23.3696 64.5333 23.7751 63.5126 23.7754H54.7443C53.7235 23.7751 52.7448 23.3696 52.023 22.6478C51.3013 21.9262 50.8957 20.9473 50.8955 19.9267V11.0154C50.8953 10.5098 50.9946 10.009 51.1878 9.54177C51.3811 9.0745 51.6645 8.64985 52.0219 8.29218C52.3793 7.93448 52.8037 7.6507 53.2708 7.45705C53.7379 7.26341 54.2385 7.16368 54.7443 7.16357ZM55.3946 20.3521H62.8614C63.0029 20.3524 63.143 20.3247 63.2737 20.2706C63.4044 20.2165 63.5232 20.1373 63.6232 20.0373C63.7232 19.9373 63.8025 19.8185 63.8566 19.6878C63.9106 19.5571 63.9383 19.417 63.938 19.2755V11.6626C63.9382 11.5209 63.9103 11.3805 63.8562 11.2496C63.802 11.1186 63.7225 10.9996 63.6223 10.8995C63.5221 10.7992 63.403 10.7197 63.2721 10.6656C63.1411 10.6114 63.0008 10.5836 62.8591 10.5837H55.3923C55.1061 10.5839 54.8318 10.6976 54.6295 10.8999C54.4272 11.1022 54.3135 11.3765 54.3132 11.6626V19.2747C54.3132 19.4163 54.3412 19.5565 54.3955 19.6873C54.4497 19.818 54.5292 19.9369 54.6294 20.0369C54.7297 20.1369 54.8486 20.2161 54.9795 20.27C55.1104 20.324 55.2507 20.3517 55.3923 20.3513L55.3946 20.3521Z" fill="white"/>
<path d="M89.8878 7.16357V23.7746H86.4669V13.1276L82.0358 23.1313H77.8722L73.441 13.1276V23.7738H70.0186V7.16357H74.7236L79.9528 19.2337L85.182 7.16357H89.887H89.8878Z" fill="white"/>
<path d="M107.772 11.0864V23.7729H104.349V18.4609H96.0787V23.7729H92.6562V11.0864C92.6562 10.0456 93.0698 9.04738 93.8055 8.31144C94.5411 7.57546 95.5396 7.16199 96.5807 7.16199H103.842C104.358 7.16137 104.868 7.26241 105.345 7.45935C105.822 7.65629 106.255 7.94527 106.62 8.30975C106.985 8.67419 107.274 9.10705 107.472 9.58348C107.67 10.06 107.772 10.5707 107.772 11.0864ZM104.349 15.0385V11.6081C104.349 11.4734 104.322 11.34 104.271 11.2155C104.219 11.091 104.144 10.9779 104.048 10.8826C103.953 10.7873 103.84 10.7117 103.715 10.6602C103.591 10.6086 103.457 10.582 103.323 10.582H97.1056C96.8333 10.582 96.572 10.6902 96.3794 10.8826C96.1876 11.075 96.0795 11.3361 96.0795 11.6081V15.0385H104.349Z" fill="white"/>
<path d="M114.037 20.0521C114.133 20.1474 114.246 20.223 114.37 20.2744C114.495 20.3259 114.628 20.3522 114.763 20.3521H125.07V23.7745H114.236C113.196 23.7744 112.197 23.3609 111.462 22.6251C110.726 21.8893 110.312 20.8914 110.312 19.8509V11.0864C110.312 10.5711 110.414 10.0608 110.611 9.58466C110.808 9.10855 111.097 8.67593 111.461 8.31147C111.826 7.94705 112.258 7.65795 112.734 7.46072C113.21 7.26349 113.721 7.16199 114.236 7.16199H124.851V10.5844H114.76C114.488 10.5844 114.227 10.6925 114.035 10.885C113.842 11.0774 113.734 11.3383 113.734 11.6105V19.3244C113.734 19.4597 113.761 19.5936 113.813 19.7186C113.865 19.8435 113.941 19.9569 114.037 20.0521Z" fill="white"/>
</g>
<defs>
<clipPath id="clip0_95_46">
<rect width="125.5" height="29.9937" fill="white" transform="translate(0 0.503174)"/>
</clipPath>
</defs>
</svg>
