<svg width="18" height="18" viewBox="0 0 18 18" fill="none" xmlns="http://www.w3.org/2000/svg">
<path d="M1.92347 1.93649C2.29862 1.55145 2.85385 1.408 3.37156 1.559L15.444 5.06964C15.9902 5.22139 16.3774 5.65702 16.4817 6.21041C16.5882 6.77363 16.2161 7.48859 15.7299 7.78756L11.9551 10.1076C11.5679 10.3454 11.0682 10.2858 10.7478 9.96265L6.42531 5.61323C6.20772 5.38673 5.84757 5.38673 5.62998 5.61323C5.4124 5.83217 5.4124 6.18701 5.62998 6.4135L9.96001 10.7637C10.2811 11.0861 10.3412 11.5881 10.1048 11.9777L7.79837 15.7903C7.52826 16.2433 7.06307 16.5 6.55286 16.5C6.49284 16.5 6.42531 16.5 6.36529 16.4924C5.78005 16.417 5.31486 16.0168 5.14229 15.4506L1.56332 3.39359C1.40576 2.88021 1.54831 2.32153 1.92347 1.93649" fill="#2D5EE6"/>
</svg>
