<svg width="99" height="98" viewBox="0 0 99 98" fill="none" xmlns="http://www.w3.org/2000/svg">
<circle cx="49.5" cy="49" r="49" fill="#9AC3FF"/>
<g clip-path="url(#clip0_1273_2603)">
<path d="M72.4051 38.8491C72.4051 31.0202 66.0358 24.6508 58.2067 24.6508C56.3991 24.6508 54.6038 24.9993 52.9372 25.665V19.0323C52.9372 17.3606 51.5767 16 49.9049 16H36.8466C36.7191 16 36.5929 16.025 36.4752 16.0738C36.3575 16.1225 36.2505 16.194 36.1604 16.2841C36.0702 16.3742 35.9988 16.4812 35.95 16.5989C35.9012 16.7167 35.8761 16.8428 35.8762 16.9703C35.8761 17.0977 35.9012 17.2239 35.95 17.3417C35.9987 17.4594 36.0702 17.5664 36.1603 17.6565C36.2504 17.7467 36.3574 17.8181 36.4752 17.8669C36.5929 17.9156 36.7191 17.9407 36.8466 17.9407H49.9048C50.5066 17.9407 50.9966 18.4305 50.9966 19.0323V27.1671C50.9961 27.1769 50.9961 27.1866 50.9966 27.1963V31.8062C50.9966 32.4085 50.5066 32.8979 49.9048 32.8979H43.6136C43.1766 32.8979 42.7657 33.0681 42.456 33.3773L39.9564 35.8773L37.4569 33.3773C37.3052 33.2248 37.1248 33.1039 36.9261 33.0216C36.7274 32.9393 36.5143 32.8972 36.2992 32.8978H30.0085C29.4062 32.8978 28.9168 32.4085 28.9168 31.8062V19.0329C28.9168 18.4307 29.4062 17.9413 30.0085 17.9413H32.9432C33.0706 17.9413 33.1968 17.9163 33.3145 17.8675C33.4322 17.8187 33.5392 17.7472 33.6293 17.6571C33.7194 17.567 33.7909 17.46 33.8396 17.3423C33.8884 17.2245 33.9135 17.0984 33.9134 16.9709C33.9134 16.8435 33.8884 16.7173 33.8396 16.5996C33.7909 16.4819 33.7194 16.3749 33.6293 16.2848C33.5392 16.1947 33.4322 16.1232 33.3145 16.0745C33.1968 16.0257 33.0706 16.0006 32.9432 16.0006H30.0085C28.3362 16.0006 26.9757 17.3606 26.9757 19.0329V31.8067C26.9757 33.479 28.3362 34.8395 30.0085 34.8395H36.1733L38.7987 37.4651C39.118 37.7837 39.5374 37.9433 39.9563 37.9433C40.3752 37.9433 40.7948 37.7837 41.114 37.4651L43.7394 34.8395H44.5834C44.2018 36.1341 44.0085 37.4776 44.0085 38.8493C44.0085 40.5166 44.2904 42.1308 44.8467 43.6677H20.4886C18.289 43.667 16.5 45.4561 16.5 47.655V66.3495C16.5 68.5489 18.2891 70.338 20.4885 70.338L29.6988 70.3395L33.6712 74.3119C33.8518 74.4928 34.0663 74.6361 34.3025 74.7338C34.5387 74.8314 34.7918 74.8814 35.0474 74.8809C35.5459 74.8809 36.0439 74.6917 36.4236 74.3119L40.3995 70.338H49.6062C51.8057 70.338 53.5948 68.5489 53.5948 66.35V58.165C53.5948 57.6287 53.1603 57.1941 52.6244 57.1941C52.0886 57.1941 51.6542 57.6287 51.6542 58.165V66.35C51.6542 67.4785 50.7357 68.3974 49.6067 68.3974H40.4C39.8799 68.3974 39.3914 68.5998 39.0238 68.9673L35.0438 72.9398L31.0709 68.9669C30.8906 68.7858 30.6762 68.6423 30.4401 68.5445C30.2039 68.4468 29.9508 68.3968 29.6952 68.3974H20.4885C19.3597 68.3974 18.4407 67.479 18.4407 66.35V47.655C18.4407 46.5265 19.3591 45.6077 20.4881 45.6077H49.6062C50.7352 45.6077 51.6536 46.5262 51.6536 47.655V54.046C51.6566 54.3015 51.7601 54.5455 51.9418 54.7252C52.1235 54.9048 52.3687 55.0055 52.6242 55.0055C52.8797 55.0055 53.1249 54.9048 53.3066 54.7252C53.4883 54.5455 53.5919 54.3015 53.5948 54.046V52.2811C55.0707 52.7896 56.616 53.0474 58.2067 53.0474C66.0357 53.0474 72.4051 46.6781 72.4051 38.8491ZM49.6062 43.667H46.933C46.2808 42.1472 45.9495 40.5294 45.9495 38.8491C45.9495 37.4689 46.1762 36.1234 46.6218 34.8389H49.9049C51.5765 34.8389 52.9372 33.4789 52.9372 31.8061V27.7818C54.5835 26.9988 56.3836 26.5922 58.2067 26.5915C64.9653 26.5915 70.4639 32.0901 70.4639 38.8491C70.4639 45.6077 64.9653 51.1063 58.2067 51.1063C56.6044 51.1063 55.0561 50.8037 53.5948 50.208V47.655C53.5948 45.4561 51.8056 43.667 49.6062 43.667Z" fill="white"/>
<path d="M79.7964 54.719H63.0728C61.5819 54.719 60.3693 55.932 60.3693 57.4226V68.1596C60.3693 69.65 61.5819 70.8631 63.0728 70.8631H68.1908L70.3526 73.0249C70.4946 73.167 70.6633 73.2796 70.849 73.3563C71.0347 73.4331 71.2337 73.4723 71.4346 73.4719C71.8265 73.4719 72.2186 73.3229 72.5173 73.0247L74.6784 70.863H79.7964C81.2869 70.863 82.4999 69.65 82.4999 68.1596V57.423C82.4999 55.932 81.2869 54.719 79.7964 54.719ZM80.5592 68.1596C80.5589 68.3618 80.4784 68.5557 80.3354 68.6987C80.1924 68.8416 79.9986 68.9221 79.7964 68.9224H74.5086C74.3075 68.9218 74.1083 68.9611 73.9225 69.038C73.7366 69.1149 73.5679 69.2279 73.4261 69.3705L71.4346 71.3626L69.443 69.371C69.3012 69.2283 69.1326 69.1152 68.9468 69.0382C68.7609 68.9612 68.5617 68.9218 68.3606 68.9224H63.0728C62.8706 68.9221 62.6767 68.8416 62.5337 68.6987C62.3907 68.5557 62.3103 68.3618 62.31 68.1596V57.423C62.3101 57.2207 62.3906 57.0268 62.5336 56.8838C62.6766 56.7408 62.8706 56.6604 63.0728 56.6602H79.7964C79.9986 56.6604 80.1925 56.7409 80.3356 56.8839C80.4786 57.0269 80.559 57.2208 80.5592 57.4231V68.1596ZM36.9482 57.0172L37.3375 56.6914L37.8706 56.1829C37.9805 56.0741 38.1482 55.8807 38.3741 55.6028C38.6001 55.3249 38.7714 55.0735 38.8878 54.8495C39.0041 54.6254 39.1139 54.351 39.2165 54.0251C39.3188 53.7025 39.3708 53.3661 39.3707 53.0276C39.3707 52.0373 38.9904 51.2159 38.2307 50.5642C37.4709 49.9133 36.4527 49.5875 35.1778 49.5875C34.0377 49.5875 33.1283 49.8453 32.4501 50.361C31.7713 50.8771 31.4318 51.4193 31.4318 51.9893C31.4318 52.3015 31.5366 52.5423 31.746 52.7119C31.9562 52.8816 32.1892 52.9663 32.4465 52.9663C32.6489 52.9663 32.8282 52.8972 32.9833 52.7587C33.1389 52.6203 33.2713 52.4723 33.379 52.3152C33.4873 52.158 33.6902 52.0101 33.9878 51.8711C34.2855 51.7332 34.657 51.6636 35.1031 51.6636C35.7387 51.6636 36.2463 51.8146 36.6249 52.1163C37.0031 52.4184 37.1928 52.8438 37.1928 53.3943C37.1928 53.716 37.1149 54.0282 36.9588 54.3299C36.8026 54.6315 36.6465 54.8597 36.4904 55.0141C36.3345 55.1683 36.1002 55.3792 35.7885 55.648L35.1979 56.1305C34.3836 56.855 33.9762 57.915 33.9762 59.3099C33.9762 59.7394 34.0478 60.0343 34.1902 60.1955C34.3327 60.3566 34.5735 60.4368 34.9129 60.4368C35.5912 60.4368 35.9305 60.1925 35.9305 59.7041C35.9305 59.0119 35.9849 58.4831 36.0937 58.1165C36.2019 57.7499 36.4868 57.3838 36.9482 57.0172ZM34.933 61.9026C34.5527 61.9026 34.2477 62.0386 34.0171 62.3099C33.786 62.5813 33.6711 62.9071 33.6711 63.2868C33.6711 63.6534 33.7859 63.9757 34.0171 64.2536C34.2477 64.532 34.5528 64.671 34.933 64.671C35.3126 64.671 35.6385 64.532 35.9098 64.2536C36.1813 63.9757 36.3172 63.6534 36.3172 63.2868C36.3172 62.9071 36.1813 62.5813 35.9098 62.3099C35.6384 62.0386 35.3126 61.9026 34.933 61.9026ZM57.2097 40.3611C57.2097 40.8772 57.5536 41.1345 58.2423 41.1345C58.4951 41.1345 58.7309 41.0671 58.9487 40.9311C59.1663 40.7957 59.2756 40.6058 59.2756 40.3611C59.2756 39.4653 59.3245 37.9728 59.4231 35.8826C59.5213 33.793 59.5707 32.2999 59.5707 31.4046C59.5707 31.0652 59.4444 30.7939 59.1911 30.5905C58.9378 30.3865 58.6216 30.2848 58.2418 30.2848C57.8622 30.2848 57.548 30.3835 57.2982 30.5799C57.0489 30.7767 56.9247 31.0517 56.9247 31.4046C56.9247 32.2999 56.972 33.7929 57.0671 35.8826C57.1618 37.9728 57.2097 39.4653 57.2097 40.3611ZM58.2615 45.3688C58.6543 45.3688 58.9911 45.2298 59.2716 44.9514C59.5527 44.6735 59.6932 44.3512 59.6932 43.9846C59.6932 43.605 59.552 43.2791 59.2716 43.0078C58.9911 42.7363 58.6542 42.6004 58.2615 42.6004C57.8526 42.6004 57.5103 42.7363 57.2353 43.0078C56.9598 43.2791 56.8228 43.605 56.8228 43.9846C56.8228 44.3649 56.9598 44.6905 57.2353 44.962C57.5103 45.2333 57.8526 45.3688 58.2614 45.3688H58.2615ZM47.4887 20.0635H32.1695C31.9141 20.0664 31.6701 20.1699 31.4906 20.3516C31.311 20.5333 31.2103 20.7784 31.2103 21.0338C31.2103 21.2892 31.311 21.5344 31.4906 21.716C31.6701 21.8977 31.9141 22.0012 32.1695 22.0042H47.4887C47.7427 21.9991 47.9846 21.8946 48.1624 21.7132C48.3403 21.5318 48.4399 21.2879 48.4399 21.0338C48.4399 20.7798 48.3403 20.5359 48.1624 20.3544C47.9846 20.173 47.7427 20.0685 47.4887 20.0635ZM48.4591 24.9462C48.4591 24.8188 48.434 24.6926 48.3853 24.5748C48.3365 24.4571 48.265 24.3501 48.1749 24.26C48.0848 24.1699 47.9778 24.0984 47.8601 24.0497C47.7423 24.0009 47.6161 23.9759 47.4887 23.9759H32.1695C32.0421 23.9759 31.9159 24.0009 31.7981 24.0497C31.6804 24.0984 31.5734 24.1699 31.4833 24.26C31.3932 24.3501 31.3217 24.4571 31.273 24.5748C31.2242 24.6926 31.1992 24.8188 31.1992 24.9462C31.1993 25.2035 31.3015 25.4504 31.4835 25.6323C31.6655 25.8143 31.9123 25.9166 32.1696 25.9166H47.4888C47.7462 25.9165 47.993 25.8143 48.1749 25.6323C48.3569 25.4503 48.4591 25.2035 48.4591 24.9462ZM32.1696 27.888C32.0422 27.8879 31.916 27.913 31.7983 27.9617C31.6805 28.0105 31.5735 28.082 31.4834 28.1721C31.3933 28.2622 31.3218 28.3691 31.2731 28.4869C31.2243 28.6046 31.1992 28.7308 31.1992 28.8582C31.1992 29.1156 31.3014 29.3625 31.4834 29.5446C31.6654 29.7266 31.9122 29.829 32.1696 29.829H39.9563C40.211 29.8249 40.4538 29.7208 40.6325 29.5392C40.8111 29.3577 40.9112 29.1132 40.9112 28.8585C40.9112 28.6038 40.8111 28.3593 40.6325 28.1777C40.4538 27.9962 40.211 27.8921 39.9563 27.888H32.1696Z" fill="white"/>
<path d="M67.9031 62.846C67.9031 62.979 67.8769 63.1106 67.826 63.2335C67.7751 63.3563 67.7004 63.4679 67.6064 63.5619C67.5124 63.6559 67.4007 63.7304 67.2779 63.7813C67.155 63.8321 67.0234 63.8583 66.8904 63.8582C66.6239 63.8552 66.3694 63.7472 66.1821 63.5578C65.9947 63.3683 65.8896 63.1126 65.8896 62.8461C65.8896 62.5796 65.9947 62.3239 66.1821 62.1344C66.3694 61.9449 66.6239 61.837 66.8904 61.834C67.0233 61.8339 67.155 61.8601 67.2778 61.9109C67.4007 61.9617 67.5123 62.0363 67.6064 62.1303C67.7004 62.2242 67.775 62.3358 67.8259 62.4586C67.8768 62.5814 67.9031 62.7131 67.9031 62.846ZM72.2135 62.846C72.2134 62.979 72.1872 63.1106 72.1363 63.2335C72.0854 63.3563 72.0108 63.4679 71.9168 63.5619C71.8227 63.6559 71.7111 63.7304 71.5882 63.7813C71.4654 63.8321 71.3337 63.8583 71.2008 63.8582C70.9343 63.8552 70.6798 63.7472 70.4924 63.5578C70.3051 63.3683 70.2 63.1126 70.2 62.8461C70.2 62.5796 70.3051 62.3239 70.4924 62.1344C70.6798 61.9449 70.9343 61.837 71.2008 61.834C71.3337 61.834 71.4653 61.8601 71.5882 61.9109C71.711 61.9618 71.8226 62.0363 71.9166 62.1303C72.0107 62.2243 72.0853 62.3359 72.1362 62.4587C72.1871 62.5815 72.2133 62.7131 72.2133 62.846H72.2135ZM76.6223 62.846C76.6223 63.1145 76.5157 63.3719 76.3259 63.5617C76.1361 63.7515 75.8787 63.8582 75.6103 63.8582C75.4773 63.8583 75.3456 63.8321 75.2228 63.7813C75.0999 63.7304 74.9883 63.6559 74.8943 63.5619C74.8002 63.4679 74.7256 63.3563 74.6747 63.2335C74.6238 63.1106 74.5976 62.979 74.5976 62.846C74.5976 62.7131 74.6238 62.5814 74.6747 62.4586C74.7257 62.3358 74.8003 62.2242 74.8943 62.1303C74.9883 62.0363 75.1 61.9617 75.2228 61.9109C75.3457 61.8601 75.4773 61.8339 75.6103 61.834C75.8787 61.834 76.1361 61.9407 76.3258 62.1304C76.5156 62.3202 76.6223 62.5776 76.6223 62.846Z" fill="white"/>
</g>
<defs>
<clipPath id="clip0_1273_2603">
<rect width="66" height="66" fill="white" transform="translate(16.5 16)"/>
</clipPath>
</defs>
</svg>
