<svg width="99" height="98" viewBox="0 0 99 98" fill="none" xmlns="http://www.w3.org/2000/svg">
<circle cx="49.5" cy="49" r="49" fill="#CFB0ED"/>
<g clip-path="url(#clip0_1273_2649)">
<path d="M83.8924 64.9309L76.7174 61.3434L72.151 49.4653C72.0973 49.3248 72.0151 49.197 71.9097 49.0897C71.8044 48.9824 71.678 48.8981 71.5385 48.8418L43.2049 37.516C43.0068 37.4372 42.79 37.4179 42.5811 37.4607C42.3722 37.5034 42.1803 37.6063 42.0291 37.7567L38.2502 41.5356C38.1019 41.6869 38.0007 41.8781 37.9589 42.0858C37.9172 42.2936 37.9367 42.509 38.0151 42.7059L49.3409 71.0395C49.3971 71.179 49.4815 71.3053 49.5887 71.4107C49.696 71.5161 49.8239 71.5982 49.9643 71.652L61.8424 76.2184L65.4299 83.3934C65.5055 83.5516 65.6179 83.6893 65.7578 83.795C65.8977 83.9006 66.061 83.9711 66.2338 84.0004C66.292 84.0058 66.3506 84.0058 66.4088 84.0004C66.6984 83.9992 66.9758 83.8832 67.1799 83.6778L84.1768 66.6809C84.3019 66.5602 84.3964 66.4114 84.4525 66.2469C84.5087 66.0823 84.5247 65.9068 84.4995 65.7348C84.4701 65.562 84.3997 65.3987 84.294 65.2588C84.1884 65.1189 84.0506 65.0064 83.8924 64.9309ZM40.3065 42.5637L40.9135 41.9621L55.0174 56.066C54.0879 57.3831 53.6865 59.0011 53.8925 60.5999C54.0985 62.1988 54.8969 63.6621 56.1299 64.7006C57.3629 65.7391 58.9407 66.2771 60.5513 66.2082C62.1619 66.1394 63.688 65.4687 64.8279 64.3288C65.9678 63.1889 66.6385 61.6628 66.7073 60.0522C66.7761 58.4417 66.2381 56.8639 65.1996 55.6309C64.1611 54.3979 62.6978 53.5994 61.099 53.3934C59.5001 53.1875 57.8822 53.5889 56.5651 54.5184L42.4612 40.4145L43.0627 39.8074L70.2807 50.6957L74.5737 61.8629L62.362 74.0746L51.1948 69.7817L40.3065 42.5637ZM60.2729 55.5246C61.2559 55.5261 62.208 55.8683 62.967 56.493C63.7259 57.1177 64.2448 57.9862 64.4353 58.9506C64.6257 59.915 64.4759 60.9156 64.0114 61.7819C63.5469 62.6482 62.7964 63.3267 61.8877 63.7017C60.979 64.0767 59.9685 64.1251 59.0282 63.8386C58.0878 63.5521 57.2759 62.9485 56.7307 62.1305C56.1856 61.3125 55.9409 60.3308 56.0383 59.3527C56.1357 58.3745 56.5693 57.4604 57.2651 56.766C58.0636 55.9701 59.1454 55.5236 60.2729 55.5246ZM66.7096 81.0582L63.9752 75.5895L76.0776 63.4871L81.5463 66.2215L66.7096 81.0582Z" fill="white"/>
<path d="M35.4175 72.516C35.2084 72.3183 34.9315 72.2082 34.6437 72.2082C34.3559 72.2082 34.079 72.3183 33.8699 72.516L32.4808 73.9051C28.774 68.8741 26.7291 62.812 26.631 56.5636C26.533 50.3153 28.3868 44.192 31.934 39.0472C32.9967 39.632 34.2203 39.8567 35.4215 39.6875C36.6226 39.5183 37.7366 38.9644 38.5965 38.1089C39.4564 37.2533 40.0158 36.1421 40.191 34.9418C40.3662 33.7416 40.1478 32.5168 39.5683 31.4512C44.7131 27.904 50.8364 26.0502 57.0847 26.1482C63.3331 26.2463 69.3952 28.2912 74.4261 31.998L73.0152 33.3707C72.8118 33.5758 72.6978 33.8529 72.698 34.1418C72.6972 34.2857 72.7248 34.4284 72.7792 34.5617C72.8336 34.6949 72.9138 34.8161 73.0152 34.9183L77.8386 39.7035C78.0436 39.9072 78.3208 40.0215 78.6097 40.0215C78.8987 40.0215 79.1759 39.9072 79.3808 39.7035L84.1769 34.9074C84.2786 34.8058 84.3593 34.6852 84.4143 34.5524C84.4694 34.4196 84.4977 34.2773 84.4977 34.1336C84.4977 33.9898 84.4694 33.8475 84.4143 33.7147C84.3593 33.582 84.2786 33.4613 84.1769 33.3597L79.3808 28.5637C79.1759 28.3599 78.8987 28.2456 78.6097 28.2456C78.3208 28.2456 78.0436 28.3599 77.8386 28.5637L75.9847 30.4066C71.4156 26.9684 66.0137 24.8082 60.3337 24.148C54.6538 23.4877 48.9004 24.3511 43.6644 26.6496L49.9699 20.3605C50.6848 20.7021 51.4977 20.7795 52.2642 20.5788C53.0308 20.3781 53.7015 19.9124 54.1573 19.2643C54.6131 18.6161 54.8246 17.8275 54.7543 17.0382C54.684 16.249 54.3364 15.5101 53.7731 14.9528C53.2099 14.3955 52.4674 14.0557 51.6775 13.9937C50.8875 13.9317 50.1012 14.1515 49.4579 14.6141C48.8146 15.0768 48.356 15.7523 48.1634 16.521C47.9708 17.2896 48.0567 18.1016 48.4058 18.8129L37.7636 29.4715C36.6831 28.7466 35.3844 28.4195 34.0894 28.5458C32.7945 28.6722 31.5835 29.2442 30.6635 30.1643C29.7435 31.0843 29.1714 32.2953 29.045 33.5902C28.9187 34.8852 29.2459 36.1839 29.9707 37.2644L19.3121 47.9066C18.598 47.5587 17.7837 47.4751 17.0138 47.6709C16.2439 47.8666 15.5684 48.329 15.1072 48.9757C14.646 49.6225 14.4291 50.4119 14.495 51.2035C14.5608 51.9951 14.9052 52.7378 15.4669 53.2995C16.0286 53.8612 16.7712 54.2055 17.5629 54.2714C18.3545 54.3372 19.1438 54.1203 19.7906 53.6591C20.4374 53.198 20.8997 52.5224 21.0955 51.7526C21.2912 50.9827 21.2077 50.1684 20.8597 49.4543L27.1652 43.1652C24.8645 48.3998 23.9983 54.1523 24.6557 59.8323C25.3131 65.5122 27.4703 70.9149 30.9058 75.4855L29.0574 77.3394C28.8537 77.5444 28.7393 77.8216 28.7393 78.1105C28.7393 78.3995 28.8537 78.6767 29.0574 78.8816L33.8535 83.6777C34.0577 83.8831 34.335 83.9992 34.6246 84.0004C34.7689 84.0005 34.9118 83.972 35.0451 83.9167C35.1784 83.8613 35.2994 83.7801 35.4011 83.6777L40.2027 78.8816C40.4064 78.6767 40.5208 78.3995 40.5208 78.1105C40.5208 77.8216 40.4064 77.5444 40.2027 77.3394L35.4175 72.516ZM78.6207 30.8715L81.8691 34.1199L78.6207 37.3683L75.3722 34.1199L78.6207 30.8715ZM50.5933 16.5324C50.7559 16.3685 50.9634 16.2567 51.1896 16.211C51.4158 16.1652 51.6505 16.1877 51.8639 16.2756C52.0773 16.3635 52.2598 16.5128 52.3882 16.7046C52.5166 16.8963 52.5852 17.1219 52.5852 17.3527C52.5852 17.5835 52.5166 17.8091 52.3882 18.0009C52.2598 18.1926 52.0773 18.3419 51.8639 18.4298C51.6505 18.5177 51.4158 18.5402 51.1896 18.4945C50.9634 18.4488 50.7559 18.3369 50.5933 18.173C50.4855 18.0653 50.4 17.9375 50.3416 17.7967C50.2833 17.656 50.2532 17.5051 50.2532 17.3527C50.2532 17.2003 50.2833 17.0495 50.3416 16.9087C50.4 16.768 50.4855 16.6401 50.5933 16.5324ZM32.2183 31.7191C32.5359 31.4 32.9134 31.1468 33.3292 30.974C33.745 30.8012 34.1908 30.7122 34.641 30.7122C35.0912 30.7122 35.537 30.8012 35.9528 30.974C36.3685 31.1468 36.746 31.4 37.0636 31.7191C37.5437 32.1984 37.8709 32.8094 38.0036 33.4747C38.1364 34.14 38.0688 34.8297 37.8094 35.4566C37.55 36.0835 37.1106 36.6193 36.5466 36.9963C35.9826 37.3733 35.3194 37.5746 34.641 37.5746C33.9626 37.5746 33.2994 37.3733 32.7354 36.9963C32.1714 36.6193 31.7319 36.0835 31.4726 35.4566C31.2132 34.8297 31.1456 34.14 31.2784 33.4747C31.4111 32.8094 31.7382 32.1984 32.2183 31.7191ZM18.6777 51.7347C18.4544 51.921 18.1695 52.0169 17.8791 52.0038C17.5886 51.9907 17.3136 51.8694 17.108 51.6638C16.9024 51.4582 16.7811 51.1832 16.768 50.8927C16.7549 50.6023 16.8509 50.3174 17.0371 50.0941C17.2559 49.879 17.5505 49.7585 17.8574 49.7585C18.1643 49.7585 18.4588 49.879 18.6777 50.0941C18.7855 50.2018 18.871 50.3297 18.9294 50.4704C18.9878 50.6112 19.0178 50.7621 19.0178 50.9144C19.0178 51.0668 18.9878 51.2177 18.9294 51.3584C18.871 51.4992 18.7855 51.6271 18.6777 51.7347ZM34.641 81.3371L31.3925 78.0887L34.641 74.8402L37.8894 78.0887L34.641 81.3371Z" fill="white"/>
</g>
<defs>
<clipPath id="clip0_1273_2649">
<rect width="70" height="70" fill="white" transform="translate(14.5 14)"/>
</clipPath>
</defs>
</svg>
