<svg width="99" height="98" viewBox="0 0 99 98" fill="none" xmlns="http://www.w3.org/2000/svg">
<circle cx="49.5" cy="49" r="49" fill="#B5C2AA"/>
<g clip-path="url(#clip0_1274_2677)">
<path d="M21.6396 77.831C22.269 77.831 22.7792 77.3208 22.7792 76.6914C22.7792 76.062 22.269 75.5518 21.6396 75.5518C21.0102 75.5518 20.5 76.062 20.5 76.6914C20.5 77.3208 21.0102 77.831 21.6396 77.831Z" fill="white"/>
<path d="M50.7467 48.9261C51.3749 48.9261 51.8841 48.4169 51.8841 47.7887C51.8841 47.1606 51.3749 46.6514 50.7467 46.6514C50.1186 46.6514 49.6094 47.1606 49.6094 47.7887C49.6094 48.4169 50.1186 48.9261 50.7467 48.9261Z" fill="white"/>
<path d="M65.6407 33.371C64.7264 32.4565 63.5108 31.9531 62.2178 31.9531C60.9248 31.9531 59.709 32.4568 58.7949 33.371C56.9075 35.2585 56.9075 38.3295 58.7949 40.2169C59.7387 41.1606 60.978 41.6323 62.2178 41.6323C63.4572 41.6323 64.697 41.1604 65.6407 40.2169C67.5281 38.3294 67.5281 35.2583 65.6407 33.371ZM64.0324 38.6084C63.0318 39.6089 61.4036 39.6089 60.4032 38.6084C59.4026 37.6079 59.4026 35.9798 60.4032 34.9792C60.641 34.7402 60.9237 34.5506 61.2352 34.4216C61.5467 34.2926 61.8806 34.2267 62.2178 34.2276C62.5549 34.2267 62.8889 34.2926 63.2003 34.4216C63.5118 34.5506 63.7946 34.7402 64.0323 34.9792C65.0329 35.9798 65.0329 37.6079 64.0324 38.6084ZM34.7069 66.6098C34.1446 66.3298 33.4619 66.5587 33.1819 67.1209L31.8273 69.8414C31.2382 71.0241 30.0535 71.8151 28.7352 71.9052L27.1596 72.0131C26.8933 72.0309 26.7182 71.8982 26.6372 71.8172C26.5562 71.7362 26.4232 71.5607 26.4413 71.2946L26.5492 69.7192C26.6395 68.401 27.4304 67.2162 28.613 66.6271L31.3334 65.2725C31.8957 64.9925 32.1245 64.3097 31.8445 63.7475C31.5646 63.1853 30.8818 62.9563 30.3195 63.2364L27.5992 64.591C25.697 65.5382 24.425 67.4436 24.2798 69.5638L24.172 71.1392C24.1431 71.5594 24.2047 71.9809 24.3524 72.3753C24.5002 72.7697 24.7308 73.1278 25.0286 73.4256C25.3264 73.7234 25.6845 73.954 26.0789 74.1018C26.4733 74.2496 26.8948 74.3111 27.315 74.2823L28.8905 74.1745C31.0106 74.0294 32.916 72.7576 33.8633 70.8551L35.2179 68.1348C35.498 67.5724 35.2691 66.8898 34.7069 66.6098Z" fill="white"/>
<path d="M77.7148 20.9264C77.4507 20.6662 77.1347 20.4647 76.7873 20.3351C76.44 20.2055 76.0692 20.1507 75.6992 20.1743L74.6403 20.2418C65.1451 20.848 56.259 25.4312 50.2604 32.8165L47.7677 35.8852L41.2446 35.6936C41.2336 35.6933 41.2224 35.6931 41.2113 35.6932C36.038 35.6932 31.1743 37.7078 27.5161 41.3658L20.835 48.0471C20.6794 48.2026 20.5724 48.3999 20.5267 48.6151C20.4811 48.8302 20.4988 49.054 20.5777 49.2593C20.6566 49.4646 20.7934 49.6426 20.9714 49.7718C21.1495 49.9009 21.3611 49.9757 21.5808 49.987L35.7233 50.7136L35.1467 51.4235C35.0046 51.5985 34.9177 51.8117 34.897 52.0361C34.8763 52.2605 34.9228 52.4861 35.0305 52.684C35.2519 53.0909 35.484 53.492 35.7265 53.8867L32.3727 57.8682C32.2323 58.035 32.1428 58.2385 32.1147 58.4546C32.0866 58.6708 32.1213 58.8904 32.2144 59.0875C32.947 60.6355 33.9193 62.0263 35.1047 63.2215C36.3188 64.4458 37.7386 65.447 39.3243 66.1975C39.5181 66.2892 39.7339 66.3242 39.9467 66.2986C40.1596 66.273 40.3608 66.1878 40.5274 66.0527C41.2499 65.4666 42.0828 64.7714 42.8885 64.0992C43.4627 63.62 44.0502 63.1298 44.5993 62.6778C44.9272 62.8756 45.2593 63.0662 45.5956 63.2494C45.7623 63.3402 45.9491 63.3878 46.1389 63.3878C46.3865 63.3878 46.6325 63.3071 46.8362 63.149L47.6114 62.5474L48.3412 76.7495C48.3561 77.0406 48.4822 77.3149 48.6935 77.5157C48.9048 77.7165 49.1851 77.8285 49.4766 77.8287C49.7728 77.8287 50.0637 77.7128 50.281 77.4954L56.9622 70.8142C60.6204 67.156 62.6349 62.2923 62.6349 57.1189V50.889L65.2706 48.8437C73.1696 42.714 77.9804 33.4709 78.4693 23.4843L78.4964 22.9308C78.5144 22.5605 78.4541 22.1906 78.3195 21.8452C78.1848 21.4998 77.9788 21.1867 77.7148 20.9264ZM24.252 47.8468L29.1244 42.9743C32.349 39.7498 36.6353 37.9722 41.1949 37.9677L45.9624 38.1078L37.4991 48.5274L24.252 47.8468ZM41.4312 62.3527C40.8375 62.848 40.2289 63.3559 39.664 63.8205C38.5715 63.2288 37.5833 62.4906 36.7196 61.6197C35.8832 60.7763 35.1712 59.816 34.5971 58.7582L37.0526 55.8431C37.796 56.8405 38.609 57.784 39.4856 58.6666L39.4877 58.6686L39.4883 58.6694L39.4894 58.6703C40.4611 59.648 41.5081 60.548 42.6206 61.3619C42.2284 61.6875 41.8266 62.0228 41.4312 62.3527ZM60.3607 57.1189C60.3607 61.6847 58.5827 65.9771 55.3541 69.2058L50.4816 74.0782L49.8017 60.8479L60.3606 52.6542V57.1189H60.3607ZM76.1978 23.3731C75.7414 32.6958 71.2504 41.3245 63.8765 47.0467L46.0392 60.8884C44.5599 60.0241 43.1812 59.0035 41.9194 57.8473L47.933 51.8336C48.3771 51.3896 48.3771 50.6693 47.933 50.2251C47.4888 49.781 46.7687 49.781 46.3245 50.2251L40.3165 56.2331C39.2119 55.0103 38.2336 53.6797 37.4007 52.2565L52.026 34.2505C57.6257 27.3563 65.9211 23.0777 74.785 22.512L75.844 22.4444C75.8944 22.4411 75.9449 22.4485 75.9922 22.4662C76.0395 22.4838 76.0826 22.5113 76.1185 22.5468C76.1612 22.5889 76.2317 22.6803 76.2249 22.8197L76.1978 23.3731Z" fill="white"/>
</g>
<defs>
<clipPath id="clip0_1274_2677">
<rect width="58" height="58" fill="white" transform="translate(20.5 20)"/>
</clipPath>
</defs>
</svg>
