<svg width="99" height="98" viewBox="0 0 99 98" fill="none" xmlns="http://www.w3.org/2000/svg">
<circle cx="49.5" cy="49" r="49" fill="#F8B271"/>
<path d="M75.5522 30.8806H64.7559V20.0843C64.7562 19.955 64.731 19.8269 64.6816 19.7074C64.6323 19.588 64.5599 19.4794 64.4685 19.388C64.3771 19.2966 64.2685 19.2241 64.149 19.1748C64.0295 19.1255 63.9015 19.1003 63.7722 19.1006H34.3234C34.0632 19.1006 33.8136 19.204 33.6295 19.388C33.4455 19.572 33.3421 19.8216 33.3421 20.0819V30.8782H22.5458C21.765 30.8801 21.0167 31.1911 20.4646 31.7432C19.9125 32.2953 19.6015 33.0436 19.5996 33.8244V65.2369C19.6018 66.0173 19.9128 66.7651 20.4646 67.3169C21.0164 67.8687 21.7642 68.1797 22.5446 68.1819H41.9996L41.3422 72.1082H40.2134C40.0612 72.1092 39.9112 72.145 39.775 72.213C39.6387 72.281 39.5199 72.3794 39.4277 72.5005L36.4827 76.4267C36.3732 76.5726 36.3066 76.746 36.2902 76.9276C36.2738 77.1092 36.3084 77.2918 36.39 77.4548C36.4716 77.6179 36.597 77.755 36.7521 77.8508C36.9073 77.9465 37.0861 77.9972 37.2684 77.997H60.8272C61.0095 77.9972 61.1883 77.9465 61.3435 77.8508C61.4986 77.755 61.6241 77.6179 61.7057 77.4548C61.7872 77.2918 61.8218 77.1092 61.8054 76.9276C61.789 76.746 61.7224 76.5726 61.6129 76.4267L58.6679 72.5005C58.5757 72.3794 58.4569 72.281 58.3207 72.213C58.1844 72.145 58.0345 72.1092 57.8822 72.1082H56.7534L56.096 68.1819H75.5522C76.333 68.1803 77.0814 67.8696 77.6337 67.3178C78.1861 66.7659 78.4974 66.0177 78.4996 65.2369V33.8244C78.4974 33.044 78.1864 32.2962 77.6346 31.7444C77.0828 31.1926 76.335 30.8816 75.5546 30.8794L75.5522 30.8806ZM35.3059 21.0643H62.7849V40.6933H35.3059V21.0643ZM57.3868 74.0707L58.8587 76.0345H39.2321L40.704 74.0707H57.3868ZM43.3347 72.1082L43.9921 68.1819H54.1023L54.7597 72.1082H43.3347ZM76.5335 65.2369C76.5335 65.4972 76.4301 65.7468 76.2461 65.9308C76.062 66.1148 75.8125 66.2182 75.5522 66.2182H22.5446C22.2844 66.2182 22.0348 66.1148 21.8507 65.9308C21.6667 65.7468 21.5633 65.4972 21.5633 65.2369V62.2859H76.5335V65.2369ZM76.5335 60.3294H21.5633V33.8244C21.5633 33.5641 21.6667 33.3146 21.8507 33.1305C22.0348 32.9465 22.2844 32.8431 22.5446 32.8431H33.3409V41.6781C33.3409 41.9384 33.4443 42.188 33.6284 42.372C33.8124 42.556 34.062 42.6594 34.3222 42.6594H63.7722C64.0325 42.6594 64.282 42.556 64.4661 42.372C64.6501 42.188 64.7535 41.9384 64.7535 41.6781V32.8431H75.5498C75.8101 32.8431 76.0597 32.9465 76.2437 33.1305C76.4277 33.3146 76.5311 33.5641 76.5311 33.8244L76.5335 60.3294Z" fill="white"/>
<path d="M73.589 44.624H61.809C61.5487 44.624 61.2991 44.7274 61.1151 44.9114C60.9311 45.0955 60.8277 45.3451 60.8277 45.6053V46.5866H52.9752V45.6053C52.9752 45.3451 52.8718 45.0955 52.6878 44.9114C52.5037 44.7274 52.2542 44.624 51.9939 44.624H46.1039C45.8437 44.624 45.5941 44.7274 45.41 44.9114C45.226 45.0955 45.1226 45.3451 45.1226 45.6053V46.5866H37.2689V45.6053C37.2689 45.3451 37.1655 45.0955 36.9815 44.9114C36.7975 44.7274 36.5479 44.624 36.2876 44.624H24.5076C24.2474 44.624 23.9978 44.7274 23.8138 44.9114C23.6298 45.0955 23.5264 45.3451 23.5264 45.6053V49.5316C23.5264 49.7918 23.6298 50.0414 23.8138 50.2254C23.9978 50.4095 24.2474 50.5128 24.5076 50.5128H36.2876C36.5479 50.5128 36.7975 50.4095 36.9815 50.2254C37.1655 50.0414 37.2689 49.7918 37.2689 49.5316V48.5503H45.119V49.5316C45.119 49.7918 45.2224 50.0414 45.4064 50.2254C45.5905 50.4095 45.8401 50.5128 46.1003 50.5128H48.064V52.4766H46.1039C45.8437 52.4766 45.5941 52.58 45.41 52.764C45.226 52.948 45.1226 53.1976 45.1226 53.4578V57.3841C45.1226 57.6444 45.226 57.8939 45.41 58.078C45.5941 58.262 45.8437 58.3654 46.1039 58.3654H51.9939C52.2542 58.3654 52.5037 58.262 52.6878 58.078C52.8718 57.8939 52.9752 57.6444 52.9752 57.3841V53.459C52.9752 53.1988 52.8718 52.9492 52.6878 52.7652C52.5037 52.5812 52.2542 52.4778 51.9939 52.4778H50.0302V50.514H51.9939C52.2542 50.514 52.5037 50.4107 52.6878 50.2266C52.8718 50.0426 52.9752 49.793 52.9752 49.5328V48.5515H60.8337V49.5328C60.8337 49.793 60.9371 50.0426 61.1211 50.2266C61.3051 50.4107 61.5547 50.514 61.815 50.514H73.595C73.8552 50.514 74.1048 50.4107 74.2888 50.2266C74.4729 50.0426 74.5762 49.793 74.5762 49.5328V45.6053C74.5762 45.4759 74.5507 45.3478 74.501 45.2284C74.4513 45.109 74.3785 45.0005 74.2867 44.9093C74.195 44.8181 74.0861 44.746 73.9663 44.697C73.8466 44.648 73.7183 44.6233 73.589 44.624ZM35.3064 48.5503H25.4901V46.5878H35.3064V48.5503ZM51.0126 54.4403V56.404H47.0852V54.4403H51.0126ZM51.0126 48.5503H47.0852V46.5878H51.0114L51.0126 48.5503ZM72.6053 48.5503H62.7914V46.5878H72.6077L72.6053 48.5503Z" fill="white"/>
<path d="M43.4461 24.2959L37.5561 30.1823C37.4649 30.2734 37.3926 30.3816 37.3433 30.5007C37.2939 30.6198 37.2686 30.7474 37.2686 30.8763C37.2686 31.0051 37.2939 31.1328 37.3433 31.2518C37.3926 31.3709 37.4649 31.4791 37.5561 31.5702L43.4461 37.4602L44.834 36.0723L39.6386 30.8769L44.834 25.6838L43.4461 24.2959Z" fill="white"/>
<path d="M54.6496 24.2959L53.2617 25.6838L58.4572 30.8793L53.2617 36.0747L54.6496 37.4638L60.5396 31.5738C60.6308 31.4827 60.7031 31.3745 60.7524 31.2554C60.8018 31.1364 60.8272 31.0087 60.8272 30.8799C60.8272 30.751 60.8018 30.6234 60.7524 30.5043C60.7031 30.3852 60.6308 30.277 60.5396 30.1859L54.6496 24.2959Z" fill="white"/>
<path d="M51.0652 21.7351L45.1699 39.4023L47.0315 40.0235L52.9268 22.3563L51.0652 21.7351Z" fill="white"/>
</svg>
