<svg width="99" height="98" viewBox="0 0 99 98" fill="none" xmlns="http://www.w3.org/2000/svg">
<circle cx="49.5" cy="49" r="49" fill="#8AD8CA"/>
<path d="M40.2739 57.9686L39.5171 62.6203C39.4955 62.8106 39.5208 63.0032 39.5905 63.1815C39.6603 63.3598 39.7725 63.5184 39.9175 63.6435C40.0624 63.7686 40.2357 63.8564 40.4223 63.8994C40.6088 63.9424 40.8031 63.9392 40.9882 63.8901L41.3316 67.2151H40.5966C40.3065 67.2151 40.0283 67.3304 39.8232 67.5355C39.6181 67.7406 39.5029 68.0188 39.5029 68.3089V73.828C39.5029 74.118 39.6181 74.3962 39.8232 74.6014C40.0283 74.8065 40.3065 74.9217 40.5966 74.9217H42.1158L42.2591 76.2944C42.2782 77.0638 42.4698 77.8191 42.8199 78.5046C43.1699 79.1901 43.6694 79.7882 44.2814 80.2548C45.5863 81.283 47.2042 81.8327 48.8654 81.8123C52.49 81.8123 55.4443 79.3427 55.4825 76.2955L55.6247 74.9217H57.145C57.4351 74.9217 57.7133 74.8065 57.9184 74.6014C58.1236 74.3962 58.2388 74.118 58.2388 73.828V68.3045C58.2388 68.0144 58.1236 67.7362 57.9184 67.5311C57.7133 67.326 57.4351 67.2108 57.145 67.2108H56.41L56.7535 63.8858C56.9386 63.9351 57.1329 63.9385 57.3196 63.8956C57.5063 63.8528 57.6797 63.7649 57.8247 63.6397C57.9697 63.5146 58.082 63.3559 58.1516 63.1774C58.2213 62.999 58.2464 62.8062 58.2246 62.6159L57.4677 57.9686C61.37 56.2738 64.6947 53.4798 67.036 49.9276C69.3773 46.3753 70.634 42.2183 70.6529 37.9639C70.6582 33.8028 69.4581 29.7292 67.1977 26.2356L71.5935 21.8508C71.747 21.6977 71.8515 21.5024 71.8938 21.2898C71.9361 21.0771 71.9142 20.8567 71.831 20.6566C71.7478 20.4564 71.607 20.2854 71.4264 20.1654C71.2459 20.0454 71.0337 19.9818 70.8169 19.9826H68.3232V17.478C68.3238 17.261 68.2598 17.0488 68.1395 16.8682C68.0191 16.6877 67.8478 16.547 67.6473 16.4641C67.4468 16.3812 67.2262 16.3598 67.0135 16.4027C66.8008 16.4455 66.6056 16.5506 66.4529 16.7047L62.3086 20.8522C59.8733 18.9398 57.0579 17.5691 54.0506 16.8315C51.0432 16.094 47.9131 16.0066 44.8693 16.5752C41.8255 17.1438 38.9381 18.3553 36.3998 20.1289C33.8616 21.9024 31.7309 24.1971 30.1502 26.8597C28.5695 29.5223 27.5752 32.4915 27.2335 35.5691C26.8918 38.6467 27.2108 41.7617 28.169 44.7062C29.1272 47.6506 30.7026 50.3568 32.7901 52.6438C34.8775 54.9309 37.429 56.7462 40.2739 57.9686ZM53.3016 76.1248C53.2974 76.1611 53.2952 76.1977 53.295 76.2342C53.295 78.1034 51.3077 79.6248 48.8654 79.6248C47.7048 79.6448 46.5723 79.2669 45.6563 78.5541C45.292 78.2843 44.9938 77.9353 44.7843 77.5335C44.5747 77.1316 44.4592 76.6873 44.4466 76.2342V76.1248L44.3208 74.9217H53.4318L53.3016 76.1248ZM56.0513 72.7342H41.6904V69.3983H56.0513V72.7342ZM54.2116 67.2108H43.53L43.1877 63.8858H54.555L54.2116 67.2108ZM67.2294 22.1701H68.1722L65.031 25.3092L64.0827 26.2575H62.0341V24.2198L66.1357 20.1183V21.0764C66.1357 21.3665 66.2509 21.6447 66.456 21.8498C66.6611 22.0549 66.9393 22.1701 67.2294 22.1701ZM58.1513 37.988C57.9518 36.3217 57.2958 34.743 56.2558 33.4259L58.6763 31.0066C60.3377 32.9797 61.3485 35.4181 61.5704 37.988H58.1513ZM54.7093 31.8794C53.3923 30.84 51.8141 30.1841 50.1483 29.9839V26.5648C52.7183 26.787 55.1568 27.7982 57.1297 29.46L54.7093 31.8794ZM47.9685 29.9839C45.9323 30.233 44.038 31.1563 42.5874 32.6069C41.1368 34.0574 40.2135 35.9517 39.9644 37.988H36.5399C36.7999 35.0449 38.0876 32.2872 40.1773 30.1985C42.267 28.1098 45.0252 26.8234 47.9685 26.5648V29.9839ZM39.9644 40.1755C40.2124 42.212 41.1355 44.1067 42.5862 45.5573C44.037 47.0079 45.9319 47.9307 47.9685 48.1784V51.5975C45.0254 51.339 42.2673 50.0527 40.1776 47.9642C38.0879 45.8758 36.8001 43.1184 36.5399 40.1755H39.9644ZM49.0622 46.062C47.9593 46.0648 46.8714 45.8062 45.8877 45.3074C44.9039 44.8087 44.0524 44.0839 43.4028 43.1926C42.7531 42.3012 42.3239 41.2687 42.1503 40.1795C41.9768 39.0903 42.0637 37.9755 42.404 36.9263C42.7444 35.8772 43.3284 34.9237 44.1084 34.1438C44.8883 33.3639 45.8419 32.78 46.8911 32.4397C47.9402 32.0995 49.0551 32.0127 50.1442 32.1864C51.2334 32.3601 52.266 32.7894 53.1572 33.4391L51.1404 35.4548C50.5101 35.0844 49.7933 34.8867 49.0622 34.8817C48.2315 34.8815 47.4194 35.1276 46.7285 35.589C46.0377 36.0504 45.4992 36.7063 45.1812 37.4737C44.8631 38.2411 44.7798 39.0856 44.9417 39.9004C45.1036 40.7152 45.5036 41.4637 46.0909 42.0512C46.6782 42.6387 47.4266 43.0388 48.2414 43.2009C49.0561 43.3631 49.9006 43.28 50.6681 42.9621C51.4357 42.6443 52.0917 42.1059 52.5532 41.4152C53.0148 40.7245 53.2611 39.9124 53.2611 39.0817C53.2562 38.3507 53.0585 37.6338 52.688 37.0036L54.7038 34.9889C55.4623 36.0288 55.918 37.2584 56.0202 38.5415C56.1224 39.8245 55.8673 41.1108 55.283 42.2577C54.6987 43.4045 53.8081 44.3671 52.71 45.0386C51.612 45.7102 50.3493 46.0644 49.0622 46.062ZM51.0736 39.0817C51.0736 39.4798 50.9556 39.8689 50.7344 40.1999C50.5132 40.5309 50.1988 40.7888 49.831 40.9411C49.4632 41.0934 49.0585 41.1332 48.6681 41.0555C48.2777 40.9777 47.9191 40.7859 47.6377 40.5044C47.3563 40.2228 47.1647 39.8641 47.0872 39.4737C47.0096 39.0832 47.0497 38.6785 47.2021 38.3108C47.3546 37.9431 47.6127 37.6289 47.9438 37.4078C48.2749 37.1868 48.6641 37.069 49.0622 37.0692C49.5947 37.0712 50.1048 37.2841 50.4807 37.6613C50.8567 38.0385 51.0679 38.5492 51.0682 39.0817H51.0736ZM48.8654 18.3748C53.1658 18.3735 57.3473 19.7867 60.7654 22.3966L60.1682 22.9937C59.963 23.1988 59.8478 23.477 59.8477 23.767V26.7442L58.6785 27.9134C56.2893 25.8475 53.2974 24.6074 50.1472 24.3773V22.2609C50.1472 21.9708 50.032 21.6927 49.8269 21.4875C49.6218 21.2824 49.3436 21.1672 49.0535 21.1672C48.7634 21.1672 48.4852 21.2824 48.2801 21.4875C48.075 21.6927 47.9597 21.9708 47.9597 22.2609V24.3773C44.4389 24.6443 41.1303 26.1641 38.6339 28.6611C36.1375 31.1581 34.6185 34.4671 34.3524 37.988H32.2349C31.9448 37.988 31.6666 38.1032 31.4615 38.3083C31.2564 38.5134 31.1411 38.7916 31.1411 39.0817C31.1411 39.3718 31.2564 39.65 31.4615 39.8551C31.6666 40.0602 31.9448 40.1755 32.2349 40.1755H34.3524C34.619 43.6975 36.1393 47.0073 38.6375 49.5043C41.1357 52.0013 44.4463 53.5201 47.9685 53.785V55.9025C47.9685 56.1926 48.0837 56.4708 48.2888 56.6759C48.4939 56.881 48.7721 56.9962 49.0622 56.9962C49.3523 56.9962 49.6305 56.881 49.8356 56.6759C50.0407 56.4708 50.156 56.1926 50.156 55.9025V53.797C52.4406 53.6305 54.6549 52.9328 56.6222 51.7594C56.7455 51.6857 56.8531 51.5884 56.9388 51.4732C57.0246 51.3579 57.0868 51.2269 57.1218 51.0876C57.1569 50.9483 57.1642 50.8035 57.1434 50.6613C57.1225 50.5192 57.0738 50.3826 57.0001 50.2593C56.9264 50.136 56.8292 50.0284 56.7139 49.9427C56.5987 49.8569 56.4676 49.7948 56.3283 49.7597C56.189 49.7246 56.0442 49.7173 55.9021 49.7382C55.76 49.759 55.6233 49.8077 55.5 49.8814C53.8702 50.8447 52.0429 51.4255 50.156 51.58V48.1784C52.1925 47.9308 54.0873 47.0081 55.538 45.5574C56.9886 44.1068 57.9114 42.212 58.1589 40.1755H61.5769C61.4598 41.5927 61.1002 42.9793 60.5138 44.2748C60.3938 44.5391 60.3838 44.8402 60.4858 45.1119C60.5879 45.3835 60.7937 45.6036 61.0579 45.7235C61.3222 45.8435 61.6233 45.8535 61.895 45.7515C62.1666 45.6494 62.3867 45.4436 62.5066 45.1794C63.2193 43.5993 63.6449 41.9048 63.7633 40.1755H65.883C66.1731 40.1755 66.4513 40.0602 66.6564 39.8551C66.8615 39.65 66.9768 39.3718 66.9768 39.0817C66.9768 38.7916 66.8615 38.5134 66.6564 38.3083C66.4513 38.1032 66.1731 37.988 65.883 37.988H63.76C63.5304 34.8377 62.2902 31.8457 60.2239 29.4567L61.2357 28.445H64.5279C64.8179 28.4449 65.0961 28.3297 65.3011 28.1245L65.6216 27.8051C67.4897 30.8625 68.474 34.3777 68.4654 37.9606C68.4479 41.9247 67.2354 45.7914 64.9862 49.0556C62.737 52.3199 59.5557 54.8299 55.8577 56.258C55.6228 56.3478 55.426 56.5158 55.3005 56.7338C55.175 56.9517 55.1284 57.2063 55.1686 57.4545L55.8588 61.6983H41.8828L42.573 57.4545C42.6133 57.2064 42.5669 56.952 42.4416 56.734C42.3163 56.5161 42.1198 56.348 41.885 56.258C37.606 54.6271 34.0338 51.5482 31.7894 47.5567C29.545 43.5651 28.7704 38.9132 29.6002 34.4097C30.43 29.9062 32.8118 25.8359 36.3314 22.9064C39.8511 19.9769 44.2861 18.3735 48.8654 18.3748Z" fill="white"/>
<path d="M59.3438 49C59.9478 49 60.4375 48.5103 60.4375 47.9062C60.4375 47.3022 59.9478 46.8125 59.3438 46.8125C58.7397 46.8125 58.25 47.3022 58.25 47.9062C58.25 48.5103 58.7397 49 59.3438 49Z" fill="white"/>
</svg>
