<svg width="99" height="98" viewBox="0 0 99 98" fill="none" xmlns="http://www.w3.org/2000/svg">
<circle cx="49.5" cy="49" r="49" fill="#FBCECE"/>
<g clip-path="url(#clip0_1274_2684)">
<path d="M74.0073 28.6573C72.9876 28.4385 71.9845 29.0881 71.7662 30.1074L70.3945 36.5084C66.0272 29.0581 58.0112 24.3828 49.2256 24.3828C35.6955 24.3828 24.688 35.3901 24.688 48.9204C24.688 49.9627 25.533 50.8079 26.5755 50.8079C27.6179 50.8079 28.463 49.9627 28.463 48.9204C28.463 37.4718 37.777 28.1578 49.2256 28.1578C56.6894 28.1578 63.4974 32.1447 67.1833 38.4927L60.8905 37.1442C59.871 36.9257 58.8677 37.5751 58.6495 38.5944C58.4312 39.6136 59.0805 40.6172 60.0997 40.8355L70.9017 43.1503C71.144 43.2024 71.3943 43.2062 71.6381 43.1614C71.8819 43.1166 72.1144 43.0242 72.3224 42.8894C72.7428 42.6175 73.0379 42.1898 73.1428 41.7003L75.4578 30.8983C75.6759 29.8792 75.0266 28.876 74.0073 28.6573ZM72.108 46.4464C71.0663 46.4808 70.2494 47.3533 70.2838 48.395C70.4668 53.938 68.4805 59.2201 64.6904 63.2692C60.9005 67.3178 55.7607 69.6487 50.218 69.8317C49.9869 69.8392 49.7571 69.843 49.527 69.843C42.2947 69.8427 35.6322 66.0866 31.8696 60.0008L38.4301 61.7599C39.437 62.0298 40.4721 61.4326 40.7421 60.4255C41.0121 59.4187 40.4147 58.3837 39.4078 58.1134L28.7375 55.2526C28.4981 55.1883 28.2484 55.1719 28.0026 55.2041C27.7568 55.2364 27.5198 55.3168 27.3051 55.4407C27.0904 55.5646 26.9022 55.7296 26.7513 55.9263C26.6004 56.1229 26.4897 56.3474 26.4256 56.5868L23.5649 67.2574C23.2949 68.2643 23.8922 69.2992 24.8991 69.5694C25.0629 69.6133 25.2272 69.6345 25.3891 69.6345C26.2223 69.6345 26.985 69.0782 27.2111 68.2351L28.8191 62.2379C33.2923 69.2816 41.0787 73.6183 49.5261 73.618C49.7974 73.618 50.0703 73.6136 50.3427 73.6046C56.8932 73.388 62.9675 70.6338 67.4466 65.8489C71.9258 61.064 74.2732 54.8212 74.0568 48.2705C74.0226 47.2289 73.1496 46.4094 72.108 46.4464Z" fill="white"/>
</g>
<defs>
<clipPath id="clip0_1274_2684">
<rect width="52" height="52" fill="white" transform="translate(23.5 23)"/>
</clipPath>
</defs>
</svg>
