<svg width="276" height="171" viewBox="0 0 276 171" fill="none" xmlns="http://www.w3.org/2000/svg">
<path d="M0 6C0 2.68629 2.68629 0 6 0H270C273.314 0 276 2.68629 276 6V171H0V6Z" fill="#2D5EE6"/>
<mask id="mask0_1368_1694" style="mask-type:alpha" maskUnits="userSpaceOnUse" x="0" y="0" width="276" height="171">
<path d="M0 6C0 2.68629 2.68629 0 6 0H270C273.314 0 276 2.68629 276 6V171H0V6Z" fill="#2D5EE6"/>
</mask>
<g mask="url(#mask0_1368_1694)">
<path d="M44.1355 52.9673C45.1676 52.9673 46.0707 52.5911 46.748 51.9042C47.0867 51.5444 47.0866 50.9883 46.7319 50.6448C46.3771 50.3014 45.8288 50.3014 45.4901 50.6612C45.0224 51.1518 44.3935 51.2173 43.9419 51.1846C42.9098 51.1028 41.781 50.4322 41.152 49.5327C40.2812 48.2897 39.9425 46.7359 39.5716 45.1004C39.4587 44.5607 39.3297 44.0046 39.1846 43.4485C38.7169 41.6658 37.4913 38.5419 34.653 37.7242C32.8145 37.2008 30.9761 37.7896 29.3312 39.4088C27.7024 41.0279 26.7025 43.2359 26.251 44.3971C24.977 47.7172 23.2837 51.1191 20.4454 51.1191C20.4292 51.1191 20.4131 51.1191 20.397 51.1191C18.7037 51.1028 16.3492 49.8107 14.7365 43.792L11.4628 31.6727C11.0435 30.1026 10.3339 27.7802 9.15668 25.8666C7.88267 23.7732 6.25388 22.5302 4.31867 22.154C0.851437 21.4834 -1.98686 23.0045 -4.13171 26.6844C-5.85727 29.661 -6.88938 33.5863 -7.71184 36.7429C-8.0505 38.0349 -8.3569 39.2452 -8.67944 40.1775C-9.77605 43.4812 -11.421 47.4556 -14.2431 48.9766C-15.7429 49.778 -17.3556 49.9743 -18.8876 49.549C-19.3553 49.4182 -19.8391 49.6962 -19.9681 50.1705C-20.0971 50.6448 -19.823 51.1355 -19.3553 51.2663C-17.404 51.8224 -15.2914 51.5771 -13.4046 50.563C-10.0341 48.7476 -8.21177 44.3644 -7.00226 40.7499C-6.67973 39.7686 -6.34107 38.5256 -6.00241 37.2008C-5.2122 34.1587 -4.22847 30.3643 -2.6158 27.6003C-0.841867 24.5582 1.2546 23.3806 3.98001 23.9204C5.43142 24.1984 6.62479 25.147 7.65689 26.8316C8.70513 28.5489 9.3502 30.6914 9.75336 32.1634L13.0271 44.2826C13.656 46.5887 14.4462 48.4696 15.3977 49.8761C16.7523 51.8715 18.4295 52.9018 20.3647 52.9346C22.2193 52.9673 23.8642 52.035 25.2511 50.2032C26.4122 48.6658 27.267 46.6541 27.8636 45.084C29.0409 42.0093 31.3954 38.6892 34.1369 39.4742C34.9916 39.7196 36.5559 40.6191 37.4429 43.9392C37.5719 44.4462 37.7009 45.0023 37.8138 45.5257C38.2008 47.2593 38.604 49.0584 39.6684 50.5958C40.6037 51.9369 42.2003 52.8692 43.7646 53C43.9097 52.9673 44.0226 52.9673 44.1355 52.9673Z" fill="white" fill-opacity="0.4"/>
<path d="M28.7702 122.853L18.1497 120.644C17.5514 120.52 17.2023 119.948 17.3206 119.379C17.4452 118.78 18.0172 118.43 18.5857 118.548L29.2062 120.757C29.8045 120.881 30.1536 121.454 30.0353 122.023C29.9169 122.592 29.3386 122.971 28.7702 122.853Z" fill="white" fill-opacity="0.4"/>
<path d="M21.5131 125.781L23.7239 115.149C23.8485 114.55 24.4206 114.201 24.989 114.319C25.5873 114.443 25.9364 115.016 25.8181 115.585L23.6073 126.216C23.4827 126.815 22.9106 127.165 22.3422 127.047C21.7675 126.959 21.3885 126.38 21.5131 125.781Z" fill="white" fill-opacity="0.4"/>
<path d="M269.764 128.553C263.286 128.553 258 123.262 258 116.777C258 110.292 263.286 105 269.764 105C276.242 105 281.529 110.292 281.529 116.777C281.529 123.292 276.273 128.553 269.764 128.553ZM269.764 106.591C264.142 106.591 259.558 111.179 259.558 116.777C259.558 122.405 264.142 126.993 269.764 126.993C275.387 126.993 279.97 122.405 279.97 116.777C279.97 111.179 275.387 106.591 269.764 106.591Z" fill="white" fill-opacity="0.4"/>
</g>
</svg>
