<svg width="157" height="141" viewBox="0 0 157 141" fill="none" xmlns="http://www.w3.org/2000/svg">
<g clip-path="url(#clip0_167_2883)">
<path d="M15.4566 64.6564C19.728 66.9615 23.1985 68.607 26.5194 70.4784C28.4366 71.6164 30.5805 72.9043 28.7279 76.4865C21.5927 73.5868 14.4454 71.3936 7.95336 67.4251C5.1907 65.7929 4.91158 63.8543 6.25447 60.8445C6.73176 59.7309 7.43557 58.7672 8.03421 57.8638C11.4926 52.9398 14.9509 48.0159 18.5751 43.1367C19.7279 41.4953 21.1517 39.8383 23.3561 41.2313C25.3341 42.4744 25.2977 44.5942 24.4321 46.4904C23.4168 48.6124 22.1144 50.4796 20.8726 52.4518C19.9747 53.8069 18.9715 55.2224 18.648 57.0873C19.279 56.725 19.91 56.3627 20.541 56.0004C27.5871 51.9551 31.0819 52.1874 37.578 57.1331C42.715 61.18 46.861 65.9358 49.6116 71.9126C50.2952 73.3392 50.9788 74.7657 51.6017 76.0872C54.6071 81.7777 57.9077 82.4014 62.4218 77.8508C64.7314 75.5453 66.5718 72.6696 68.5942 70.1093C74.5402 62.218 80.1828 61.0773 88.7579 66.2286C95.1893 70.0921 100.601 75.1005 104.784 81.3746C106.042 83.3109 107.36 85.3523 108.873 87.0024C111.43 89.7325 113.492 89.6675 115.483 86.566C117.683 83.3438 119.264 79.7772 121.012 76.2553C122.282 73.8471 123.16 71.2443 124.596 68.8807C127.573 64.0932 131.913 61.1816 137.774 61.8745C142.158 62.4355 146.62 63.3721 150.932 64.5346C153.751 65.2947 156.093 67.1683 156.396 71.3318C154.965 71.0345 153.804 70.7215 152.538 70.4689C148.015 69.4272 143.493 68.3855 138.882 67.6747C134.437 67.0086 131.419 69.3007 129.583 73.1535C128.046 76.5546 126.841 80.0451 125.243 83.3411C123.734 86.3061 122.286 89.3763 120.203 91.8316C115.798 97.2989 109.338 97.5095 104.513 92.3043C102.304 89.9342 100.395 87.1125 98.6518 84.3354C95.0599 78.8417 90.2384 74.6136 84.7131 71.3493C80.0938 68.6843 78.0026 69.1852 74.7667 73.2818C72.085 76.6405 69.6904 80.2541 66.6002 83.1477C64.6505 85.1066 61.7949 86.4662 59.012 87.2244C54.1986 88.5887 50.1699 86.7039 47.5771 82.4556C46.2423 80.1436 44.9519 77.6662 44.0378 75.1127C41.7847 69.2701 37.5053 65.0107 32.8213 61.2633C30.5399 59.4948 28.2182 58.8688 25.3787 60.4991C22.5392 62.1293 19.4408 63.0686 15.4566 64.6564Z" fill="#94F9F9"/>
</g>
<defs>
<clipPath id="clip0_167_2883">
<rect width="157" height="140.956" fill="white" transform="translate(157 140.956) rotate(-180)"/>
</clipPath>
</defs>
</svg>
