<svg xmlns="http://www.w3.org/2000/svg" width="821" height="521" fill="none"><path fill="#2D5EE6" d="M12.342 514.67c-6.478 0-11.764-5.292-11.764-11.777 0-6.485 5.286-11.777 11.764-11.777 6.479 0 11.765 5.292 11.765 11.777.03 6.485-5.256 11.777-11.764 11.777Zm0-21.963c-5.622 0-10.205 4.588-10.205 10.186 0 5.628 4.583 10.217 10.205 10.217 5.623 0 10.207-4.589 10.207-10.217s-4.584-10.186-10.207-10.186ZM490.711 24.33c-6.478 0-11.765-5.292-11.765-11.777 0-6.485 5.287-11.777 11.765-11.777 6.478 0 11.764 5.292 11.764 11.777 0 6.485-5.286 11.777-11.764 11.777Zm0-21.963c-5.623 0-10.206 4.588-10.206 10.186 0 5.628 4.583 10.217 10.206 10.217 5.622 0 10.206-4.589 10.206-10.217-.031-5.628-4.584-10.186-10.206-10.186ZM809.236 520.298c-6.478 0-11.765-5.292-11.765-11.777 0-6.485 5.287-11.777 11.765-11.777 6.478 0 11.764 5.292 11.764 11.777 0 6.515-5.256 11.777-11.764 11.777Zm0-21.963c-5.623 0-10.206 4.588-10.206 10.186 0 5.628 4.583 10.217 10.206 10.217 5.622 0 10.206-4.589 10.206-10.217 0-5.598-4.584-10.186-10.206-10.186Z"/></svg>