<svg xmlns="http://www.w3.org/2000/svg" width="132" height="88" fill="none"><path fill="#2D5EE6" d="M41.996 2.062H.927a.58.58 0 1 1 0-1.163h41.069a.58.58 0 1 1 0 1.163ZM67.328 8.149H26.29a.58.58 0 1 1 0-1.163h41.068a.58.58 0 0 1 .58.581c-.03.337-.274.582-.61.582ZM125.966 87.68c1.956 0 3.667-.704 4.951-1.99.641-.672.641-1.712-.031-2.355-.672-.642-1.711-.642-2.353.031-.886.918-2.078 1.04-2.933.979-1.956-.153-4.095-1.407-5.287-3.09-1.65-2.324-2.291-5.23-2.994-8.29a64.302 64.302 0 0 0-.734-3.089c-.886-3.334-3.208-9.176-8.586-10.706-3.484-.979-6.967.123-10.084 3.151-3.086 3.028-4.98 7.158-5.836 9.33-2.414 6.21-5.623 12.572-11 12.572h-.092c-3.209-.03-7.67-2.448-10.726-13.704l-6.203-22.667c-.794-2.936-2.139-7.28-4.37-10.859-2.413-3.915-5.5-6.24-9.166-6.943-6.57-1.254-11.948 1.59-16.012 8.473-3.27 5.567-5.226 12.908-6.784 18.812-.642 2.416-1.222 4.68-1.833 6.424-2.078 6.179-5.195 13.612-10.543 16.457-2.841 1.498-5.897 1.865-8.8 1.07a1.666 1.666 0 0 0-.886 3.212c3.697 1.04 7.7.581 11.275-1.315 6.387-3.396 9.84-11.594 12.131-18.354.612-1.835 1.253-4.16 1.895-6.637 1.497-5.69 3.361-12.787 6.417-17.956 3.361-5.69 7.334-7.892 12.498-6.883 2.75.52 5.011 2.294 6.967 5.445 1.986 3.212 3.208 7.22 3.972 9.972l6.203 22.666c1.192 4.313 2.69 7.831 4.492 10.462 2.567 3.732 5.745 5.659 9.412 5.72 3.514.061 6.63-1.682 9.258-5.108 2.2-2.876 3.82-6.638 4.95-9.575 2.231-5.75 6.692-11.96 11.887-10.492 1.62.46 4.584 2.142 6.264 8.351.245.948.489 1.988.703 2.967.733 3.243 1.497 6.608 3.514 9.483 1.772 2.508 4.798 4.252 7.762 4.496.275-.06.489-.06.702-.06Z"/></svg>