<svg xmlns="http://www.w3.org/2000/svg" width="194" height="176" fill="none"><path fill="#007C7C" d="M177.139 32.021c-8.769 0-15.92-7.188-15.92-15.937 0-8.779 7.181-15.937 15.92-15.937 8.77 0 15.921 7.189 15.921 15.937 0 8.749-7.181 15.937-15.921 15.937Z"/><path fill="#fff" d="M178.056 28.105h-1.864c-.641 0-1.161-.52-1.161-1.162V5.133c0-.642.52-1.162 1.161-1.162h1.864c.642 0 1.162.52 1.162 1.162v21.81c0 .673-.52 1.162-1.162 1.162Z"/><path fill="#fff" d="m166.842 22.386-.856-1.652c-.275-.55-.061-1.254.489-1.53l19.404-9.91c.55-.276 1.253-.062 1.528.489l.855 1.652c.275.55.061 1.254-.489 1.53l-19.403 9.91c-.55.275-1.253.061-1.528-.49Z"/><path fill="#fff" d="m187.438 22.386.855-1.652c.275-.55.061-1.254-.489-1.53l-19.403-9.91c-.55-.276-1.253-.062-1.528.489l-.856 1.652c-.275.55-.061 1.254.489 1.53l19.404 9.91c.55.275 1.222.061 1.528-.49Z"/><path fill="#2D5EE6" d="M62.582 175.421a.58.58 0 0 1-.58-.581v-71.395a.58.58 0 1 1 1.16 0v71.395a.58.58 0 0 1-.58.581ZM67.287 170.343a.58.58 0 0 1-.58-.581v-61.27a.58.58 0 1 1 1.16 0v61.27a.562.562 0 0 1-.58.581ZM71.993 159.943a.58.58 0 0 1-.58-.581v-40.469a.58.58 0 1 1 1.16 0v40.469a.58.58 0 0 1-.58.581ZM76.699 150.43a.58.58 0 0 1-.58-.581v-21.412a.581.581 0 1 1 1.16 0v21.412a.58.58 0 0 1-.58.581ZM81.435 145.352a.58.58 0 0 1-.58-.581v-11.318a.58.58 0 1 1 1.16 0v11.318c-.03.337-.274.581-.58.581ZM57.876 170.343a.58.58 0 0 1-.58-.581v-61.27a.58.58 0 1 1 1.16 0v61.27a.58.58 0 0 1-.58.581ZM53.17 167.377a.58.58 0 0 1-.58-.582V111.46a.58.58 0 0 1 .58-.581c.336 0 .58.245.58.581v55.335a.58.58 0 0 1-.58.582ZM48.464 156.364a.58.58 0 0 1-.58-.581v-33.311a.58.58 0 1 1 1.16 0v33.311a.58.58 0 0 1-.58.581ZM43.759 150.124a.58.58 0 0 1-.581-.581v-20.831a.58.58 0 1 1 1.161 0v20.831a.58.58 0 0 1-.58.581ZM39.053 144.771a.58.58 0 0 1-.58-.582v-10.124c0-.306.244-.582.58-.582.336 0 .58.245.58.582v10.124c-.03.337-.274.582-.58.582ZM34.317 142.293a.58.58 0 0 1-.58-.581v-5.139a.58.58 0 1 1 1.16 0v5.139a.58.58 0 0 1-.58.581ZM29.61 150.919a.58.58 0 0 1-.58-.581v-22.422a.58.58 0 1 1 1.161 0v22.422a.562.562 0 0 1-.58.581ZM24.905 154.437a.58.58 0 0 1-.58-.581v-29.457a.581.581 0 1 1 1.16 0v29.457a.562.562 0 0 1-.58.581ZM20.2 161.901a.58.58 0 0 1-.581-.582v-44.415a.58.58 0 1 1 1.16 0v44.415a.562.562 0 0 1-.58.582ZM15.493 162.391a.58.58 0 0 1-.58-.582v-45.332a.58.58 0 1 1 1.161 0v45.332a.602.602 0 0 1-.58.582ZM10.788 150.215a.58.58 0 0 1-.58-.581v-21.045a.58.58 0 1 1 1.16 0v21.045a.58.58 0 0 1-.58.581ZM6.082 147.647a.58.58 0 0 1-.58-.581v-15.907a.58.58 0 1 1 1.16 0v15.907a.58.58 0 0 1-.58.581ZM1.376 142.996a.58.58 0 0 1-.58-.581v-6.546a.58.58 0 1 1 1.16 0v6.546a.601.601 0 0 1-.58.581ZM119.081 142.293a.58.58 0 0 1-.58-.581v-5.139a.58.58 0 1 1 1.161 0v5.139a.58.58 0 0 1-.581.581ZM114.376 150.919a.58.58 0 0 1-.581-.581v-22.422a.58.58 0 1 1 1.161 0v22.422a.562.562 0 0 1-.58.581ZM109.67 154.437a.58.58 0 0 1-.581-.581v-29.457a.582.582 0 1 1 1.162 0v29.457a.563.563 0 0 1-.581.581ZM104.964 161.901a.58.58 0 0 1-.58-.582v-44.415a.58.58 0 1 1 1.161 0v44.415a.58.58 0 0 1-.581.582ZM100.259 162.391a.58.58 0 0 1-.581-.582v-45.332a.58.58 0 1 1 1.161 0v45.332a.602.602 0 0 1-.58.582ZM95.552 150.215a.58.58 0 0 1-.58-.581v-21.045a.58.58 0 1 1 1.161 0v21.045a.58.58 0 0 1-.58.581ZM90.847 147.647a.58.58 0 0 1-.58-.581v-15.907a.58.58 0 1 1 1.16 0v15.907a.58.58 0 0 1-.58.581ZM86.14 142.996a.58.58 0 0 1-.58-.581v-6.546a.58.58 0 1 1 1.162 0v6.546c-.031.306-.275.581-.581.581Z"/></svg>