<svg xmlns="http://www.w3.org/2000/svg" width="88" height="45" fill="none"><rect width="88" height="45" fill="#FFF3EB" rx="8"/><path fill="#FF8636" d="m25.63 11.68.6-1.3 4.26-.76-.6 1.28-4.26.78Zm-.34 2.02.6-1.28 4.28-.78-.6 1.28-4.28.78ZM30.177 29c-1.16 0-2.053-.373-2.68-1.12-.533-.64-.8-1.453-.8-2.44v-8.42l1.72-.92v9.28c0 1.333.654 2 1.96 2h1.32V29h-1.52Zm7.272-1.62h1.32V29h-1.52c-1.107 0-1.98-.353-2.62-1.06-.64.707-1.514 1.06-2.62 1.06h-1.52v-1.62h1.32c1.307 0 1.96-.667 1.96-2v-4.14l1.72-.92v5.06c0 1.333.653 2 1.96 2ZM34.51 31c.64 0 .96.327.96.98 0 .667-.32 1-.96 1-.654 0-.98-.333-.98-1 0-.653.326-.98.98-.98Zm3.05-2v-1.62h1.32c1.307 0 1.96-.667 1.96-2v-4.14l1.72-.92v5.12c0 1.133-.34 2.027-1.02 2.68-.627.587-1.447.88-2.46.88h-1.52Zm1.06 3.98c-.653 0-.98-.333-.98-1 0-.653.327-.98.98-.98.64 0 .96.327.96.98 0 .667-.32 1-.96 1Zm2.54 0c-.653 0-.98-.333-.98-1 0-.653.327-.98.98-.98.64 0 .96.327.96.98 0 .667-.32 1-.96 1Zm11.2-5.6h1.32V29h-1.52c-.68 0-1.266-.133-1.76-.4-.12 1.32-.58 2.373-1.38 3.16-.733.72-1.653 1.08-2.76 1.08-.8 0-1.58-.2-2.34-.6v-1.5c.68.373 1.36.56 2.04.56.853 0 1.52-.287 2-.86s.72-1.367.72-2.38v-6.82l1.72-.92v.02l.02-.02v5.46c.12 1.067.767 1.6 1.94 1.6Zm5.342-9.34c-.653 0-.98-.333-.98-1 0-.653.327-.98.98-.98.64 0 .96.327.96.98 0 .667-.32 1-.96 1Zm2.54 0c-.653 0-.98-.333-.98-1 0-.653.327-.98.98-.98.64 0 .96.327.96.98 0 .667-.32 1-.96 1ZM52.482 29v-1.62h3.6c-.613-.68-.92-1.627-.92-2.84 0-1.453.38-2.587 1.14-3.4.667-.72 1.553-1.08 2.66-1.08 1.133 0 2.013.353 2.64 1.06.533.627.8 1.447.8 2.46v1.9c-.013 1.107-.34 1.98-.98 2.62-.627.6-1.46.9-2.5.9h-6.44Zm8.2-5.34c0-1.333-.573-2-1.72-2-.653 0-1.167.253-1.54.76-.373.493-.56 1.187-.56 2.08 0 .88.18 1.58.54 2.1.36.52.84.78 1.44.78 1.227 0 1.84-.64 1.84-1.92v-1.8Z"/></svg>