<svg xmlns="http://www.w3.org/2000/svg" width="823" height="630" fill="none"><path fill="#2D5EE6" d="M11.917 352.927H1.07c-.61 0-1.069-.489-1.069-1.07 0-.612.489-1.071 1.07-1.071h10.847c.611 0 1.07.49 1.07 1.071.03.581-.459 1.07-1.07 1.07Z"/><path fill="#2D5EE6" d="M5.409 357.271v-10.859c0-.611.489-1.07 1.07-1.07.61 0 1.069.489 1.069 1.07v10.859c0 .612-.49 1.071-1.07 1.071-.58.031-1.07-.459-1.07-1.071ZM456.703 624.22h-10.847c-.612 0-1.07-.489-1.07-1.07 0-.612.489-1.071 1.07-1.071h10.847c.611 0 1.07.49 1.07 1.071s-.459 1.07-1.07 1.07Z"/><path fill="#2D5EE6" d="M450.195 628.564v-10.859c0-.611.489-1.07 1.069-1.07.611 0 1.07.489 1.07 1.07v10.859c0 .612-.489 1.071-1.07 1.071-.58.031-1.069-.459-1.069-1.071ZM821.675 526.336h-10.848c-.611 0-1.069-.49-1.069-1.071 0-.612.489-1.071 1.069-1.071h10.848c.611 0 1.069.49 1.069 1.071s-.488 1.071-1.069 1.071Z"/><path fill="#2D5EE6" d="M815.166 530.68v-10.859c0-.612.489-1.071 1.07-1.071.611 0 1.069.489 1.069 1.071v10.859c0 .611-.489 1.07-1.069 1.07-.581.031-1.07-.459-1.07-1.07ZM469.171 8.069h-10.848c-.611 0-1.07-.49-1.07-1.07 0-.612.489-1.071 1.07-1.071h10.848c.611 0 1.069.49 1.069 1.07.031.612-.458 1.07-1.069 1.07Z"/><path fill="#2D5EE6" d="M462.662 12.413V1.554c0-.612.489-1.07 1.069-1.07.611 0 1.07.489 1.07 1.07v10.86c0 .61-.489 1.07-1.07 1.07-.58.03-1.069-.46-1.069-1.07Z"/></svg>