<svg xmlns="http://www.w3.org/2000/svg" width="203.072" height="512.749" viewBox="0 0 203.072 512.749"><defs><style>.a{fill:#dfdfdf;}.b,.c{fill:none;}.b{stroke:#dfdfdf;stroke-miterlimit:10;stroke-width:4px;}.c{stroke:#000;stroke-linecap:round;stroke-linejoin:round;stroke-width:2.5px;}.d{fill:#2d5ee6;}</style></defs><g transform="translate(0 2)"><path class="a" d="M201,927.82v29.64h17.383A159.985,159.985,0,0,1,201,927.82Z" transform="translate(-106.964 -502.557)"/><path class="b" d="M204.158,483.05H176V706.166" transform="translate(-105.867 -483.05)"/><path class="c" d="M289.892,1002.737c5.593,0,16.493-18.951,16.493-55.7,0-26.877-18.836-44.26-24.429-70.888C273.351,835.307,230.736,715.35,164.2,715.35c-7.649,0-17.918,16.073-17.918,49.184,0,40.158,38.9,81.74,38.9,90.365C185.214,953.372,272.06,1002.737,289.892,1002.737Z" transform="translate(-104.564 -493.238)"/><path class="c" d="M291.147,1002.978c0-5.383-7.783-41.5-11.827-50.523s-19.926-54.165-22.412-66.624S208.345,751.666,165.07,720.84" transform="translate(-105.388 -493.479)"/><line class="c" x1="72.59" y1="14.782" transform="translate(93.31 422.94)"/><line class="c" x1="66.481" y1="5.536" transform="translate(103.072 442.273)"/><line class="c" x1="67.475" y1="20.423" transform="translate(81.157 362.521)"/><line class="c" y1="14.973" x2="20.595" transform="translate(155.057 390.335)"/><line class="c" y1="23.072" x2="20.347" transform="translate(116.066 283.859)"/><line class="c" y1="23.492" x2="17.316" transform="translate(109.708 271.152)"/><path class="d" d="M183.3,858.26c0-5.02-13.185-21.217-24.2-41.8C138.869,801.236,120.74,792,110.959,792c-5.737,0-8.309,10.307-8.309,15.767,0,57.158,61.279,123.6,114.833,148.3C198.474,932.075,183.3,899.47,183.3,858.26Z" transform="translate(-102.65 -496.6)"/></g></svg>