<svg xmlns="http://www.w3.org/2000/svg" width="677.922" height="762.734" viewBox="0 0 677.922 762.734"><defs><style>.a,.b,.c,.e{fill:none;}.a{stroke:#dfdfdf;}.a,.e{stroke-miterlimit:10;}.a,.b{stroke-width:4px;}.b,.c,.e{stroke:#000;}.b,.c{stroke-linecap:round;stroke-linejoin:round;}.c,.e{stroke-width:2.5px;}.d{fill:#2d5ee6;}.f{fill:#dfdfdf;}</style></defs><g transform="translate(2 0)"><path class="a" d="M655.57,316.71V632.093h9.141" transform="translate(-430.217 -224.52)"/><line class="b" x1="59.788" y1="100.605" transform="translate(464.169 653.072)"/><line class="b" x1="59.568" y1="100.242" transform="translate(491.333 653.435)"/><line class="b" y1="92.516" x2="54.978" transform="translate(357.243 653.292)"/><path class="c" d="M939.089,668.8h84.982l-61.7,223.575H805.87V884.41H921.936l2.486-52.1" transform="translate(-436.809 -239.962)"/><path class="d" d="M745.046,822.26C732.186,822.26,668,971.7,668,977.155s13.931,11.655,15.987,11.655c3.2-2.973,64.645-91.789,71.041-97.985S745.046,822.26,745.046,822.26Z" transform="translate(-430.762 -246.693)"/><path class="c" d="M784.726,744.213a21.4,21.4,0,0,0-13.845-4.723c-10.221,0-18.511,6.282-18.511,14.026" transform="translate(-434.462 -243.062)"/><path class="c" d="M846.527,713.29c-6.473,5.919-14.992,15.987-19.027,27.728" transform="translate(-437.758 -241.913)"/><path class="c" d="M881.778,678.328a18.808,18.808,0,0,0-7.018-1.568c-13.118,0-35.31,23.9-35.31,26.906,0,2.62,11.971,12.937,23.158,16.2" transform="translate(-438.281 -240.311)"/><path class="c" d="M860.46,742.836c2.419-35.215,13.223-68.756,42.8-77.706" transform="translate(-439.203 -239.801)"/><path class="c" d="M969.4,715.9c13.252,49.911,4.226,119.221-1.778,123.715-9.437,7.085-91.79,7.726-97.154.65-2.256-2.983-9.466-34.555-10.517-70.1" transform="translate(-439.181 -242.028)"/><path class="c" d="M936.23,664.73c11.4,3.6,20.012,12.009,26.437,23.273" transform="translate(-442.526 -239.784)"/><path class="c" d="M920.73,674c7.41,0,14.82-1.568,14.82-4.781V637.39" transform="translate(-441.846 -238.585)"/><path class="c" d="M905.22,653.12v11.474" transform="translate(-441.166 -239.275)"/><path class="c" d="M916.289,650.579a20.789,20.789,0,0,1-9.648.784c-15.977-2.553-25.816-23.9-22.068-47.635q.229-1.434.516-2.868" transform="translate(-440.226 -236.982)"/><path class="c" d="M942.512,623.29a56.087,56.087,0,0,1-6.282,13.482" transform="translate(-442.526 -237.966)"/><path class="e" d="M949.82,561.187c4.236-7.333,14.983-19.687,36.027-19.687,14.342,0,28.684,7.649,46.851,7.649,14.342,0,27.728-5.737,44.939-5.737,30.6,0,40.158,20.079,40.158,32.509,0,31.553-25.816,43.983-44.939,43.983-30.6,0-34.421-21.035-70.755-21.035-35.377,0-30.6-28.684-38.246-28.684a18.415,18.415,0,0,0-5.393.6" transform="translate(-443.122 -234.379)"/><path class="c" d="M937.747,628.991c15.585,0,22.947-16.054,22.947-36.333,0-33.465-29.545-40.158-42.07-40.158-33.819,0-40.894,25.73-40.894,33.159s4.695,12.937,7.094,13.118c1.492-8.882,8.605-21.14,8.94-21.418a35.929,35.929,0,0,0,10.919,7.3" transform="translate(-439.96 -234.861)"/><path class="c" d="M938.87,606.756a8.175,8.175,0,0,1,3.423-.736,8.261,8.261,0,0,1,0,16.522,8.364,8.364,0,0,1-2.505-.383" transform="translate(-442.642 -237.209)"/><path class="c" d="M860,772.08c9.743,3.968,18.989,7.047,30.5,7.047,8.969,0,26.141-5.593,39.03-19.467" transform="translate(-439.183 -243.947)"/><path class="c" d="M899.927,732a61.694,61.694,0,0,0-16.933,18.96c-7.888-1.472-39.976-9.494-68.46-9.494-2.677,0-9.628-2.2-12.43-2.2-16.7,0-20.194,9.026-20.194,11.693s.574,2.744,1.09,2.744c36.879,0,56.021,10.011,73.566,17.153" transform="translate(-435.758 -242.734)"/><path class="c" d="M945.755,690.459c9.447-2.687,18.167-2.649,23.588,2.61,17.918,17.392-27.393,65.534-34.66,64.826S901.219,729.6,900.97,721.218c-.1-2.869,5.909-9.1,14.533-15.3" transform="translate(-440.98 -240.835)"/><rect width="404.668" height="13.061" transform="translate(160.527 513.122)"/><line class="b" y1="198.438" transform="translate(543.452 522.53)"/><line class="b" y1="198.438" transform="translate(207.224 522.53)"/><line class="b" y1="238.204" transform="translate(177.202 522.53)"/><line class="b" y1="104.535" x2="62.13" transform="translate(377.858 653.292)"/><rect width="67.188" height="2.4" transform="translate(309.025 510.722)"/><path class="c" d="M712.268,697.374H665.13V590.85H811.821V697.374H747.3" transform="translate(-430.636 -236.543)"/><path class="c" d="M719.362,681.31,699.13,753.633h35.463l19.639-72.323Z" transform="translate(-432.127 -240.511)"/><path class="f" d="M740.631,317.625a42.768,42.768,0,0,0-45.369-70.448,59.281,59.281,0,0,0-104.219,9.246,42.768,42.768,0,0,0-52.98,61.193Z" transform="translate(-424.808 -220.291)"/><path class="a" d="M630.3,313.62v68.574H419.88v65.161" transform="translate(-419.88 -224.385)"/><path class="c" d="M891.88,574.25a11.473,11.473,0,0,0,2.505,4.064" transform="translate(-440.581 -235.815)"/><path class="c" d="M682.3,993.374,670.3,1013.52,625.95,987.112l40.407,6.674,4.8-7.946" transform="translate(-428.918 -253.867)"/><path class="d" d="M962.371,852.245c0-4.111.717-8.873-1.845-9.934C899.7,817.231,810.641,813.98,796.92,813.98s-53.84,1.4-53.84,12.879c0,41.478,23.11,169.17,27.8,173.941,2.228,2.247,21.657.746,24.076-1.683-.163-10.517,5.947-116.161.373-128.955,51.125,18.74,109.182,27.613,124.48,27.613C964.149,897.728,962.371,857.121,962.371,852.245Z" transform="translate(-434.055 -246.329)"/><line class="b" y1="238.204" transform="translate(515.035 522.53)"/></g></svg>