<svg width="28" height="28" viewBox="0 0 28 28" fill="none" xmlns="http://www.w3.org/2000/svg">
<g clip-path="url(#clip0_127_428)">
<path d="M27.0646 11.1947C26.0998 9.90072 25.453 8.3627 25.1942 6.74697C24.8744 4.74981 23.3067 3.13539 21.254 2.80673C19.6382 2.54802 18.1002 1.9012 16.8062 0.936332C15.145 -0.302289 12.8831 -0.321812 11.1956 0.936332C9.90161 1.9012 8.36359 2.54802 6.74786 2.80673C4.75075 3.12648 3.13634 4.69419 2.80768 6.74691C2.54902 8.36264 1.9022 9.90067 0.937278 11.1947C-0.301343 12.8559 -0.320866 15.1179 0.937278 16.8053C1.9022 18.0994 2.54896 19.6374 2.80768 21.2531C3.12748 23.2503 4.69525 24.8646 6.74791 25.1933C8.36365 25.452 9.90167 26.0988 11.1957 27.0637C12.8569 28.3023 15.1189 28.3218 16.8063 27.0637C18.1004 26.0988 19.6384 25.452 21.2541 25.1933C23.2512 24.8735 24.8656 23.3058 25.1943 21.2531C25.453 19.6373 26.0998 18.0992 27.0647 16.8053C27.0647 16.7643 28.0004 15.7411 28.0004 14C28.0004 12.9858 27.6768 12.0157 27.0646 11.1947ZM25.7495 15.8246C24.627 17.33 23.8748 19.1175 23.5744 20.9937C23.3625 22.3171 22.3217 23.361 20.9947 23.5733C19.1185 23.8738 17.331 24.6259 15.8256 25.7485C14.74 26.558 13.2749 26.5676 12.1764 25.7485C10.6709 24.6259 8.88348 23.8737 7.00729 23.5733C5.66372 23.3582 4.63674 22.2996 4.42767 20.9936C4.12723 19.1174 3.37509 17.33 2.25257 15.8246C1.44306 14.7389 1.43344 13.2739 2.25257 12.1754C3.37515 10.6699 4.12729 8.88243 4.42773 7.00623C4.63958 5.68285 5.6804 4.63902 7.0074 4.42662C8.88365 4.12618 10.6711 3.37398 12.1765 2.25151C13.2621 1.44201 14.7271 1.43238 15.8257 2.25151C17.3311 3.37404 19.1185 4.12623 20.9948 4.42667C22.3182 4.63852 23.362 5.67935 23.5744 7.00634C23.8748 8.88259 24.627 10.67 25.7495 12.1754C26.559 13.261 26.5686 14.7261 25.7495 15.8246Z" fill="#106EED"/>
<path d="M14.0006 4.86758C8.96496 4.86758 4.86816 8.96438 4.86816 14C4.86816 19.0357 8.96496 23.1325 14.0006 23.1325C19.0362 23.1325 23.133 19.0357 23.133 14C23.133 8.96438 19.0362 4.86758 14.0006 4.86758ZM14.0006 21.4919C9.86957 21.4919 6.50872 18.1311 6.50872 14C6.50872 9.86899 9.86957 6.50814 14.0006 6.50814C18.1316 6.50814 21.4925 9.86899 21.4925 14C21.4925 18.1311 18.1316 21.4919 14.0006 21.4919Z" fill="#106EED"/>
<path d="M15.848 11.4298L14.7717 8.46992C14.6538 8.14575 14.3457 7.92996 14.0008 7.92996C13.6559 7.92996 13.3478 8.14575 13.2299 8.46992L12.1536 11.4298H9.18848C8.84178 11.4298 8.53248 11.6478 8.41595 11.9743C8.29941 12.3008 8.40069 12.6654 8.66903 12.8849L10.9467 14.7486L9.73003 18.0945C9.61038 18.4235 9.71275 18.7921 9.98481 19.0124C10.2569 19.2326 10.6387 19.256 10.9357 19.0704L14.0008 17.1548L17.0659 19.0704C17.1995 19.1539 17.3503 19.1951 17.5005 19.1951C18.0656 19.1951 18.4671 18.6325 18.2715 18.0945L17.0548 14.7486L19.3325 12.8849C19.6009 12.6654 19.7022 12.3008 19.5856 11.9743C19.4691 11.6478 19.1598 11.4298 18.8131 11.4298H15.848ZM15.3142 14.7624L15.9159 16.4171L14.4355 15.4918C14.1696 15.3256 13.832 15.3256 13.566 15.4918L12.0857 16.4171L12.6874 14.7624C12.8065 14.4349 12.7056 14.0679 12.4359 13.8472L11.4864 13.0704H12.7282C13.0731 13.0704 13.3811 12.8546 13.499 12.5304L14.0008 11.1505L14.5025 12.5304C14.6204 12.8546 14.9285 13.0704 15.2734 13.0704H16.5152L15.5657 13.8472C15.296 14.0679 15.1951 14.4349 15.3142 14.7624Z" fill="#106EED"/>
</g>
<defs>
<clipPath id="clip0_127_428">
<rect width="28" height="28" fill="white"/>
</clipPath>
</defs>
</svg>
