<svg xmlns="http://www.w3.org/2000/svg" width="439" height="431" viewBox="0 0 439 431"><g><g><g><g><path fill="#2d5ee6" d="M174.265 412s73.32 11.152 135.68-40.487c62.361-51.638 85.03-135.013 105.222-202.178 20.194-67.164-6.502-126.556-63.017-145.215C295.634 5.462 266.628 54.26 193.8 70.123c-72.827 15.864-94.07 9.343-148.549 61.438-54.478 52.095-50.77 150.056 8.01 211.96C112.042 405.424 174.265 412 174.265 412z"/></g><g opacity=".7"><path fill="#fff" d="M174.265 412s73.32 11.152 135.68-40.487c62.361-51.638 85.03-135.013 105.222-202.178 20.194-67.164-6.502-126.556-63.017-145.215C295.634 5.462 266.628 54.26 193.8 70.123c-72.827 15.864-94.07 9.343-148.549 61.438-54.478 52.095-50.77 150.056 8.01 211.96C112.042 405.424 174.265 412 174.265 412z"/></g></g><g><g><path fill="#263238" d="M10.775 149.288v-24.942h367.942v24.943z"/></g><g><path fill="none" stroke="#263238" stroke-miterlimit="20" stroke-width="2" d="M37.79.612v130.922"/></g><g><path fill="none" stroke="#263238" stroke-miterlimit="20" stroke-width="2" d="M90.114.612v130.922"/></g><g><path fill="none" stroke="#263238" stroke-miterlimit="20" stroke-width="2" d="M142.428.612v130.922"/></g><g><path fill="none" stroke="#263238" stroke-miterlimit="20" stroke-width="2" d="M194.75.612v130.922"/></g><g><path fill="none" stroke="#263238" stroke-miterlimit="20" stroke-width="2" d="M247.065.612v130.922"/></g><g><path fill="none" stroke="#263238" stroke-miterlimit="20" stroke-width="2" d="M299.388.612v130.922"/></g><g><path fill="none" stroke="#263238" stroke-miterlimit="20" stroke-width="2" d="M351.702.612v130.922"/></g><g><path fill="none" stroke="#263238" stroke-miterlimit="20" stroke-width="2" d="M11.634 34.185h366.225"/></g><g><path fill="none" stroke="#263238" stroke-miterlimit="20" stroke-width="2" d="M11.634 84.06h366.225"/></g><g><path fill="#263238" d="M340.825 149.28V0h93.166v149.28z"/></g></g><g><g><path fill="none" stroke="#2d5ee6" stroke-linecap="round" stroke-linejoin="round" stroke-miterlimit="20" d="M37.681 400.602v-26.86"/></g><g><path fill="#263238" d="M32.201 400.52h10.832l-2.703 29.618h-5.416z"/><path fill="none" stroke="#263238" stroke-linecap="round" stroke-linejoin="round" stroke-miterlimit="20" d="M32.201 400.52v0h10.832v0l-2.703 29.618v0h-5.416v0z"/></g><g><path fill="#2d5ee6" d="M37.47 398.182a11.498 11.498 0 0 0-3.223-3.032 12.229 12.229 0 0 0-4.85-1.005s1.617 5.854 8.074 4.037z"/></g><g><path fill="#2d5ee6" d="M37.681 398.182a11.498 11.498 0 0 1 3.224-3.032 12.229 12.229 0 0 1 4.85-1.005s-1.617 5.854-8.074 4.037z"/></g><g><path fill="#2d5ee6" d="M37.47 390.912a11.362 11.362 0 0 0-3.223-3.032 12.137 12.137 0 0 0-4.85-1.014s1.617 5.863 8.074 4.046z"/></g><g><path fill="#2d5ee6" d="M37.681 390.912a11.362 11.362 0 0 1 3.224-3.032 12.137 12.137 0 0 1 4.85-1.014s-1.617 5.863-8.074 4.046z"/></g><g><path fill="#2d5ee6" d="M37.47 383.633a11.39 11.39 0 0 0-3.223-3.023 12.138 12.138 0 0 0-4.85-1.014s1.617 5.854 8.074 4.037z"/></g><g><path fill="#2d5ee6" d="M37.681 383.633a11.389 11.389 0 0 1 3.224-3.023 12.138 12.138 0 0 1 4.85-1.014s-1.617 5.854-8.074 4.037z"/></g><g><path fill="#2d5ee6" d="M37.47 376.363a11.499 11.499 0 0 0-3.223-3.032 12.228 12.228 0 0 0-4.85-1.005s1.617 5.855 8.074 4.037z"/></g><g><path fill="#2d5ee6" d="M37.681 376.363a11.499 11.499 0 0 1 3.224-3.032 12.227 12.227 0 0 1 4.85-1.005s-1.617 5.855-8.074 4.037z"/></g><g><path fill="#2d5ee6" d="M37.681 373.742a9.178 9.178 0 0 1-1.699-4.256c.095-1.666.53-3.295 1.279-4.786 0 0 4.95 4.092.42 9.042z"/></g><g><path fill="none" stroke="#2d5ee6" stroke-linecap="round" stroke-linejoin="round" stroke-miterlimit="20" d="M398.956 400.602v-26.86"/></g><g><path fill="#263238" d="M393.486 400.52h10.831l-2.712 29.618h-5.416z"/><path fill="none" stroke="#263238" stroke-linecap="round" stroke-linejoin="round" stroke-miterlimit="20" d="M393.486 400.52v0h10.831v0l-2.712 29.618v0h-5.416v0z"/></g><g><path fill="#2d5ee6" d="M398.728 398.182a11.598 11.598 0 0 0-3.233-3.032 12.2 12.2 0 0 0-4.84-1.005s1.68 5.854 8.073 4.037z"/></g><g><path fill="#2d5ee6" d="M398.956 398.182a11.598 11.598 0 0 1 3.233-3.032 12.229 12.229 0 0 1 4.85-1.005s-1.617 5.854-8.083 4.037z"/></g><g><path fill="#2d5ee6" d="M398.728 390.912a11.462 11.462 0 0 0-3.233-3.032 12.1 12.1 0 0 0-4.84-1.014s1.68 5.863 8.073 4.046z"/></g><g><path fill="#2d5ee6" d="M398.956 390.912a11.463 11.463 0 0 1 3.233-3.032 12.137 12.137 0 0 1 4.85-1.014s-1.617 5.863-8.083 4.046z"/></g><g><path fill="#2d5ee6" d="M398.728 383.633a11.49 11.49 0 0 0-3.233-3.023 12.101 12.101 0 0 0-4.84-1.014s1.68 5.854 8.073 4.037z"/></g><g><path fill="#2d5ee6" d="M398.956 383.633a11.49 11.49 0 0 1 3.233-3.023 12.138 12.138 0 0 1 4.85-1.014s-1.617 5.854-8.083 4.037z"/></g><g><path fill="#2d5ee6" d="M398.728 376.363a11.598 11.598 0 0 0-3.233-3.032 12.2 12.2 0 0 0-4.84-1.005s1.68 5.855 8.073 4.037z"/></g><g><path fill="#2d5ee6" d="M398.956 376.363a11.598 11.598 0 0 1 3.233-3.032 12.228 12.228 0 0 1 4.85-1.005s-1.617 5.855-8.083 4.037z"/></g><g><path fill="#2d5ee6" d="M398.956 373.742a9.178 9.178 0 0 1-1.698-4.256 12.137 12.137 0 0 1 1.287-4.786s4.95 4.092.411 9.042z"/></g><g><path fill="none" stroke="#2d5ee6" stroke-linecap="round" stroke-linejoin="round" stroke-miterlimit="20" d="M352.917 117.953v-26.87"/></g><g><path fill="#fff" d="M347.446 117.862h10.832l-2.713 29.618h-5.416z"/><path fill="none" stroke="#263238" stroke-linecap="round" stroke-linejoin="round" stroke-miterlimit="20" d="M347.446 117.862v0h10.832v0l-2.713 29.618v0h-5.416v0z"/></g><g><path fill="#2d5ee6" d="M352.716 115.515a11.6 11.6 0 0 0-3.233-3.033 12.202 12.202 0 0 0-4.84-1.004s1.616 5.863 8.073 4.037z"/></g><g><path fill="#2d5ee6" d="M352.917 115.515a11.598 11.598 0 0 1 3.233-3.033 12.228 12.228 0 0 1 4.85-1.004s-1.617 5.863-8.083 4.037z"/></g><g><path fill="#2d5ee6" d="M352.716 108.254a11.599 11.599 0 0 0-3.233-3.032 12.202 12.202 0 0 0-4.84-1.005s1.616 5.818 8.073 4.037z"/></g><g><path fill="#2d5ee6" d="M352.917 108.254a11.598 11.598 0 0 1 3.233-3.032 12.23 12.23 0 0 1 4.85-1.005s-1.617 5.818-8.083 4.037z"/></g><g><path fill="#2d5ee6" d="M352.716 100.984a11.6 11.6 0 0 0-3.233-3.032 12.101 12.101 0 0 0-4.84-1.014s1.616 5.863 8.073 4.046z"/></g><g><path fill="#2d5ee6" d="M352.917 100.984a11.598 11.598 0 0 1 3.233-3.032 12.138 12.138 0 0 1 4.85-1.014s-1.617 5.863-8.083 4.046z"/></g><g><path fill="#2d5ee6" d="M352.716 93.714a11.462 11.462 0 0 0-3.233-3.032 12.101 12.101 0 0 0-4.84-1.014s1.616 5.863 8.073 4.046z"/></g><g><path fill="#2d5ee6" d="M352.917 93.714a11.462 11.462 0 0 1 3.233-3.032 12.138 12.138 0 0 1 4.85-1.014s-1.617 5.863-8.083 4.046z"/></g><g><path fill="#2d5ee6" d="M352.917 91.084a9.179 9.179 0 0 1-1.699-4.256c.101-1.663.54-3.288 1.288-4.777 0 0 4.95 4.083.41 9.033z"/></g></g><g><g><path fill="#2d5ee6" d="M350.423 48.66V5.7h31.875v42.962z"/><path fill="none" stroke="#263238" stroke-linecap="round" stroke-linejoin="round" stroke-miterlimit="20" d="M350.423 48.66v0V5.7v0h31.875v42.962z"/></g><g><path fill="#fff" d="M355.045 42.432V11.937h22.622v30.495z"/><path fill="none" stroke="#263238" stroke-linecap="round" stroke-linejoin="round" stroke-miterlimit="20" d="M355.045 42.432v0-30.495 0h22.622v30.495z"/></g><g><path fill="#2d5ee6" d="M394.719 57.41V22.45h25.937V57.41z"/><path fill="none" stroke="#263238" stroke-linecap="round" stroke-linejoin="round" stroke-miterlimit="20" d="M394.719 57.41v0V22.45v0h25.937V57.41z"/></g><g><path fill="#fff" d="M398.481 52.323V27.518h18.403v24.805z"/><path fill="none" stroke="#263238" stroke-linecap="round" stroke-linejoin="round" stroke-miterlimit="20" d="M398.481 52.323v0-24.805 0h18.403v24.805z"/></g><g><path fill="#2d5ee6" d="M371.174 90.855V60.972h22.175v29.883z"/><path fill="none" stroke="#263238" stroke-linecap="round" stroke-linejoin="round" stroke-miterlimit="20" d="M371.174 90.855v0-29.883 0h22.175v29.883z"/></g><g><path fill="#fff" d="M374.398 86.517V65.31h15.736v21.207z"/><path fill="none" stroke="#263238" stroke-linecap="round" stroke-linejoin="round" stroke-miterlimit="20" d="M374.398 86.517v0V65.31v0h15.736v21.207z"/></g></g><g><g><path fill="#fff" d="M187.527 78.763h-28.833a1.187 1.187 0 0 0-1.179 1.188c0 .65.528 1.178 1.179 1.178h29.974V79.95a1.178 1.178 0 0 0-1.141-1.188z"/><path fill="none" stroke="#263238" stroke-linecap="round" stroke-linejoin="round" stroke-miterlimit="20" d="M187.527 78.763v0h-28.833a1.187 1.187 0 0 0-1.179 1.188v0c0 .65.528 1.178 1.179 1.178h29.974v0-1.178a1.178 1.178 0 0 0-1.141-1.188z"/></g><g><path fill="#263238" d="M138.756 76.389a1.47 1.47 0 0 1-1.47-1.47V50.65c0-.812.658-1.47 1.47-1.47h36.45c.812 0 1.47.658 1.47 1.47V74.92a1.47 1.47 0 0 1-1.47 1.47z"/><path fill="none" stroke="#263238" stroke-linecap="round" stroke-linejoin="round" stroke-miterlimit="20" d="M138.756 76.389a1.47 1.47 0 0 1-1.47-1.47V50.65c0-.812.658-1.47 1.47-1.47h36.45c.812 0 1.47.658 1.47 1.47V74.92a1.47 1.47 0 0 1-1.47 1.47z"/></g><g><path fill="#474747" d="M143.679 76.398a1.47 1.47 0 0 1-1.47-1.47V57.912c0-.812.658-1.47 1.47-1.47h25.043c.812 0 1.47.658 1.47 1.47v17.016a1.47 1.47 0 0 1-1.47 1.47z"/><path fill="none" stroke="#263238" stroke-linecap="round" stroke-linejoin="round" stroke-miterlimit="20" d="M143.679 76.398a1.47 1.47 0 0 1-1.47-1.47V57.912c0-.812.658-1.47 1.47-1.47h25.043c.812 0 1.47.658 1.47 1.47v17.016a1.47 1.47 0 0 1-1.47 1.47z"/></g><g><path fill="#fff" d="M154.82 82.617a1.47 1.47 0 0 1-1.47-1.47V70.351c0-.812.659-1.47 1.47-1.47h2.504c.812 0 1.47.658 1.47 1.47v10.796a1.47 1.47 0 0 1-1.47 1.47z"/><path fill="none" stroke="#263238" stroke-linecap="round" stroke-linejoin="round" stroke-miterlimit="20" d="M154.82 82.617a1.47 1.47 0 0 1-1.47-1.47V70.351c0-.812.659-1.47 1.47-1.47h2.504c.812 0 1.47.658 1.47 1.47v10.796a1.47 1.47 0 0 1-1.47 1.47z"/></g><g><path fill="#b5b5b5" d="M213.994 83.138l10.293-38.532a5.699 5.699 0 0 1 6.165-4.183l15.216.575a5.69 5.69 0 0 1 4.977 6.33l-4.439 36.01z"/><path fill="none" stroke="#263238" stroke-linecap="round" stroke-linejoin="round" stroke-miterlimit="20" d="M213.994 83.138v0l10.293-38.532a5.699 5.699 0 0 1 6.165-4.183l15.216.575a5.69 5.69 0 0 1 4.977 6.33l-4.439 36.01v0z"/></g><g><path fill="#2d5ee6" d="M218.98 55.821h-9.726l-16.02 7.37.777 6.75 13.188-2.357.31 16.321h20.431l3.608-10.046 4.566 9.133a.502.502 0 0 0 .804.137L252.6 67.274l-2.2-2.046-11.609 6.12-5.653-13.024z"/><path fill="none" stroke="#263238" stroke-linecap="round" stroke-linejoin="round" stroke-miterlimit="20" d="M218.98 55.821v0h-9.726v0l-16.02 7.37v0l.777 6.75v0l13.188-2.357v0l.31 16.321v0h20.431v0l3.608-10.046v0l4.566 9.133a.502.502 0 0 0 .804.137L252.6 67.274v0l-2.2-2.046v0l-11.609 6.12v0l-5.653-13.024v0z"/></g><g><path fill="#2d5ee6" d="M214.898 55.821s-3.762 8.311-3.762 13.645 3.297 11.928 3.297 11.928l5.644 1.095a28.459 28.459 0 0 0 5.333-12.393c.573-4.264.732-8.574.475-12.868 0 0-3.927-1.571-10.987-1.407z"/><path fill="none" stroke="#263238" stroke-linecap="round" stroke-linejoin="round" stroke-miterlimit="20" d="M214.898 55.821v0s-3.762 8.311-3.762 13.645 3.297 11.928 3.297 11.928v0l5.644 1.095a28.459 28.459 0 0 0 5.333-12.393c.573-4.264.732-8.574.475-12.868 0 0-3.927-1.571-10.987-1.407z"/></g><g><path fill="#fff" d="M217.1 57.063a76.515 76.515 0 0 0-2.037 12.878c-.32 6.119-.63 13.964-.63 13.964h5.023s2.502-18.202 3.452-22.44c.95-4.237-.95-7.06-5.809-4.402z"/><path fill="none" stroke="#263238" stroke-linecap="round" stroke-linejoin="round" stroke-miterlimit="20" d="M217.1 57.063a76.515 76.515 0 0 0-2.037 12.878c-.32 6.119-.63 13.964-.63 13.964v0h5.023v0s2.502-18.202 3.452-22.44c.95-4.237-.95-7.06-5.809-4.402z"/></g><g><path fill="#263238" d="M214.24 40.55s-3.406-.639-3.79-3.443c-.383-2.803 3.763-6.055 9.134-7.26 5.37-1.206 11.297 3.845 12.083 8.484.785 4.64 2.53 10.421 1.433 12.787-1.095 2.365-6.21 3.224-11.653 3.972-5.444.75-8.357-2.027-8.457-3.918-.1-1.89 1.25-10.621 1.25-10.621z"/><path fill="none" stroke="#263238" stroke-linecap="round" stroke-linejoin="round" stroke-miterlimit="20" d="M214.24 40.55v0s-3.406-.639-3.79-3.443c-.383-2.803 3.763-6.055 9.134-7.26 5.37-1.206 11.297 3.845 12.083 8.484.785 4.64 2.53 10.421 1.433 12.787-1.095 2.365-6.21 3.224-11.653 3.972-5.444.75-8.357-2.027-8.457-3.918-.1-1.89 1.25-10.621 1.25-10.621z"/></g><g><path fill="#fff" d="M218.98 55.036s-1.57 0-2.036.785c-.466.786-3.653 6.393-3.653 6.393l5.8-.785 6.438 2.356s.155-6.12-.475-7.535-6.073-1.214-6.073-1.214z"/><path fill="none" stroke="#263238" stroke-linecap="round" stroke-linejoin="round" stroke-miterlimit="20" d="M218.98 55.036v0s-1.57 0-2.036.785c-.466.786-3.653 6.393-3.653 6.393v0l5.8-.785v0l6.438 2.356v0s.155-6.12-.475-7.535-6.073-1.214-6.073-1.214z"/></g><g><path fill="#fff" d="M218.515 51.894s-.32 7.06-.32 8.63a1.827 1.827 0 0 0 3.453.786c1.096-1.726 2.036-9.416 2.036-9.416z"/><path fill="none" stroke="#263238" stroke-linecap="round" stroke-linejoin="round" stroke-miterlimit="20" d="M218.515 51.894v0s-.32 7.06-.32 8.63a1.827 1.827 0 0 0 3.453.786c1.096-1.726 2.036-9.416 2.036-9.416v0z"/></g><g><path fill="#263238" d="M205.172 39.656l5.023 11.452 4.868-1.881-4.868-10.823z"/><path fill="none" stroke="#263238" stroke-linecap="round" stroke-linejoin="round" stroke-miterlimit="20" d="M205.172 39.656v0l5.023 11.452v0l4.868-1.881v0l-4.868-10.823v0z"/></g><g><path fill="#fff" d="M218.926 35.637c.374.365-2.457 3.388-4.649 4.019-1.06.301 0 5.178-.32 7.215-.337 2.219 4.284 6.913 6.147 6.658 4.055-.557 5.608-1.827 6.147-3.654.19-.821.33-1.654.42-2.493 0 0 2.036 1.407 2.356-.63.32-2.037-.785-2.667-.785-2.667s-8.95-1.635-9.316-8.448z"/><path fill="none" stroke="#263238" stroke-linecap="round" stroke-linejoin="round" stroke-miterlimit="20" d="M218.926 35.637c.374.365-2.457 3.388-4.649 4.019-1.06.301 0 5.178-.32 7.215-.337 2.219 4.284 6.913 6.147 6.658 4.055-.557 5.608-1.827 6.147-3.654.19-.821.33-1.654.42-2.493 0 0 2.036 1.407 2.356-.63.32-2.037-.785-2.667-.785-2.667v0s-8.95-1.635-9.316-8.448z"/></g><g><path fill="#fff" d="M250.362 65.228l2.037-5.334 3.516-1.525.1-.036v1.406L253.97 61h3.608l2.046-2.2.785.474-1.89 5.014-5.955 2.987z"/><path fill="none" stroke="#263238" stroke-linecap="round" stroke-linejoin="round" stroke-miterlimit="20" d="M250.362 65.228v0l2.037-5.334v0l3.516-1.525v0l.1-.036v1.406L253.97 61v0h3.608v0l2.046-2.2v0l.785.474v0l-1.89 5.014v0l-5.955 2.987v0z"/></g><g><path fill="#fff" d="M207.217 51.428l-2.356-6.594 3.452-3.763.914.621s-.786 3.297-.786 3.772a51.51 51.51 0 0 0 2.357 5.014l-5.48 6.75-2.347-2.512z"/><path fill="none" stroke="#263238" stroke-linecap="round" stroke-linejoin="round" stroke-miterlimit="20" d="M207.217 51.428v0l-2.356-6.594v0l3.452-3.763v0l.914.621v0s-.786 3.297-.786 3.772a51.51 51.51 0 0 0 2.357 5.014l-5.48 6.75v0l-2.347-2.512v0z"/></g><g><path fill="#2d5ee6" d="M202.98 54.716l-11.7 8.22a3.827 3.827 0 0 0-1.625 3.415l.064.914a3.808 3.808 0 0 0 3.47 3.507 3.827 3.827 0 0 0 3.516-1.699l8.622-11.772z"/><path fill="none" stroke="#263238" stroke-linecap="round" stroke-linejoin="round" stroke-miterlimit="20" d="M202.98 54.716v0l-11.7 8.22a3.827 3.827 0 0 0-1.625 3.415l.064.914a3.808 3.808 0 0 0 3.47 3.507v0a3.827 3.827 0 0 0 3.516-1.699l8.622-11.772v0z"/></g><g><path fill="#fff" d="M133.02 81h158.276v63.932H133.021a1.343 1.343 0 0 1-1.343-1.343V82.4A1.343 1.343 0 0 1 133.021 81z"/><path fill="none" stroke="#263238" stroke-linecap="round" stroke-linejoin="round" stroke-miterlimit="20" d="M133.02 81v0h158.276v63.932H133.021a1.343 1.343 0 0 1-1.343-1.343V82.4A1.343 1.343 0 0 1 133.021 81z"/></g><g><path fill="#263238" d="M240.288 74.526h16.11l-2.292 6.594h-16.11z"/><path fill="none" stroke="#263238" stroke-linecap="round" stroke-linejoin="round" stroke-miterlimit="20" d="M240.288 74.526v0h16.11v0l-2.292 6.594v0h-16.11v0z"/></g><g><path fill="#fff" d="M268.29 74.526h-27.582l2.293 6.594h27.581z"/><path fill="none" stroke="#263238" stroke-linecap="round" stroke-linejoin="round" stroke-miterlimit="20" d="M268.29 74.526v0h-27.582v0l2.293 6.594v0h27.581v0z"/></g><g><path fill="#263238" d="M247.805 76.407c.191 0 .328.082.438.356l.228.566c.11.274.037.366-.146.366h-.283l-.511-1.288zm1.05.393a1.315 1.315 0 0 0-1.224-.96h-.913l1.507 3.79h.603l-.576-1.424h.283c.594 0 .758-.301.512-.913l-.192-.493z"/></g><g><path fill="#263238" d="M249.86 76.407c.21 0 .347.119.456.393l.146.374c.128.301.028.393-.191.393h-.238l-.466-1.16zm2.274 3.297a1.508 1.508 0 0 1-.247-.466l-.237-.584a1.26 1.26 0 0 0-.713-.804c.207-.128.235-.384.082-.767l-.118-.302a1.224 1.224 0 0 0-1.233-.913h-.914l1.517 3.79h.593l-.612-1.543h.201c.274 0 .448.128.585.484l.237.593c.058.168.14.325.247.466z"/></g><g><path fill="#263238" d="M252.17 77.466h.813l.22.54h-.814l.439 1.104h1.032l.219.548h-1.626l-1.516-3.79h1.662l.21.539h-1.022z"/></g><g><path fill="#263238" d="M253.714 75.822c.57.008 1.075.374 1.26.914v.118h-.548l-.064-.155c-.1-.274-.256-.374-.447-.374-.192 0-.256.1-.146.374.31.786 1.534.913 1.972 2.01.238.611.073.958-.511.958a1.343 1.343 0 0 1-1.27-.959l-.091-.228h.557l.1.265c.11.274.275.374.457.374.183 0 .274-.1.165-.374-.311-.776-1.535-.913-1.964-2.01-.21-.566-.046-.913.53-.913z"/></g><g><path fill="#263238" d="M254.956 75.868h.593l1.517 3.79h-.594z"/></g><g><path fill="#263238" d="M257.13 76.443c.191 0 .347.1.456.366l.786 1.973c.11.274.036.365-.156.365h-.338l-1.077-2.74zm.374 3.17h.913c.594 0 .758-.302.512-.914l-.768-1.918a1.306 1.306 0 0 0-1.26-.913h-.913z"/></g><g><path fill="#263238" d="M259.431 77.466h.813l.219.54h-.813l.439 1.104h1.032l.219.548h-1.626l-1.516-3.79h1.626l.21.539h-1.041z"/></g><g><path fill="#263238" d="M261.139 76.91l1.096 2.74h-.502l-1.507-3.791h.74l1.525 2.265-.914-2.265h.53l1.452 3.8h-.612z"/></g><g><path fill="#263238" d="M262.326 75.868h1.827l.219.539h-.621l1.297 3.251h-.576l-1.306-3.251h-.62z"/></g><g><path fill="#263238" d="M130.345 81h163.627v3.207H130.345a1.343 1.343 0 0 1-1.343-1.343v-.52c0-.742.601-1.343 1.343-1.343z"/></g></g><g><g><path fill="#263238" d="M278.345 240.3l24.34 5.936a1.827 1.827 0 0 1 1.06 2.62l-20.175 37.528 8.53 7.152-9.07-1.928-7.15-2.913 1.059-4.503 12.887-31.107a1.114 1.114 0 0 0-1.041-1.507h-27.052s-5.48-5.105-.183-12.037z"/><path fill="none" stroke="#263238" stroke-linecap="round" stroke-linejoin="round" stroke-miterlimit="20" d="M278.345 240.3v0l24.34 5.936a1.827 1.827 0 0 1 1.06 2.62l-20.175 37.528v0l8.53 7.152v0l-9.07-1.928v0l-7.15-2.913v0l1.059-4.503v0l12.887-31.107a1.114 1.114 0 0 0-1.041-1.507h-27.052v0s-5.48-5.105-.183-12.037z"/></g><g><path fill="#263238" d="M270.272 286.567v-24.559h-3.462v-3.288h8.933v3.288h-3.462v24.23l16.778 4.366v1.279h-1.827l-14.95-2.813v2.813h-2.01v-2.576l-13.681 2.576h-1.818v-1.28z"/></g><g><path fill="none" stroke="#263238" stroke-linecap="round" stroke-linejoin="round" stroke-miterlimit="20" stroke-width="2" d="M279.935 258.903v0h-26.623v0l-2.54-4.238a11.818 11.818 0 0 1-.848-10.548l1.607-4v0"/></g><g><path fill="#5c5c5c" d="M280.848 215.677l5.48 7.023 14.22 1.278s5.918-2.74 7.197-2.74c1.278 0 4.795 5.599 4.795 5.599H299.88l-14.704 2.402-6.713-4.484z"/><path fill="none" stroke="#263238" stroke-linecap="round" stroke-linejoin="round" stroke-miterlimit="20" d="M280.848 215.677v0l5.48 7.023v0l14.22 1.278v0s5.918-2.74 7.197-2.74c1.278 0 4.795 5.599 4.795 5.599v0H299.88v0l-14.704 2.402v0l-6.713-4.484v0z"/></g><g><path fill="#2d5ee6" d="M280.483 212.398l3.397 21.006c.274 1.69.402 6.585-1.552 7.516a2.74 2.74 0 0 1-1.179.183c-2.694 0-5.297-.776-7.945-.776h-9.983c-1.26 0-2.4-.74-2.913-1.891l-.183-.411a3.196 3.196 0 0 1-.192-2.018c1.178-5.033 6.293-24.404 7.425-26.486 1.27-2.366 5.654-4.01 5.654-4.01z"/><path fill="none" stroke="#263238" stroke-linecap="round" stroke-linejoin="round" stroke-miterlimit="20" d="M280.483 212.398v0l3.397 21.006c.274 1.69.402 6.585-1.552 7.516a2.74 2.74 0 0 1-1.179.183c-2.694 0-5.297-.776-7.945-.776h-9.983c-1.26 0-2.4-.74-2.913-1.891l-.183-.411a3.196 3.196 0 0 1-.192-2.018c1.178-5.033 6.293-24.404 7.425-26.486 1.27-2.366 5.654-4.01 5.654-4.01v0z"/></g><g><path fill="#fff" d="M284.291 204.918l-2.913 1.297-2.11 4.566-5.836-5.671 1.616-3.727s-2.11-3.087-1.616-5.845c.493-2.758 5.671-5.671 8.43-3.078 2.758 2.594 2.43 12.458 2.43 12.458z"/><path fill="none" stroke="#263238" stroke-linecap="round" stroke-linejoin="round" stroke-miterlimit="20" d="M284.291 204.918v0l-2.913 1.297v0l-2.11 4.566v0l-5.836-5.671v0l1.616-3.727v0s-2.11-3.087-1.616-5.845c.493-2.758 5.671-5.671 8.43-3.078 2.758 2.594 2.43 12.458 2.43 12.458z"/></g><g><path fill="#263238" d="M285.378 192.232s1.927-.43 1.717-2.137c-.21-1.708-1.717.21-1.717-1.708s1.717-2.566.648-3.653c-1.068-1.087-4.493-1.708-5.342-.21-.85 1.498-.649 2.347-1.288 2.347-.64 0-2.347-1.498-3.653.43-1.306 1.926-.85 2.566-.85 2.566s-4.913 1.917-4.913 5.123c0 3.206 5.05 6.32 5.05 6.32s3.279.302 4.777-1.187c1.498-1.489 1.927-4.064 2.347-5.133.42-1.068 3.224-2.758 3.224-2.758z"/><path fill="none" stroke="#263238" stroke-linecap="round" stroke-linejoin="round" stroke-miterlimit="20" d="M285.378 192.232v0s1.927-.43 1.717-2.137c-.21-1.708-1.717.21-1.717-1.708s1.717-2.566.648-3.653c-1.068-1.087-4.493-1.708-5.342-.21-.85 1.498-.649 2.347-1.288 2.347-.64 0-2.347-1.498-3.653.43-1.306 1.926-.85 2.566-.85 2.566v0s-4.913 1.917-4.913 5.123c0 3.206 5.05 6.32 5.05 6.32v0s3.279.302 4.777-1.187c1.498-1.489 1.927-4.064 2.347-5.133.42-1.068 3.224-2.758 3.224-2.758v0z"/></g><g><path fill="#fff" d="M284.62 190.816l1.452 4.375v1.133l2.082 2.082v.055l-1.598 1.918.155 4.22-3.653.264a4.046 4.046 0 0 1-4.064-2.585l-.868-2.228a2.338 2.338 0 0 1-1.452-2.274c0-1.827-.164-2.43.804-2.43a9.206 9.206 0 0 1 2.11.32l.977-.484-.165-1.626 1.462-1.132.164-1.617z"/><path fill="none" stroke="#263238" stroke-linecap="round" stroke-linejoin="round" stroke-miterlimit="20" d="M284.62 190.816v0l1.452 4.375v1.133l2.082 2.082v.055l-1.598 1.918v0l.155 4.22v0l-3.653.264a4.046 4.046 0 0 1-4.064-2.585l-.868-2.228a2.338 2.338 0 0 1-1.452-2.274c0-1.827-.164-2.43.804-2.43a9.206 9.206 0 0 1 2.11.32l.977-.484v0l-.165-1.626v0l1.462-1.132v0l.164-1.617v0z"/></g><g><path fill="#2d5ee6" d="M273.916 202.735l8.576 8.384-1.644 4.557-9.115-10.21z"/><path fill="none" stroke="#263238" stroke-linecap="round" stroke-linejoin="round" stroke-miterlimit="20" d="M273.916 202.735v0l8.576 8.384v0l-1.644 4.557v0l-9.115-10.21v0z"/></g><g><path fill="#b5b5b5" d="M287.207 251.067a2.4 2.4 0 0 1 2.4 2.4v2.132a2.4 2.4 0 0 1-2.4 2.4H259.72a2.4 2.4 0 0 1-2.4-2.4v-2.132a2.4 2.4 0 0 1 2.4-2.4z"/><path fill="none" stroke="#263238" stroke-linecap="round" stroke-linejoin="round" stroke-miterlimit="20" d="M287.207 251.067a2.4 2.4 0 0 1 2.4 2.4v2.132a2.4 2.4 0 0 1-2.4 2.4H259.72a2.4 2.4 0 0 1-2.4-2.4v-2.132a2.4 2.4 0 0 1 2.4-2.4z"/></g><g><path fill="#b5b5b5" d="M253.678 224.913a1.6 1.6 0 0 1 1.793 1.38l2.567 19.796a1.6 1.6 0 0 1-1.38 1.793l-2.615.339a1.6 1.6 0 0 1-1.792-1.381l-2.568-19.796a1.6 1.6 0 0 1 1.381-1.792z"/><path fill="none" stroke="#263238" stroke-linecap="round" stroke-linejoin="round" stroke-miterlimit="20" d="M253.678 224.913a1.6 1.6 0 0 1 1.793 1.38l2.567 19.796a1.6 1.6 0 0 1-1.38 1.793l-2.615.339a1.6 1.6 0 0 1-1.792-1.381l-2.568-19.796a1.6 1.6 0 0 1 1.381-1.792z"/></g><g><path fill="#2d5ee6" d="M273.916 210.023l8.366 14.869 15.709-.64s6.749-1.46 7.845-1.644c1.096-.182 4.192 3.471 4.192 3.471h-10.96l-19.9 5.927-12.376-15.05"/><path fill="none" stroke="#263238" stroke-linecap="round" stroke-linejoin="round" stroke-miterlimit="20" d="M273.916 210.023v0l8.366 14.869v0l15.709-.64v0s6.749-1.46 7.845-1.644c1.096-.182 4.192 3.471 4.192 3.471v0h-10.96v0l-19.9 5.927v0l-12.376-15.05v0"/></g><g><path fill="#fff" d="M298.018 226.326l-.402-2.083h.375s6.749-1.461 7.845-1.644c1.096-.182 4.192 3.47 4.192 3.47h-10.96z"/><path fill="none" stroke="#263238" stroke-linecap="round" stroke-linejoin="round" stroke-miterlimit="20" d="M298.018 226.326v0l-.402-2.083v0h.375v0s6.749-1.461 7.845-1.644c1.096-.182 4.192 3.47 4.192 3.47v0h-10.96v0z"/></g><g><path fill="#5c5c5c" d="M384.617 250.683s16.906 31.281 17.435 32.532c.509 1.431.768 2.939.768 4.457 0 0-.192.384-.969.384-.776 0-8.713 3.489-10.84 3.489h-3.873l2.904-2.521 3.288-3.653s1.827.42 1.827-3.069-20.604-31.208-21.38-33.336c-.777-2.128 3.488-3.48 4.84-3.287 1.352.191 5.233.776 5.233.776z"/><path fill="none" stroke="#263238" stroke-linecap="round" stroke-linejoin="round" stroke-miterlimit="20" d="M384.617 250.683v0s16.906 31.281 17.435 32.532c.509 1.431.768 2.939.768 4.457 0 0-.192.384-.969.384-.776 0-8.713 3.489-10.84 3.489h-3.873v0l2.904-2.521v0l3.288-3.653v0s1.827.42 1.827-3.069-20.604-31.208-21.38-33.336c-.777-2.128 3.488-3.48 4.84-3.287 1.352.191 5.233.776 5.233.776v0z"/></g><g><path fill="#fff" d="M399.532 238.573l-28.989 8.293a1.827 1.827 0 0 0-1.077 2.658l22.869 34.952-9.261 8.302 6.393.794 5.032-1.826 2.84-2.357-1.059-4.502-12.895-31.144a1.105 1.105 0 0 1 1.04-1.498h30.596s6.841-6.548 1.553-13.48z"/><path fill="none" stroke="#263238" stroke-linecap="round" stroke-linejoin="round" stroke-miterlimit="20" d="M399.532 238.573v0l-28.989 8.293a1.827 1.827 0 0 0-1.077 2.658l22.869 34.952v0l-9.261 8.302v0l6.393.794v0l5.032-1.826v0l2.84-2.357v0l-1.059-4.502v0l-12.895-31.144a1.105 1.105 0 0 1 1.04-1.498h30.596v0s6.841-6.548 1.553-13.48z"/></g><g><path fill="#fff" d="M388.937 204.918l2.914 1.297 2.11 4.566 5.836-5.671-1.617-3.745s2.1-3.087 1.617-5.845c-.485-2.758-5.672-5.672-8.43-3.078s-2.43 12.476-2.43 12.476z"/><path fill="none" stroke="#263238" stroke-linecap="round" stroke-linejoin="round" stroke-miterlimit="20" d="M388.937 204.918v0l2.914 1.297v0l2.11 4.566v0l5.836-5.671v0l-1.617-3.745v0s2.1-3.087 1.617-5.845c-.485-2.758-5.672-5.672-8.43-3.078s-2.43 12.476-2.43 12.476z"/></g><g><path fill="#fff" d="M388.609 190.816l-1.453 4.375v1.133l-2.082 2.082v.055l1.598 1.918-.155 4.22 3.653.264a4.055 4.055 0 0 0 4.074-2.576l.858-2.228a2.338 2.338 0 0 0 1.461-2.274c0-1.827.165-2.43-.812-2.43a9.189 9.189 0 0 0-2.101.32l-.977-.484.164-1.626-1.461-1.132-.165-1.617z"/><path fill="none" stroke="#263238" stroke-linecap="round" stroke-linejoin="round" stroke-miterlimit="20" d="M388.609 190.816v0l-1.453 4.375v1.133l-2.082 2.082v.055l1.598 1.918v0l-.155 4.22v0l3.653.264a4.055 4.055 0 0 0 4.074-2.576l.858-2.228a2.338 2.338 0 0 0 1.461-2.274c0-1.827.165-2.43-.812-2.43a9.189 9.189 0 0 0-2.101.32l-.977-.484v0l.164-1.626v0l-1.461-1.132v0l-.165-1.617v0z"/></g><g><path fill="#5c5c5c" d="M393.915 215.065l-7.033 8.95-20.302-.484s-6.074-2.557-7.033-2.073c-.959.484-3.041 3.99-3.041 3.99l4.804-.794c1.067.474 2.195.797 3.352.96a8.047 8.047 0 0 0 2.402-.485l24.613 4.96 7.197-7.197z"/><path fill="none" stroke="#263238" stroke-linecap="round" stroke-linejoin="round" stroke-miterlimit="20" d="M393.915 215.065v0l-7.033 8.95v0l-20.302-.484v0s-6.074-2.557-7.033-2.073c-.959.484-3.041 3.99-3.041 3.99v0l4.804-.794c1.067.474 2.195.797 3.352.96a8.047 8.047 0 0 0 2.402-.485l24.613 4.96v0l7.197-7.197v0z"/></g><g><path fill="#2d5ee6" d="M392.947 212.964s-1.16 11.224 0 12.786c1.16 1.562 6 3.288 6.201 3.873.201.584 0 7.744.384 8.329 1.055.957 2.3 1.682 3.653 2.128h12.192s1.946-1.553 1.946-2.904c0-1.352-4.21-6.393-4.21-6.393s-1.991-15.29-3.928-19.18c-1.936-3.89-9.918-6.274-10.576-6.52-.657-.247-5.662 7.881-5.662 7.881z"/><path fill="none" stroke="#263238" stroke-linecap="round" stroke-linejoin="round" stroke-miterlimit="20" d="M392.947 212.964v0s-1.16 11.224 0 12.786c1.16 1.562 6 3.288 6.201 3.873.201.584 0 7.744.384 8.329 1.055.957 2.3 1.682 3.653 2.128h12.192v0s1.946-1.553 1.946-2.904c0-1.352-4.21-6.393-4.21-6.393v0s-1.991-15.29-3.928-19.18c-1.936-3.89-9.918-6.274-10.576-6.52-.657-.247-5.662 7.881-5.662 7.881v0z"/></g><g><path fill="#2d5ee6" d="M399.303 202.735l-8.566 8.384 1.643 4.557 9.115-10.21z"/><path fill="none" stroke="#263238" stroke-linecap="round" stroke-linejoin="round" stroke-miterlimit="20" d="M399.303 202.735v0l-8.566 8.384v0l1.643 4.557v0l9.115-10.21v0z"/></g><g><path fill="#2d5ee6" d="M399.303 210.023l-8.356 14.869-15.718-.64s-6.74-1.46-7.836-1.644c-1.096-.182-4.202 3.471-4.202 3.471h10.96l19.9 5.927 12.376-15.05"/><path fill="none" stroke="#263238" stroke-linecap="round" stroke-linejoin="round" stroke-miterlimit="20" d="M399.303 210.023v0l-8.356 14.869v0l-15.718-.64v0s-6.74-1.46-7.836-1.644c-1.096-.182-4.202 3.471-4.202 3.471v0h10.96v0l19.9 5.927v0l12.376-15.05v0"/></g><g><path fill="#fff" d="M375.21 226.326l.402-2.083h-.383s-6.74-1.461-7.836-1.644c-1.096-.182-4.202 3.47-4.202 3.47h10.96z"/><path fill="none" stroke="#263238" stroke-linecap="round" stroke-linejoin="round" stroke-miterlimit="20" d="M375.21 226.326v0l.402-2.083v0h-.383v0s-6.74-1.461-7.836-1.644c-1.096-.182-4.202 3.47-4.202 3.47v0h10.96v0z"/></g><g><path fill="#263238" d="M385.942 190.698s9.489 11.115 13.17 11.224c6.575.192 5.224-9.873 3.096-12.393-1.316-1.599-15.07-7.16-16.266 1.169z"/><path fill="none" stroke="#263238" stroke-linecap="round" stroke-linejoin="round" stroke-miterlimit="20" d="M385.942 190.698v0s9.489 11.115 13.17 11.224c6.575.192 5.224-9.873 3.096-12.393-1.316-1.599-15.07-7.16-16.266 1.169z"/></g><g><path fill="#263238" d="M395.851 194.972s.968 4.649-.575 7.937c-1.544 3.287-4.074 2.904-3.49 3.488.585.585 4.257 3.873 7.746 2.128 3.488-1.744 4.676-8.73 4.676-11.635"/><path fill="none" stroke="#263238" stroke-linecap="round" stroke-linejoin="round" stroke-miterlimit="20" d="M395.851 194.972v0s.968 4.649-.575 7.937c-1.544 3.287-4.074 2.904-3.49 3.488.585.585 4.257 3.873 7.746 2.128 3.488-1.744 4.676-8.73 4.676-11.635"/></g><g><path fill="#263238" d="M416.574 238.135l-17.042-.192-26.486 7.58c2.119 1.151 6.978 4.393 10.402 6.722.174-.365 5.005.439 5.48.439l26.093-1.087s6.84-6.53 1.553-13.462z"/></g><g><path fill="#263238" d="M413.222 286.567v-24.559h3.462v-3.288h-8.933v3.288h3.462v24.23l-16.778 4.366v1.279h1.818l14.96-2.813v2.813h2.01v-2.576l13.671 2.576h1.827v-1.28z"/></g><g><path fill="none" stroke="#263238" stroke-linecap="round" stroke-linejoin="round" stroke-miterlimit="20" stroke-width="2" d="M403.55 258.903v0h26.632v0l2.576-4.238a11.79 11.79 0 0 0 .858-10.548l-1.616-4v0"/></g><g><path fill="#b5b5b5" d="M396.287 257.99a2.4 2.4 0 0 1-2.4-2.4v-2.132a2.4 2.4 0 0 1 2.4-2.4h27.486a2.4 2.4 0 0 1 2.4 2.4v2.132a2.4 2.4 0 0 1-2.4 2.4z"/><path fill="none" stroke="#263238" stroke-linecap="round" stroke-linejoin="round" stroke-miterlimit="20" d="M396.287 257.99a2.4 2.4 0 0 1-2.4-2.4v-2.132a2.4 2.4 0 0 1 2.4-2.4h27.486a2.4 2.4 0 0 1 2.4 2.4v2.132a2.4 2.4 0 0 1-2.4 2.4z"/></g><g><path fill="#b5b5b5" d="M425.725 248.052a1.598 1.598 0 0 1-1.376-1.792l2.595-19.762a1.598 1.598 0 0 1 1.792-1.376l2.61.343a1.598 1.598 0 0 1 1.375 1.792l-2.595 19.762a1.598 1.598 0 0 1-1.792 1.376z"/><path fill="none" stroke="#263238" stroke-linecap="round" stroke-linejoin="round" stroke-miterlimit="20" d="M425.725 248.052a1.598 1.598 0 0 1-1.376-1.792l2.595-19.762a1.598 1.598 0 0 1 1.792-1.376l2.61.343a1.598 1.598 0 0 1 1.375 1.792l-2.595 19.762a1.598 1.598 0 0 1-1.792 1.376z"/></g><g><path fill="#fff" d="M329.828 227.239l-2.931-15.745h-1.498l2.932 15.745h-5.79v1.078h7.488z"/><path fill="none" stroke="#263238" stroke-linecap="round" stroke-linejoin="round" stroke-miterlimit="20" stroke-width=".75" d="M329.828 227.239v0l-2.931-15.745v0h-1.498v0l2.932 15.745v0h-5.79v1.078h5.99v0h1.498v0z"/></g><g><path fill="#fff" d="M321.216 221.184l1.635.31 2.776-21.636-1.635-.32z"/><path fill="none" stroke="#263238" stroke-linecap="round" stroke-linejoin="round" stroke-miterlimit="20" stroke-width=".75" d="M321.216 221.184v0l1.635.31v0l2.776-21.636v0l-1.635-.32v0z"/></g><g><path fill="#fff" d="M325.399 200.99l1.498 2.494-2.33 16.996-1.716 1.014z"/><path fill="none" stroke="#263238" stroke-linecap="round" stroke-linejoin="round" stroke-miterlimit="20" stroke-width=".75" d="M325.399 200.99v0l1.498 2.494v0l-2.33 16.996v0l-1.716 1.014v0z"/></g><g><path fill="#fff" d="M304.877 228.225v-.803h13.919v.803z"/><path fill="none" stroke="#263238" stroke-linecap="round" stroke-linejoin="round" stroke-miterlimit="20" stroke-width=".75" d="M304.877 228.225v0-.803 0h13.919v.803z"/></g><g><path fill="#fff" d="M347.665 227.239l2.941-15.745h1.498l-2.932 15.745h5.79v1.078H347.473z"/><path fill="none" stroke="#263238" stroke-linecap="round" stroke-linejoin="round" stroke-miterlimit="20" stroke-width=".75" d="M347.665 227.239v0l2.941-15.745v0h1.498v0l-2.932 15.745v0h5.79v1.078h-5.99v0h-1.499v0z"/></g><g><path fill="#fff" d="M356.287 221.184l-1.635.31-2.776-21.636 1.634-.32z"/><path fill="none" stroke="#263238" stroke-linecap="round" stroke-linejoin="round" stroke-miterlimit="20" stroke-width=".75" d="M356.287 221.184v0l-1.635.31v0l-2.776-21.636v0l1.634-.32v0z"/></g><g><path fill="#fff" d="M352.104 200.99l-1.498 2.494 2.329 16.996 1.717 1.014z"/><path fill="none" stroke="#263238" stroke-linecap="round" stroke-linejoin="round" stroke-miterlimit="20" stroke-width=".75" d="M352.104 200.99v0l-1.498 2.494v0l2.329 16.996v0l1.717 1.014v0z"/></g><g><path fill="#fff" d="M372.626 227.422v.803h-13.919v-.803z"/><path fill="none" stroke="#263238" stroke-linecap="round" stroke-linejoin="round" stroke-miterlimit="20" stroke-width=".75" d="M372.626 227.422v.803h-13.919v0-.803 0z"/></g><g><path fill="#fff" d="M298.776 293.563v-61.904h87.951v61.904z"/><path fill="none" stroke="#263238" stroke-linecap="round" stroke-linejoin="round" stroke-miterlimit="20" d="M298.776 293.563v0-61.904 0h87.951v61.904z"/></g><g><path fill="#fff" d="M294.274 293.572v-42.304h42.596v42.304z"/><path fill="none" stroke="#263238" stroke-linecap="round" stroke-linejoin="round" stroke-miterlimit="20" d="M294.274 293.572v0-42.304 0h42.596v42.304z"/></g><g><path fill="#fff" d="M349.766 293.572v-42.304h42.596v42.304z"/><path fill="none" stroke="#263238" stroke-linecap="round" stroke-linejoin="round" stroke-miterlimit="20" d="M349.766 293.572v0-42.304 0h42.596v42.304z"/></g><g><path fill="#fff" d="M297.086 231.952v-4.056h91.33v4.056z"/><path fill="none" stroke="#263238" stroke-linecap="round" stroke-linejoin="round" stroke-miterlimit="20" d="M297.086 231.952v0-4.056 0h91.33v4.056z"/></g></g><g><g><path fill="#b5b5b5" d="M131.276 247.98a4 4 0 0 1-4-4v-15.033a4 4 0 0 1 4-4h17.28a4 4 0 0 1 4 4v15.033a4 4 0 0 1-4 4z"/><path fill="none" stroke="#263238" stroke-linecap="round" stroke-linejoin="round" stroke-miterlimit="20" d="M131.276 247.98a4 4 0 0 1-4-4v-15.033a4 4 0 0 1 4-4h17.28a4 4 0 0 1 4 4v15.033a4 4 0 0 1-4 4z"/></g><g><path fill="#263238" d="M142.364 191.858s3.653-2.658 6.54.41c2.885 3.07.812 4.896.611 7.554-.201 2.657 4.904 4.082 3.882 7.753-1.023 3.672-4.905 4.092-4.695 5.718.21 1.625 2.037 1.826-.21 3.653s-7.553 1.635-10.21-1.827c-2.658-3.461 1.022-6.329 1.826-9.598.804-3.27-1.827-6.942-2.046-9.6-.219-2.657 4.302-4.063 4.302-4.063z"/><path fill="none" stroke="#263238" stroke-linecap="round" stroke-linejoin="round" stroke-miterlimit="20" d="M142.364 191.858v0s3.653-2.658 6.54.41c2.885 3.07.812 4.896.611 7.554-.201 2.657 4.904 4.082 3.882 7.753-1.023 3.672-4.905 4.092-4.695 5.718.21 1.625 2.037 1.826-.21 3.653s-7.553 1.635-10.21-1.827c-2.658-3.461 1.022-6.329 1.826-9.598.804-3.27-1.827-6.942-2.046-9.6-.219-2.657 4.302-4.063 4.302-4.063v0z"/></g><g><path fill="#fff" d="M150.739 235.842l-2.357-21.563s-11.114-4.046-14.384-4.046c-.822 0-10.896 4.046-10.896 4.046l-4.493 13.106.164.22a4.457 4.457 0 0 0 6.393.702l.457-.374 2.694 8.074 15.289-.293 1.763.128z"/><path fill="none" stroke="#263238" stroke-linecap="round" stroke-linejoin="round" stroke-miterlimit="20" d="M150.739 235.842v0l-2.357-21.563v0s-11.114-4.046-14.384-4.046c-.822 0-10.896 4.046-10.896 4.046v0l-4.493 13.106v0l.164.22a4.457 4.457 0 0 0 6.393.702l.457-.374v0l2.694 8.074v0l15.289-.293v0l1.763.128v0z"/></g><g><path fill="#fff" d="M125.349 227.476l.484-8.667"/><path fill="none" stroke="#263238" stroke-linecap="round" stroke-linejoin="round" stroke-miterlimit="20" d="M125.349 227.476l.484-8.667"/></g><g><path fill="#fff" d="M144.446 234.217l-.648-14.586"/><path fill="none" stroke="#263238" stroke-linecap="round" stroke-linejoin="round" stroke-miterlimit="20" d="M144.446 234.217l-.648-14.586"/></g><g><path fill="#fff" d="M135.02 206.763s-3.269.813-4.09 2.246c-.823 1.434-2.448 8.987-2.448 8.987l7.15-3.068 5.718 4.703s1.425-6.54.402-9.197c-1.023-2.658-4.694-4.502-6.731-3.671z"/><path fill="none" stroke="#263238" stroke-linecap="round" stroke-linejoin="round" stroke-miterlimit="20" d="M135.02 206.763s-3.269.813-4.09 2.246c-.823 1.434-2.448 8.987-2.448 8.987v0l7.15-3.068v0l5.718 4.703v0s1.425-6.54.402-9.197c-1.023-2.658-4.694-4.502-6.731-3.671z"/></g><g><path fill="#fff" d="M134.199 205.128s-.813 13.07.612 12.256c1.425-.812 5.315-11.873 5.315-11.873z"/><path fill="none" stroke="#263238" stroke-linecap="round" stroke-linejoin="round" stroke-miterlimit="20" d="M134.199 205.128v0s-.813 13.07.612 12.256c1.425-.812 5.315-11.873 5.315-11.873v0z"/></g><g><path fill="#fff" d="M130.363 197.392s-1.964-1.826-2.292.868c-.33 2.694 2.74 3.279 2.74 3.279z"/><path fill="none" stroke="#263238" stroke-linecap="round" stroke-linejoin="round" stroke-miterlimit="20" d="M130.363 197.392v0s-1.964-1.826-2.292.868c-.33 2.694 2.74 3.279 2.74 3.279v0z"/></g><g><path fill="#fff" d="M142.766 197.392s1.963-1.826 2.292.868c.329 2.694-2.74 3.279-2.74 3.279z"/><path fill="none" stroke="#263238" stroke-linecap="round" stroke-linejoin="round" stroke-miterlimit="20" d="M142.766 197.392v0s1.963-1.826 2.292.868c.329 2.694-2.74 3.279-2.74 3.279v0z"/></g><g><path fill="#fff" d="M143.35 197.036c0 4.566-2.977 10.339-6.649 10.339-3.671 0-6.649-5.754-6.649-10.339 0-4.585 2.978-8.32 6.65-8.32 3.67 0 6.648 3.726 6.648 8.32z"/><path fill="none" stroke="#263238" stroke-linecap="round" stroke-linejoin="round" stroke-miterlimit="20" d="M143.35 197.036c0 4.566-2.977 10.339-6.649 10.339-3.671 0-6.649-5.754-6.649-10.339 0-4.585 2.978-8.32 6.65-8.32 3.67 0 6.648 3.726 6.648 8.32z"/></g><g><path fill="#263238" d="M141.606 191.447a3.59 3.59 0 0 0-.292 3.927 3.808 3.808 0 0 0 2.018 2.137v-.475a9.49 9.49 0 0 0-1.726-5.59z"/><path fill="none" stroke="#263238" stroke-linecap="round" stroke-linejoin="round" stroke-miterlimit="20" d="M141.606 191.447a3.59 3.59 0 0 0-.292 3.927 3.808 3.808 0 0 0 2.018 2.137v-.475a9.49 9.49 0 0 0-1.726-5.59z"/></g><g><path fill="#263238" d="M141.587 191.41a6.11 6.11 0 0 0-4.886-2.694c-3.653 0-6.649 3.726-6.649 8.32a29.82 29.82 0 0 0 10.74-5.014c.266-.192.53-.402.795-.612z"/><path fill="none" stroke="#263238" stroke-linecap="round" stroke-linejoin="round" stroke-miterlimit="20" d="M141.587 191.41a6.11 6.11 0 0 0-4.886-2.694c-3.653 0-6.649 3.726-6.649 8.32a29.82 29.82 0 0 0 10.74-5.014c.266-.192.53-.402.795-.612z"/></g><g><path fill="#fff" d="M121.413 222.983s-3.37-.84-4.777.283a7.142 7.142 0 0 0-1.964 3.37h5.334l2.247-.84s.283 1.397 1.973.274c1.69-1.124-2.813-3.087-2.813-3.087z"/><path fill="none" stroke="#263238" stroke-linecap="round" stroke-linejoin="round" stroke-miterlimit="20" d="M121.413 222.983v0s-3.37-.84-4.777.283a7.142 7.142 0 0 0-1.964 3.37h5.334v0l2.247-.84v0s.283 1.397 1.973.274c1.69-1.124-2.813-3.087-2.813-3.087v0z"/></g><g><path fill="#263238" d="M136.81 287.946v-24.568h3.462v-5.014h-8.94v5.014h3.47v24.24l-16.778 4.365v1.279h1.818l14.96-2.813v2.813h2.009v-2.576l13.672 2.576h1.827v-1.279z"/></g><g><path fill="#b5b5b5" d="M121.32 259.369a2.4 2.4 0 0 1-2.4-2.4v-2.132a2.4 2.4 0 0 1 2.4-2.4h27.485a2.4 2.4 0 0 1 2.4 2.4v2.132a2.4 2.4 0 0 1-2.4 2.4z"/><path fill="none" stroke="#263238" stroke-linecap="round" stroke-linejoin="round" stroke-miterlimit="20" d="M121.32 259.369a2.4 2.4 0 0 1-2.4-2.4v-2.132a2.4 2.4 0 0 1 2.4-2.4h27.485a2.4 2.4 0 0 1 2.4 2.4v2.132a2.4 2.4 0 0 1-2.4 2.4z"/></g><g><path fill="#263238" d="M128.28 236.007s-3.022 7.534-5.48 7.918c-10.959 1.744-14.128 6.503-14.128 6.503a5.005 5.005 0 0 0 .292 3.461c.914 1.434 11.243 32.587 11.243 32.587l-5.763 6.913h2.302s4.621-.858 5.48-2.301c.858-1.443 2.018-2.594 2.31-3.754.292-1.16.868-1.443-.292-2.593a5.562 5.562 0 0 0-2.302-1.443l-3.023-28.67 11.097 30.688s4.375 6.941 4.786 7.946c.41 1.004 3.863-.448 1.826-4.192a15.9 15.9 0 0 0-4.037-5.197l-4.904-30.276 17.307-1.15a4.146 4.146 0 0 0 2.594-4.038c0-3.178-4.037-12.695-4.037-12.695z"/><path fill="none" stroke="#263238" stroke-linecap="round" stroke-linejoin="round" stroke-miterlimit="20" d="M128.28 236.007v0s-3.022 7.534-5.48 7.918c-10.959 1.744-14.128 6.503-14.128 6.503a5.005 5.005 0 0 0 .292 3.461c.914 1.434 11.243 32.587 11.243 32.587v0l-5.763 6.913v0h2.302v0s4.621-.858 5.48-2.301c.858-1.443 2.018-2.594 2.31-3.754.292-1.16.868-1.443-.292-2.593a5.562 5.562 0 0 0-2.302-1.443l-3.023-28.67v0l11.097 30.688v0s4.375 6.941 4.786 7.946c.41 1.004 3.863-.448 1.826-4.192a15.9 15.9 0 0 0-4.037-5.197l-4.904-30.276v0l17.307-1.15a4.146 4.146 0 0 0 2.594-4.038c0-3.178-4.037-12.695-4.037-12.695v0z"/></g><g><path fill="#fff" d="M144.446 234.244l-12.923 7.863-5.334.85-2.804 2.247s6.174.785 7.864.219c.93-.28 1.79-.757 2.52-1.398l14.33-5.06s2.804-2.53 2.53-3.936c-.274-1.406-6.183-1.653-6.183-.785z"/><path fill="none" stroke="#263238" stroke-linecap="round" stroke-linejoin="round" stroke-miterlimit="20" d="M144.446 234.244v0l-12.923 7.863v0l-5.334.85v0l-2.804 2.247v0s6.174.785 7.864.219c.93-.28 1.79-.757 2.52-1.398l14.33-5.06v0s2.804-2.53 2.53-3.936c-.274-1.406-6.183-1.653-6.183-.785z"/></g><g><path fill="#fff" d="M108.964 253.89c.914 1.433 10.549 29.581 10.549 29.581l-1.827 7.151-3.214 2.74h2.301s4.621-.858 5.48-2.301c.858-1.443 2.018-2.594 2.31-3.754.293-1.16.868-1.443-.292-2.594a5.562 5.562 0 0 0-2.301-1.443l-3.023-28.668 11.096 30.686s4.375 6.942 4.786 7.946c.411 1.005 3.863-.447 1.827-4.192a15.901 15.901 0 0 0-4.037-5.197l-4.905-30.276.704-.045s-.722-2.886-1.562-3.124c-13.088-3.717-18.175 0-18.175 0a5.005 5.005 0 0 0 .283 3.49z"/><path fill="none" stroke="#263238" stroke-linecap="round" stroke-linejoin="round" stroke-miterlimit="20" d="M108.964 253.89c.914 1.433 10.549 29.581 10.549 29.581v0l-1.827 7.151v0l-3.214 2.74v0h2.301v0s4.621-.858 5.48-2.301c.858-1.443 2.018-2.594 2.31-3.754.293-1.16.868-1.443-.292-2.594a5.562 5.562 0 0 0-2.301-1.443l-3.023-28.668v0l11.096 30.686v0s4.375 6.942 4.786 7.946c.411 1.005 3.863-.447 1.827-4.192a15.901 15.901 0 0 0-4.037-5.197l-4.905-30.276v0l.704-.045v0s-.722-2.886-1.562-3.124c-13.088-3.717-18.175 0-18.175 0a5.005 5.005 0 0 0 .283 3.49z"/></g><g><path fill="#fff" d="M118.92 254.629s-2.202-4.439-2.028-5.306"/><path fill="none" stroke="#263238" stroke-linecap="round" stroke-linejoin="round" stroke-miterlimit="20" d="M118.92 254.629s-2.202-4.439-2.028-5.306"/></g><g><path fill="#263238" d="M200.368 240.537l-21.92 6.457a1.827 1.827 0 0 0-1.077 2.657l17.736 36.99-7.407 6.968 7.964-1.7 7.151-2.913-1.06-4.52-12.886-31.107a1.105 1.105 0 0 1 1.041-1.498h27.07s5.48-5.106.183-12.038z"/><path fill="none" stroke="#263238" stroke-linecap="round" stroke-linejoin="round" stroke-miterlimit="20" d="M200.368 240.537v0l-21.92 6.457a1.827 1.827 0 0 0-1.077 2.657l17.736 36.99v0l-7.407 6.968v0l7.964-1.7v0l7.151-2.913v0l-1.06-4.52v0l-12.886-31.107a1.105 1.105 0 0 1 1.041-1.498h27.07v0s5.48-5.106.183-12.038z"/></g><g><path fill="#fff" d="M200.541 211.685l-14.357 8.44-3.717 3.844 2.329 1.699 14.494-2.046z"/><path fill="none" stroke="#263238" stroke-linecap="round" stroke-linejoin="round" stroke-miterlimit="20" stroke-width=".75" d="M200.541 211.685v0l-14.357 8.44v0l-3.717 3.844v0l2.329 1.699v0l14.494-2.046v0z"/></g><g><path fill="#fff" d="M188.522 210.909s-7.544 10.485-7.562 11.471c-.018.987 1.827 2.53 3.014 3.178 1.187.649 3.452-1.086 3.452-1.086l3.535-12.093z"/><path fill="none" stroke="#263238" stroke-linecap="round" stroke-linejoin="round" stroke-miterlimit="20" stroke-width=".75" d="M188.522 210.909v0s-7.544 10.485-7.562 11.471c-.018.987 1.827 2.53 3.014 3.178 1.187.649 3.452-1.086 3.452-1.086v0l3.535-12.093v0z"/></g><g><path fill="#fff" d="M198.221 212.626l-1.04 24.595c-.033.835.266 1.65.83 2.265a3.17 3.17 0 0 0 2.357 1.05h15.124a3.187 3.187 0 0 0 2.904-1.899l.192-.411a3.224 3.224 0 0 0 .192-2.01c-1.178-5.04-6.293-24.412-7.425-26.485-1.279-2.375-5.654-4.019-5.654-4.019z"/><path fill="none" stroke="#263238" stroke-linecap="round" stroke-linejoin="round" stroke-miterlimit="20" d="M198.221 212.626v0l-1.04 24.595c-.033.835.266 1.65.83 2.265v0a3.17 3.17 0 0 0 2.357 1.05h15.124a3.187 3.187 0 0 0 2.904-1.899l.192-.411a3.224 3.224 0 0 0 .192-2.01c-1.178-5.04-6.293-24.412-7.425-26.485-1.279-2.375-5.654-4.019-5.654-4.019v0z"/></g><g><path fill="#fff" d="M193.947 206.817l.174-2.064-1.507-.347-.704 1.316-2.328.602-1.115 4.95 2.576 1.233 4.018-4.32z"/><path fill="none" stroke="#263238" stroke-linecap="round" stroke-linejoin="round" stroke-miterlimit="20" stroke-width=".75" d="M193.947 206.817v0l.174-2.064v0l-1.507-.347v0l-.704 1.316v0l-2.328.602v0l-1.115 4.95v0l2.576 1.233v0l4.018-4.32v0z"/></g><g><path fill="#fff" d="M193.947 206.845l-3.279-.238-.182.914 1.826.502s-1.406.959-1.543 1.498"/><path fill="none" stroke="#263238" stroke-linecap="round" stroke-linejoin="round" stroke-miterlimit="20" stroke-width=".75" d="M193.947 206.845v0l-3.279-.238v0l-.182.914v0l1.826.502v0s-1.406.959-1.543 1.498"/></g><g><path fill="#fff" d="M194.422 205.146l2.914 1.297 2.11 4.566 5.835-5.671-1.616-3.726s2.1-3.078 1.616-5.836c-.484-2.759-5.671-5.681-8.43-3.087-2.758 2.593-2.429 12.457-2.429 12.457z"/><path fill="none" stroke="#263238" stroke-linecap="round" stroke-linejoin="round" stroke-miterlimit="20" d="M194.422 205.146v0l2.914 1.297v0l2.11 4.566v0l5.835-5.671v0l-1.616-3.726v0s2.1-3.078 1.616-5.836c-.484-2.759-5.671-5.681-8.43-3.087-2.758 2.593-2.429 12.457-2.429 12.457v0z"/></g><g><path fill="#263238" d="M193.774 192.177s-1.297-1.616-1.297-2.74c0-1.123 2.594-2.43 3.89-2.43 1.297 0 6.969.33 8.914 2.11a8.439 8.439 0 0 1 2.274 7.782c-.648 2.74-2.593 5.188-4.566 5.352-1.973.164-3.242-2.11-3.571-2.923a47.231 47.231 0 0 0-3.571-5.836 4.494 4.494 0 0 0-2.073-1.315z"/><path fill="none" stroke="#263238" stroke-linecap="round" stroke-linejoin="round" stroke-miterlimit="20" d="M193.774 192.177v0s-1.297-1.616-1.297-2.74c0-1.123 2.594-2.43 3.89-2.43 1.297 0 6.969.33 8.914 2.11a8.439 8.439 0 0 1 2.274 7.782c-.648 2.74-2.593 5.188-4.566 5.352-1.973.164-3.242-2.11-3.571-2.923a47.231 47.231 0 0 0-3.571-5.836 4.494 4.494 0 0 0-2.073-1.315z"/></g><g><path fill="#fff" d="M194.093 191.045l-1.461 4.374v1.142l-2.137 2.064 1.616 1.945-.164 4.22 3.653.265a4.055 4.055 0 0 0 4.074-2.576l.858-2.228a2.329 2.329 0 0 0 1.461-2.274c0-1.827.165-2.43-.812-2.43a9.188 9.188 0 0 0-2.101.32l-.977-.484.164-1.617-1.461-1.141-.165-1.617z"/><path fill="none" stroke="#263238" stroke-linecap="round" stroke-linejoin="round" stroke-miterlimit="20" d="M194.093 191.045v0l-1.461 4.374v1.142l-2.137 2.064v0l1.616 1.945v0l-.164 4.22v0l3.653.265a4.055 4.055 0 0 0 4.074-2.576l.858-2.228a2.329 2.329 0 0 0 1.461-2.274c0-1.827.165-2.43-.812-2.43a9.188 9.188 0 0 0-2.101.32l-.977-.484v0l.164-1.617v0l-1.461-1.141v0l-.165-1.617v0z"/></g><g><path fill="#fff" d="M204.788 202.963l-8.567 8.384 1.635 4.567 9.124-10.22z"/><path fill="none" stroke="#263238" stroke-linecap="round" stroke-linejoin="round" stroke-miterlimit="20" d="M204.788 202.963v0l-8.567 8.384v0l1.635 4.567v0l9.124-10.22v0z"/></g><g><path fill="#fff" d="M204.788 210.26l-6.923 13.855-17.152.366s-6.749-1.462-7.836-1.644c-1.087-.183-4.201 3.47-4.201 3.47h10.96l21.334 4.923 10.96-14.047"/><path fill="none" stroke="#263238" stroke-linecap="round" stroke-linejoin="round" stroke-miterlimit="20" d="M204.788 210.26v0l-6.923 13.855v0l-17.152.366v0s-6.749-1.462-7.836-1.644c-1.087-.183-4.201 3.47-4.201 3.47v0h10.96v0l21.334 4.923v0l10.96-14.047v0"/></g><g><path fill="#fff" d="M180.695 226.554l.393-2.082h-.375s-6.749-1.462-7.836-1.644c-1.087-.183-4.201 3.47-4.201 3.47h10.96z"/><path fill="none" stroke="#263238" stroke-linecap="round" stroke-linejoin="round" stroke-miterlimit="20" d="M180.695 226.554v0l.393-2.082v0h-.375v0s-6.749-1.462-7.836-1.644c-1.087-.183-4.201 3.47-4.201 3.47v0h10.96v0z"/></g><g><path fill="#263238" d="M208.441 286.805v-24.568h3.462v-3.28h-8.932v3.28h3.461v24.23l-16.777 4.374v1.279h1.826l14.951-2.822v2.822h2.01v-2.576l13.68 2.576h1.818v-1.279z"/></g><g><path fill="none" stroke="#263238" stroke-linecap="round" stroke-linejoin="round" stroke-miterlimit="20" stroke-width="2" d="M198.77 259.131v0H225.4v0l2.576-4.237a11.79 11.79 0 0 0 .858-10.549l-1.607-3.991v0"/></g><g><path fill="#b5b5b5" d="M191.507 258.227a2.4 2.4 0 0 1-2.4-2.4v-2.132a2.4 2.4 0 0 1 2.4-2.4h27.485a2.4 2.4 0 0 1 2.4 2.4v2.132a2.4 2.4 0 0 1-2.4 2.4z"/><path fill="none" stroke="#263238" stroke-linecap="round" stroke-linejoin="round" stroke-miterlimit="20" d="M191.507 258.227a2.4 2.4 0 0 1-2.4-2.4v-2.132a2.4 2.4 0 0 1 2.4-2.4h27.485a2.4 2.4 0 0 1 2.4 2.4v2.132a2.4 2.4 0 0 1-2.4 2.4z"/></g><g><path fill="#b5b5b5" d="M222.066 248.102a1.6 1.6 0 0 1-1.381-1.793l2.567-19.795a1.6 1.6 0 0 1 1.793-1.381l2.614.339a1.6 1.6 0 0 1 1.38 1.792l-2.567 19.796a1.6 1.6 0 0 1-1.792 1.38z"/><path fill="none" stroke="#263238" stroke-linecap="round" stroke-linejoin="round" stroke-miterlimit="20" d="M222.066 248.102a1.6 1.6 0 0 1-1.381-1.793l2.567-19.795a1.6 1.6 0 0 1 1.793-1.381l2.614.339a1.6 1.6 0 0 1 1.38 1.792l-2.567 19.796a1.6 1.6 0 0 1-1.792 1.38z"/></g><g><path fill="#fff" d="M165.708 226.335h-7.964l-4.311-12.449h7.955z"/><path fill="none" stroke="#263238" stroke-linecap="round" stroke-linejoin="round" stroke-miterlimit="20" stroke-width=".75" d="M165.708 226.335v0h-7.964v0l-4.311-12.449v0h7.955v0z"/></g><g><path fill="#fff" d="M157.744 226.335v-1.224h20.211v1.224z"/><path fill="none" stroke="#263238" stroke-linecap="round" stroke-linejoin="round" stroke-miterlimit="20" stroke-width=".75" d="M157.744 226.335v0-1.224 0h20.211v1.224z"/></g><g><path fill="#fff" d="M168.96 226.335v-1.224h8.995v1.224z"/><path fill="none" stroke="#263238" stroke-linecap="round" stroke-linejoin="round" stroke-miterlimit="20" stroke-width=".75" d="M168.96 226.335v0-1.224 0h8.995v1.224z"/></g><g><path fill="#fff" d="M98.936 225.065v-11.27h21.107v11.27z"/><path fill="none" stroke="#263238" stroke-linecap="round" stroke-linejoin="round" stroke-miterlimit="20" stroke-width=".75" d="M98.936 225.065v0-11.27 0h21.107v11.27z"/></g><g><path fill="#fff" d="M98.936 226.335v-1.115h33.318v1.115z"/><path fill="none" stroke="#263238" stroke-linecap="round" stroke-linejoin="round" stroke-miterlimit="20" stroke-width=".75" d="M98.936 226.335v0-1.115 0h33.318v1.115z"/></g><g><path fill="#fff" d="M119.878 226.335v-1.115h12.376v1.115z"/><path fill="none" stroke="#263238" stroke-linecap="round" stroke-linejoin="round" stroke-miterlimit="20" stroke-width=".75" d="M119.878 226.335v0-1.115 0h12.376v1.115z"/></g><g><path fill="#fff" d="M185.362 293.563h2.046l1.023-60.488h-4.092z"/><path fill="none" stroke="#263238" stroke-linecap="round" stroke-linejoin="round" stroke-miterlimit="20" d="M185.362 293.563v0h2.046v0l1.023-60.488v0h-4.092v0z"/></g><g><path fill="#fff" d="M90.826 293.563h2.046l1.014-60.488h-4.083z"/><path fill="none" stroke="#263238" stroke-linecap="round" stroke-linejoin="round" stroke-miterlimit="20" d="M90.826 293.563v0h2.046v0l1.014-60.488v0h-4.083v0z"/></g><g><path fill="#fff" d="M87.155 234.509v-6.74h103.934v6.74z"/><path fill="none" stroke="#263238" stroke-linecap="round" stroke-linejoin="round" stroke-miterlimit="20" d="M87.155 234.509v0-6.74 0h103.934v6.74z"/></g><g><path fill="#263238" d="M85.109 228.59v-2.474h107.76v2.475z"/><path fill="none" stroke="#263238" stroke-linecap="round" stroke-linejoin="round" stroke-miterlimit="20" d="M85.109 228.59v0-2.474 0h107.76v2.475z"/></g><g><path fill="#fff" d="M65.674 180.797l-11.088 4.622 5.544 30.742h22.422l1.844-29.354-10.028-5.91z"/><path fill="none" stroke="#263238" stroke-linecap="round" stroke-linejoin="round" stroke-miterlimit="20" d="M65.674 180.797v0l-11.088 4.622v0l5.544 30.742v0h22.422v0l1.844-29.354v0l-10.028-5.91v0z"/></g><g><path fill="#2d5ee6" d="M68.13 187.2l2.019 3.753-2.594 15.298 2.886 5.781 5.197-6.932-3.754-14.147 1.443-3.461-2.886-4.33z"/><path fill="none" stroke="#263238" stroke-linecap="round" stroke-linejoin="round" stroke-miterlimit="20" d="M68.13 187.2v0l2.019 3.753v0l-2.594 15.298v0l2.886 5.781v0l5.197-6.932v0l-3.754-14.147v0l1.443-3.461v0l-2.886-4.33v0z"/></g><g><path fill="#fff" d="M67.747 178.706s-1.653.183-2.028 1.105c-.374.923.192 9.772.192 9.772l4.786-2.74 4.566 2.74s-.557-5.9-1.826-8.667c-1.27-2.767-5.69-2.21-5.69-2.21z"/><path fill="none" stroke="#263238" stroke-linecap="round" stroke-linejoin="round" stroke-miterlimit="20" d="M67.747 178.706v0s-1.653.183-2.028 1.105c-.374.923.192 9.772.192 9.772v0l4.786-2.74v0l4.566 2.74v0s-.557-5.9-1.826-8.667c-1.27-2.767-5.69-2.21-5.69-2.21v0z"/></g><g><path fill="#fff" d="M67.062 176.633s-.228 2.31-.228 3.699c0 1.388 3.004 7.397 3.927 6.932.922-.466 3.233-4.165 3.233-4.165l1.16-1.388 2.31-2.083s-5.397-6.091-6.932-6.466c-1.534-.374-3.47 3.47-3.47 3.47z"/><path fill="none" stroke="#263238" stroke-linecap="round" stroke-linejoin="round" stroke-miterlimit="20" d="M67.062 176.633v0s-.228 2.31-.228 3.699c0 1.388 3.004 7.397 3.927 6.932.922-.466 3.233-4.165 3.233-4.165v0l1.16-1.388v0l2.31-2.083v0s-5.397-6.091-6.932-6.466c-1.534-.374-3.47 3.47-3.47 3.47v0z"/></g><g><path fill="#263238" d="M77.245 166.96s1.297-1.625 1.297-2.739c0-1.114-2.594-2.43-3.89-2.43-1.297 0-6.969.32-8.914 2.11a8.42 8.42 0 0 0-2.274 7.782c.648 2.74 2.593 5.187 4.566 5.352 1.973.164 3.242-2.11 3.571-2.923a45.803 45.803 0 0 1 3.562-5.836 4.457 4.457 0 0 1 2.082-1.315z"/><path fill="none" stroke="#263238" stroke-linecap="round" stroke-linejoin="round" stroke-miterlimit="20" d="M77.245 166.96v0s1.297-1.625 1.297-2.739c0-1.114-2.594-2.43-3.89-2.43-1.297 0-6.969.32-8.914 2.11a8.42 8.42 0 0 0-2.274 7.782c.648 2.74 2.593 5.187 4.566 5.352 1.973.164 3.242-2.11 3.571-2.923a45.803 45.803 0 0 1 3.562-5.836 4.457 4.457 0 0 1 2.082-1.315z"/></g><g><path fill="#fff" d="M76.935 165.828l1.461 4.375v1.133l2.11 2.11-1.626 1.945.165 4.22-3.654.264a4.046 4.046 0 0 1-4.073-2.576l-.913-2.228a2.338 2.338 0 0 1-1.38-2.274c0-1.781-.164-2.43.804-2.43a9.205 9.205 0 0 1 2.11.32l.977-.484-.164-1.626 1.461-1.132.155-1.617z"/><path fill="none" stroke="#263238" stroke-linecap="round" stroke-linejoin="round" stroke-miterlimit="20" d="M76.935 165.828v0l1.461 4.375v1.133l2.11 2.11v0l-1.626 1.945v0l.165 4.22v0l-3.654.264a4.046 4.046 0 0 1-4.073-2.576l-.913-2.228a2.338 2.338 0 0 1-1.38-2.274c0-1.781-.164-2.43.804-2.43a9.205 9.205 0 0 1 2.11.32l.977-.484v0l-.164-1.626v0l1.461-1.132v0l.155-1.617v0z"/></g><g><path fill="#263238" d="M60.13 216.16l-4.156 69.101h4.393l10.394-52.698h2.082l9.471 52.698 4.393-.237-4.155-68.863z"/><path fill="none" stroke="#263238" stroke-linecap="round" stroke-linejoin="round" stroke-miterlimit="20" d="M60.13 216.16v0l-4.156 69.101v0h4.393v0l10.394-52.698v0h2.082v0l9.471 52.698v0l4.393-.237v0l-4.155-68.863v0z"/></g><g><path fill="#fff" d="M54.586 185.419l-4.932 17.353-11.58-8.713-2.247 3.087 14.95 14.612 7.307-7.59s-2.493-14.22-3.498-18.75z"/><path fill="none" stroke="#263238" stroke-linecap="round" stroke-linejoin="round" stroke-miterlimit="20" d="M54.586 185.419v0l-4.932 17.353v0l-11.58-8.713v0l-2.247 3.087v0l14.95 14.612v0l7.307-7.59v0s-2.493-14.22-3.498-18.75z"/></g><g><path fill="#fff" d="M82.725 185.4l-9.809 18.02-16.768 8.22.785 2.877 22.212-4.412 7.023-11.48s2.95-12.366-3.443-13.224z"/><path fill="none" stroke="#263238" stroke-linecap="round" stroke-linejoin="round" stroke-miterlimit="20" d="M82.725 185.4v0l-9.809 18.02v0l-16.768 8.22v0l.785 2.877v0l22.212-4.412v0l7.023-11.48v0s2.95-12.366-3.443-13.224z"/></g><g><path fill="#fff" d="M38.074 194.059l-1.398-3.654-3.653-1.68-1.406.557 1.68 1.123-3.37-1.123-1.964-1.964-1.406.274 2.53 5.626 6.74 3.928z"/><path fill="none" stroke="#263238" stroke-linecap="round" stroke-linejoin="round" stroke-miterlimit="20" d="M38.074 194.059v0l-1.398-3.654v0l-3.653-1.68v0l-1.406.557v0l1.68 1.123v0l-3.37-1.123v0l-1.964-1.964v0l-1.406.274v0l2.53 5.626v0l6.74 3.928v0z"/></g><g><path fill="#fff" d="M56.148 211.64l-4.484-1.425-3.425 2.11-.302 1.48 1.864-.786-2.795 2.192-2.731.557-.539 1.324 6.083.996 6.996-3.453z"/><path fill="none" stroke="#263238" stroke-linecap="round" stroke-linejoin="round" stroke-miterlimit="20" d="M56.148 211.64v0l-4.484-1.425v0l-3.425 2.11v0l-.302 1.48v0l1.864-.786v0l-2.795 2.192v0l-2.731.557v0l-.539 1.324v0l6.083.996v0l6.996-3.453v0z"/></g><g><path fill="#263238" d="M55.974 285.261l-3.086 4.338-4.44 3.964h11.91l.01-8.302z"/><path fill="none" stroke="#263238" stroke-linecap="round" stroke-linejoin="round" stroke-miterlimit="20" d="M55.974 285.261v0l-3.086 4.338v0l-4.44 3.964v0h11.91v0l.01-8.302v0z"/></g><g><path fill="#263238" d="M86.707 285.024l3.087 4.575 4.439 3.964h-11.91l-.009-8.302z"/><path fill="none" stroke="#263238" stroke-linecap="round" stroke-linejoin="round" stroke-miterlimit="20" d="M86.707 285.024v0l3.087 4.575v0l4.439 3.964v0h-11.91v0l-.009-8.302v0z"/></g><g><path fill="#263238" d="M22.584 242.263v-79.366h4.146v79.366z"/><path fill="none" stroke="#263238" stroke-linecap="round" stroke-linejoin="round" stroke-miterlimit="20" d="M22.584 242.263v0-79.366 0h4.146v79.366z"/></g><g><path fill="#fff" d="M25.717 242.263v-79.366h4.146v79.366z"/><path fill="none" stroke="#263238" stroke-linecap="round" stroke-linejoin="round" stroke-miterlimit="20" d="M25.717 242.263v0-79.366 0h4.146v79.366z"/></g><g><path fill="#263238" d="M20.182 245.395v-3.132h11.48v3.132z"/><path fill="none" stroke="#263238" stroke-linecap="round" stroke-linejoin="round" stroke-miterlimit="20" d="M20.182 245.395v0-3.132 0h11.48v3.132z"/></g><g><path fill="#263238" d="M22.62 207.466L4.529 293.07h3.47l16.705-80.736z"/><path fill="none" stroke="#263238" stroke-linecap="round" stroke-linejoin="round" stroke-miterlimit="20" d="M22.62 207.466v0L4.529 293.07v0h3.47v0l16.705-80.736v0z"/></g><g><path fill="#263238" d="M25.927 243.824l9.562 48.543h3.489l-9.745-48.369z"/><path fill="none" stroke="#263238" stroke-linecap="round" stroke-linejoin="round" stroke-miterlimit="20" d="M25.927 243.824v0l9.562 48.543v0h3.489v0l-9.745-48.369v0z"/></g></g><g><g><path fill="#fff" d="M119.047 342.954l-4.146 2.439v20.732h14.512v-21.097l-4.758-1.946z"/><path fill="none" stroke="#263238" stroke-linecap="round" stroke-linejoin="round" stroke-miterlimit="20" d="M119.047 342.954v0l-4.146 2.439v20.732h14.512v0-21.097 0l-4.758-1.946v0z"/></g><g><path fill="#2d5ee6" d="M117.951 343.84V366.4h-16.704l4.63-17.198s11.097-5.635 12.074-5.36z"/><path fill="none" stroke="#263238" stroke-linecap="round" stroke-linejoin="round" stroke-miterlimit="20" d="M117.951 343.84V366.4h-16.704v0l4.63-17.198v0s11.097-5.635 12.074-5.36z"/></g><g><path fill="#fff" d="M109.896 366.244v-10.001"/><path fill="none" stroke="#263238" stroke-linecap="round" stroke-linejoin="round" stroke-miterlimit="20" d="M109.896 366.244v-10.001"/></g><g><path fill="#2d5ee6" d="M126.728 343.84V366.4h16.704l-4.64-17.198s-11.087-5.635-12.064-5.36z"/><path fill="none" stroke="#263238" stroke-linecap="round" stroke-linejoin="round" stroke-miterlimit="20" d="M126.728 343.84V366.4h16.704v0l-4.64-17.198v0s-11.087-5.635-12.064-5.36z"/></g><g><path fill="#fff" d="M134.774 366.244v-10.001"/><path fill="none" stroke="#263238" stroke-linecap="round" stroke-linejoin="round" stroke-miterlimit="20" d="M134.774 366.244v-10.001"/></g><g><path fill="#fff" d="M120.17 340.763s-1.954.246-2.438 1.46c-.484 1.215-2.32 11.344-2.32 11.344l4.64-2.32 2.192 1.461 2.685-1.707 4.502 3.909s-1.096-11.59-3.287-13.9c-2.192-2.312-5.973-.247-5.973-.247z"/><path fill="none" stroke="#263238" stroke-linecap="round" stroke-linejoin="round" stroke-miterlimit="20" d="M120.17 340.763v0s-1.954.246-2.438 1.46c-.484 1.215-2.32 11.344-2.32 11.344v0l4.64-2.32v0l2.192 1.461v0l2.685-1.707v0l4.502 3.909v0s-1.096-11.59-3.287-13.9c-2.192-2.312-5.973-.247-5.973-.247z"/></g><g><path fill="#fff" d="M119.65 340.278a90.11 90.11 0 0 0 .612 9.024c.493 2.922 1.954 3.772 2.804 2.922.85-.849 1.224-3.169 1.224-3.169l1.214-8.658z"/><path fill="none" stroke="#263238" stroke-linecap="round" stroke-linejoin="round" stroke-miterlimit="20" d="M119.65 340.278a90.11 90.11 0 0 0 .612 9.024c.493 2.922 1.954 3.772 2.804 2.922.85-.849 1.224-3.169 1.224-3.169v0l1.214-8.658v0z"/></g><g><path fill="#263238" d="M116.846 322.232a5.854 5.854 0 1 1 11.709 0 5.854 5.854 0 0 1-11.709 0z"/><path fill="none" stroke="#263238" stroke-linecap="round" stroke-linejoin="round" stroke-miterlimit="20" d="M116.846 322.232a5.854 5.854 0 1 1 11.709 0 5.854 5.854 0 0 1-11.709 0z"/></g><g><path fill="#fff" d="M115.75 330.762s-2.192-2.073-2.557.977c-.365 3.05 3.05 3.653 3.05 3.653z"/><path fill="none" stroke="#263238" stroke-linecap="round" stroke-linejoin="round" stroke-miterlimit="20" d="M115.75 330.762v0s-2.192-2.073-2.557.977c-.365 3.05 3.05 3.653 3.05 3.653v0z"/></g><g><path fill="#fff" d="M129.596 330.762s2.2-2.073 2.566.977c.366 3.05-3.05 3.653-3.05 3.653z"/><path fill="none" stroke="#263238" stroke-linecap="round" stroke-linejoin="round" stroke-miterlimit="20" d="M129.596 330.762v0s2.2-2.073 2.566.977c.366 3.05-3.05 3.653-3.05 3.653v0z"/></g><g><path fill="#fff" d="M130.217 330.37c0 5.123-3.325 11.552-7.425 11.552-4.101 0-7.435-6.393-7.435-11.553 0-5.16 3.325-9.288 7.435-9.288 4.11 0 7.425 4.155 7.425 9.288z"/><path fill="none" stroke="#263238" stroke-linecap="round" stroke-linejoin="round" stroke-miterlimit="20" d="M130.217 330.37c0 5.123-3.325 11.552-7.425 11.552-4.101 0-7.435-6.393-7.435-11.553 0-5.16 3.325-9.288 7.435-9.288 4.11 0 7.425 4.155 7.425 9.288z"/></g><g><path fill="#263238" d="M128.308 324.122a4 4 0 0 0-.329 4.384 4.347 4.347 0 0 0 2.247 2.402v-.539a10.613 10.613 0 0 0-1.918-6.247z"/><path fill="none" stroke="#263238" stroke-linecap="round" stroke-linejoin="round" stroke-miterlimit="20" d="M128.308 324.122a4 4 0 0 0-.329 4.384 4.347 4.347 0 0 0 2.247 2.402v-.539a10.613 10.613 0 0 0-1.918-6.247z"/></g><g><path fill="#263238" d="M128.29 324.095a6.859 6.859 0 0 0-5.48-3.014c-4.11 0-7.434 4.155-7.434 9.288a33.246 33.246 0 0 0 12.01-5.598z"/><path fill="none" stroke="#263238" stroke-linecap="round" stroke-linejoin="round" stroke-miterlimit="20" d="M128.29 324.095a6.859 6.859 0 0 0-5.48-3.014c-4.11 0-7.434 4.155-7.434 9.288a33.246 33.246 0 0 0 12.01-5.598z"/></g><g><path fill="#263238" d="M64.587 361.86v-21.59H95.84v21.59z"/><path fill="none" stroke="#263238" stroke-linecap="round" stroke-linejoin="round" stroke-miterlimit="20" d="M64.587 361.86v0-21.59 0H95.84v21.59z"/></g><g><path fill="#474747" d="M68.496 361.85v-15.827h22.202v15.828z"/><path fill="none" stroke="#263238" stroke-linecap="round" stroke-linejoin="round" stroke-miterlimit="20" d="M68.496 361.85v0-15.827 0h22.202v15.828z"/></g><g><path fill="#b5b5b5" d="M77.337 366.792v-10.896h4.32v10.896z"/><path fill="none" stroke="#263238" stroke-linecap="round" stroke-linejoin="round" stroke-miterlimit="20" d="M77.337 366.792v0-10.896 0h4.32v10.896z"/></g><g><path fill="#2d5ee6" d="M56.294 430.13v-62.288h118.638v62.287z"/><path fill="none" stroke="#263238" stroke-linecap="round" stroke-linejoin="round" stroke-miterlimit="20" d="M56.294 430.13v0-62.288 0h118.638v62.287z"/></g><g><path fill="#fff" d="M137.523 367.193v-7.772h31.911v7.772z"/><path fill="none" stroke="#263238" stroke-linecap="round" stroke-linejoin="round" stroke-miterlimit="20" d="M137.523 367.193v0-7.772 0h31.911v7.772z"/></g><g><path fill="#263238" d="M54.815 369.267v-2.978H177.7v2.978z"/><path fill="none" stroke="#263238" stroke-linecap="round" stroke-linejoin="round" stroke-miterlimit="20" d="M54.815 369.267v0-2.978 0H177.7v2.978z"/></g><g><path fill="#263238" d="M108.14 409.434a5.13 5.13 0 0 1-5.13-5.13v-16.235a5.13 5.13 0 0 1 5.13-5.13h16.234a5.13 5.13 0 0 1 5.13 5.13v16.235a5.13 5.13 0 0 1-5.13 5.13z"/></g><g><path fill="#fff" d="M119.743 411.433a4.93 4.93 0 0 1-6.972 0l-11.763-11.763a4.93 4.93 0 0 1 0-6.972l11.763-11.763a4.93 4.93 0 0 1 6.972 0l11.763 11.763a4.93 4.93 0 0 1 0 6.972z"/></g><g><path fill="#263238" d="M107.887 396.182a8.366 8.366 0 1 1 16.731 0 8.366 8.366 0 0 1-16.731 0z"/></g></g><g><g><path fill="#7d7d7d" d="M221.346 361.905H338.25a2.977 2.977 0 0 1 2.94 2.941v65.256H218.37v-65.256a2.968 2.968 0 0 1 2.977-2.94z"/><path fill="none" stroke="#263238" stroke-linecap="round" stroke-linejoin="round" stroke-miterlimit="20" d="M221.346 361.905v0H338.25a2.977 2.977 0 0 1 2.94 2.941v65.256H218.37v0-65.256a2.968 2.968 0 0 1 2.977-2.94z"/></g><g><path fill="#7d7d7d" d="M221.346 395.807H338.25a2.977 2.977 0 0 1 2.977 2.978v31.353H218.37v-31.353a2.968 2.968 0 0 1 2.977-2.978z"/><path fill="none" stroke="#263238" stroke-linecap="round" stroke-linejoin="round" stroke-miterlimit="20" d="M221.346 395.807v0H338.25a2.977 2.977 0 0 1 2.977 2.978v31.353H218.37v0-31.353a2.968 2.968 0 0 1 2.977-2.978z"/></g><g><path fill="none" stroke="#263238" stroke-linecap="round" stroke-linejoin="round" stroke-miterlimit="20" d="M218.131 404.703H341.19"/></g><g><path fill="#7d7d7d" d="M211.967 387.679h14.01a2.977 2.977 0 0 1 2.977 2.977v39.528H208.99v-39.573a2.968 2.968 0 0 1 2.978-2.932z"/><path fill="none" stroke="#263238" stroke-linecap="round" stroke-linejoin="round" stroke-miterlimit="20" d="M211.967 387.679v0h14.01a2.977 2.977 0 0 1 2.977 2.977v39.528H208.99v0-39.573a2.968 2.968 0 0 1 2.978-2.932z"/></g><g><path fill="#7d7d7d" d="M334.185 387.679h14.01a2.968 2.968 0 0 1 2.968 2.968v39.528h-19.946V390.61a2.968 2.968 0 0 1 2.968-2.932z"/><path fill="none" stroke="#263238" stroke-linecap="round" stroke-linejoin="round" stroke-miterlimit="20" d="M334.185 387.679v0h14.01a2.968 2.968 0 0 1 2.968 2.968v39.528h-19.946v0-39.564a2.968 2.968 0 0 1 2.968-2.932z"/></g><g><path fill="#7d7d7d" d="M364.88 364.673s-4.328 3.005-4.328 15.526v26.66h9.38v-43.264z"/><path fill="none" stroke="#263238" stroke-linecap="round" stroke-linejoin="round" stroke-miterlimit="20" d="M364.88 364.673v0s-4.328 3.005-4.328 15.526v26.66h9.38v0-43.264 0z"/></g><g><path fill="#7d7d7d" d="M367.85 361.905h10.164a2.977 2.977 0 0 1 2.978 2.978v65.255H364.88v-65.292a2.968 2.968 0 0 1 2.968-2.94z"/><path fill="none" stroke="#263238" stroke-linecap="round" stroke-linejoin="round" stroke-miterlimit="20" d="M367.85 361.905v0h10.164a2.977 2.977 0 0 1 2.978 2.978v65.255H364.88v0-65.292a2.968 2.968 0 0 1 2.968-2.94z"/></g><g><path fill="#7d7d7d" d="M324.568 387.679h53.446a2.977 2.977 0 0 1 2.978 2.977v39.528h-59.365v-39.573a2.968 2.968 0 0 1 2.94-2.932z"/><path fill="none" stroke="#263238" stroke-linecap="round" stroke-linejoin="round" stroke-miterlimit="20" d="M324.568 387.679h53.446a2.977 2.977 0 0 1 2.978 2.977v39.528h-59.365v0-39.573a2.968 2.968 0 0 1 2.94-2.932z"/></g></g><g><g><path fill="#263238" d="M154.913 323.748c0-1.325.585-1.827 1.507-1.827.923 0 1.507.511 1.507 1.827v9.973c0 1.324-.575 1.827-1.507 1.827-.931 0-1.507-.503-1.507-1.827zm-2.913 9.79c0 2.96 1.57 4.649 4.42 4.649 2.85 0 4.412-1.69 4.412-4.649v-9.617c0-2.959-1.553-4.658-4.412-4.658-2.858 0-4.42 1.7-4.42 4.658z"/></g><g><path fill="#263238" d="M196.667 331.109v2.457c0 2.959-1.48 4.648-4.338 4.648s-4.329-1.69-4.329-4.648v-9.617c0-2.969 1.48-4.658 4.33-4.658 2.849 0 4.337 1.69 4.337 4.658v1.826h-2.74v-2.027c0-1.316-.584-1.827-1.506-1.827-.923 0-1.507.502-1.507 1.827v10.046c0 1.324.584 1.827 1.507 1.827.922 0 1.506-.475 1.506-1.827v-2.64z"/></g><g><path fill="#263238" d="M215.667 331.109v2.457c0 2.959-1.48 4.648-4.338 4.648s-4.329-1.69-4.329-4.648v-9.617c0-2.969 1.48-4.658 4.33-4.658 2.849 0 4.337 1.69 4.337 4.658v1.826h-2.74v-2.027c0-1.316-.584-1.827-1.506-1.827-.923 0-1.507.502-1.507 1.827v10.046c0 1.324.584 1.827 1.507 1.827.922 0 1.506-.475 1.506-1.827v-2.64z"/></g><g><path fill="#263238" d="M219.904 323.748c0-1.325.585-1.827 1.507-1.827.923 0 1.507.511 1.507 1.827v10.046c0 1.324-.575 1.827-1.507 1.827-.931 0-1.507-.503-1.507-1.827zM217 333.566c0 2.959 1.562 4.648 4.411 4.648 2.85 0 4.412-1.69 4.412-4.648v-9.617c0-2.969-1.553-4.658-4.412-4.658-2.858 0-4.41 1.69-4.41 4.658z"/></g><g><path fill="#263238" d="M168.192 332.643l1.982-13.142h4.046v18.503h-2.74v-13.27l-2.01 13.27h-2.74l-2.191-13.078v13.078h-2.54v-18.503h4.047z"/></g><g><path fill="#263238" d="M233.192 332.643l1.982-13.142h4.046v18.503h-2.74v-13.27l-2.01 13.27h-2.74l-2.191-13.078v13.078h-2.54v-18.503h4.047z"/></g><g><path fill="#263238" d="M145.283 322.186c.923 0 1.425.42 1.425 1.744v2.74c0 1.315-.512 1.745-1.425 1.745h-1.37v-6.266zm4.338 1.89c0-2.959-1.434-4.575-4.338-4.575H141v18.503h2.913v-6.95h1.37c2.904 0 4.338-1.607 4.338-4.566v-2.412z"/></g><g><path fill="#263238" d="M245.283 322.186c.923 0 1.425.42 1.425 1.744v2.74c0 1.315-.512 1.745-1.425 1.745h-1.37v-6.266zm4.338 1.89c0-2.959-1.434-4.575-4.338-4.575H241v18.503h2.913v-6.95h1.37c2.904 0 4.338-1.607 4.338-4.566v-2.412z"/></g><g><path fill="#263238" d="M180.94 322.78l1.398 9.36h-2.795zm2.284-3.28h-4.256L176 338.005h2.667l.502-3.352h3.571l.502 3.352h2.932z"/></g><g><path fill="#263238" d="M255.94 322.78l1.398 9.36h-2.795zm2.284-3.28h-4.256L251 338.005h2.667l.502-3.352h3.571l.502 3.352h2.932z"/></g><g><path fill="#263238" d="M265.621 324.606v13.398H263v-18.503h3.653l2.987 11.078v-11.078h2.584v18.503h-2.986z"/></g><g><path fill="#263238" d="M276.653 331.876L273 319.501h3.014l2.22 8.439 2.218-8.44h2.74l-3.653 12.376v6.128h-2.886z"/></g><g><path fill="#263238" d="M298.043 347.54a5.13 5.13 0 0 1-5.13-5.13v-25.067a5.13 5.13 0 0 1 5.13-5.13h25.066a5.13 5.13 0 0 1 5.13 5.13v25.066a5.13 5.13 0 0 1-5.13 5.13z"/></g><g><path fill="#fff" d="M314.065 351.365a4.93 4.93 0 0 1-6.972 0l-18.008-18.008a4.93 4.93 0 0 1 0-6.972l18.008-18.008a4.93 4.93 0 0 1 6.972 0l18.008 18.008a4.93 4.93 0 0 1 0 6.972z"/></g><g><path fill="#263238" d="M299.415 329.876c0-6.164 4.997-11.16 11.16-11.16 6.165 0 11.162 4.996 11.162 11.16s-4.997 11.16-11.161 11.16-11.16-4.996-11.16-11.16z"/></g></g><g><g><path fill="#2d5ee6" d="M234.936 296.988V152.156h6.713v144.832z"/></g><g><path fill="#2d5ee6" d="M.528 301.08v-8.22H438v8.22z"/></g><g><path fill="none" stroke="#263238" stroke-linecap="round" stroke-linejoin="round" stroke-miterlimit="20" d="M1.13 430.138h436.715"/></g><g><path fill="#2d5ee6" d="M.528 153.124v-8.22H438v8.22z"/></g></g></g></g></svg>