<svg xmlns="http://www.w3.org/2000/svg" width="64" height="65" viewBox="0 0 64 65"><g><g><g><path fill="none" stroke="#fff" stroke-linecap="round" stroke-linejoin="round" stroke-miterlimit="20" stroke-width="2" d="M1 32.333c0-17.12 13.88-31 31-31 17.12 0 31 13.88 31 31 0 17.121-13.88 31-31 31-17.12 0-31-13.879-31-31z"/></g><g><path fill="none" stroke="#fff" stroke-linecap="round" stroke-linejoin="round" stroke-miterlimit="20" stroke-width="2" d="M12.517 20.419c-1.15 3.6-.16 9.38 7.155 13.516 7.315 4.136 8.748 3.182 9.383 3.817.634.636-1.431.476-1.114-1.432.318-1.908-.953-1.636-1.908-1.692-.956-.057-1.273-1.967-.956-3.077.319-1.115-1.589 1.43-3.021-.955-1.43-2.385.95-4.444 3.021-3.816 5.25 1.59 4.431-3.221 8.587-6.36 7.793-5.884-3.656-9.223-9.54-10.177-5.881-.956-14.073 1.429-12.124 3.656 1.948 2.226.797 5.642.517 6.52z"/></g><g><path fill="none" stroke="#fff" stroke-linecap="round" stroke-linejoin="round" stroke-miterlimit="20" stroke-width="2" d="M30.805 42.521c-.477 3.658-3.976.478 0 4.135 3.974 3.657 4.928-3.972 4.451 4.296-.477 8.267-7.473 9.063-1.908 7.312 5.567-1.75 4.61-.316 8.747-4.45 4.136-4.137 4.77-6.363 6.997-9.702 2.227-3.339-1.43-2.05-3.976-4.452-2.544-2.404-6.679-7.792-10.019-4.295-3.34 3.498-4.292 7.156-4.292 7.156v0z"/></g><g><path fill="none" stroke="#fff" stroke-linecap="round" stroke-linejoin="round" stroke-miterlimit="20" stroke-width="2" d="M39.995 2.579c-.139 2.049.905 7.406 3.64 10 2.736 2.596 11.476 4.92 11.75 8.198.274 3.279 3.962 5.74 2.596 8.882-1.366 3.142-3.913 7.389-.82 9.973 3.092 2.585 3.678.737 3.678.737v0"/></g></g></g></svg>