<svg xmlns="http://www.w3.org/2000/svg" width="37" height="63" viewBox="0 0 37 63"><g><g><g><g><g><path fill="none" stroke="#fff" stroke-linecap="round" stroke-linejoin="round" stroke-miterlimit="20" stroke-width="2" d="M35.667 59.058c0 1.435-1.2 2.609-2.667 2.609H3.667C2.2 61.667 1 60.493 1 59.057V4.276C1 2.84 2.2 1.667 3.667 1.667H33c1.467 0 2.667 1.173 2.667 2.608z"/></g></g><g><path fill="none" stroke="#fff" stroke-linecap="round" stroke-linejoin="round" stroke-miterlimit="20" stroke-width="2" d="M17 6.884h2.667"/></g><g><path fill="none" stroke="#fff" stroke-linecap="round" stroke-linejoin="round" stroke-miterlimit="20" stroke-width="2" d="M15.667 53.84c0-1.44 1.194-2.608 2.666-2.608C19.806 51.232 21 52.4 21 53.84c0 1.441-1.194 2.61-2.667 2.61-1.472 0-2.666-1.169-2.666-2.61z"/></g><g><path fill="none" stroke="#fff" stroke-linecap="round" stroke-linejoin="round" stroke-miterlimit="20" stroke-width="2" d="M6.333 46.014v0-33.913 0h24v33.913z"/></g></g><g><path fill="none" stroke="#fff" stroke-linecap="round" stroke-linejoin="round" stroke-miterlimit="20" stroke-width="2" d="M11.667 6.884v0"/></g></g></g></svg>