 <svg
              width="194"
              height="176"
              viewBox="0 0 194 176"
              fill="none"
              xmlns="http://www.w3.org/2000/svg"
            >
              <path
                d="M177.139 32.021C168.37 32.021 161.219 24.8327 161.219 16.0843C161.219 7.30525 168.4 0.147461 177.139 0.147461C185.909 0.147461 193.06 7.33584 193.06 16.0843C193.06 24.8327 185.879 32.021 177.139 32.021Z"
                fill="#007C7C"
              />
              <path
                d="M178.056 28.1053H176.192C175.551 28.1053 175.031 27.5853 175.031 26.9429V5.13308C175.031 4.49071 175.551 3.9707 176.192 3.9707H178.056C178.698 3.9707 179.218 4.49071 179.218 5.13308V26.9429C179.218 27.6159 178.698 28.1053 178.056 28.1053Z"
                fill="white"
              />
              <path
                d="M166.842 22.3856L165.986 20.7339C165.711 20.1833 165.925 19.4797 166.475 19.2044L185.879 9.29362C186.429 9.01832 187.132 9.23244 187.407 9.78304L188.262 11.4348C188.537 11.9854 188.323 12.689 187.773 12.9643L168.37 22.8751C167.82 23.1504 167.117 22.9362 166.842 22.3856Z"
                fill="white"
              />
              <path
                d="M187.438 22.3856L188.293 20.7339C188.568 20.1833 188.354 19.4797 187.804 19.2044L168.401 9.29362C167.851 9.01832 167.148 9.23244 166.873 9.78304L166.017 11.4348C165.742 11.9854 165.956 12.689 166.506 12.9643L185.91 22.8751C186.46 23.1504 187.132 22.9362 187.438 22.3856Z"
                fill="white"
              />
              <path
                d="M62.5818 175.421C62.2762 175.421 62.0012 175.176 62.0012 174.84V103.445C62.0012 103.14 62.2457 102.864 62.5818 102.864C62.8874 102.864 63.1624 103.109 63.1624 103.445V174.84C63.1624 175.146 62.9179 175.421 62.5818 175.421Z"
                fill="#2D5EE6"
              />
              <path
                d="M67.2874 170.343C66.9818 170.343 66.7068 170.098 66.7068 169.762V108.492C66.7068 108.186 66.9512 107.911 67.2874 107.911C67.5929 107.911 67.8679 108.156 67.8679 108.492V169.762C67.8679 170.098 67.6235 170.343 67.2874 170.343Z"
                fill="#2D5EE6"
              />
              <path
                d="M71.9931 159.943C71.6876 159.943 71.4126 159.698 71.4126 159.362V118.893C71.4126 118.587 71.657 118.312 71.9931 118.312C72.2987 118.312 72.5737 118.556 72.5737 118.893V159.362C72.5737 159.668 72.3293 159.943 71.9931 159.943Z"
                fill="#2D5EE6"
              />
              <path
                d="M76.699 150.43C76.3934 150.43 76.1184 150.185 76.1184 149.849V128.437C76.1184 128.131 76.3629 127.855 76.699 127.855C77.0046 127.855 77.2796 128.1 77.2796 128.437V149.849C77.2796 150.155 77.0351 150.43 76.699 150.43Z"
                fill="#2D5EE6"
              />
              <path
                d="M81.4353 145.352C81.1298 145.352 80.8547 145.108 80.8547 144.771V133.453C80.8547 133.147 81.0992 132.872 81.4353 132.872C81.7409 132.872 82.0159 133.117 82.0159 133.453V144.771C81.9854 145.108 81.7409 145.352 81.4353 145.352Z"
                fill="#2D5EE6"
              />
              <path
                d="M57.8758 170.343C57.5702 170.343 57.2952 170.098 57.2952 169.762V108.492C57.2952 108.186 57.5396 107.911 57.8758 107.911C58.1813 107.911 58.4563 108.156 58.4563 108.492V169.762C58.4563 170.098 58.1813 170.343 57.8758 170.343Z"
                fill="#2D5EE6"
              />
              <path
                d="M53.1702 167.377C52.8646 167.377 52.5896 167.132 52.5896 166.795V111.46C52.5896 111.154 52.8341 110.879 53.1702 110.879C53.5063 110.879 53.7508 111.124 53.7508 111.46V166.795C53.7508 167.132 53.4758 167.377 53.1702 167.377Z"
                fill="#2D5EE6"
              />
              <path
                d="M48.4643 156.364C48.1588 156.364 47.8838 156.12 47.8838 155.783V122.472C47.8838 122.166 48.1282 121.891 48.4643 121.891C48.7699 121.891 49.0449 122.135 49.0449 122.472V155.783C49.0449 156.12 48.7699 156.364 48.4643 156.364Z"
                fill="#2D5EE6"
              />
              <path
                d="M43.7586 150.124C43.453 150.124 43.178 149.88 43.178 149.543V128.712C43.178 128.406 43.4224 128.131 43.7586 128.131C44.0641 128.131 44.3391 128.376 44.3391 128.712V149.543C44.3391 149.88 44.0641 150.124 43.7586 150.124Z"
                fill="#2D5EE6"
              />
              <path
                d="M39.053 144.771C38.7474 144.771 38.4724 144.526 38.4724 144.189V134.065C38.4724 133.759 38.7169 133.483 39.053 133.483C39.3891 133.483 39.6336 133.728 39.6336 134.065V144.189C39.603 144.526 39.3586 144.771 39.053 144.771Z"
                fill="#2D5EE6"
              />
              <path
                d="M34.3167 142.293C34.0111 142.293 33.7361 142.049 33.7361 141.712V136.573C33.7361 136.267 33.9805 135.992 34.3167 135.992C34.6222 135.992 34.8973 136.237 34.8973 136.573V141.712C34.8973 142.018 34.6528 142.293 34.3167 142.293Z"
                fill="#2D5EE6"
              />
              <path
                d="M29.6106 150.919C29.305 150.919 29.03 150.674 29.03 150.338V127.916C29.03 127.61 29.2745 127.335 29.6106 127.335C29.9162 127.335 30.1912 127.58 30.1912 127.916V150.338C30.1912 150.674 29.9467 150.919 29.6106 150.919Z"
                fill="#2D5EE6"
              />
              <path
                d="M24.905 154.437C24.5995 154.437 24.3245 154.192 24.3245 153.856V124.399C24.3245 124.093 24.5689 123.817 24.905 123.817C25.2106 123.817 25.4856 124.062 25.4856 124.399V153.856C25.4856 154.192 25.2412 154.437 24.905 154.437Z"
                fill="#2D5EE6"
              />
              <path
                d="M20.1992 161.901C19.8937 161.901 19.6187 161.656 19.6187 161.319V116.904C19.6187 116.599 19.8631 116.323 20.1992 116.323C20.5048 116.323 20.7798 116.568 20.7798 116.904V161.319C20.7798 161.656 20.5354 161.901 20.1992 161.901Z"
                fill="#2D5EE6"
              />
              <path
                d="M15.4934 162.391C15.1878 162.391 14.9128 162.146 14.9128 161.809V116.477C14.9128 116.171 15.1573 115.896 15.4934 115.896C15.799 115.896 16.074 116.14 16.074 116.477V161.809C16.074 162.115 15.799 162.391 15.4934 162.391Z"
                fill="#2D5EE6"
              />
              <path
                d="M10.7879 150.215C10.4823 150.215 10.2073 149.971 10.2073 149.634V128.589C10.2073 128.283 10.4517 128.008 10.7879 128.008C11.0934 128.008 11.3684 128.253 11.3684 128.589V149.634C11.3684 149.971 11.0934 150.215 10.7879 150.215Z"
                fill="#2D5EE6"
              />
              <path
                d="M6.08181 147.647C5.77624 147.647 5.50122 147.402 5.50122 147.066V131.159C5.50122 130.853 5.74568 130.578 6.08181 130.578C6.38738 130.578 6.6624 130.823 6.6624 131.159V147.066C6.6624 147.402 6.38738 147.647 6.08181 147.647Z"
                fill="#2D5EE6"
              />
              <path
                d="M1.37622 142.996C1.07066 142.996 0.795654 142.752 0.795654 142.415V135.869C0.795654 135.563 1.0401 135.288 1.37622 135.288C1.68179 135.288 1.95681 135.533 1.95681 135.869V142.415C1.95681 142.721 1.68179 142.996 1.37622 142.996Z"
                fill="#2D5EE6"
              />
              <path
                d="M119.081 142.293C118.776 142.293 118.501 142.049 118.501 141.712V136.573C118.501 136.267 118.745 135.992 119.081 135.992C119.387 135.992 119.662 136.237 119.662 136.573V141.712C119.662 142.018 119.417 142.293 119.081 142.293Z"
                fill="#2D5EE6"
              />
              <path
                d="M114.376 150.919C114.07 150.919 113.795 150.674 113.795 150.338V127.916C113.795 127.61 114.04 127.335 114.376 127.335C114.681 127.335 114.956 127.58 114.956 127.916V150.338C114.956 150.674 114.712 150.919 114.376 150.919Z"
                fill="#2D5EE6"
              />
              <path
                d="M109.67 154.437C109.364 154.437 109.089 154.192 109.089 153.856V124.399C109.089 124.093 109.334 123.817 109.67 123.817C109.976 123.817 110.251 124.062 110.251 124.399V153.856C110.251 154.192 110.006 154.437 109.67 154.437Z"
                fill="#2D5EE6"
              />
              <path
                d="M104.964 161.901C104.659 161.901 104.384 161.656 104.384 161.319V116.904C104.384 116.599 104.628 116.323 104.964 116.323C105.27 116.323 105.545 116.568 105.545 116.904V161.319C105.545 161.656 105.27 161.901 104.964 161.901Z"
                fill="#2D5EE6"
              />
              <path
                d="M100.259 162.391C99.953 162.391 99.678 162.146 99.678 161.809V116.477C99.678 116.171 99.9224 115.896 100.259 115.896C100.564 115.896 100.839 116.14 100.839 116.477V161.809C100.839 162.115 100.564 162.391 100.259 162.391Z"
                fill="#2D5EE6"
              />
              <path
                d="M95.5525 150.215C95.2469 150.215 94.9719 149.971 94.9719 149.634V128.589C94.9719 128.283 95.2164 128.008 95.5525 128.008C95.8581 128.008 96.1331 128.253 96.1331 128.589V149.634C96.1331 149.971 95.8581 150.215 95.5525 150.215Z"
                fill="#2D5EE6"
              />
              <path
                d="M90.8469 147.647C90.5414 147.647 90.2664 147.402 90.2664 147.066V131.159C90.2664 130.853 90.5108 130.578 90.8469 130.578C91.1525 130.578 91.4275 130.823 91.4275 131.159V147.066C91.4275 147.402 91.1525 147.647 90.8469 147.647Z"
                fill="#2D5EE6"
              />
              <path
                d="M86.1409 142.996C85.8353 142.996 85.5603 142.752 85.5603 142.415V135.869C85.5603 135.563 85.8048 135.288 86.1409 135.288C86.4465 135.288 86.7215 135.533 86.7215 135.869V142.415C86.6909 142.721 86.4465 142.996 86.1409 142.996Z"
                fill="#2D5EE6"
              />
            </svg>